<?xml version="1.0" encoding="utf-8"?>
<!-- Generator: Adobe Illustrator 22.1.0, SVG Export Plug-In . SVG Version: 6.00 Build 0)  -->
<svg version="1.1" id="_0F" xmlns="http://www.w3.org/2000/svg" xmlns:xlink="http://www.w3.org/1999/xlink" x="0px" y="0px"
	 viewBox="0 0 338.8 260.8" style="enable-background:new 0 0 338.8 260.8;" xml:space="preserve">
<style type="text/css">
	.st0{fill:#F7F6F5;stroke:#002355;stroke-width:0.5;stroke-miterlimit:10;}
	.st1{fill:none;stroke:#A0A0A0;stroke-width:0.5;stroke-miterlimit:10;}
	.st2{fill:#FFFFFF;stroke:#002355;stroke-width:0.5;stroke-miterlimit:10;}
	.st3{fill:#CCF5FF;stroke:#002355;stroke-width:0.5;stroke-miterlimit:10;}
	.st4{fill:#EAE1CF;stroke:#002355;stroke-width:0.5;stroke-miterlimit:10;}
	.st5{fill:none;stroke:#002355;stroke-width:0.5;stroke-miterlimit:10;}
	.st6{fill:#FAFDFF;stroke:#002355;stroke-width:0.5;stroke-miterlimit:10;}
	.st7{fill:#686868;}
	.st8{fill:#0A0A0A;}
	.st9{font-family:'HiraginoSans-W5-83pv-RKSJ-H';}
	.st10{font-size:6px;}
	.st11{fill:#CCF5FF;stroke:#000000;stroke-width:0.25;stroke-miterlimit:10;}
	.st12{stroke:#002355;stroke-width:0.25;stroke-miterlimit:10;}
	.st13{font-size:5px;}
</style>
<g id="_地-10">
	<g>
		<path class="st0" d="M192.2,5.7V13h-19.8l0-7.4h-38.1v0H24.3v65h110V243h69.3v-13.6h26.7V5.7H192.2z M191.9,167.8h-19.1V92.2h19.1
			V167.8z"/>
		<g>
			<line class="st1" x1="191.8" y1="92.2" x2="172.8" y2="167.8"/>
			<line class="st1" x1="172.8" y1="92.2" x2="191.8" y2="167.8"/>
		</g>
	</g>
</g>
<rect x="203.5" y="92.1" class="st2" width="26.8" height="91.1"/>
<rect x="134.3" y="5.7" class="st3" width="38.3" height="26.8"/>
<rect x="134.3" y="56.8" class="st4" width="26.6" height="13.9"/>
<rect x="203.5" y="5.7" class="st2" width="26.8" height="65"/>
<rect x="172.4" y="43.9" class="st4" width="19.8" height="26.8"/>
<rect x="203.5" y="202.1" class="st2" width="26.8" height="27.4"/>
<rect x="134.3" y="92.1" class="st2" width="26.8" height="150.9"/>
<line class="st5" x1="203.3" y1="41.1" x2="230.5" y2="41.1"/>
<rect x="172.4" y="180.2" class="st6" width="19.8" height="17.3"/>
<rect x="172.4" y="197.7" class="st4" width="19.8" height="19"/>
<line class="st5" x1="134.2" y1="122.3" x2="161.2" y2="122.3"/>
<line class="st5" x1="134.2" y1="137.4" x2="161.2" y2="137.4"/>
<line class="st5" x1="134.2" y1="214.2" x2="161.2" y2="214.2"/>
<line class="st5" x1="179.3" y1="216.7" x2="179.3" y2="197.6"/>
<line class="st5" x1="134.2" y1="180.2" x2="161.2" y2="180.2"/>
<line class="st5" x1="160.9" y1="56.7" x2="160.9" y2="44"/>
<rect x="24.2" y="54" class="st6" width="20.9" height="16.7"/>
<rect x="74.9" y="5.7" class="st3" width="29.7" height="26.8"/>
<rect x="104.5" y="5.7" class="st3" width="29.7" height="26.8"/>
<rect x="45.3" y="5.7" class="st2" width="29.7" height="26.8"/>
<rect x="45.2" y="43.9" class="st2" width="89" height="26.8"/>
<path class="st5" d="M103.9,61.5"/>
<path class="st5" d="M103.9,44.1"/>
<path class="st5" d="M103.9,70.8"/>
<line class="st5" x1="86.9" y1="43.9" x2="86.9" y2="70.9"/>
<g id="_クトグラム-10">
	<g>
		<g>
			<path class="st7" d="M33.6,62c0,0.3-0.3,0.6-0.6,0.6s-0.6-0.2-0.6-0.6s0.3-0.6,0.6-0.6S33.6,61.7,33.6,62z"/>
			<path class="st7" d="M33,62.6c-0.4,0-1.3,0-1.3,0.8v1.8c0,0.1,0.1,0.2,0.2,0.2c0.1,0,0.2-0.1,0.2-0.2l0.1-1.1l0.1,4.1
				c0,0.2,0.1,0.3,0.3,0.3s0.3-0.1,0.3-0.3l0.1-2.5l0.1,2.5c0,0.2,0.1,0.3,0.3,0.3s0.3-0.1,0.3-0.3l0.1-4.1l0.1,1.1
				c0,0.1,0.1,0.2,0.2,0.2c0.1,0,0.2-0.1,0.2-0.2v-1.8C34.3,62.7,33.4,62.6,33,62.6L33,62.6z"/>
		</g>
		<g>
			<path class="st7" d="M37,62c0,0.3-0.3,0.6-0.6,0.6s-0.6-0.2-0.6-0.6s0.3-0.6,0.6-0.6S37,61.7,37,62z"/>
			<path class="st7" d="M36.5,62.6c-0.4,0-1.3,0-1.3,0.8v1.8c0,0.1,0.1,0.2,0.2,0.2c0.1,0,0.2-0.1,0.2-0.2l0.1-1.1l0.1,4.1
				c0,0.2,0.1,0.3,0.3,0.3s0.3-0.1,0.3-0.3l0.1-2.5l0.1,2.5c0,0.2,0.1,0.3,0.3,0.3s0.3-0.1,0.3-0.3l0.1-4.1l0.1,1.1
				c0,0.1,0.1,0.2,0.2,0.2c0.1,0,0.2-0.1,0.2-0.2v-1.8C37.8,62.7,36.9,62.6,36.5,62.6L36.5,62.6z"/>
		</g>
		<path class="st7" d="M38.4,68.9H31c-0.6,0-1-0.5-1-1v-7.7c0-0.6,0.5-1,1-1h7.4c0.6,0,1,0.5,1,1v7.7C39.5,68.5,39,68.9,38.4,68.9z
			 M31,59.8c-0.2,0-0.4,0.2-0.4,0.4v7.7c0,0.2,0.2,0.4,0.4,0.4h7.4c0.2,0,0.4-0.2,0.4-0.4v-7.7c0-0.2-0.2-0.4-0.4-0.4
			C38.4,59.8,31,59.8,31,59.8z"/>
		<path class="st7" d="M38.1,57.2l-1.3-1.2l0,0l-0.2-0.2l-0.2,0.2l0,0l-1.3,1.2c-0.1,0.1-0.1,0.3,0,0.4s0.3,0.1,0.4,0l0.8-0.8v1.7
			c0,0.2,0.1,0.3,0.3,0.3s0.3-0.1,0.3-0.3v-1.7l0.8,0.8c0.1,0.1,0.1,0.1,0.2,0.1s0.1,0,0.2-0.1C38.2,57.4,38.2,57.3,38.1,57.2
			L38.1,57.2z"/>
		<path class="st7" d="M34.5,57.1c-0.1-0.1-0.3-0.1-0.4,0l-0.8,0.8v-1.7c0-0.2-0.1-0.3-0.3-0.3s-0.3,0.1-0.3,0.3v1.7l-0.8-0.8
			c-0.1-0.1-0.3-0.1-0.4,0s-0.1,0.3,0,0.4l1.3,1.2l0,0l0.2,0.2l0.2-0.2l0,0l1.3-1.2C34.6,57.4,34.6,57.2,34.5,57.1L34.5,57.1z"/>
	</g>
	<g>
		<g>
			<path class="st7" d="M181.1,188.5c0,0.3-0.3,0.6-0.6,0.6s-0.6-0.2-0.6-0.6s0.3-0.6,0.6-0.6S181.1,188.1,181.1,188.5z"/>
			<path class="st7" d="M180.6,189.1c-0.4,0-1.3,0-1.3,0.8v1.8c0,0.1,0.1,0.2,0.2,0.2c0.1,0,0.2-0.1,0.2-0.2l0.1-1.1l0.1,4.1
				c0,0.2,0.1,0.3,0.3,0.3s0.3-0.1,0.3-0.3l0.1-2.5l0.1,2.5c0,0.2,0.1,0.3,0.3,0.3s0.3-0.1,0.3-0.3l0.1-4.1l0.1,1.1
				c0,0.1,0.1,0.2,0.2,0.2c0.1,0,0.2-0.1,0.2-0.2v-1.8C181.9,189.2,181,189.1,180.6,189.1z"/>
		</g>
		<g>
			<path class="st7" d="M184.6,188.5c0,0.3-0.3,0.6-0.6,0.6s-0.6-0.2-0.6-0.6s0.3-0.6,0.6-0.6S184.6,188.1,184.6,188.5z"/>
			<path class="st7" d="M184,189.1c-0.4,0-1.3,0-1.3,0.8v1.8c0,0.1,0.1,0.2,0.2,0.2c0.1,0,0.2-0.1,0.2-0.2l0.1-1.1l0.1,4.1
				c0,0.2,0.1,0.3,0.3,0.3s0.3-0.1,0.3-0.3l0.1-2.5l0.1,2.5c0,0.2,0.1,0.3,0.3,0.3s0.3-0.1,0.3-0.3l0.1-4.1l0.1,1.1
				c0,0.1,0.1,0.2,0.2,0.2c0.1,0,0.2-0.1,0.2-0.2v-1.8C185.4,189.2,184.4,189.1,184,189.1z"/>
		</g>
		<path class="st7" d="M186,195.4h-7.4c-0.6,0-1-0.5-1-1v-7.7c0-0.6,0.5-1,1-1h7.4c0.6,0,1,0.5,1,1v7.7
			C187,195,186.6,195.4,186,195.4z M178.6,186.3c-0.2,0-0.4,0.2-0.4,0.4v7.7c0,0.2,0.2,0.4,0.4,0.4h7.4c0.2,0,0.4-0.2,0.4-0.4v-7.7
			c0-0.2-0.2-0.4-0.4-0.4H178.6z"/>
		<path class="st7" d="M185.6,183.7l-1.3-1.2l0,0l-0.2-0.2l-0.2,0.2l0,0l-1.3,1.2c-0.1,0.1-0.1,0.3,0,0.4s0.3,0.1,0.4,0l0.8-0.8v1.7
			c0,0.2,0.1,0.3,0.3,0.3s0.3-0.1,0.3-0.3v-1.7l0.8,0.8c0.1,0.1,0.1,0.1,0.2,0.1s0.1,0,0.2-0.1C185.7,183.9,185.7,183.8,185.6,183.7
			L185.6,183.7z"/>
		<path class="st7" d="M182,183.6c-0.1-0.1-0.3-0.1-0.4,0l-0.8,0.8v-1.7c0-0.2-0.1-0.3-0.3-0.3s-0.3,0.1-0.3,0.3v1.7l-0.8-0.8
			c-0.1-0.1-0.3-0.1-0.4,0s-0.1,0.3,0,0.4l1.3,1.2l0,0l0.2,0.2l0.2-0.2l0,0l1.3-1.2C182.1,183.9,182.1,183.7,182,183.6L182,183.6z"
			/>
	</g>
	
		<image style="overflow:visible;enable-background:new    ;" width="230" height="230" xlink:href="A78E6E667C6C1302.png"  transform="matrix(4.600000e-02 0 0 4.600000e-02 176.813 58.513)">
	</image>
	<g transform="translate(176.813 45.554) scale(.046)">
		
			<image style="overflow:visible;enable-background:new    ;" width="230" height="230" id="image" xlink:href="A78E6E667C6C1306.png"  transform="matrix(4.600000e-02 0 0 4.600000e-02 176.813 45.554)">
		</image>
	</g>
	
		<image style="overflow:visible;enable-background:new    ;" width="230" height="230" xlink:href="A78E6E667C6C1301.png"  transform="matrix(4.600000e-02 0 0 4.600000e-02 142.42 45.2)">
	</image>
	<g transform="translate(180.448 201.956) scale(.046)">
		
			<image style="overflow:visible;enable-background:new    ;" width="230" height="230" id="image_2_" xlink:href="A78E6E667C6C1303.png"  transform="matrix(4.600000e-02 0 0 4.600000e-02 180.448 201.956)">
		</image>
	</g>
	<g transform="translate(140.67 74.486) scale(.061)">
		
			<image style="overflow:visible;enable-background:new    ;" width="231" height="231" id="image-2" xlink:href="A78E6E667C6C1300.png"  transform="matrix(6.100000e-02 0 0 6.100000e-02 140.67 74.486)">
		</image>
	</g>
	<g transform="translate(209.92 74.486) scale(.061)">
		
			<image style="overflow:visible;enable-background:new    ;" width="231" height="231" id="image-2_2_" xlink:href="A78E6E667C6C130E.png"  transform="matrix(6.100000e-02 0 0 6.100000e-02 209.92 74.486)">
		</image>
	</g>
	<g transform="translate(209.92 185.312) scale(.061)">
		
			<image style="overflow:visible;enable-background:new    ;" width="231" height="231" id="image-2_3_" xlink:href="A78E6E667C6C1305.png"  transform="matrix(6.100000e-02 0 0 6.100000e-02 209.92 185.312)">
		</image>
	</g>
	<g transform="translate(27.72 12.208) scale(.061)">
		
			<image style="overflow:visible;enable-background:new    ;" width="231" height="231" id="image-2_4_" xlink:href="A78E6E667C6C1307.png"  transform="matrix(6.100000e-02 0 0 6.100000e-02 27.72 12.208)">
		</image>
	</g>
	
		<image style="overflow:visible;enable-background:new    ;" width="230" height="230" xlink:href="A78E6E667C6C1304.png"  transform="matrix(4.600000e-02 0 0 4.600000e-02 185.821 155.881)">
	</image>
</g>
<text transform="matrix(1 0 0 1 54.407 18.342)" class="st8 st9 st10">電</text>
<text transform="matrix(1 0 0 1 60.269 18.342)" class="st8 st9 st10">力</text>
<text transform="matrix(1 0 0 1 51.413 25.542)" class="st8 st9 st10">実</text>
<text transform="matrix(1 0 0 1 57.245 25.542)" class="st8 st9 st10">習</text>
<text transform="matrix(1 0 0 1 63.101 25.542)" class="st8 st9 st10">室</text>
<g>
	<path class="st8" d="M87.3,19.9h-2.2v2.1h2.5v0.6h-3.2v-5.7h3.1v0.6h-2.4v1.8h2.2V19.9L87.3,19.9z"/>
	<path class="st8" d="M88.5,21.7c0.2,0.1,0.7,0.3,1.2,0.3c1,0,1.3-0.6,1.2-1.1c0-0.8-0.7-1.1-1.4-1.1h-0.4v-0.6h0.4
		c0.5,0,1.2-0.3,1.2-0.9c0-0.4-0.3-0.8-1-0.8c-0.4,0-0.9,0.2-1.1,0.4l-0.2-0.5c0.3-0.2,0.9-0.4,1.4-0.4c1.1,0,1.6,0.6,1.6,1.3
		c0,0.6-0.3,1.1-1,1.3v0c0.7,0.1,1.2,0.6,1.2,1.4c0,0.9-0.7,1.7-2,1.7c-0.6,0-1.2-0.2-1.4-0.4L88.5,21.7L88.5,21.7z"/>
	<path class="st8" d="M92.8,21.7c0.2,0.1,0.7,0.3,1.2,0.3c1,0,1.3-0.6,1.2-1.1c0-0.8-0.7-1.1-1.4-1.1h-0.4v-0.6h0.4
		c0.5,0,1.2-0.3,1.2-0.9c0-0.4-0.3-0.8-1-0.8c-0.4,0-0.9,0.2-1.1,0.4l-0.2-0.5c0.3-0.2,0.9-0.4,1.4-0.4c1.1,0,1.6,0.6,1.6,1.3
		c0,0.6-0.3,1.1-1,1.3v0c0.7,0.1,1.2,0.6,1.2,1.4c0,0.9-0.7,1.7-2,1.7c-0.6,0-1.2-0.2-1.4-0.4L92.8,21.7L92.8,21.7z"/>
</g>
<g>
	<path class="st8" d="M116.5,19.9h-2.2v2.1h2.5v0.6h-3.2v-5.7h3.1v0.6h-2.4v1.8h2.2V19.9L116.5,19.9z"/>
	<path class="st8" d="M117.6,21.7c0.2,0.1,0.7,0.3,1.2,0.3c1,0,1.3-0.6,1.2-1.1c0-0.8-0.7-1.1-1.4-1.1h-0.4v-0.6h0.4
		c0.5,0,1.2-0.3,1.2-0.9c0-0.4-0.3-0.8-1-0.8c-0.4,0-0.9,0.2-1.1,0.4l-0.2-0.5c0.3-0.2,0.9-0.4,1.4-0.4c1.1,0,1.6,0.6,1.6,1.3
		c0,0.6-0.3,1.1-1,1.3v0c0.7,0.1,1.2,0.6,1.2,1.4c0,0.9-0.7,1.7-2,1.7c-0.6,0-1.2-0.2-1.4-0.4L117.6,21.7L117.6,21.7z"/>
	<path class="st8" d="M121.8,22.6v-0.5l0.6-0.6c1.4-1.3,2.1-2.1,2.1-2.9c0-0.6-0.3-1.1-1.1-1.1c-0.5,0-0.9,0.3-1.2,0.5l-0.2-0.5
		c0.4-0.3,0.9-0.6,1.6-0.6c1.2,0,1.7,0.8,1.7,1.6c0,1-0.7,1.9-1.9,3l-0.4,0.4v0h2.5v0.6L121.8,22.6L121.8,22.6z"/>
</g>
<g>
	<path class="st8" d="M150.7,19.9h-2.2v2.1h2.5v0.6h-3.2v-5.7h3.1v0.6h-2.4v1.8h2.2L150.7,19.9L150.7,19.9z"/>
	<path class="st8" d="M151.8,21.7c0.2,0.1,0.7,0.3,1.2,0.3c1,0,1.3-0.6,1.2-1.1c0-0.8-0.7-1.1-1.4-1.1h-0.4v-0.6h0.4
		c0.5,0,1.2-0.3,1.2-0.9c0-0.4-0.3-0.8-1-0.8c-0.4,0-0.9,0.2-1.1,0.4l-0.2-0.5c0.3-0.2,0.9-0.4,1.4-0.4c1.1,0,1.6,0.6,1.6,1.3
		c0,0.6-0.3,1.1-1,1.3v0c0.7,0.1,1.2,0.6,1.2,1.4c0,0.9-0.7,1.7-2,1.7c-0.6,0-1.2-0.2-1.4-0.4L151.8,21.7L151.8,21.7z"/>
	<path class="st8" d="M157.6,17.7L157.6,17.7l-1,0.5l-0.1-0.6l1.2-0.6h0.6v5.5h-0.7L157.6,17.7L157.6,17.7z"/>
</g>
<text transform="matrix(1 0 0 1 54.43 55.994)" class="st8 st9 st10">電気機器</text>
<text transform="matrix(1 0 0 1 57.586 63.194)" class="st8 st9 st10">実</text>
<text transform="matrix(1 0 0 1 63.418 63.194)" class="st8 st9 st10">習</text>
<text transform="matrix(1 0 0 1 69.275 63.194)" class="st8 st9 st10">室</text>
<text transform="matrix(1 0 0 1 210.962 23.679)" class="st8 st9 st10">計測</text>
<text transform="matrix(1 0 0 1 208.118 30.879)" class="st8 st9 st10">実</text>
<text transform="matrix(1 0 0 1 213.95 30.879)" class="st8 st9 st10">習</text>
<text transform="matrix(1 0 0 1 219.807 30.879)" class="st8 st9 st10">室</text>
<text transform="matrix(1 0 0 1 207.915 55.09)" class="st8 st9 st10">高</text>
<text transform="matrix(1 0 0 1 213.831 55.09)" class="st8 st9 st10">周</text>
<text transform="matrix(1 0 0 1 219.759 55.09)" class="st8 st9 st10">波</text>
<text transform="matrix(1 0 0 1 208.521 62.29)" class="st8 st9 st10">(倉庫)</text>
<text transform="matrix(1 0 0 1 135.602 107.405)" class="st8 st9 st10">電子工作</text>
<text transform="matrix(1 0 0 1 138.758 114.605)" class="st8 st9 st10">実</text>
<text transform="matrix(1 0 0 1 144.59 114.605)" class="st8 st9 st10">習</text>
<text transform="matrix(1 0 0 1 150.447 114.605)" class="st8 st9 st10">室</text>
<text transform="matrix(1 0 0 1 135.602 158.234)" class="st8 st9 st10">電気工作</text>
<text transform="matrix(1 0 0 1 138.758 165.434)" class="st8 st9 st10">実</text>
<text transform="matrix(1 0 0 1 144.59 165.434)" class="st8 st9 st10">習</text>
<text transform="matrix(1 0 0 1 150.447 165.434)" class="st8 st9 st10">室</text>
<text transform="matrix(1 0 0 1 135.668 196.72)" class="st8 st9 st10">無線通信</text>
<text transform="matrix(1 0 0 1 138.824 203.92)" class="st8 st9 st10">実</text>
<text transform="matrix(1 0 0 1 144.656 203.92)" class="st8 st9 st10">習</text>
<text transform="matrix(1 0 0 1 150.513 203.92)" class="st8 st9 st10">室</text>
<text transform="matrix(1 0 0 1 210.973 210.812)" class="st8 st9 st10">電子</text>
<text transform="matrix(1 0 0 1 204.973 218.012)" class="st8 st9 st10">機械工作</text>
<text transform="matrix(1 0 0 1 208.129 225.212)" class="st8 st9 st10">実</text>
<text transform="matrix(1 0 0 1 213.961 225.212)" class="st8 st9 st10">習</text>
<text transform="matrix(1 0 0 1 219.818 225.212)" class="st8 st9 st10">室</text>
<text transform="matrix(1 0 0 1 207.949 131.652)" class="st8 st9 st10">電気科</text>
<text transform="matrix(1 0 0 1 208.048 138.852)" class="st8 st9 st10">職員</text>
<text transform="matrix(1 0 0 1 219.849 138.852)" class="st8 st9 st10">室</text>
<text transform="matrix(1 0 0 1 135.676 131.787)" class="st8 st9 st10">材料倉庫</text>
<g>
	<path d="M257.2,76.3L257.2,76.3l-3.8,1.8l-0.8-3.6l5.3-2.4h3.9v19.5h-4.6L257.2,76.3L257.2,76.3z"/>
	<path d="M279.8,81.8c0,5.9-2.4,10.1-7.5,10.1c-5.2,0-7.4-4.6-7.4-10c0-5.6,2.3-10.1,7.5-10.1C277.7,71.8,279.8,76.5,279.8,81.8
		L279.8,81.8z M269.7,81.9c0,4.4,1,6.5,2.7,6.5s2.6-2.1,2.6-6.5c0-4.3-0.9-6.4-2.6-6.4C270.7,75.4,269.7,77.4,269.7,81.9L269.7,81.9
		z"/>
	<path d="M283.8,78.1h8.3v2.6H287v2.9h4.8v2.6H287v5.3h-3.2L283.8,78.1L283.8,78.1z"/>
</g>
<rect x="134.3" y="214.2" class="st11" width="26.8" height="28.8"/>
<text transform="matrix(1 0 0 1 135.6758 227.1683)"><tspan x="0" y="0" class="st12 st9 st13">アマチュア</tspan><tspan x="0" y="6" class="st12 st9 st13">無線部</tspan></text>
<rect x="86.9" y="43.9" class="st11" width="47.3" height="26.8"/>
<text transform="matrix(1 0 0 1 94.3568 55.09)"><tspan x="0" y="0" class="st12 st9 st10">ワンダー</tspan><tspan x="0" y="7.2" class="st12 st9 st10">フォーゲル部</tspan></text>
</svg>
