<?xml version="1.0" encoding="utf-8"?>
<!-- Generator: Adobe Illustrator 22.1.0, SVG Export Plug-In . SVG Version: 6.00 Build 0)  -->
<svg version="1.1" id="_0F" xmlns="http://www.w3.org/2000/svg" xmlns:xlink="http://www.w3.org/1999/xlink" x="0px" y="0px"
	 viewBox="0 0 338.8 260.8" style="enable-background:new 0 0 338.8 260.8;" xml:space="preserve">
<style type="text/css">
	.st0{fill:#F7F6F5;stroke:#002355;stroke-width:0.5;stroke-miterlimit:10;}
	.st1{fill:none;stroke:#A0A0A0;stroke-width:0.5;stroke-miterlimit:10;}
	.st2{fill:#FFFFFF;stroke:#002355;stroke-width:0.5;stroke-miterlimit:10;}
	.st3{fill:#CCF5FF;stroke:#002355;stroke-width:0.5;stroke-miterlimit:10;}
	.st4{fill:#EAE1CF;stroke:#002355;stroke-width:0.5;stroke-miterlimit:10;}
	.st5{fill:none;stroke:#002355;stroke-width:0.5;stroke-miterlimit:10;}
	.st6{fill:#FAFDFF;stroke:#002355;stroke-width:0.5;stroke-miterlimit:10;}
	.st7{fill:#0A0A0A;}
	.st8{font-family:'HiraginoSans-W5-83pv-RKSJ-H';}
	.st9{font-size:6px;}
	.st10{fill:#CCF5FF;stroke:#000000;stroke-width:0.25;stroke-miterlimit:10;}
	.st11{font-size:5px;}
	.st12{fill:#333333;}
	.st13{font-family:'KozGoPr6N-Medium-83pv-RKSJ-H';}
</style>
<g id="_地-10">
	<g>
		<path class="st0" d="M192.2,5.7V13h-19.8V5.6h-38.1l0,0h-110v65h110V243h69.3v-13.6h26.7V5.7H192.2z M191.9,167.8h-19.1V92.2h19.1
			V167.8z"/>
		<g>
			<line class="st1" x1="191.8" y1="92.2" x2="172.8" y2="167.8"/>
			<line class="st1" x1="172.8" y1="92.2" x2="191.8" y2="167.8"/>
		</g>
	</g>
</g>
<rect x="203.5" y="92.1" class="st2" width="26.8" height="91.1"/>
<rect x="134.3" y="5.7" class="st3" width="38.3" height="26.8"/>
<rect x="134.3" y="56.8" class="st4" width="26.6" height="13.9"/>
<rect x="203.5" y="5.7" class="st2" width="26.8" height="65"/>
<rect x="172.4" y="43.9" class="st4" width="19.8" height="26.8"/>
<rect x="203.5" y="202.1" class="st2" width="26.8" height="27.4"/>
<rect x="134.3" y="92.1" class="st2" width="26.8" height="150.9"/>
<line class="st5" x1="203.3" y1="41.1" x2="230.5" y2="41.1"/>
<rect x="172.4" y="180.2" class="st6" width="19.8" height="17.3"/>
<rect x="172.4" y="197.7" class="st4" width="19.8" height="19"/>
<line class="st5" x1="134.2" y1="122.3" x2="161.2" y2="122.3"/>
<line class="st5" x1="134.2" y1="137.4" x2="161.2" y2="137.4"/>
<line class="st5" x1="134.2" y1="214.2" x2="161.2" y2="214.2"/>
<line class="st5" x1="179.3" y1="216.7" x2="179.3" y2="197.6"/>
<line class="st5" x1="134.2" y1="180.2" x2="161.2" y2="180.2"/>
<line class="st5" x1="160.9" y1="56.7" x2="160.9" y2="44"/>
<rect x="24.2" y="54" class="st6" width="20.9" height="16.7"/>
<rect x="74.9" y="5.7" class="st3" width="29.7" height="26.8"/>
<rect x="104.5" y="5.7" class="st3" width="29.7" height="26.8"/>
<rect x="45.3" y="5.7" class="st2" width="29.7" height="26.8"/>
<rect x="45.2" y="43.9" class="st2" width="89" height="26.8"/>
<path class="st5" d="M103.9,61.5"/>
<path class="st5" d="M103.9,44.1"/>
<path class="st5" d="M103.9,70.8"/>
<line class="st5" x1="86.9" y1="43.9" x2="86.9" y2="70.9"/>
<text transform="matrix(1 0 0 1 54.407 18.342)" class="st7 st8 st9">電</text>
<text transform="matrix(1 0 0 1 60.269 18.342)" class="st7 st8 st9">力</text>
<text transform="matrix(1 0 0 1 51.413 25.542)" class="st7 st8 st9">実</text>
<text transform="matrix(1 0 0 1 57.245 25.542)" class="st7 st8 st9">習</text>
<text transform="matrix(1 0 0 1 63.101 25.542)" class="st7 st8 st9">室</text>
<text transform="matrix(1 0 0 1 54.43 55.994)" class="st7 st8 st9">電気機器</text>
<text transform="matrix(1 0 0 1 57.586 63.194)" class="st7 st8 st9">実</text>
<text transform="matrix(1 0 0 1 63.418 63.194)" class="st7 st8 st9">習</text>
<text transform="matrix(1 0 0 1 69.275 63.194)" class="st7 st8 st9">室</text>
<text transform="matrix(1 0 0 1 210.962 23.679)" class="st7 st8 st9">計測</text>
<text transform="matrix(1 0 0 1 208.118 30.879)" class="st7 st8 st9">実</text>
<text transform="matrix(1 0 0 1 213.95 30.879)" class="st7 st8 st9">習</text>
<text transform="matrix(1 0 0 1 219.807 30.879)" class="st7 st8 st9">室</text>
<text transform="matrix(1 0 0 1 207.915 55.09)" class="st7 st8 st9">高</text>
<text transform="matrix(1 0 0 1 213.831 55.09)" class="st7 st8 st9">周</text>
<text transform="matrix(1 0 0 1 219.759 55.09)" class="st7 st8 st9">波</text>
<text transform="matrix(1 0 0 1 208.521 62.29)" class="st7 st8 st9">(倉庫)</text>
<text transform="matrix(1 0 0 1 135.602 107.405)" class="st7 st8 st9">電子工作</text>
<text transform="matrix(1 0 0 1 138.758 114.605)" class="st7 st8 st9">実</text>
<text transform="matrix(1 0 0 1 144.59 114.605)" class="st7 st8 st9">習</text>
<text transform="matrix(1 0 0 1 150.447 114.605)" class="st7 st8 st9">室</text>
<text transform="matrix(1 0 0 1 135.602 158.234)" class="st7 st8 st9">電気工作</text>
<text transform="matrix(1 0 0 1 138.758 165.434)" class="st7 st8 st9">実</text>
<text transform="matrix(1 0 0 1 144.59 165.434)" class="st7 st8 st9">習</text>
<text transform="matrix(1 0 0 1 150.447 165.434)" class="st7 st8 st9">室</text>
<text transform="matrix(1 0 0 1 135.668 196.72)" class="st7 st8 st9">無線通信</text>
<text transform="matrix(1 0 0 1 138.824 203.92)" class="st7 st8 st9">実</text>
<text transform="matrix(1 0 0 1 144.656 203.92)" class="st7 st8 st9">習</text>
<text transform="matrix(1 0 0 1 150.513 203.92)" class="st7 st8 st9">室</text>
<text transform="matrix(1 0 0 1 210.973 210.812)" class="st7 st8 st9">電子</text>
<text transform="matrix(1 0 0 1 204.973 218.012)" class="st7 st8 st9">機械工作</text>
<text transform="matrix(1 0 0 1 208.129 225.212)" class="st7 st8 st9">実</text>
<text transform="matrix(1 0 0 1 213.961 225.212)" class="st7 st8 st9">習</text>
<text transform="matrix(1 0 0 1 219.818 225.212)" class="st7 st8 st9">室</text>
<text transform="matrix(1 0 0 1 207.949 131.652)" class="st7 st8 st9">電気科</text>
<text transform="matrix(1 0 0 1 208.048 138.852)" class="st7 st8 st9">職員</text>
<text transform="matrix(1 0 0 1 219.849 138.852)" class="st7 st8 st9">室</text>
<text transform="matrix(1 0 0 1 135.676 131.787)" class="st7 st8 st9">材料倉庫</text>
<g>
	<path d="M257.2,76.3L257.2,76.3l-3.8,1.8l-0.8-3.6l5.3-2.4h3.9v19.5h-4.6L257.2,76.3L257.2,76.3z"/>
	<path d="M279.8,81.8c0,5.9-2.4,10.1-7.5,10.1c-5.2,0-7.4-4.6-7.4-10c0-5.6,2.3-10.1,7.5-10.1C277.7,71.8,279.8,76.5,279.8,81.8
		L279.8,81.8z M269.7,81.9c0,4.4,1,6.5,2.7,6.5s2.6-2.1,2.6-6.5c0-4.3-0.9-6.4-2.6-6.4C270.7,75.4,269.7,77.4,269.7,81.9L269.7,81.9
		z"/>
	<path d="M283.8,78.1h8.3v2.6H287v2.9h4.8v2.6H287v5.3h-3.2V78.1L283.8,78.1z"/>
</g>
<rect x="134.3" y="214.2" class="st10" width="26.8" height="28.8"/>
<text transform="matrix(1 0 0 1 136.6758 228.2705)" class="st7 st8 st11">アマチュア</text>
<text transform="matrix(1 0 0 1 136.6758 228.2705)" class="st7 st8 st11">アマチュア</text>
<text transform="matrix(1 0 0 1 136.6758 234.2705)" class="st7 st8 st11">無線部</text>
<text transform="matrix(1 0 0 1 136.6758 234.2705)" class="st7 st8 st11">無線部</text>
<rect x="86.9" y="43.9" class="st10" width="47.3" height="26.8"/>
<text transform="matrix(1 0 0 1 94.3568 56.0722)" class="st7 st8 st9">ワンダー</text>
<text transform="matrix(1 0 0 1 94.3568 56.0722)" class="st7 st8 st9">ワンダー</text>
<text transform="matrix(1 0 0 1 94.3568 63.2722)" class="st7 st8 st9">フォーゲル部</text>
<text transform="matrix(1 0 0 1 94.3568 63.2722)" class="st7 st8 st9">フォーゲル部</text>
<g>
	<g>
		<path class="st12" d="M185.9,186.9h-8.1c-0.3,0-0.5,0.2-0.5,0.5v8.2c0,0.3,0.2,0.5,0.5,0.5h8.1c0.3,0,0.5-0.2,0.5-0.5v-8.2
			C186.4,187.1,186.1,186.9,185.9,186.9z M180.2,191.4l-0.1,3.3c0,0.3-0.3,0.5-0.6,0.5h-0.2c-0.3,0-0.6-0.2-0.6-0.5l-0.1-3.3
			c0-0.3,0.2-0.5,0.5-0.5h0.5C179.9,190.8,180.2,191.1,180.2,191.4z M179.4,190.5c-0.5,0-0.8-0.4-0.8-0.8s0.4-0.8,0.8-0.8
			c0.5,0,0.8,0.4,0.8,0.8S179.8,190.5,179.4,190.5z M182.6,191.4l-0.1,3.3c0,0.3-0.3,0.5-0.6,0.5h-0.2c-0.3,0-0.6-0.2-0.6-0.5
			l-0.1-3.3c0-0.3,0.2-0.5,0.5-0.5h0.5C182.4,190.8,182.6,191.1,182.6,191.4z M181.8,190.5c-0.5,0-0.8-0.4-0.8-0.8s0.4-0.8,0.8-0.8
			c0.5,0,0.8,0.4,0.8,0.8S182.3,190.5,181.8,190.5z M185.1,191.4l-0.1,3.3c0,0.3-0.3,0.5-0.6,0.5h-0.2c-0.3,0-0.6-0.2-0.6-0.5
			l-0.1-3.3c0-0.3,0.2-0.5,0.5-0.5h0.5C184.9,190.8,185.1,191.1,185.1,191.4z M184.3,190.5c-0.5,0-0.8-0.4-0.8-0.8s0.4-0.8,0.8-0.8
			c0.5,0,0.8,0.4,0.8,0.8S184.8,190.5,184.3,190.5z"/>
		<g>
			<polygon class="st12" points="179.4,186.1 179.4,183.9 178.7,184.5 178.1,183.8 179.8,182.1 179.9,182.2 181.6,183.8 
				180.9,184.5 180.3,183.9 180.3,186.1 			"/>
			<polygon class="st12" points="183.8,186 182.1,184.4 182.7,183.7 183.4,184.3 183.4,182.1 184.3,182.1 184.3,184.3 184.9,183.7 
				185.6,184.4 183.8,186.1 			"/>
		</g>
	</g>
	<g>
		<path class="st12" d="M38.7,59.9h-8.1c-0.3,0-0.5,0.2-0.5,0.5v8.2c0,0.3,0.2,0.5,0.5,0.5h8.1c0.3,0,0.5-0.2,0.5-0.5v-8.2
			C39.2,60.1,39,59.9,38.7,59.9z M33,64.4l-0.1,3.3c0,0.3-0.3,0.5-0.6,0.5h-0.2c-0.3,0-0.6-0.2-0.6-0.5l-0.1-3.3
			c0-0.3,0.2-0.5,0.5-0.5h0.5C32.8,63.8,33,64.1,33,64.4z M32.2,63.5c-0.5,0-0.8-0.4-0.8-0.8s0.4-0.8,0.8-0.8c0.5,0,0.8,0.4,0.8,0.8
			S32.6,63.5,32.2,63.5z M35.4,64.4l-0.1,3.3c0,0.3-0.3,0.5-0.6,0.5h-0.2c-0.3,0-0.6-0.2-0.6-0.5l-0.1-3.3c0-0.3,0.2-0.5,0.5-0.5
			h0.5C35.2,63.8,35.5,64.1,35.4,64.4z M34.7,63.5c-0.5,0-0.8-0.4-0.8-0.8s0.4-0.8,0.8-0.8c0.5,0,0.8,0.4,0.8,0.8
			S35.1,63.5,34.7,63.5z M37.9,64.4l-0.1,3.3c0,0.3-0.3,0.5-0.6,0.5H37c-0.3,0-0.6-0.2-0.6-0.5l-0.1-3.3c0-0.3,0.2-0.5,0.5-0.5h0.5
			C37.7,63.8,37.9,64.1,37.9,64.4z M37.1,63.5c-0.5,0-0.8-0.4-0.8-0.8s0.4-0.8,0.8-0.8c0.5,0,0.8,0.4,0.8,0.8S37.6,63.5,37.1,63.5z"
			/>
		<g>
			<polygon class="st12" points="32.2,59.1 32.2,56.9 31.5,57.5 30.9,56.8 32.6,55.1 32.7,55.2 34.4,56.9 33.7,57.5 33.1,56.9 
				33.1,59.1 			"/>
			<polygon class="st12" points="36.6,59.1 34.9,57.4 35.6,56.7 36.2,57.3 36.2,55.1 37.1,55.1 37.1,57.3 37.8,56.7 38.4,57.4 
				36.7,59.1 			"/>
		</g>
	</g>
	<g>
		<path class="st12" d="M190.2,202.1h-9c-0.5,0-1,0.4-1,1v9c0,0.5,0.4,1,1,1h9c0.5,0,1-0.4,1-1v-9
			C191.2,202.5,190.7,202.1,190.2,202.1z M187.4,203.7c0.4,0,0.7,0.3,0.7,0.7c0,0.4-0.3,0.7-0.7,0.7c-0.4,0-0.7-0.3-0.7-0.7
			C186.7,204,187,203.7,187.4,203.7z M183.6,203.7c0.4,0,0.7,0.3,0.7,0.7c0,0.4-0.3,0.7-0.7,0.7s-0.7-0.3-0.7-0.7
			C183,204,183.3,203.7,183.6,203.7z M184.6,208.4c0,0.1-0.1,0.2-0.2,0.2l-0.3,0.1l-0.1,2.6c0,0.1-0.2,0.3-0.3,0.3h-0.2
			c-0.2,0-0.3-0.1-0.3-0.3l-0.1-2.6l-0.3-0.1c-0.1,0-0.2-0.1-0.2-0.2l-0.1-2.7c0-0.2,0.1-0.3,0.3-0.3h1.6c0.2,0,0.3,0.1,0.3,0.3
			L184.6,208.4z M188.4,208.7h-0.6l-0.2,2.6c0,0.1-0.1,0.3-0.3,0.3h-0.1c-0.1,0-0.3-0.1-0.3-0.3l-0.2-2.6h-0.6
			c-0.2,0-0.4-0.2-0.3-0.4l0.7-1.5c0,0,0-0.1,0-0.1l-0.3-1.1c0-0.1,0.1-0.3,0.2-0.3h1.5c0.1,0,0.3,0.1,0.2,0.3l-0.3,1.1
			c0,0,0,0,0,0.1l0.7,1.5C188.8,208.6,188.6,208.7,188.4,208.7z"/>
	</g>
	<g>
		<path class="st12" d="M186.9,45.8h-9c-0.5,0-1,0.4-1,1v9c0,0.5,0.4,1,1,1h9c0.5,0,1-0.4,1-1v-9C187.8,46.2,187.4,45.8,186.9,45.8z
			 M184.1,47.4c0.4,0,0.7,0.3,0.7,0.7c0,0.4-0.3,0.7-0.7,0.7c-0.4,0-0.7-0.3-0.7-0.7C183.4,47.7,183.7,47.4,184.1,47.4z M180.3,47.4
			c0.4,0,0.7,0.3,0.7,0.7c0,0.4-0.3,0.7-0.7,0.7s-0.7-0.3-0.7-0.7C179.7,47.7,179.9,47.4,180.3,47.4z M181.3,52.1
			c0,0.1-0.1,0.2-0.2,0.2l-0.3,0.1l-0.1,2.6c0,0.1-0.2,0.3-0.3,0.3h-0.2c-0.2,0-0.3-0.1-0.3-0.3l-0.1-2.6l-0.3-0.1
			c-0.1,0-0.2-0.1-0.2-0.2l-0.1-2.7c0-0.2,0.1-0.3,0.3-0.3h1.6c0.2,0,0.3,0.1,0.3,0.3L181.3,52.1z M185.1,52.4h-0.6l-0.2,2.6
			c0,0.1-0.1,0.3-0.3,0.3H184c-0.1,0-0.3-0.1-0.3-0.3l-0.2-2.6H183c-0.2,0-0.4-0.2-0.3-0.4l0.7-1.5c0,0,0-0.1,0-0.1l-0.3-1.1
			c0-0.1,0.1-0.3,0.2-0.3h1.5c0.1,0,0.3,0.1,0.2,0.3l-0.3,1.1c0,0,0,0,0,0.1l0.7,1.5C185.5,52.3,185.3,52.4,185.1,52.4z"/>
	</g>
	<g>
		<path class="st12" d="M224.6,74.5h-3.1c-0.1,0-0.2,0-0.2,0.1l-2,1.3l0,0l0,0c0,0,0,0,0,0c0,0,0,0,0,0c0,0,0,0,0,0c0,0,0,0,0,0
			c0,0,0,0,0,0c0,0,0,0,0,0c0,0,0,0,0,0c0,0,0,0,0,0c0,0,0,0,0,0c0,0,0,0,0,0c0,0,0,0,0,0c0,0,0,0,0,0c0,0,0,0,0,0c0,0,0,0,0,0
			c0,0,0,0,0,0c0,0,0,0,0,0c0,0,0,0,0,0c0,0,0,0,0,0c0,0,0,0,0,0c0,0,0,0,0,0v1.5c0,0,0,0,0,0l-2,1.3l0,0l0,0c0,0,0,0,0,0
			c0,0,0,0,0,0c0,0,0,0,0,0c0,0,0,0,0,0c0,0,0,0,0,0c0,0,0,0,0,0c0,0,0,0,0,0c0,0,0,0,0,0c0,0,0,0,0,0c0,0,0,0,0,0c0,0,0,0,0,0
			c0,0,0,0,0,0c0,0,0,0,0,0c0,0,0,0,0,0c0,0,0,0,0,0c0,0,0,0,0,0c0,0,0,0,0,0c0,0,0,0,0,0c0,0,0,0,0,0c0,0,0,0,0,0v1.6l-1.9,1.3l0,0
			l0,0c0,0,0,0,0,0c0,0,0,0,0,0c0,0,0,0,0,0c0,0,0,0,0,0c0,0,0,0,0,0c0,0,0,0,0,0c0,0,0,0,0,0c0,0,0,0,0,0c0,0,0,0,0,0c0,0,0,0,0,0
			c0,0,0,0,0,0c0,0,0,0,0,0c0,0,0,0,0,0c0,0,0,0,0,0c0,0,0,0,0,0c0,0,0,0,0,0c0,0,0,0,0,0c0,0,0,0,0,0c0,0,0,0,0,0c0,0,0,0,0,0v1.6
			l-1.9,1.3l0,0l0,0c0,0,0,0,0,0c0,0,0,0,0,0c0,0,0,0,0,0c0,0,0,0,0,0c0,0,0,0,0,0c0,0,0,0,0,0c0,0,0,0,0,0c0,0,0,0,0,0c0,0,0,0,0,0
			c0,0,0,0,0,0c0,0,0,0,0,0c0,0,0,0,0,0c0,0,0,0,0,0c0,0,0,0,0,0c0,0,0,0,0,0c0,0,0,0,0,0c0,0,0,0,0,0c0,0,0,0,0,0c0,0,0,0,0,0
			c0,0,0,0,0,0v1.9c0,0.2,0.2,0.4,0.4,0.4h11.4c0.2,0,0.4-0.2,0.4-0.4v-13C225,74.7,224.8,74.5,224.6,74.5z M219.9,76.7h4.2v1.1
			h-4.2V76.7z M224.1,79.9V81h-6.4v-1.1H224.1z M224.1,83.2v1.1h-8.5v-1.1H224.1z M224.1,87.5h-10.6v-1.1h10.6V87.5z"/>
		<path class="st12" d="M218.8,74.6c-0.2-0.2-0.4-0.2-0.6,0l-9.2,8.4c-0.2,0.2-0.2,0.4,0,0.6c0.1,0.1,0.2,0.1,0.3,0.1
			c0.1,0,0.2,0,0.3-0.1l1.9-1.7v0.8H211c-0.1,0-0.2,0.1-0.2,0.2c0,0.1,0.1,0.2,0.2,0.2h0.8c0.1,0,0.2-0.1,0.2-0.2v-1.5l4.2-3.9v0.9
			h-0.5c-0.1,0-0.3,0.1-0.3,0.3s0.1,0.3,0.3,0.3h0.8c0.1,0,0.3-0.1,0.3-0.3v-1.6l2.1-1.9C219,75,219,74.8,218.8,74.6z"/>
	</g>
	<g>
		<path class="st12" d="M152.3,74.5h-3.1c-0.1,0-0.2,0-0.2,0.1l-2,1.3l0,0l0,0c0,0,0,0,0,0c0,0,0,0,0,0c0,0,0,0,0,0c0,0,0,0,0,0
			c0,0,0,0,0,0c0,0,0,0,0,0c0,0,0,0,0,0c0,0,0,0,0,0c0,0,0,0,0,0c0,0,0,0,0,0c0,0,0,0,0,0c0,0,0,0,0,0c0,0,0,0,0,0c0,0,0,0,0,0
			c0,0,0,0,0,0c0,0,0,0,0,0c0,0,0,0,0,0c0,0,0,0,0,0c0,0,0,0,0,0c0,0,0,0,0,0v1.5c0,0,0,0,0,0l-2,1.3l0,0l0,0c0,0,0,0,0,0
			c0,0,0,0,0,0c0,0,0,0,0,0c0,0,0,0,0,0c0,0,0,0,0,0c0,0,0,0,0,0c0,0,0,0,0,0c0,0,0,0,0,0c0,0,0,0,0,0c0,0,0,0,0,0c0,0,0,0,0,0
			c0,0,0,0,0,0c0,0,0,0,0,0c0,0,0,0,0,0c0,0,0,0,0,0c0,0,0,0,0,0c0,0,0,0,0,0c0,0,0,0,0,0c0,0,0,0,0,0c0,0,0,0,0,0v1.6l-1.9,1.3l0,0
			l0,0c0,0,0,0,0,0c0,0,0,0,0,0c0,0,0,0,0,0c0,0,0,0,0,0c0,0,0,0,0,0c0,0,0,0,0,0c0,0,0,0,0,0c0,0,0,0,0,0c0,0,0,0,0,0c0,0,0,0,0,0
			c0,0,0,0,0,0c0,0,0,0,0,0c0,0,0,0,0,0c0,0,0,0,0,0c0,0,0,0,0,0c0,0,0,0,0,0c0,0,0,0,0,0c0,0,0,0,0,0c0,0,0,0,0,0c0,0,0,0,0,0v1.6
			l-1.9,1.3l0,0l0,0c0,0,0,0,0,0c0,0,0,0,0,0c0,0,0,0,0,0c0,0,0,0,0,0c0,0,0,0,0,0c0,0,0,0,0,0c0,0,0,0,0,0c0,0,0,0,0,0c0,0,0,0,0,0
			c0,0,0,0,0,0c0,0,0,0,0,0c0,0,0,0,0,0c0,0,0,0,0,0c0,0,0,0,0,0c0,0,0,0,0,0c0,0,0,0,0,0c0,0,0,0,0,0c0,0,0,0,0,0c0,0,0,0,0,0
			c0,0,0,0,0,0v1.9c0,0.2,0.2,0.4,0.4,0.4h11.4c0.2,0,0.4-0.2,0.4-0.4v-13C152.7,74.7,152.5,74.5,152.3,74.5z M147.6,76.7h4.2v1.1
			h-4.2V76.7z M151.8,79.9V81h-6.4v-1.1H151.8z M151.8,83.2v1.1h-8.5v-1.1H151.8z M151.8,87.5h-10.6v-1.1h10.6V87.5z"/>
		<path class="st12" d="M146.5,74.6c-0.2-0.2-0.4-0.2-0.6,0l-9.2,8.4c-0.2,0.2-0.2,0.4,0,0.6c0.1,0.1,0.2,0.1,0.3,0.1
			c0.1,0,0.2,0,0.3-0.1l1.9-1.7v0.8h-0.5c-0.1,0-0.2,0.1-0.2,0.2c0,0.1,0.1,0.2,0.2,0.2h0.8c0.1,0,0.2-0.1,0.2-0.2v-1.5l4.2-3.9v0.9
			h-0.5c-0.1,0-0.3,0.1-0.3,0.3s0.1,0.3,0.3,0.3h0.8c0.1,0,0.3-0.1,0.3-0.3v-1.6l2.1-1.9C146.7,75,146.7,74.8,146.5,74.6z"/>
	</g>
	<g>
		<path class="st12" d="M42.6,10h-3.1c-0.1,0-0.2,0-0.2,0.1l-2,1.3l0,0l0,0c0,0,0,0,0,0c0,0,0,0,0,0c0,0,0,0,0,0c0,0,0,0,0,0
			c0,0,0,0,0,0c0,0,0,0,0,0c0,0,0,0,0,0c0,0,0,0,0,0c0,0,0,0,0,0c0,0,0,0,0,0c0,0,0,0,0,0c0,0,0,0,0,0c0,0,0,0,0,0c0,0,0,0,0,0
			c0,0,0,0,0,0c0,0,0,0,0,0c0,0,0,0,0,0c0,0,0,0,0,0c0,0,0,0,0,0c0,0,0,0,0,0v1.5c0,0,0,0,0,0l-2,1.3l0,0l0,0c0,0,0,0,0,0
			c0,0,0,0,0,0c0,0,0,0,0,0c0,0,0,0,0,0c0,0,0,0,0,0c0,0,0,0,0,0c0,0,0,0,0,0c0,0,0,0,0,0c0,0,0,0,0,0c0,0,0,0,0,0c0,0,0,0,0,0
			c0,0,0,0,0,0c0,0,0,0,0,0c0,0,0,0,0,0c0,0,0,0,0,0c0,0,0,0,0,0c0,0,0,0,0,0c0,0,0,0,0,0c0,0,0,0,0,0c0,0,0,0,0,0v1.6L33,17.9l0,0
			l0,0c0,0,0,0,0,0c0,0,0,0,0,0c0,0,0,0,0,0c0,0,0,0,0,0c0,0,0,0,0,0c0,0,0,0,0,0c0,0,0,0,0,0c0,0,0,0,0,0c0,0,0,0,0,0c0,0,0,0,0,0
			c0,0,0,0,0,0c0,0,0,0,0,0c0,0,0,0,0,0c0,0,0,0,0,0c0,0,0,0,0,0c0,0,0,0,0,0c0,0,0,0,0,0c0,0,0,0,0,0c0,0,0,0,0,0c0,0,0,0,0,0v1.6
			l-1.9,1.3l0,0l0,0c0,0,0,0,0,0c0,0,0,0,0,0c0,0,0,0,0,0c0,0,0,0,0,0c0,0,0,0,0,0c0,0,0,0,0,0c0,0,0,0,0,0c0,0,0,0,0,0c0,0,0,0,0,0
			c0,0,0,0,0,0c0,0,0,0,0,0c0,0,0,0,0,0c0,0,0,0,0,0c0,0,0,0,0,0c0,0,0,0,0,0c0,0,0,0,0,0c0,0,0,0,0,0c0,0,0,0,0,0c0,0,0,0,0,0
			c0,0,0,0,0,0v1.9c0,0.2,0.2,0.4,0.4,0.4h11.4c0.2,0,0.4-0.2,0.4-0.4v-13C43,10.2,42.8,10,42.6,10z M37.9,12.2h4.2v1.1h-4.2V12.2z
			 M42.2,15.4v1.1h-6.4v-1.1H42.2z M42.2,18.7v1.1h-8.5v-1.1H42.2z M42.2,23H31.6v-1.1h10.6V23z"/>
		<path class="st12" d="M36.9,10.1c-0.2-0.2-0.4-0.2-0.6,0l-9.2,8.4c-0.2,0.2-0.2,0.4,0,0.6c0.1,0.1,0.2,0.1,0.3,0.1
			c0.1,0,0.2,0,0.3-0.1l1.9-1.7v0.8H29c-0.1,0-0.2,0.1-0.2,0.2c0,0.1,0.1,0.2,0.2,0.2h0.8c0.1,0,0.2-0.1,0.2-0.2v-1.5l4.2-3.9v0.9
			h-0.5c-0.1,0-0.3,0.1-0.3,0.3c0,0.1,0.1,0.3,0.3,0.3h0.8c0.1,0,0.3-0.1,0.3-0.3v-1.6l2.1-1.9C37,10.5,37,10.3,36.9,10.1z"/>
	</g>
	<g>
		<path class="st12" d="M223.2,185.8h-3.1c-0.1,0-0.2,0-0.2,0.1l-2,1.3l0,0l0,0c0,0,0,0,0,0c0,0,0,0,0,0c0,0,0,0,0,0c0,0,0,0,0,0
			c0,0,0,0,0,0c0,0,0,0,0,0c0,0,0,0,0,0c0,0,0,0,0,0c0,0,0,0,0,0c0,0,0,0,0,0c0,0,0,0,0,0c0,0,0,0,0,0c0,0,0,0,0,0c0,0,0,0,0,0
			c0,0,0,0,0,0c0,0,0,0,0,0c0,0,0,0,0,0c0,0,0,0,0,0c0,0,0,0,0,0c0,0,0,0,0,0v1.5c0,0,0,0,0,0l-2,1.3l0,0l0,0c0,0,0,0,0,0
			c0,0,0,0,0,0c0,0,0,0,0,0c0,0,0,0,0,0c0,0,0,0,0,0c0,0,0,0,0,0c0,0,0,0,0,0c0,0,0,0,0,0c0,0,0,0,0,0c0,0,0,0,0,0c0,0,0,0,0,0
			c0,0,0,0,0,0c0,0,0,0,0,0c0,0,0,0,0,0c0,0,0,0,0,0c0,0,0,0,0,0c0,0,0,0,0,0c0,0,0,0,0,0c0,0,0,0,0,0c0,0,0,0,0,0v1.6l-1.9,1.3l0,0
			l0,0c0,0,0,0,0,0c0,0,0,0,0,0c0,0,0,0,0,0c0,0,0,0,0,0c0,0,0,0,0,0c0,0,0,0,0,0c0,0,0,0,0,0c0,0,0,0,0,0c0,0,0,0,0,0c0,0,0,0,0,0
			c0,0,0,0,0,0c0,0,0,0,0,0c0,0,0,0,0,0c0,0,0,0,0,0c0,0,0,0,0,0c0,0,0,0,0,0c0,0,0,0,0,0c0,0,0,0,0,0c0,0,0,0,0,0c0,0,0,0,0,0v1.6
			l-1.9,1.3l0,0l0,0c0,0,0,0,0,0c0,0,0,0,0,0c0,0,0,0,0,0c0,0,0,0,0,0c0,0,0,0,0,0c0,0,0,0,0,0c0,0,0,0,0,0c0,0,0,0,0,0c0,0,0,0,0,0
			c0,0,0,0,0,0c0,0,0,0,0,0c0,0,0,0,0,0c0,0,0,0,0,0c0,0,0,0,0,0c0,0,0,0,0,0c0,0,0,0,0,0c0,0,0,0,0,0c0,0,0,0,0,0c0,0,0,0,0,0
			c0,0,0,0,0,0v1.9c0,0.2,0.2,0.4,0.4,0.4h11.4c0.2,0,0.4-0.2,0.4-0.4v-13C223.6,185.9,223.5,185.8,223.2,185.8z M218.6,187.9h4.2
			v1.1h-4.2V187.9z M222.8,191.2v1.1h-6.4v-1.1H222.8z M222.8,194.4v1.1h-8.5v-1.1H222.8z M222.8,198.7h-10.6v-1.1h10.6V198.7z"/>
		<path class="st12" d="M217.5,185.9c-0.2-0.2-0.4-0.2-0.6,0l-9.2,8.4c-0.2,0.2-0.2,0.4,0,0.6c0.1,0.1,0.2,0.1,0.3,0.1
			c0.1,0,0.2,0,0.3-0.1l1.9-1.7v0.8h-0.5c-0.1,0-0.2,0.1-0.2,0.2c0,0.1,0.1,0.2,0.2,0.2h0.8c0.1,0,0.2-0.1,0.2-0.2v-1.5l4.2-3.9v0.9
			h-0.5c-0.1,0-0.3,0.1-0.3,0.3c0,0.1,0.1,0.3,0.3,0.3h0.8c0.1,0,0.3-0.1,0.3-0.3v-1.6l2.1-1.9C217.7,186.3,217.7,186,217.5,185.9z"
			/>
	</g>
	<g>
		<g>
			<path class="st12" d="M145.9,48.4c0,0.2,0.1,0.3,0.3,0.3h1.7c0.2,0,0.3-0.1,0.3-0.3V48c0-0.2-0.1-0.3-0.3-0.3h-1.7
				c-0.2,0-0.3,0.1-0.3,0.3V48.4z"/>
		</g>
		<g>
			<path class="st12" d="M153.2,44.4h-0.4c-0.2,0-0.3,0.1-0.3,0.3v0h-0.7c-0.2-0.3-0.6-0.6-1.1-0.7v-0.3c0,0,0,0,0.1-0.1l1.5,0.1
				c0.2,0,0.3-0.1,0.3-0.3v-0.1c0-0.2-0.1-0.3-0.3-0.3l-1.4,0.1c-0.1-0.2-0.3-0.3-0.5-0.3c-0.2,0-0.4,0.1-0.5,0.3l-1.6-0.1
				c-0.2,0-0.3,0.1-0.3,0.3v0.1c0,0.2,0.1,0.3,0.3,0.3l1.6-0.1c0,0,0,0,0,0c0,0,0,0.1,0.1,0.1v0.3c-0.4,0.1-0.8,0.3-1.1,0.7h-0.9
				c-1,0-1.8,0.8-1.8,1.8v0.8h1.6v-0.8c0-0.1,0.1-0.2,0.2-0.2h0.8c0.3,0.5,0.9,0.9,1.5,0.9c0.7,0,1.3-0.4,1.5-0.9h0.6v0
				c0,0.2,0.1,0.3,0.3,0.3l0.4,0c0.2,0,0.3-0.1,0.3-0.3v-1.7C153.5,44.6,153.4,44.4,153.2,44.4z M147.9,45.4c-0.6,0-1.1,0.5-1.1,1.1
				c0,0.1-0.1,0.1-0.1,0.1s-0.1-0.1-0.1-0.1c0-0.4,0.1-0.7,0.4-1c0.3-0.3,0.6-0.4,1-0.4c0.1,0,0.1,0.1,0.1,0.1
				C148.1,45.3,148,45.4,147.9,45.4z"/>
		</g>
		<g>
			<path class="st12" d="M146.8,55.4c-0.4,0-0.8-0.3-0.9-0.6c-0.6,0-1.1-0.1-1.2-0.5c0-0.1,0-0.3,0.1-0.4c-0.5-0.2-0.8-0.6-0.8-1
				c0-0.3,0.2-0.5,0.6-0.6c0.2-0.1,0.4-0.1,0.6-0.1c0-0.1,0-0.2,0-0.3c0.1-0.2,0.4-0.4,0.7-0.3v-2.2c0-0.1,0.1-0.2,0.2-0.2
				s0.2,0.1,0.2,0.2v2.4c0,0.1,0,0.1-0.1,0.2c-0.1,0-0.1,0-0.2,0c-0.3-0.1-0.5,0-0.5,0c0,0,0,0.1,0.1,0.2c0.1,0.1,0.1,0.2,0,0.2
				s-0.1,0.1-0.2,0.1c-0.6-0.1-1.1,0.1-1.1,0.3c0,0.2,0.3,0.5,0.8,0.7c0.1,0,0.1,0.1,0.1,0.2c0,0.1,0,0.1-0.1,0.2
				c-0.1,0.1-0.2,0.2-0.2,0.3c0,0.1,0.4,0.3,0.9,0.2c0.1,0,0.1,0,0.2,0s0.1,0.1,0.1,0.1c0,0.3,0.3,0.5,0.5,0.5
				c0.2,0,0.4-0.1,0.5-0.3c0-0.1,0.1-0.1,0.1-0.1c0.1,0,0.1,0,0.2,0c0.1,0,0.1,0.1,0.2,0.1c0.2,0.1,0.5,0.1,0.7,0.1
				c0.1,0,0.3-0.1,0.3-0.2c0-0.1,0-0.2,0-0.3c0-0.1,0-0.1,0-0.2c0-0.1,0.1-0.1,0.1-0.1c0.4-0.1,0.6-0.3,0.6-0.3
				c0-0.1-0.2-0.3-0.7-0.3c-0.1,0-0.1-0.1-0.2-0.2c0-0.1,0-0.2,0.1-0.2c0.3-0.2,0.5-0.5,0.4-0.6c-0.1-0.2-0.6-0.3-1.2-0.1
				c-0.1,0-0.1,0-0.2,0c-0.1,0-0.1-0.1-0.1-0.2v-2.7c0-0.1,0.1-0.2,0.2-0.2s0.2,0.1,0.2,0.2v2.4c0.7-0.2,1.3,0,1.4,0.5
				c0.1,0.3,0,0.6-0.2,0.9c0.4,0.1,0.6,0.4,0.6,0.6c0,0.3-0.3,0.6-0.7,0.7c0,0.1,0,0.3,0,0.4c-0.1,0.2-0.3,0.4-0.6,0.5
				c-0.3,0.1-0.6,0-0.9-0.1c0,0-0.1,0-0.1,0C147.3,55.2,147.1,55.4,146.8,55.4z"/>
		</g>
		<g>
			<path class="st12" d="M151.1,52.8c-0.5,0-0.8-0.4-0.8-0.8s0.4-0.8,0.8-0.8s0.8,0.4,0.8,0.8S151.5,52.8,151.1,52.8z M151.1,51.4
				c-0.3,0-0.5,0.2-0.5,0.5c0,0.3,0.2,0.5,0.5,0.5c0.3,0,0.5-0.2,0.5-0.5C151.6,51.7,151.3,51.4,151.1,51.4z"/>
		</g>
		<g>
			<path class="st12" d="M150.1,55.5c-0.3,0-0.5-0.2-0.5-0.5c0-0.3,0.2-0.5,0.5-0.5c0.3,0,0.5,0.2,0.5,0.5
				C150.6,55.3,150.4,55.5,150.1,55.5z M150.1,54.8c-0.1,0-0.2,0.1-0.2,0.2s0.1,0.2,0.2,0.2s0.2-0.1,0.2-0.2S150.2,54.8,150.1,54.8z
				"/>
		</g>
		<g>
			<path class="st12" d="M142.8,53.7c-0.4,0-0.7-0.3-0.7-0.7s0.3-0.7,0.7-0.7s0.7,0.3,0.7,0.7S143.2,53.7,142.8,53.7z M142.8,52.5
				c-0.2,0-0.4,0.2-0.4,0.4c0,0.2,0.2,0.4,0.4,0.4c0.2,0,0.4-0.2,0.4-0.4C143.2,52.7,143,52.5,142.8,52.5z"/>
		</g>
		<g>
			<path class="st12" d="M143.7,51.3c-0.3,0-0.5-0.2-0.5-0.5c0-0.3,0.2-0.5,0.5-0.5c0.3,0,0.5,0.2,0.5,0.5
				C144.2,51.1,144,51.3,143.7,51.3z M143.7,50.6c-0.1,0-0.2,0.1-0.2,0.2s0.1,0.2,0.2,0.2c0.1,0,0.2-0.1,0.2-0.2
				S143.8,50.6,143.7,50.6z"/>
		</g>
		<g>
			<path class="st12" d="M145,55.9c-0.2,0-0.4-0.2-0.4-0.4c0-0.2,0.2-0.4,0.4-0.4c0.2,0,0.4,0.2,0.4,0.4
				C145.4,55.7,145.2,55.9,145,55.9z M145,55.4c-0.1,0-0.1,0.1-0.1,0.1c0,0.1,0.1,0.1,0.1,0.1c0.1,0,0.1-0.1,0.1-0.1
				C145.1,55.4,145.1,55.4,145,55.4z"/>
		</g>
	</g>
</g>
<text transform="matrix(1 0 0 1 144.4998 17)"><tspan x="0" y="0" class="st13 st9">電気科</tspan><tspan x="0" y="7.2" class="st13 st9">3年1組</tspan></text>
<text transform="matrix(1 0 0 1 109.4998 17)"><tspan x="0" y="0" class="st13 st9">電気科</tspan><tspan x="0" y="7.2" class="st13 st9">3年2組</tspan></text>
<text transform="matrix(1 0 0 1 80.6665 17)"><tspan x="0" y="0" class="st13 st9">電気科</tspan><tspan x="0" y="7.2" class="st13 st9">3年3組</tspan></text>
</svg>
