<?xml version="1.0" encoding="utf-8"?>
<!-- Generator: Adobe Illustrator 22.1.0, SVG Export Plug-In . SVG Version: 6.00 Build 0)  -->
<svg version="1.1" id="レイヤー_1" xmlns="http://www.w3.org/2000/svg" xmlns:xlink="http://www.w3.org/1999/xlink" x="0px"
	 y="0px" viewBox="0 0 352 296.2" style="enable-background:new 0 0 352 296.2;" xml:space="preserve">
<style type="text/css">
	.st0{fill:#F7F6F5;stroke:#002355;stroke-width:0.5;stroke-miterlimit:10;}
	.st1{fill:none;stroke:#002355;stroke-width:0.5;stroke-miterlimit:10;}
	.st2{fill:#FFFFFF;stroke:#002355;stroke-width:0.5;stroke-miterlimit:10;}
	.st3{fill:#EAE1CF;stroke:#002355;stroke-width:0.5;stroke-miterlimit:10;}
	.st4{fill:#FAFDFF;stroke:#002355;stroke-width:0.5;stroke-miterlimit:10;}
	.st5{fill:#2AF0FF;stroke:#002355;stroke-width:0.5;stroke-miterlimit:10;}
	.st6{fill:#0A0A0A;}
	.st7{font-family:'HiraginoSans-W5-83pv-RKSJ-H';}
	.st8{font-size:6px;}
	.st9{font-size:4.8px;}
	.st10{fill:#686868;}
	.st11{clip-path:url(#SVGID_2_);}
	.st12{fill:#FCFCFC;stroke:#646464;stroke-width:0.25;stroke-miterlimit:10;}
	.st13{fill:#FFCC00;}
	.st14{font-family:'HiraginoSans-W8-83pv-RKSJ-H';}
	.st15{font-size:7.814px;}
	.st16{font-size:7.8px;}
	.st17{font-family:'HiraginoSans-W7-83pv-RKSJ-H';}
	.st18{stroke:#002355;stroke-width:0.25;stroke-miterlimit:10;}
	.st19{font-size:8px;}
	.st20{font-size:9px;}
</style>
<path class="st0" d="M229.5,6.4h-95.6l0,0H23.3v65h110.2v105.4 M133.5,176.6v67.1h69.3l0,0h26.5v-15.8l0,0l0.2-40.5v-116l-0.1-65
	 M191.1,168.5H172V92.9h19.1V168.5L191.1,168.5z"/>
<polyline class="st1" points="47.1,247 47.1,268 72.4,268 "/>
<polyline class="st2" points="107.6,176.2 107.6,170.8 107.6,90.3 23,90.3 23,238.5 46.8,238.5 55.7,238.5 65.2,238.5 107.6,238.5 
	107.6,205.7 "/>
<rect x="23" y="90.3" class="st2" width="84.5" height="17.4"/>
<rect x="23" y="107.8" class="st2" width="84.5" height="68.2"/>
<rect x="23" y="161.5" class="st2" width="27.2" height="14.4"/>
<rect x="79.5" y="206" class="st2" width="28" height="16.3"/>
<rect x="79.5" y="222.2" class="st2" width="28" height="16.3"/>
<rect x="23" y="206" class="st2" width="27.2" height="32.6"/>
<rect x="50.2" y="206" class="st2" width="15.2" height="32.6"/>
<rect x="65.4" y="206" class="st2" width="14.2" height="32.6"/>
<line class="st1" x1="50.3" y1="206.7" x2="50.3" y2="175.8"/>
<rect x="70.6" y="161.5" class="st2" width="37" height="14.4"/>
<rect x="171.4" y="6.4" class="st2" width="19.9" height="26.8"/>
<rect x="133.5" y="6.4" class="st2" width="38.2" height="26.8"/>
<rect x="133.5" y="57.5" class="st3" width="26.5" height="13.9"/>
<rect x="202.7" y="217.2" class="st2" width="26.7" height="26.6"/>
<rect x="202.7" y="202" class="st3" width="26.7" height="15.1"/>
<rect x="133.5" y="93.1" class="st2" width="26.8" height="58.4"/>
<rect x="133.5" y="176.7" class="st2" width="26.8" height="67"/>
<rect x="171.5" y="44.6" class="st3" width="19.8" height="26.8"/>
<line class="st1" x1="160" y1="57.4" x2="160" y2="44.7"/>
<rect x="202.6" y="93.4" class="st2" width="26.9" height="49.8"/>
<rect x="171.4" y="180.9" class="st4" width="19.8" height="17.3"/>
<rect x="171.4" y="198.1" class="st2" width="19.8" height="19"/>
<line class="st1" x1="178.3" y1="217.1" x2="178.3" y2="198.1"/>
<rect x="202.7" y="6.4" class="st2" width="26.7" height="65"/>
<line class="st1" x1="202.5" y1="50.4" x2="229.7" y2="50.4"/>
<line class="st1" x1="160.2" y1="213.1" x2="133.8" y2="213.1"/>
<line class="st1" x1="229.6" y1="183.7" x2="202.3" y2="183.7"/>
<line class="st1" x1="160.4" y1="138.5" x2="133.6" y2="138.5"/>
<line class="st1" x1="181.3" y1="33" x2="181.3" y2="6.5"/>
<line class="st1" x1="160.1" y1="204.5" x2="133.7" y2="204.5"/>
<line class="st1" x1="160.2" y1="189.3" x2="133.7" y2="189.3"/>
<line class="st1" x1="171.4" y1="243.7" x2="171.4" y2="231"/>
<line class="st1" x1="191.3" y1="243.7" x2="191.3" y2="231"/>
<polyline class="st2" points="133.5,44.4 133.5,71.4 44.2,71.4 44.2,44.4 116.5,44.4 "/>
<polygon class="st5" points="44.3,6.4 44.3,44.6 133.5,44.6 133.5,44.6 133.4,6.4 "/>
<line class="st1" x1="44.2" y1="44.5" x2="44.2" y2="6.4"/>
<text transform="matrix(1 0 0 1 137.926 185.519)" class="st6 st7 st8">応接室</text>
<text transform="matrix(1 0 0 1 207.086 120.622)" class="st6 st7 st8">保健室</text>
<text transform="matrix(1 0 0 1 204.831 25.276)" class="st6 st7 st8">エ</text>
<text transform="matrix(1 0 0 1 210.339 25.276)" class="st6 st7 st8">ン</text>
<text transform="matrix(1 0 0 1 215.829 25.276)" class="st6 st7 st8">ジ</text>
<text transform="matrix(1 0 0 1 221.403 25.276)" class="st6 st7 st8">ン</text>
<text transform="matrix(1 0 0 1 204.066 32.476)" class="st6 st7 st8">性能試験</text>
<text transform="matrix(1 0 0 1 207.223 39.676)" class="st6 st7 st8">実</text>
<text transform="matrix(1 0 0 1 213.055 39.676)" class="st6 st7 st8">習</text>
<text transform="matrix(1 0 0 1 218.911 39.676)" class="st6 st7 st8">室</text>
<text transform="matrix(1 0 0 1 210.129 229.158)" class="st6 st7 st8">進路</text>
<text transform="matrix(1 0 0 1 207.129 236.358)" class="st6 st7 st8">指導室</text>
<text transform="matrix(1 0 0 1 70.887 263.522)" class="st6 st7 st8">体育</text>
<text transform="matrix(1 0 0 1 82.887 263.522)" class="st6 st7 st8">館</text>
<text transform="matrix(1 0 0 1 88.809 263.522)" class="st6 st7 st8">へ</text>
<text transform="matrix(1 0 0 1 137.819 22.028)" class="st6 st7 st8">水理</text>
<text transform="matrix(1 0 0 1 149.819 22.028)" class="st6 st7 st8">実</text>
<text transform="matrix(1 0 0 1 155.651 22.028)" class="st6 st7 st8">習</text>
<text transform="matrix(1 0 0 1 161.507 22.028)" class="st6 st7 st8">室</text>
<text transform="matrix(1 0 0 1 204.126 59.919)" class="st6 st7 st8">機械資材</text>
<text transform="matrix(1 0 0 1 210.126 67.119)" class="st6 st7 st8">倉庫</text>
<text transform="matrix(1 0 0 1 68.066 60.167)" class="st6 st7 st8">材料試験</text>
<text transform="matrix(1 0 0 1 92.066 60.167)" class="st6 st7 st8">実</text>
<text transform="matrix(1 0 0 1 97.898 60.167)" class="st6 st7 st8">習</text>
<text transform="matrix(1 0 0 1 103.754 60.167)" class="st6 st7 st8">室</text>
<text transform="matrix(1 0 0 1 137.947 120.617)" class="st6 st7 st8">会議室</text>
<text transform="matrix(1 0 0 1 56.331 138.126)" class="st6 st7 st8">格技場</text>
<text transform="matrix(1 0 0 1 59.349 101.284)" class="st6 st7 st8">部室</text>
<text transform="matrix(1 0 0 1 30.346 193.155)" class="st6 st7 st8">土俵</text>
<text transform="matrix(1 0 0 1 27.574 170.986)" class="st6 st7 st8">器具庫</text>
<text transform="matrix(1 0 0 1 88.761 232.213)" class="st6 st7 st9">部室</text>
<text transform="matrix(1 0 0 1 137.959 199.298)" class="st6 st7 st8">校長室</text>
<text transform="matrix(1 0 0 1 137.932 230.496)" class="st6 st7 st8">事務室</text>
<g>
	<text transform="matrix(1 0 0 1 174.148 16.748)" class="st7 st9">印</text>
	<text transform="matrix(1 0 0 1 174.149 26.502)" class="st7 st9">室</text>
	<text transform="matrix(1 0 0 1 174.148 21.609)" class="st7 st9">刷</text>
</g>
<g>
	<text transform="matrix(1 0 0 1 167.873 269.505)" class="st6 st7 st8">グ</text>
	<text transform="matrix(1 0 0 1 173.447 269.505)" class="st6 st7 st8">ラ</text>
	<text transform="matrix(1 0 0 1 178.817 269.505)" class="st6 st7 st8">ウ</text>
	<text transform="matrix(1 0 0 1 184.139 269.505)" class="st6 st7 st8">ン</text>
	<text transform="matrix(1 0 0 1 189.317 269.505)" class="st6 st7 st8">ド</text>
	<text transform="matrix(1 0 0 1 159.241 276.705)" class="st6 st7 st8">ゴ</text>
	<text transform="matrix(1 0 0 1 164.792 276.705)" class="st6 st7 st8">ミ</text>
	<text transform="matrix(1 0 0 1 170.078 276.705)" class="st6 st7 st8">ス</text>
	<text transform="matrix(1 0 0 1 175.664 276.705)" class="st6 st7 st8">テ</text>
	<text transform="matrix(1 0 0 1 181.447 276.705)" class="st6 st7 st8">ー</text>
	<text transform="matrix(1 0 0 1 187.142 276.705)" class="st6 st7 st8">シ</text>
	<text transform="matrix(1 0 0 1 192.481 276.705)" class="st6 st7 st8">ョ</text>
	<text transform="matrix(1 0 0 1 197.738 276.705)" class="st6 st7 st8">ン</text>
	<text transform="matrix(1 0 0 1 164.766 283.905)" class="st6 st7 st8">テニ</text>
	<text transform="matrix(1 0 0 1 175.937 283.905)" class="st6 st7 st8">ス</text>
	<text transform="matrix(1 0 0 1 181.367 283.905)" class="st6 st7 st8">コ</text>
	<text transform="matrix(1 0 0 1 187.14 283.905)" class="st6 st7 st8">ー</text>
	<text transform="matrix(1 0 0 1 192.533 283.905)" class="st6 st7 st8">ト</text>
	<polyline class="st1" points="179.4,286.8 181.5,290.4 183.7,286.8 	"/>
</g>
<g>
	<text transform="matrix(1 0 0 1 57.766 212.945)" class="st7 st9">ト</text>
	<text transform="matrix(6.123234e-17 1 -1 6.123234e-17 58.3691 217.869)" class="st7 st9">ー</text>
	<text transform="matrix(1 0 0 1 57.788 230.79)" class="st7 st9">ン</text>
	<text transform="matrix(1 0 0 1 57.893 217.432)" class="st7 st9">レ</text>
	<text transform="matrix(1 0 0 1 57.808 226.575)" class="st7 st9">ニ</text>
	<text transform="matrix(1 0 0 1 57.76 235.269)" class="st7 st9">グ</text>
	<text transform="matrix(1 0 0 1 52.054 235.27)" class="st7 st9">ム</text>
	<text transform="matrix(1 0 0 1 52.041 225.947)" class="st7 st9">ル</text>
	<text transform="matrix(6.123234e-17 1 -1 6.123234e-17 52.5684 226.311)" class="st7 st9">ー</text>
</g>
<g>
	<g>
		<path class="st10" d="M180.2,189.2c0,0.3-0.3,0.6-0.6,0.6s-0.6-0.2-0.6-0.6s0.3-0.6,0.6-0.6S180.2,188.9,180.2,189.2z"/>
		<path class="st10" d="M179.6,189.8c-0.4,0-1.3,0-1.3,0.8v1.8c0,0.1,0.1,0.2,0.2,0.2c0.1,0,0.2-0.1,0.2-0.2l0.1-1.1l0.1,4.1
			c0,0.2,0.1,0.3,0.3,0.3s0.3-0.1,0.3-0.3l0.1-2.5l0.1,2.5c0,0.2,0.1,0.3,0.3,0.3s0.3-0.1,0.3-0.3l0.1-4.1l0.1,1.1
			c0,0.1,0.1,0.2,0.2,0.2c0.1,0,0.2-0.1,0.2-0.2v-1.8C181,189.9,180,189.8,179.6,189.8z"/>
	</g>
	<g>
		<path class="st10" d="M183.6,189.2c0,0.3-0.3,0.6-0.6,0.6s-0.6-0.2-0.6-0.6s0.3-0.6,0.6-0.6S183.6,188.9,183.6,189.2z"/>
		<path class="st10" d="M183.1,189.8c-0.4,0-1.3,0-1.3,0.8v1.8c0,0.1,0.1,0.2,0.2,0.2c0.1,0,0.2-0.1,0.2-0.2l0.1-1.1l0.1,4.1
			c0,0.2,0.1,0.3,0.3,0.3s0.3-0.1,0.3-0.3l0.1-2.5l0.1,2.5c0,0.2,0.1,0.3,0.3,0.3s0.3-0.1,0.3-0.3l0.1-4.1l0.1,1.1
			c0,0.1,0.1,0.2,0.2,0.2c0.1,0,0.2-0.1,0.2-0.2v-1.8C184.4,189.9,183.5,189.8,183.1,189.8z"/>
	</g>
	<path class="st10" d="M185.1,196.1h-7.4c-0.6,0-1-0.5-1-1v-7.7c0-0.6,0.5-1,1-1h7.4c0.6,0,1,0.5,1,1v7.7
		C186.1,195.7,185.6,196.1,185.1,196.1z M177.6,187c-0.2,0-0.4,0.2-0.4,0.4v7.7c0,0.2,0.2,0.4,0.4,0.4h7.4c0.2,0,0.4-0.2,0.4-0.4
		v-7.7c0-0.2-0.2-0.4-0.4-0.4H177.6z"/>
	<path class="st10" d="M184.7,184.4l-1.3-1.2l0,0l-0.2-0.2l-0.2,0.2l0,0l-1.3,1.2c-0.1,0.1-0.1,0.3,0,0.4s0.3,0.1,0.4,0l0.8-0.8v1.7
		c0,0.2,0.1,0.3,0.3,0.3s0.3-0.1,0.3-0.3V184l0.8,0.8c0.1,0.1,0.1,0.1,0.2,0.1s0.1,0,0.2-0.1C184.8,184.6,184.8,184.5,184.7,184.4
		L184.7,184.4z"/>
	<path class="st10" d="M181.1,184.3c-0.1-0.1-0.3-0.1-0.4,0l-0.8,0.8v-1.7c0-0.2-0.1-0.3-0.3-0.3s-0.3,0.1-0.3,0.3v1.7l-0.8-0.8
		c-0.1-0.1-0.3-0.1-0.4,0s-0.1,0.3,0,0.4l1.3,1.2l0,0l0.2,0.2l0.2-0.2l0,0l1.3-1.2C181.2,184.6,181.2,184.4,181.1,184.3L181.1,184.3
		z"/>
</g>
<g transform="translate(175.874 46.256) scale(.046)">
</g>
<g transform="translate(179.409 202.37) scale(.046)">
</g>
<g transform="translate(139.716 75.202) scale(.061)">
</g>
<g transform="translate(208.966 75.202) scale(.061)">
</g>
<g transform="translate(208.966 185.827) scale(.061)">
</g>
<g transform="translate(26.765 12.925) scale(.061)">
</g>
<g transform="translate(118.121 19.191) scale(.061)">
</g>
<g transform="translate(305.003 73.189) scale(.061)">
</g>
<g transform="translate(54.576 252.115) scale(.061)">
</g>
<g transform="translate(94.736 208.869) scale(.046)">
</g>
<g>
	<g>
		<defs>
			<path id="SVGID_1_" d="M151.3,152.4h7.9c0.7,0,1.3,0.6,1.3,1.3v7.9c0,0.7-0.6,1.3-1.3,1.3h-7.9c-0.7,0-1.3-0.6-1.3-1.3v-7.9
				C150,153,150.6,152.4,151.3,152.4z"/>
		</defs>
		<clipPath id="SVGID_2_">
			<use xlink:href="#SVGID_1_"  style="overflow:visible;"/>
		</clipPath>
		<g class="st11">
		</g>
	</g>
</g>
<g id="_門">
	<path class="st12" d="M244,6.2h92.6c0.2,0,0.4,0.2,0.4,0.4v47.5c0,0.2-0.2,0.4-0.4,0.4H244c-0.2,0-0.4-0.2-0.4-0.4V6.6
		C243.6,6.4,243.8,6.2,244,6.2z"/>
	<g>
		<rect x="276.9" y="9" class="st13" width="26.9" height="12.6"/>
		<text transform="matrix(1 0 0 1 282.042 18.278)" class="st6 st14 st15">南門</text>
	</g>
	<text transform="matrix(1 0 0 1 277.834 31.703)" class="st6 st7 st8">京急東神</text>
	<text transform="matrix(1 0 0 1 301.834 31.703)" class="st6 st7 st8">奈</text>
	<text transform="matrix(1 0 0 1 307.762 31.703)" class="st6 st7 st8">川</text>
	<text transform="matrix(1 0 0 1 313.66 31.703)" class="st6 st7 st8">駅方面</text>
	<text transform="matrix(1 0 0 1 277.895 45.47)" class="st6 st7 st8">JR</text>
	<text transform="matrix(1 0 0 1 286.361 45.47)" class="st6 st7 st8">東神</text>
	<text transform="matrix(1 0 0 1 298.361 45.47)" class="st6 st7 st8">奈</text>
	<text transform="matrix(1 0 0 1 304.289 45.47)" class="st6 st7 st8">川</text>
	<text transform="matrix(1 0 0 1 310.187 45.47)" class="st6 st7 st8">駅方面</text>
</g>
<g id="_門-2">
	<path class="st12" d="M21,270.6h120.5c0.2,0,0.4,0.2,0.4,0.4v19.4c0,0.2-0.2,0.4-0.4,0.4H21c-0.2,0-0.4-0.2-0.4-0.4V271
		C20.6,270.8,20.8,270.6,21,270.6z"/>
	<g>
		<rect x="22.8" y="274.7" class="st13" width="26.9" height="12.6"/>
		<text transform="matrix(1 0 0 1 28.242 284.027)" class="st6 st14 st16">正門</text>
	</g>
	<text transform="matrix(1 0 0 1 69.64 283.342)" class="st6 st7 st8">東急東横線 </text>
	<text transform="matrix(1 0 0 1 101.638 283.342)" class="st6 st7 st8">東</text>
	<text transform="matrix(1 0 0 1 107.44 283.342)" class="st6 st7 st8">白</text>
	<text transform="matrix(1 0 0 1 113.248 283.342)" class="st6 st7 st8">楽駅方面</text>
</g>
<rect x="133.6" y="93.1" class="st5" width="26.7" height="45.4"/>
<image style="overflow:visible;enable-background:new    ;" width="230" height="230" xlink:href="BE1AEAC7D0720C86.png"  transform="matrix(4.600000e-02 0 0 4.600000e-02 175.7347 58.994)">
</image>
<g transform="translate(176.757 45.475) scale(.046)">
	
		<image style="overflow:visible;enable-background:new    ;" width="230" height="230" id="image_4_" xlink:href="BE1AEAC7D0720C8A.png"  transform="matrix(4.600000e-02 0 0 4.600000e-02 175.7347 46.035)">
	</image>
</g>
<image style="overflow:visible;enable-background:new    ;" width="230" height="230" xlink:href="BE1AEAC7D0720C8D.png"  transform="matrix(4.600000e-02 0 0 4.600000e-02 141.3417 45.681)">
</image>
<g transform="translate(180.456 201.59) scale(.046)">
	
		<image style="overflow:visible;enable-background:new    ;" width="230" height="230" id="image_1_" xlink:href="BE1AEAC7D0720C8E.png"  transform="matrix(4.600000e-02 0 0 4.600000e-02 179.4337 202.15)">
	</image>
</g>
<g transform="translate(140.614 74.407) scale(.061)">
	
		<image style="overflow:visible;enable-background:new    ;" width="230" height="230" id="image-2_10_" xlink:href="BE1AEAC7D0720C8C.png"  transform="matrix(6.100000e-02 0 0 6.100000e-02 139.5917 74.967)">
	</image>
</g>
<g transform="translate(209.864 74.407) scale(.061)">
	
		<image style="overflow:visible;enable-background:new    ;" width="230" height="230" id="image-2_9_" xlink:href="BE1AEAC7D0720C8B.png"  transform="matrix(6.100000e-02 0 0 6.100000e-02 208.8417 74.967)">
	</image>
</g>
<g transform="translate(209.864 185.031) scale(.061)">
	
		<image style="overflow:visible;enable-background:new    ;" width="230" height="230" id="image-2_8_" xlink:href="BE1AEAC7D0720C85.png"  transform="matrix(6.100000e-02 0 0 6.100000e-02 208.8417 185.591)">
	</image>
</g>
<g transform="translate(27.663 12.129) scale(.061)">
	
		<image style="overflow:visible;enable-background:new    ;" width="230" height="230" id="image-2_1_" xlink:href="BE1AEAC7D0720C87.png"  transform="matrix(6.100000e-02 0 0 6.100000e-02 26.6407 12.689)">
	</image>
</g>
<rect x="23.3" y="107.8" class="st5" width="84.1" height="53.1"/>
<g>
	<rect x="124.4" y="160.9" class="st13" width="20.6" height="9.7"/>
	<text transform="matrix(1 0 0 1 126.092 168.024)" class="st6 st17 st8">出</text>
	<text transform="matrix(1 0 0 1 131.996 168.024)" class="st6 st17 st8">口</text>
	<text transform="matrix(1 0 0 1 138.536 168.024)" class="st6 st17 st8">1</text>
</g>
<g>
	<rect x="124.4" y="89" class="st13" width="20.6" height="9.7"/>
	<text transform="matrix(1 0 0 1 126.092 96.165)" class="st6 st17 st8">出</text>
	<text transform="matrix(1 0 0 1 131.996 96.165)" class="st6 st17 st8">口</text>
	<text transform="matrix(1 0 0 1 138.536 96.165)" class="st6 st17 st8">2</text>
</g>
<g>
	<rect x="217.4" y="89" class="st13" width="20.6" height="9.7"/>
	<text transform="matrix(1 0 0 1 219.057 96.165)" class="st6 st17 st8">出</text>
	<text transform="matrix(1 0 0 1 224.961 96.165)" class="st6 st17 st8">口</text>
	<text transform="matrix(1 0 0 1 231.501 96.165)" class="st6 st17 st8">3</text>
</g>
<g>
	<rect x="217.4" y="170.9" class="st13" width="20.6" height="9.7"/>
	<text transform="matrix(1 0 0 1 219.105 178.074)" class="st6 st17 st8">出</text>
	<text transform="matrix(1 0 0 1 225.009 178.074)" class="st6 st17 st8">口</text>
	<text transform="matrix(1 0 0 1 231.549 178.074)" class="st6 st17 st8">4</text>
</g>
<g>
	<rect x="167.2" y="238" class="st13" width="29.3" height="11.1"/>
	<g>
		<path class="st6" d="M172.8,241.7h-1.6c-0.3,0-0.5,0-0.8,0V241c0.2,0,0.5,0,0.8,0h3.5c0.3,0,0.5,0,0.8,0v0.7c-0.2,0-0.5,0-0.8,0
			h-1.2v1.5h1c0.3,0,0.5,0,0.7,0v0.7c-0.2,0-0.4,0-0.7,0h-1v1.7h1.4c0.3,0,0.6,0,0.8,0v0.7c-0.2,0-0.5,0-0.8,0H171
			c-0.3,0-0.5,0-0.8,0v-0.7c0.2,0,0.4,0,0.8,0h0.1v-1.9c0-0.3,0-0.6,0-0.8h0.8c0,0.2,0,0.5,0,0.8v1.9h1L172.8,241.7L172.8,241.7z"/>
		<path class="st6" d="M178.2,242.2c0.1-0.2,0.2-0.4,0.3-0.6H177c-0.3,0-0.5,0-0.7,0v-0.7c0.2,0,0.4,0,0.7,0h4c0.3,0,0.5,0,0.7,0
			v0.7c-0.2,0-0.4,0-0.7,0h-1.7c-0.1,0.2-0.2,0.4-0.3,0.6h1.8c0.3,0,0.5,0,0.7,0c0,0.2,0,0.4,0,0.8v2.6c0,0.3,0,0.6,0,0.8h-0.7V246
			h-3.7v0.3h-0.7c0-0.3,0-0.4,0-0.8v-2.6c0-0.3,0-0.5,0-0.8c0.2,0,0.4,0,0.7,0L178.2,242.2L178.2,242.2z M177.8,242.7h-0.7v2.7h0.7
			V242.7z M178.4,243.3h1.1v-0.5h-1.1V243.3z M179.5,243.8h-1.1v0.5h1.1V243.8z M179.5,245.5v-0.6h-1.1v0.6H179.5z M180.1,245.5h0.7
			v-2.7h-0.7V245.5z"/>
		<path class="st6" d="M182.3,245.5c0.1,0,0.2,0,0.4,0c0.1,0,0.3,0,0.6,0c0.5-0.5,0.6-0.5,1-1c-0.6-0.6-0.8-0.8-1.7-1.4l0.5-0.5
			c0.3,0.2,0.4,0.3,0.5,0.4c0.3-0.3,0.5-0.6,0.7-0.9H183c-0.3,0-0.5,0-0.7,0v-0.7c0.2,0,0.4,0,0.7,0h1.6v-0.3c0-0.2,0-0.3,0-0.4h0.8
			c0,0.1,0,0.3,0,0.4v0.3h1.6c0.3,0,0.5,0,0.7,0v0.7c-0.2,0-0.4,0-0.7,0h-1.8c-0.3,0.5-0.5,0.8-1,1.3c0.3,0.2,0.4,0.3,0.7,0.6
			c0.6-0.7,1.1-1.2,1.3-1.6l0.6,0.4c-0.1,0.1-0.1,0.2-0.3,0.4c-0.4,0.4-0.9,1.1-1.3,1.4c-0.4,0.4-0.7,0.7-0.8,0.7
			c0.9-0.1,1.8-0.2,2.1-0.2c-0.2-0.3-0.3-0.4-0.6-0.8l0.6-0.3c0.5,0.7,0.8,1.1,1.2,1.9l-0.6,0.4c-0.1-0.3-0.2-0.4-0.3-0.6
			c-0.6,0.1-0.9,0.1-1.6,0.2c-0.3,0-0.9,0.1-1.3,0.1l-0.9,0.1c-0.1,0-0.3,0-0.4,0L182.3,245.5L182.3,245.5z"/>
		<path class="st6" d="M189.1,245.5c0,0.4,0,0.6,0,0.7h-0.7c0-0.2,0-0.4,0-0.7v-4c0-0.3,0-0.5,0-0.7c0.2,0,0.3,0,0.6,0h1.1
			c0.3,0,0.4,0,0.6,0c0,0.2,0,0.3,0,0.6v0.9c0,0.3,0,0.4,0,0.5c-0.2,0-0.3,0-0.6,0H189L189.1,245.5L189.1,245.5z M189.1,241.7h1.1
			v-0.3h-1.1V241.7z M189.1,242.4h1.1v-0.3h-1.1V242.4z M191.3,244.8c0.3,0.3,0.6,0.4,1.1,0.6c-0.1,0.1-0.1,0.1-0.1,0.3
			c0.2,0,0.3,0,0.4,0c0.1,0,0.2,0,0.2-0.2v-2.6h-1.2c-0.2,0-0.4,0-0.6,0c0-0.1,0-0.3,0-0.5v-0.9c0-0.2,0-0.4,0-0.6
			c0.2,0,0.3,0,0.6,0h1.2c0.3,0,0.4,0,0.6,0c0,0.2,0,0.4,0,0.7v4c0,0.6-0.1,0.7-0.9,0.7c-0.1,0-0.2,0-0.3,0c0-0.2,0-0.3-0.1-0.5
			c0,0.1,0,0.1-0.1,0.2c-0.5-0.2-0.9-0.4-1.2-0.8c-0.3,0.5-0.6,0.8-1.4,1c-0.1-0.2-0.2-0.4-0.3-0.5c0.4-0.1,0.6-0.2,0.8-0.3
			s0.4-0.3,0.5-0.5h-0.6c-0.2,0-0.4,0-0.5,0v-0.6c0.1,0,0.3,0,0.5,0h0.7c0-0.1,0-0.2,0-0.4h-0.7c-0.2,0-0.3,0-0.4,0v-0.5
			c0.1,0,0.2,0,0.4,0h0.2c-0.1-0.1-0.1-0.2-0.3-0.4l0.6-0.1c0.1,0.2,0.2,0.3,0.3,0.6h0.5c0.1-0.2,0.2-0.3,0.3-0.6l0.6,0.1
			c-0.1,0.2-0.1,0.3-0.3,0.4h0.2c0.2,0,0.3,0,0.4,0v0.5c-0.1,0-0.2,0-0.4,0h-0.8c0,0.1,0,0.2,0,0.4h0.9c0.2,0,0.3,0,0.5,0v0.6
			c-0.1,0-0.3,0-0.5,0L191.3,244.8L191.3,244.8z M191.7,241.7h1.1v-0.3h-1.1V241.7z M191.7,242.4h1.1v-0.3h-1.1V242.4z"/>
	</g>
</g>
<rect x="172" y="92.9" class="st5" width="19.1" height="75.6"/>
<rect x="202.6" y="143.2" class="st5" width="26.9" height="26.9"/>
<text transform="matrix(1 0 0 1 56.331 136.3335)" class="st18 st7 st19">M２１</text>
<text transform="matrix(1 0 0 1 75.3332 29.337)" class="st18 st7 st20">A１２</text>
<text transform="matrix(1 0 0 1 134.7001 109.6662)"><tspan x="0" y="0" class="st18 st7 st19">PTA</tspan><tspan x="0" y="9.6" class="st18 st7 st19">成人</tspan><tspan x="0" y="19.2" class="st18 st7 st19">委員会</tspan></text>
<text transform="matrix(1 0 0 1 204.066 154.3337)"><tspan x="0" y="0" class="st18 st7 st19">保健</tspan><tspan x="0" y="9.6" class="st18 st7 st19">委員会</tspan></text>
<text transform="matrix(1 0 0 1 172.9498 120.6168)"><tspan x="0" y="0" class="st18 st7 st20">A科</tspan><tspan x="0" y="10.8" class="st18 st7 st20">課題</tspan><tspan x="0" y="21.6" class="st18 st7 st20">研究</tspan></text>
<rect x="202.6" y="6.3" class="st5" width="26.9" height="44.1"/>
<text transform="matrix(1 0 0 1 208.5399 25.2758)"><tspan x="0" y="0" class="st18 st7 st19">M科</tspan><tspan x="0" y="9.6" class="st18 st7 st19">科展</tspan></text>
<rect x="229.7" y="107.7" class="st5" width="102.2" height="75.3"/>
<g>
	<path d="M258.3,102.9L258.3,102.9l-3.8,1.8l-0.8-3.6l5.3-2.4h3.9v19.5h-4.6L258.3,102.9L258.3,102.9z"/>
	<path d="M271.1,104.7h8.3v2.6h-5.2v2.9h4.8v2.6h-4.8v5.3H271L271.1,104.7L271.1,104.7z"/>
</g>
<text transform="matrix(1 0 0 1 254.812 152.4)" class="st18 st7 st19">A２１</text>
<text transform="matrix(1 0 0 1 282.0424 152.3999)" class="st18 st7 st19">A２２</text>
</svg>
