<?xml version="1.0" encoding="utf-8"?>
<!-- Generator: Adobe Illustrator 22.1.0, SVG Export Plug-In . SVG Version: 6.00 Build 0)  -->
<svg version="1.1" id="レイヤー_1" xmlns="http://www.w3.org/2000/svg" xmlns:xlink="http://www.w3.org/1999/xlink" x="0px"
	 y="0px" viewBox="0 0 352 356.2" style="enable-background:new 0 0 352 356.2;" xml:space="preserve">
<style type="text/css">
	.st0{fill:#CCF5FF;}
	.st1{fill:#F7F6F5;}
	.st2{fill:none;stroke:#000000;stroke-width:0.5;stroke-miterlimit:10;}
	.st3{fill:#FFFFFF;stroke:#000000;stroke-width:0.5;stroke-miterlimit:10;}
	.st4{fill:#EAE1CF;stroke:#000000;stroke-width:0.5;stroke-miterlimit:10;}
	.st5{fill:#FAFDFF;stroke:#000000;stroke-width:0.5;stroke-miterlimit:10;}
	.st6{font-family:'KozGoPr6N-Medium-83pv-RKSJ-H';}
	.st7{font-size:6px;}
	.st8{fill:#CCF5FF;stroke:#000000;stroke-width:0.5;stroke-miterlimit:10;}
	.st9{fill:#0A0A0A;}
	.st10{font-family:'HiraginoSans-W5-83pv-RKSJ-H';}
	.st11{font-size:4.8px;}
	.st12{fill:#FFCC00;}
	.st13{font-family:'HiraginoSans-W7-83pv-RKSJ-H';}
	.st14{fill:#FAFDFF;stroke:#002355;stroke-width:0.5;stroke-miterlimit:10;}
	.st15{fill:none;stroke:#D43E00;stroke-miterlimit:10;}
	.st16{fill:#D43E00;}
	.st17{fill:#333333;}
	.st18{fill:#FAFDFF;stroke:#002355;stroke-width:0.25;stroke-miterlimit:10;}
	.st19{font-size:4.842px;}
	.st20{fill:none;stroke:#000000;stroke-miterlimit:10;}
</style>
<polygon class="st0" points="210.1,345.8 210.1,323.3 225,312.3 343.5,312.3 343.5,344.7 "/>
<path class="st1" d="M229.5,6.4h-95.6l0,0H23.3v65h110.2v105.4 M133.5,176.6v67.1h69.3l0,0h26.5v-15.8l0,0l0.2-40.5v-116l-0.1-65
	 M191.1,168.5H172V92.9h19.1V168.5L191.1,168.5z"/>
<path class="st2" d="M229.5,6.4h-95.6l0,0H23.3v65h110.2v105.4 M133.5,176.6v67.1h69.3l0,0h26.5v-15.8l0,0l0.2-40.5v-116l-0.1-65
	 M191.1,168.5H172V92.9h19.1V168.5L191.1,168.5z"/>
<polyline class="st2" points="65.6,248.9 72.6,248.9 72.6,262.7 "/>
<polyline class="st2" points="67,241 81.1,241 81.1,262.7 "/>
<polyline class="st3" points="107.6,176.2 107.6,170.8 107.6,90.3 23,90.3 23,238.5 46.8,238.5 55.7,238.5 65.2,238.5 107.6,238.5 
	107.6,205.7 "/>
<rect x="23" y="90.3" class="st3" width="84.5" height="17.4"/>
<polyline class="st3" points="54.2,176 23,176 23,107.8 107.5,107.8 107.5,176 66.5,176 "/>
<rect x="23" y="161.5" class="st3" width="27.2" height="14.4"/>
<rect x="79.5" y="206" class="st4" width="28" height="16.3"/>
<rect x="79.5" y="222.2" class="st3" width="28" height="16.3"/>
<rect x="23" y="206" class="st3" width="27.2" height="32.6"/>
<rect x="50.2" y="206" class="st3" width="15.2" height="32.6"/>
<rect x="65.4" y="206" class="st3" width="14.2" height="32.6"/>
<line class="st2" x1="50.3" y1="206.7" x2="50.3" y2="175.8"/>
<rect x="70.6" y="161.5" class="st3" width="37" height="14.4"/>
<rect x="171.4" y="6.4" class="st3" width="19.9" height="26.8"/>
<rect x="133.5" y="6.4" class="st3" width="38.2" height="26.8"/>
<rect x="133.5" y="57.5" class="st4" width="26.5" height="13.9"/>
<rect x="202.7" y="217.2" class="st3" width="26.7" height="26.6"/>
<rect x="202.7" y="202" class="st4" width="26.7" height="15.1"/>
<rect x="133.5" y="93.1" class="st3" width="26.8" height="58.4"/>
<rect x="133.5" y="176.7" class="st3" width="26.8" height="67"/>
<rect x="171.5" y="44.6" class="st4" width="19.8" height="26.8"/>
<line class="st2" x1="160" y1="57.4" x2="160" y2="44.7"/>
<rect x="202.6" y="93.4" class="st3" width="26.9" height="49.8"/>
<rect x="171.4" y="180.9" class="st5" width="19.8" height="17.3"/>
<rect x="171.4" y="198.1" class="st4" width="19.8" height="19"/>
<line class="st2" x1="178.3" y1="217.1" x2="178.3" y2="198.1"/>
<rect x="202.7" y="6.4" class="st3" width="26.7" height="65"/>
<line class="st2" x1="202.5" y1="50.4" x2="229.7" y2="50.4"/>
<rect x="202.6" y="144" class="st0" width="26.1" height="26.1"/>
<line class="st2" x1="160.2" y1="213.1" x2="133.8" y2="213.1"/>
<g>
	<text transform="matrix(1 0 0 1 210.0496 154.0759)" class="st6 st7">保健</text>
	<text transform="matrix(1 0 0 1 207.0496 161.5001)" class="st6 st7">委員会</text>
</g>
<line class="st2" x1="229.6" y1="183.7" x2="202.3" y2="183.7"/>
<line class="st2" x1="160.4" y1="138.5" x2="133.6" y2="138.5"/>
<line class="st2" x1="181.3" y1="33" x2="181.3" y2="6.5"/>
<line class="st2" x1="160.1" y1="204.5" x2="133.7" y2="204.5"/>
<line class="st2" x1="160.2" y1="189.3" x2="133.7" y2="189.3"/>
<line class="st2" x1="171.4" y1="243.7" x2="171.4" y2="231"/>
<line class="st2" x1="191.3" y1="243.7" x2="191.3" y2="231"/>
<polyline class="st3" points="133.5,44.4 133.5,71.4 44.2,71.4 44.2,44.4 116.5,44.4 "/>
<polygon class="st8" points="44.3,6.4 44.3,44.6 133.5,44.6 133.5,44.6 133.4,6.4 "/>
<line class="st2" x1="44.2" y1="44.5" x2="44.2" y2="6.4"/>
<text transform="matrix(1 0 0 1 137.926 185.519)" class="st9 st10 st7">応接室</text>
<text transform="matrix(1 0 0 1 207.086 120.622)" class="st9 st10 st7">保健室</text>
<text transform="matrix(1 0 0 1 204.831 25.276)" class="st9 st10 st7">エ</text>
<text transform="matrix(1 0 0 1 210.339 25.276)" class="st9 st10 st7">ン</text>
<text transform="matrix(1 0 0 1 215.829 25.276)" class="st9 st10 st7">ジ</text>
<text transform="matrix(1 0 0 1 221.403 25.276)" class="st9 st10 st7">ン</text>
<text transform="matrix(1 0 0 1 204.066 32.476)" class="st9 st10 st7">性能試験</text>
<text transform="matrix(1 0 0 1 207.223 39.676)" class="st9 st10 st7">実</text>
<text transform="matrix(1 0 0 1 213.055 39.676)" class="st9 st10 st7">習</text>
<text transform="matrix(1 0 0 1 218.911 39.676)" class="st9 st10 st7">室</text>
<text transform="matrix(1 0 0 1 210.129 229.158)" class="st9 st10 st7">進路</text>
<text transform="matrix(1 0 0 1 207.129 236.358)" class="st9 st10 st7">指導室</text>
<g>
	<text transform="matrix(1 0 0 1 60.4582 284.4156)" class="st9 st10 st7">2階体育館へ</text>
</g>
<text transform="matrix(1 0 0 1 137.819 22.028)" class="st9 st10 st7">水理</text>
<text transform="matrix(1 0 0 1 149.819 22.028)" class="st9 st10 st7">実</text>
<text transform="matrix(1 0 0 1 155.651 22.028)" class="st9 st10 st7">習</text>
<text transform="matrix(1 0 0 1 161.507 22.028)" class="st9 st10 st7">室</text>
<text transform="matrix(1 0 0 1 204.126 59.919)" class="st9 st10 st7">機械資材</text>
<text transform="matrix(1 0 0 1 210.126 67.119)" class="st9 st10 st7">倉庫</text>
<text transform="matrix(1 0 0 1 68.066 60.167)" class="st9 st10 st7">材料試験</text>
<text transform="matrix(1 0 0 1 92.066 60.167)" class="st9 st10 st7">実</text>
<text transform="matrix(1 0 0 1 97.898 60.167)" class="st9 st10 st7">習</text>
<text transform="matrix(1 0 0 1 103.754 60.167)" class="st9 st10 st7">室</text>
<text transform="matrix(1 0 0 1 137.947 120.617)" class="st9 st10 st7">会議室</text>
<text transform="matrix(1 0 0 1 56.331 138.126)" class="st9 st10 st7">格技場</text>
<text transform="matrix(1 0 0 1 59.349 101.284)" class="st9 st10 st7">部室</text>
<text transform="matrix(1 0 0 1 30.346 193.155)" class="st9 st10 st7">土俵</text>
<text transform="matrix(1 0 0 1 27.574 170.986)" class="st9 st10 st7">器具庫</text>
<text transform="matrix(1 0 0 1 88.761 232.213)" class="st9 st10 st11">部室</text>
<text transform="matrix(1 0 0 1 137.959 199.298)" class="st9 st10 st7">校長室</text>
<text transform="matrix(1 0 0 1 137.932 230.496)" class="st9 st10 st7">事務室</text>
<g>
	<text transform="matrix(1 0 0 1 174.148 16.748)" class="st10 st11">印</text>
	<text transform="matrix(1 0 0 1 174.149 26.502)" class="st10 st11">室</text>
	<text transform="matrix(1 0 0 1 174.148 21.609)" class="st10 st11">刷</text>
</g>
<g>
	<text transform="matrix(1 0 0 1 57.766 212.945)" class="st10 st11">ト</text>
	<text transform="matrix(6.123234e-17 1 -1 6.123234e-17 58.3691 217.869)" class="st10 st11">ー</text>
	<text transform="matrix(1 0 0 1 57.788 230.79)" class="st10 st11">ン</text>
	<text transform="matrix(1 0 0 1 57.893 217.432)" class="st10 st11">レ</text>
	<text transform="matrix(1 0 0 1 57.808 226.575)" class="st10 st11">ニ</text>
	<text transform="matrix(1 0 0 1 57.76 235.269)" class="st10 st11">グ</text>
	<text transform="matrix(1 0 0 1 52.054 235.27)" class="st10 st11">ム</text>
	<text transform="matrix(1 0 0 1 52.041 225.947)" class="st10 st11">ル</text>
	<text transform="matrix(6.123234e-17 1 -1 6.123234e-17 52.5684 226.311)" class="st10 st11">ー</text>
</g>
<g transform="translate(175.874 46.256) scale(.046)">
</g>
<g transform="translate(179.409 202.37) scale(.046)">
</g>
<g transform="translate(139.716 75.202) scale(.061)">
</g>
<g transform="translate(208.966 75.202) scale(.061)">
</g>
<g transform="translate(208.966 185.827) scale(.061)">
</g>
<g transform="translate(26.765 12.925) scale(.061)">
</g>
<g transform="translate(118.121 19.191) scale(.061)">
</g>
<g transform="translate(305.003 73.189) scale(.061)">
</g>
<g transform="translate(54.576 252.115) scale(.061)">
</g>
<g transform="translate(94.736 208.869) scale(.046)">
</g>
<g>
	<g>
		<g>
			<defs>
				<path id="SVGID_1_" d="M151.3,152.4h7.9c0.7,0,1.3,0.6,1.3,1.3v7.9c0,0.7-0.6,1.3-1.3,1.3h-7.9c-0.7,0-1.3-0.6-1.3-1.3v-7.9
					C150,153,150.6,152.4,151.3,152.4z"/>
			</defs>
			<clipPath id="SVGID_2_">
				<use xlink:href="#SVGID_1_"  style="overflow:visible;"/>
			</clipPath>
		</g>
	</g>
</g>
<rect x="133.6" y="93.1" class="st8" width="26.7" height="45.4"/>
<g transform="translate(176.757 45.475) scale(.046)">
</g>
<g transform="translate(180.456 201.59) scale(.046)">
</g>
<g transform="translate(140.614 74.407) scale(.061)">
</g>
<g transform="translate(209.864 74.407) scale(.061)">
</g>
<g transform="translate(209.864 185.031) scale(.061)">
</g>
<g transform="translate(27.663 12.129) scale(.061)">
</g>
<polyline class="st8" points="50.2,161.5 23,161.5 23,107.8 107.5,107.8 107.5,161.5 70.6,161.5 "/>
<g>
	<rect x="124.4" y="160.9" class="st12" width="20.6" height="9.7"/>
	<text transform="matrix(1 0 0 1 126.092 168.024)" class="st9 st13 st7">出</text>
	<text transform="matrix(1 0 0 1 131.996 168.024)" class="st9 st13 st7">口</text>
	<text transform="matrix(1 0 0 1 138.536 168.024)" class="st9 st13 st7">1</text>
</g>
<g>
	<rect x="110.1" y="78.5" class="st12" width="20.6" height="9.7"/>
	<text transform="matrix(1 0 0 1 111.7587 85.665)" class="st9 st13 st7">出</text>
	<text transform="matrix(1 0 0 1 117.6627 85.665)" class="st9 st13 st7">口</text>
	<text transform="matrix(1 0 0 1 124.2027 85.665)" class="st9 st13 st7">2</text>
</g>
<g>
	<rect x="231.3" y="77.6" class="st12" width="20.6" height="9.7"/>
	<text transform="matrix(1 0 0 1 232.957 84.715)" class="st9 st13 st7">出</text>
	<text transform="matrix(1 0 0 1 238.861 84.715)" class="st9 st13 st7">口</text>
	<text transform="matrix(1 0 0 1 245.401 84.715)" class="st9 st13 st7">3</text>
</g>
<g>
	<rect x="217.4" y="171.9" class="st12" width="20.6" height="9.7"/>
	<text transform="matrix(1 0 0 1 219.105 179.074)" class="st9 st13 st7">出</text>
	<text transform="matrix(1 0 0 1 225.009 179.074)" class="st9 st13 st7">口</text>
	<text transform="matrix(1 0 0 1 231.549 179.074)" class="st9 st13 st7">4</text>
</g>
<g>
	<rect x="167.2" y="238" class="st12" width="29.3" height="11.1"/>
	<g>
		<path class="st9" d="M172.8,241.7h-1.6c-0.3,0-0.5,0-0.8,0V241c0.2,0,0.5,0,0.8,0h3.5c0.3,0,0.5,0,0.8,0v0.7c-0.2,0-0.5,0-0.8,0
			h-1.2v1.5h1c0.3,0,0.5,0,0.7,0v0.7c-0.2,0-0.4,0-0.7,0h-1v1.7h1.4c0.3,0,0.6,0,0.8,0v0.7c-0.2,0-0.5,0-0.8,0H171
			c-0.3,0-0.5,0-0.8,0v-0.7c0.2,0,0.4,0,0.8,0h0.1v-1.9c0-0.3,0-0.6,0-0.8h0.8c0,0.2,0,0.5,0,0.8v1.9h1L172.8,241.7L172.8,241.7z"/>
		<path class="st9" d="M178.2,242.2c0.1-0.2,0.2-0.4,0.3-0.6H177c-0.3,0-0.5,0-0.7,0v-0.7c0.2,0,0.4,0,0.7,0h4c0.3,0,0.5,0,0.7,0
			v0.7c-0.2,0-0.4,0-0.7,0h-1.7c-0.1,0.2-0.2,0.4-0.3,0.6h1.8c0.3,0,0.5,0,0.7,0c0,0.2,0,0.4,0,0.8v2.6c0,0.3,0,0.6,0,0.8h-0.7V246
			h-3.7v0.3h-0.7c0-0.3,0-0.4,0-0.8v-2.6c0-0.3,0-0.5,0-0.8c0.2,0,0.4,0,0.7,0L178.2,242.2L178.2,242.2z M177.8,242.7h-0.7v2.7h0.7
			V242.7z M178.4,243.3h1.1v-0.5h-1.1V243.3z M179.5,243.8h-1.1v0.5h1.1V243.8z M179.5,245.5v-0.6h-1.1v0.6H179.5z M180.1,245.5h0.7
			v-2.7h-0.7V245.5z"/>
		<path class="st9" d="M182.3,245.5c0.1,0,0.2,0,0.4,0c0.1,0,0.3,0,0.6,0c0.5-0.5,0.6-0.5,1-1c-0.6-0.6-0.8-0.8-1.7-1.4l0.5-0.5
			c0.3,0.2,0.4,0.3,0.5,0.4c0.3-0.3,0.5-0.6,0.7-0.9H183c-0.3,0-0.5,0-0.7,0v-0.7c0.2,0,0.4,0,0.7,0h1.6v-0.3c0-0.2,0-0.3,0-0.4h0.8
			c0,0.1,0,0.3,0,0.4v0.3h1.6c0.3,0,0.5,0,0.7,0v0.7c-0.2,0-0.4,0-0.7,0h-1.8c-0.3,0.5-0.5,0.8-1,1.3c0.3,0.2,0.4,0.3,0.7,0.6
			c0.6-0.7,1.1-1.2,1.3-1.6l0.6,0.4c-0.1,0.1-0.1,0.2-0.3,0.4c-0.4,0.4-0.9,1.1-1.3,1.4c-0.4,0.4-0.7,0.7-0.8,0.7
			c0.9-0.1,1.8-0.2,2.1-0.2c-0.2-0.3-0.3-0.4-0.6-0.8l0.6-0.3c0.5,0.7,0.8,1.1,1.2,1.9l-0.6,0.4c-0.1-0.3-0.2-0.4-0.3-0.6
			c-0.6,0.1-0.9,0.1-1.6,0.2c-0.3,0-0.9,0.1-1.3,0.1l-0.9,0.1c-0.1,0-0.3,0-0.4,0L182.3,245.5L182.3,245.5z"/>
		<path class="st9" d="M189.1,245.5c0,0.4,0,0.6,0,0.7h-0.7c0-0.2,0-0.4,0-0.7v-4c0-0.3,0-0.5,0-0.7c0.2,0,0.3,0,0.6,0h1.1
			c0.3,0,0.4,0,0.6,0c0,0.2,0,0.3,0,0.6v0.9c0,0.3,0,0.4,0,0.5c-0.2,0-0.3,0-0.6,0H189L189.1,245.5L189.1,245.5z M189.1,241.7h1.1
			v-0.3h-1.1V241.7z M189.1,242.4h1.1v-0.3h-1.1V242.4z M191.3,244.8c0.3,0.3,0.6,0.4,1.1,0.6c-0.1,0.1-0.1,0.1-0.1,0.3
			c0.2,0,0.3,0,0.4,0c0.1,0,0.2,0,0.2-0.2v-2.6h-1.2c-0.2,0-0.4,0-0.6,0c0-0.1,0-0.3,0-0.5v-0.9c0-0.2,0-0.4,0-0.6
			c0.2,0,0.3,0,0.6,0h1.2c0.3,0,0.4,0,0.6,0c0,0.2,0,0.4,0,0.7v4c0,0.6-0.1,0.7-0.9,0.7c-0.1,0-0.2,0-0.3,0c0-0.2,0-0.3-0.1-0.5
			c0,0.1,0,0.1-0.1,0.2c-0.5-0.2-0.9-0.4-1.2-0.8c-0.3,0.5-0.6,0.8-1.4,1c-0.1-0.2-0.2-0.4-0.3-0.5c0.4-0.1,0.6-0.2,0.8-0.3
			s0.4-0.3,0.5-0.5h-0.6c-0.2,0-0.4,0-0.5,0v-0.6c0.1,0,0.3,0,0.5,0h0.7c0-0.1,0-0.2,0-0.4h-0.7c-0.2,0-0.3,0-0.4,0v-0.5
			c0.1,0,0.2,0,0.4,0h0.2c-0.1-0.1-0.1-0.2-0.3-0.4l0.6-0.1c0.1,0.2,0.2,0.3,0.3,0.6h0.5c0.1-0.2,0.2-0.3,0.3-0.6l0.6,0.1
			c-0.1,0.2-0.1,0.3-0.3,0.4h0.2c0.2,0,0.3,0,0.4,0v0.5c-0.1,0-0.2,0-0.4,0h-0.8c0,0.1,0,0.2,0,0.4h0.9c0.2,0,0.3,0,0.5,0v0.6
			c-0.1,0-0.3,0-0.5,0L191.3,244.8L191.3,244.8z M191.7,241.7h1.1v-0.3h-1.1V241.7z M191.7,242.4h1.1v-0.3h-1.1V242.4z"/>
	</g>
</g>
<rect x="172" y="92.9" class="st8" width="19.1" height="75.6"/>
<g>
	<text transform="matrix(1 0 0 1 141.6391 112.6662)" class="st6 st7">PTA</text>
	<text transform="matrix(1 0 0 1 140.9999 120.0084)" class="st6 st7">成人</text>
	<text transform="matrix(1 0 0 1 137.9999 127)" class="st6 st7">委員会</text>
</g>
<rect x="202.6" y="6.3" class="st8" width="26.9" height="44.1"/>
<rect x="248.6" y="101" class="st0" width="88.3" height="75.3"/>
<g>
	<path d="M279.5,81.8L279.5,81.8l-3.8,1.8l-0.8-3.6l5.3-2.4h3.9v19.5h-4.6L279.5,81.8L279.5,81.8z"/>
	<path d="M292.3,83.6h8.3v2.6h-5.2v2.9h4.8v2.6h-4.8V97h-3.2L292.3,83.6L292.3,83.6z"/>
</g>
<text transform="matrix(1 0 0 1 265.0415 138.6678)"><tspan x="0" y="0" class="st6 st7">建設科</tspan><tspan x="-0.4" y="7.2" class="st6 st7">2年1組</tspan></text>
<text transform="matrix(1 0 0 1 172.8003 125.0499)"><tspan x="0" y="0" class="st6 st7">建設科</tspan><tspan x="3" y="7.2" class="st6 st7">課題</tspan><tspan x="3" y="14.4" class="st6 st7">研究</tspan></text>
<text transform="matrix(1 0 0 1 53.0415 132.0391)"><tspan x="0" y="0" class="st6 st7">機械科</tspan><tspan x="-0.4" y="7.2" class="st6 st7">2年1組</tspan></text>
<text transform="matrix(1 0 0 1 80.1002 26.502)"><tspan x="0" y="0" class="st6 st7">建設科</tspan><tspan x="-0.4" y="7.2" class="st6 st7">1年2組</tspan></text>
<text transform="matrix(1 0 0 1 207.4001 26.502)"><tspan x="0" y="0" class="st6 st7">機械科</tspan><tspan x="3" y="7.2" class="st6 st7">科展</tspan></text>
<text transform="matrix(1 0 0 1 300.2889 138.668)"><tspan x="0" y="0" class="st6 st7">建設科</tspan><tspan x="-0.4" y="7.2" class="st6 st7">2年2組</tspan></text>
<text transform="matrix(1 0 0 1 283.65 170.6001)" class="st6 st7">中庭</text>
<line class="st2" x1="81.1" y1="260.6" x2="72.6" y2="260.6"/>
<line class="st2" x1="81.1" y1="259.1" x2="72.6" y2="259.1"/>
<line class="st2" x1="81.1" y1="257.7" x2="72.6" y2="257.7"/>
<line class="st2" x1="81.1" y1="256.2" x2="72.6" y2="256.2"/>
<line class="st2" x1="81.1" y1="254.7" x2="72.6" y2="254.7"/>
<line class="st2" x1="81.1" y1="253.3" x2="72.6" y2="253.3"/>
<line class="st2" x1="81.1" y1="251.8" x2="72.6" y2="251.8"/>
<line class="st2" x1="81.1" y1="250.4" x2="72.6" y2="250.4"/>
<line class="st2" x1="71" y1="248.9" x2="71" y2="241"/>
<line class="st2" x1="69.7" y1="248.9" x2="69.7" y2="241"/>
<line class="st2" x1="68.5" y1="248.9" x2="68.5" y2="241"/>
<rect x="23.4" y="54.6" class="st14" width="20.9" height="16.7"/>
<polyline class="st15" points="77.6,266 77.6,245.2 65.3,245.2 "/>
<polygon class="st16" points="63.6,245.3 67.1,246.7 67.1,243.8 "/>
<polygon class="st16" points="60.5,151.5 59,155 61.9,155 "/>
<g>
	<path class="st17" d="M184.8,186.4h-8.1c-0.3,0-0.5,0.2-0.5,0.5v8.2c0,0.3,0.2,0.5,0.5,0.5h8.1c0.3,0,0.5-0.2,0.5-0.5v-8.2
		C185.3,186.6,185.1,186.4,184.8,186.4z M179.1,190.9l-0.1,3.3c0,0.3-0.3,0.5-0.6,0.5h-0.2c-0.3,0-0.6-0.2-0.6-0.5l-0.1-3.3
		c0-0.3,0.2-0.5,0.5-0.5h0.5C178.9,190.4,179.1,190.6,179.1,190.9z M178.3,190c-0.5,0-0.8-0.4-0.8-0.8c0-0.5,0.4-0.8,0.8-0.8
		c0.5,0,0.8,0.4,0.8,0.8C179.1,189.6,178.8,190,178.3,190z M181.6,190.9l-0.1,3.3c0,0.3-0.3,0.5-0.6,0.5h-0.2
		c-0.3,0-0.6-0.2-0.6-0.5l-0.1-3.3c0-0.3,0.2-0.5,0.5-0.5h0.5C181.4,190.4,181.6,190.6,181.6,190.9z M180.8,190
		c-0.5,0-0.8-0.4-0.8-0.8c0-0.5,0.4-0.8,0.8-0.8c0.5,0,0.8,0.4,0.8,0.8C181.6,189.6,181.2,190,180.8,190z M184.1,190.9l-0.1,3.3
		c0,0.3-0.3,0.5-0.6,0.5h-0.2c-0.3,0-0.6-0.2-0.6-0.5l-0.1-3.3c0-0.3,0.2-0.5,0.5-0.5h0.5C183.8,190.4,184.1,190.6,184.1,190.9z
		 M183.3,190c-0.5,0-0.8-0.4-0.8-0.8c0-0.5,0.4-0.8,0.8-0.8c0.5,0,0.8,0.4,0.8,0.8C184.1,189.6,183.7,190,183.3,190z"/>
	<g>
		<polygon class="st17" points="178.3,185.6 178.3,183.4 177.7,184 177,183.4 178.8,181.6 178.9,181.7 180.6,183.4 179.9,184 
			179.3,183.4 179.3,185.6 		"/>
		<polygon class="st17" points="182.7,185.6 181,183.9 181.7,183.2 182.3,183.9 182.3,181.7 183.3,181.7 183.3,183.9 183.9,183.2 
			184.6,183.9 182.8,185.7 		"/>
	</g>
</g>
<g>
	<path class="st17" d="M37.6,59.4h-8.1c-0.3,0-0.5,0.2-0.5,0.5v8.2c0,0.3,0.2,0.5,0.5,0.5h8.1c0.3,0,0.5-0.2,0.5-0.5v-8.2
		C38.1,59.6,37.9,59.4,37.6,59.4z M31.9,63.9l-0.1,3.3c0,0.3-0.3,0.5-0.6,0.5h-0.2c-0.3,0-0.6-0.2-0.6-0.5l-0.1-3.3
		c0-0.3,0.2-0.5,0.5-0.5h0.5C31.7,63.4,31.9,63.6,31.9,63.9z M31.1,63c-0.5,0-0.8-0.4-0.8-0.8c0-0.5,0.4-0.8,0.8-0.8
		c0.5,0,0.8,0.4,0.8,0.8C32,62.6,31.6,63,31.1,63z M34.4,63.9l-0.1,3.3c0,0.3-0.3,0.5-0.6,0.5h-0.2c-0.3,0-0.6-0.2-0.6-0.5l-0.1-3.3
		c0-0.3,0.2-0.5,0.5-0.5h0.5C34.2,63.4,34.4,63.6,34.4,63.9z M33.6,63c-0.5,0-0.8-0.4-0.8-0.8c0-0.5,0.4-0.8,0.8-0.8
		c0.5,0,0.8,0.4,0.8,0.8C34.4,62.6,34.1,63,33.6,63z M36.9,63.9l-0.1,3.3c0,0.3-0.3,0.5-0.6,0.5H36c-0.3,0-0.6-0.2-0.6-0.5l-0.1-3.3
		c0-0.3,0.2-0.5,0.5-0.5h0.5C36.7,63.4,36.9,63.6,36.9,63.9z M36.1,63c-0.5,0-0.8-0.4-0.8-0.8c0-0.5,0.4-0.8,0.8-0.8
		c0.5,0,0.8,0.4,0.8,0.8C36.9,62.6,36.5,63,36.1,63z"/>
	<g>
		<polygon class="st17" points="31.1,58.6 31.1,56.4 30.5,57 29.8,56.4 31.6,54.6 31.7,54.7 33.4,56.4 32.7,57.1 32.1,56.4 
			32.1,58.6 		"/>
		<polygon class="st17" points="35.5,58.6 33.9,56.9 34.5,56.2 35.1,56.9 35.1,54.7 36.1,54.7 36.1,56.9 36.7,56.3 37.4,56.9 
			35.6,58.7 		"/>
	</g>
</g>
<g>
	<path class="st17" d="M189.1,201.6h-9c-0.5,0-1,0.4-1,1v9c0,0.5,0.4,1,1,1h9c0.5,0,1-0.4,1-1v-9
		C190.1,202.1,189.7,201.6,189.1,201.6z M186.3,203.2c0.4,0,0.7,0.3,0.7,0.7c0,0.4-0.3,0.7-0.7,0.7c-0.4,0-0.7-0.3-0.7-0.7
		C185.7,203.5,186,203.2,186.3,203.2z M182.6,203.2c0.4,0,0.7,0.3,0.7,0.7c0,0.4-0.3,0.7-0.7,0.7c-0.4,0-0.7-0.3-0.7-0.7
		C181.9,203.5,182.2,203.2,182.6,203.2z M183.6,207.9c0,0.1-0.1,0.2-0.2,0.2l-0.3,0.1l-0.1,2.6c0,0.1-0.2,0.3-0.3,0.3h-0.2
		c-0.2,0-0.3-0.1-0.3-0.3l-0.1-2.6l-0.3-0.1c-0.1,0-0.2-0.1-0.2-0.2l-0.1-2.7c0-0.2,0.1-0.3,0.3-0.3h1.6c0.2,0,0.3,0.1,0.3,0.3
		L183.6,207.9z M187.4,208.3h-0.6l-0.2,2.6c0,0.1-0.1,0.3-0.3,0.3h-0.1c-0.1,0-0.3-0.1-0.3-0.3l-0.2-2.6h-0.6
		c-0.2,0-0.4-0.2-0.3-0.4l0.7-1.5c0,0,0-0.1,0-0.1l-0.3-1.1c0-0.1,0.1-0.3,0.2-0.3h1.5c0.1,0,0.3,0.1,0.2,0.3l-0.3,1.1
		c0,0,0,0,0,0.1l0.7,1.5C187.8,208.1,187.6,208.3,187.4,208.3z"/>
</g>
<g>
	<path class="st17" d="M98,208.7h-9c-0.5,0-1,0.4-1,1v9c0,0.5,0.4,1,1,1h9c0.5,0,1-0.4,1-1v-9C99,209.1,98.6,208.7,98,208.7z
		 M95.2,210.2c0.4,0,0.7,0.3,0.7,0.7s-0.3,0.7-0.7,0.7c-0.4,0-0.7-0.3-0.7-0.7S94.8,210.2,95.2,210.2z M91.5,210.2
		c0.4,0,0.7,0.3,0.7,0.7s-0.3,0.7-0.7,0.7c-0.4,0-0.7-0.3-0.7-0.7S91.1,210.2,91.5,210.2z M92.5,214.9c0,0.1-0.1,0.2-0.2,0.2
		l-0.3,0.1l-0.1,2.6c0,0.1-0.2,0.3-0.3,0.3h-0.2c-0.2,0-0.3-0.1-0.3-0.3l-0.1-2.6l-0.3-0.1c-0.1,0-0.2-0.1-0.2-0.2l-0.1-2.7
		c0-0.2,0.1-0.3,0.3-0.3h1.6c0.2,0,0.3,0.1,0.3,0.3L92.5,214.9z M96.3,215.3h-0.6l-0.2,2.6c0,0.1-0.1,0.3-0.3,0.3h-0.1
		c-0.1,0-0.3-0.1-0.3-0.3l-0.2-2.6h-0.6c-0.2,0-0.4-0.2-0.3-0.4l0.7-1.5c0,0,0-0.1,0-0.1l-0.3-1.1c0-0.1,0.1-0.3,0.2-0.3H96
		c0.1,0,0.3,0.1,0.2,0.3l-0.3,1.1c0,0,0,0,0,0.1l0.7,1.5C96.6,215.1,96.5,215.3,96.3,215.3z"/>
</g>
<g>
	<path class="st17" d="M185.8,45.3h-9c-0.5,0-1,0.4-1,1v9c0,0.5,0.4,1,1,1h9c0.5,0,1-0.4,1-1v-9C186.8,45.8,186.4,45.3,185.8,45.3z
		 M183,46.9c0.4,0,0.7,0.3,0.7,0.7c0,0.4-0.3,0.7-0.7,0.7c-0.4,0-0.7-0.3-0.7-0.7C182.4,47.2,182.7,46.9,183,46.9z M179.3,46.9
		c0.4,0,0.7,0.3,0.7,0.7c0,0.4-0.3,0.7-0.7,0.7c-0.4,0-0.7-0.3-0.7-0.7C178.6,47.2,178.9,46.9,179.3,46.9z M180.3,51.6
		c0,0.1-0.1,0.2-0.2,0.2l-0.3,0.1l-0.1,2.6c0,0.1-0.2,0.3-0.3,0.3h-0.2c-0.2,0-0.3-0.1-0.3-0.3l-0.1-2.6l-0.3-0.1
		c-0.1,0-0.2-0.1-0.2-0.2l-0.1-2.7c0-0.2,0.1-0.3,0.3-0.3h1.6c0.2,0,0.3,0.1,0.3,0.3L180.3,51.6z M184.1,52h-0.6l-0.2,2.6
		c0,0.1-0.1,0.3-0.3,0.3H183c-0.1,0-0.3-0.1-0.3-0.3l-0.2-2.6H182c-0.2,0-0.4-0.2-0.3-0.4l0.7-1.5c0,0,0-0.1,0-0.1l-0.3-1.1
		c0-0.1,0.1-0.3,0.2-0.3h1.5c0.1,0,0.3,0.1,0.2,0.3l-0.3,1.1c0,0,0,0,0,0.1l0.7,1.5C184.4,51.8,184.3,52,184.1,52z"/>
</g>
<g>
	<path class="st17" d="M223.5,78h-3.1c-0.1,0-0.2,0-0.2,0.1l-2,1.3l0,0l0,0c0,0,0,0,0,0c0,0,0,0,0,0c0,0,0,0,0,0c0,0,0,0,0,0
		c0,0,0,0,0,0c0,0,0,0,0,0c0,0,0,0,0,0c0,0,0,0,0,0c0,0,0,0,0,0c0,0,0,0,0,0c0,0,0,0,0,0c0,0,0,0,0,0c0,0,0,0,0,0c0,0,0,0,0,0
		c0,0,0,0,0,0c0,0,0,0,0,0c0,0,0,0,0,0c0,0,0,0,0,0c0,0,0,0,0,0c0,0,0,0,0,0v1.5c0,0,0,0,0,0l-2,1.3l0,0l0,0c0,0,0,0,0,0
		c0,0,0,0,0,0c0,0,0,0,0,0c0,0,0,0,0,0c0,0,0,0,0,0c0,0,0,0,0,0c0,0,0,0,0,0c0,0,0,0,0,0c0,0,0,0,0,0c0,0,0,0,0,0c0,0,0,0,0,0
		c0,0,0,0,0,0c0,0,0,0,0,0c0,0,0,0,0,0c0,0,0,0,0,0c0,0,0,0,0,0c0,0,0,0,0,0c0,0,0,0,0,0c0,0,0,0,0,0c0,0,0,0,0,0v1.6L214,86l0,0
		l0,0c0,0,0,0,0,0c0,0,0,0,0,0c0,0,0,0,0,0c0,0,0,0,0,0c0,0,0,0,0,0c0,0,0,0,0,0c0,0,0,0,0,0c0,0,0,0,0,0c0,0,0,0,0,0c0,0,0,0,0,0
		c0,0,0,0,0,0c0,0,0,0,0,0c0,0,0,0,0,0c0,0,0,0,0,0c0,0,0,0,0,0c0,0,0,0,0,0c0,0,0,0,0,0c0,0,0,0,0,0c0,0,0,0,0,0c0,0,0,0,0,0v1.6
		l-1.9,1.3l0,0l0,0c0,0,0,0,0,0c0,0,0,0,0,0c0,0,0,0,0,0c0,0,0,0,0,0c0,0,0,0,0,0c0,0,0,0,0,0c0,0,0,0,0,0c0,0,0,0,0,0c0,0,0,0,0,0
		c0,0,0,0,0,0c0,0,0,0,0,0c0,0,0,0,0,0c0,0,0,0,0,0c0,0,0,0,0,0c0,0,0,0,0,0c0,0,0,0,0,0c0,0,0,0,0,0c0,0,0,0,0,0c0,0,0,0,0,0
		c0,0,0,0,0,0v1.9c0,0.2,0.2,0.4,0.4,0.4h11.4c0.2,0,0.4-0.2,0.4-0.4v-13C223.9,78.2,223.7,78,223.5,78z M218.9,80.2h4.2v1.1h-4.2
		V80.2z M223.1,83.5v1.1h-6.4v-1.1H223.1z M223.1,86.7v1.1h-8.5v-1.1H223.1z M223.1,91h-10.6V90h10.6V91z"/>
	<path class="st17" d="M217.8,78.2c-0.2-0.2-0.4-0.2-0.6,0l-9.2,8.4c-0.2,0.2-0.2,0.4,0,0.6c0.1,0.1,0.2,0.1,0.3,0.1
		c0.1,0,0.2,0,0.3-0.1l1.9-1.7v0.8H210c-0.1,0-0.2,0.1-0.2,0.2c0,0.1,0.1,0.2,0.2,0.2h0.8c0.1,0,0.2-0.1,0.2-0.2V85l4.2-3.9V82h-0.5
		c-0.1,0-0.3,0.1-0.3,0.3s0.1,0.3,0.3,0.3h0.8c0.1,0,0.3-0.1,0.3-0.3v-1.6l2.1-1.9C217.9,78.6,218,78.3,217.8,78.2z"/>
</g>
<g>
	<path class="st17" d="M151.2,73h-3.1c-0.1,0-0.2,0-0.2,0.1l-2,1.3l0,0l0,0c0,0,0,0,0,0c0,0,0,0,0,0c0,0,0,0,0,0c0,0,0,0,0,0
		c0,0,0,0,0,0c0,0,0,0,0,0c0,0,0,0,0,0c0,0,0,0,0,0c0,0,0,0,0,0c0,0,0,0,0,0c0,0,0,0,0,0c0,0,0,0,0,0c0,0,0,0,0,0c0,0,0,0,0,0
		c0,0,0,0,0,0c0,0,0,0,0,0c0,0,0,0,0,0c0,0,0,0,0,0c0,0,0,0,0,0c0,0,0,0,0,0v1.5c0,0,0,0,0,0l-2,1.3l0,0l0,0c0,0,0,0,0,0
		c0,0,0,0,0,0c0,0,0,0,0,0c0,0,0,0,0,0c0,0,0,0,0,0c0,0,0,0,0,0c0,0,0,0,0,0c0,0,0,0,0,0c0,0,0,0,0,0c0,0,0,0,0,0c0,0,0,0,0,0
		c0,0,0,0,0,0c0,0,0,0,0,0c0,0,0,0,0,0c0,0,0,0,0,0c0,0,0,0,0,0c0,0,0,0,0,0c0,0,0,0,0,0c0,0,0,0,0,0c0,0,0,0,0,0v1.6l-1.9,1.3l0,0
		l0,0c0,0,0,0,0,0c0,0,0,0,0,0c0,0,0,0,0,0c0,0,0,0,0,0c0,0,0,0,0,0c0,0,0,0,0,0c0,0,0,0,0,0c0,0,0,0,0,0c0,0,0,0,0,0c0,0,0,0,0,0
		c0,0,0,0,0,0c0,0,0,0,0,0c0,0,0,0,0,0c0,0,0,0,0,0c0,0,0,0,0,0c0,0,0,0,0,0c0,0,0,0,0,0c0,0,0,0,0,0c0,0,0,0,0,0c0,0,0,0,0,0v1.6
		l-1.9,1.3l0,0l0,0c0,0,0,0,0,0c0,0,0,0,0,0c0,0,0,0,0,0c0,0,0,0,0,0c0,0,0,0,0,0c0,0,0,0,0,0c0,0,0,0,0,0c0,0,0,0,0,0c0,0,0,0,0,0
		c0,0,0,0,0,0c0,0,0,0,0,0c0,0,0,0,0,0c0,0,0,0,0,0c0,0,0,0,0,0c0,0,0,0,0,0c0,0,0,0,0,0c0,0,0,0,0,0c0,0,0,0,0,0c0,0,0,0,0,0
		c0,0,0,0,0,0v1.9c0,0.2,0.2,0.4,0.4,0.4h11.4c0.2,0,0.4-0.2,0.4-0.4v-13C151.6,73.2,151.4,73,151.2,73z M146.6,75.2h4.2v1.1h-4.2
		V75.2z M150.8,78.5v1.1h-6.4v-1.1H150.8z M150.8,81.7v1.1h-8.5v-1.1H150.8z M150.8,86h-10.6V85h10.6V86z"/>
	<path class="st17" d="M145.5,73.2c-0.2-0.2-0.4-0.2-0.6,0l-9.2,8.4c-0.2,0.2-0.2,0.4,0,0.6c0.1,0.1,0.2,0.1,0.3,0.1
		c0.1,0,0.2,0,0.3-0.1l1.9-1.7v0.8h-0.5c-0.1,0-0.2,0.1-0.2,0.2c0,0.1,0.1,0.2,0.2,0.2h0.8c0.1,0,0.2-0.1,0.2-0.2V80l4.2-3.9V77
		h-0.5c-0.1,0-0.3,0.1-0.3,0.3s0.1,0.3,0.3,0.3h0.8c0.1,0,0.3-0.1,0.3-0.3v-1.6l2.1-1.9C145.6,73.6,145.7,73.3,145.5,73.2z"/>
</g>
<g>
	<path class="st17" d="M41.6,9.5h-3.1c-0.1,0-0.2,0-0.2,0.1l-2,1.3l0,0l0,0c0,0,0,0,0,0c0,0,0,0,0,0c0,0,0,0,0,0c0,0,0,0,0,0
		c0,0,0,0,0,0c0,0,0,0,0,0c0,0,0,0,0,0c0,0,0,0,0,0c0,0,0,0,0,0c0,0,0,0,0,0c0,0,0,0,0,0c0,0,0,0,0,0c0,0,0,0,0,0c0,0,0,0,0,0
		c0,0,0,0,0,0c0,0,0,0,0,0c0,0,0,0,0,0c0,0,0,0,0,0c0,0,0,0,0,0c0,0,0,0,0,0v1.5c0,0,0,0,0,0l-2,1.3l0,0l0,0c0,0,0,0,0,0
		c0,0,0,0,0,0c0,0,0,0,0,0c0,0,0,0,0,0c0,0,0,0,0,0c0,0,0,0,0,0c0,0,0,0,0,0c0,0,0,0,0,0c0,0,0,0,0,0c0,0,0,0,0,0c0,0,0,0,0,0
		c0,0,0,0,0,0c0,0,0,0,0,0c0,0,0,0,0,0c0,0,0,0,0,0c0,0,0,0,0,0c0,0,0,0,0,0c0,0,0,0,0,0c0,0,0,0,0,0c0,0,0,0,0,0v1.6L32,17.5l0,0
		l0,0c0,0,0,0,0,0c0,0,0,0,0,0c0,0,0,0,0,0c0,0,0,0,0,0c0,0,0,0,0,0c0,0,0,0,0,0c0,0,0,0,0,0c0,0,0,0,0,0c0,0,0,0,0,0c0,0,0,0,0,0
		c0,0,0,0,0,0c0,0,0,0,0,0c0,0,0,0,0,0c0,0,0,0,0,0c0,0,0,0,0,0c0,0,0,0,0,0c0,0,0,0,0,0c0,0,0,0,0,0c0,0,0,0,0,0c0,0,0,0,0,0v1.6
		l-1.9,1.3l0,0l0,0c0,0,0,0,0,0c0,0,0,0,0,0c0,0,0,0,0,0c0,0,0,0,0,0c0,0,0,0,0,0c0,0,0,0,0,0c0,0,0,0,0,0c0,0,0,0,0,0c0,0,0,0,0,0
		c0,0,0,0,0,0c0,0,0,0,0,0c0,0,0,0,0,0c0,0,0,0,0,0c0,0,0,0,0,0c0,0,0,0,0,0c0,0,0,0,0,0c0,0,0,0,0,0c0,0,0,0,0,0c0,0,0,0,0,0
		c0,0,0,0,0,0v1.9c0,0.2,0.2,0.4,0.4,0.4h11.4c0.2,0,0.4-0.2,0.4-0.4V10C42,9.7,41.8,9.5,41.6,9.5z M36.9,11.7h4.2v1.1h-4.2V11.7z
		 M41.1,15V16h-6.4V15H41.1z M41.1,18.2v1.1h-8.5v-1.1H41.1z M41.1,22.5H30.6v-1.1h10.6V22.5z"/>
	<path class="st17" d="M35.8,9.7c-0.2-0.2-0.4-0.2-0.6,0l-9.2,8.4c-0.2,0.2-0.2,0.4,0,0.6c0.1,0.1,0.2,0.1,0.3,0.1
		c0.1,0,0.2,0,0.3-0.1l1.9-1.7v0.8H28c-0.1,0-0.2,0.1-0.2,0.2s0.1,0.2,0.2,0.2h0.8c0.1,0,0.2-0.1,0.2-0.2v-1.5l4.2-3.9v0.9h-0.5
		c-0.1,0-0.3,0.1-0.3,0.3c0,0.1,0.1,0.3,0.3,0.3h0.8c0.1,0,0.3-0.1,0.3-0.3v-1.6l2.1-1.9C36,10.1,36,9.8,35.8,9.7z"/>
</g>
<g>
	<path class="st17" d="M222.2,186.3h-3.1c-0.1,0-0.2,0-0.2,0.1l-2,1.3l0,0l0,0c0,0,0,0,0,0c0,0,0,0,0,0c0,0,0,0,0,0c0,0,0,0,0,0
		c0,0,0,0,0,0c0,0,0,0,0,0c0,0,0,0,0,0c0,0,0,0,0,0c0,0,0,0,0,0c0,0,0,0,0,0c0,0,0,0,0,0c0,0,0,0,0,0c0,0,0,0,0,0c0,0,0,0,0,0
		c0,0,0,0,0,0c0,0,0,0,0,0c0,0,0,0,0,0c0,0,0,0,0,0c0,0,0,0,0,0c0,0,0,0,0,0v1.5c0,0,0,0,0,0l-2,1.3l0,0l0,0c0,0,0,0,0,0
		c0,0,0,0,0,0c0,0,0,0,0,0c0,0,0,0,0,0c0,0,0,0,0,0c0,0,0,0,0,0c0,0,0,0,0,0c0,0,0,0,0,0c0,0,0,0,0,0c0,0,0,0,0,0c0,0,0,0,0,0
		c0,0,0,0,0,0c0,0,0,0,0,0c0,0,0,0,0,0c0,0,0,0,0,0c0,0,0,0,0,0c0,0,0,0,0,0c0,0,0,0,0,0c0,0,0,0,0,0c0,0,0,0,0,0v1.6l-1.9,1.3l0,0
		l0,0c0,0,0,0,0,0c0,0,0,0,0,0c0,0,0,0,0,0c0,0,0,0,0,0c0,0,0,0,0,0c0,0,0,0,0,0c0,0,0,0,0,0c0,0,0,0,0,0c0,0,0,0,0,0c0,0,0,0,0,0
		c0,0,0,0,0,0c0,0,0,0,0,0c0,0,0,0,0,0c0,0,0,0,0,0c0,0,0,0,0,0c0,0,0,0,0,0c0,0,0,0,0,0c0,0,0,0,0,0c0,0,0,0,0,0c0,0,0,0,0,0v1.6
		l-1.9,1.3l0,0l0,0c0,0,0,0,0,0c0,0,0,0,0,0c0,0,0,0,0,0c0,0,0,0,0,0c0,0,0,0,0,0c0,0,0,0,0,0c0,0,0,0,0,0c0,0,0,0,0,0c0,0,0,0,0,0
		c0,0,0,0,0,0c0,0,0,0,0,0c0,0,0,0,0,0c0,0,0,0,0,0c0,0,0,0,0,0c0,0,0,0,0,0c0,0,0,0,0,0c0,0,0,0,0,0c0,0,0,0,0,0c0,0,0,0,0,0
		c0,0,0,0,0,0v1.9c0,0.2,0.2,0.4,0.4,0.4h11.4c0.2,0,0.4-0.2,0.4-0.4v-13C222.6,186.5,222.4,186.3,222.2,186.3z M217.5,188.5h4.2
		v1.1h-4.2V188.5z M221.8,191.7v1.1h-6.4v-1.1H221.8z M221.8,195v1.1h-8.5V195H221.8z M221.8,199.3h-10.6v-1.1h10.6V199.3z"/>
	<path class="st17" d="M216.5,186.4c-0.2-0.2-0.4-0.2-0.6,0l-9.2,8.4c-0.2,0.2-0.2,0.4,0,0.6c0.1,0.1,0.2,0.1,0.3,0.1
		c0.1,0,0.2,0,0.3-0.1l1.9-1.7v0.8h-0.5c-0.1,0-0.2,0.1-0.2,0.2c0,0.1,0.1,0.2,0.2,0.2h0.8c0.1,0,0.2-0.1,0.2-0.2v-1.5l4.2-3.9v0.9
		h-0.5c-0.1,0-0.3,0.1-0.3,0.3c0,0.1,0.1,0.3,0.3,0.3h0.8c0.1,0,0.3-0.1,0.3-0.3v-1.6l2.1-1.9C216.6,186.8,216.6,186.6,216.5,186.4z
		"/>
</g>
<g>
	<g>
		<path class="st17" d="M144.6,47.6c0,0.2,0.1,0.3,0.3,0.3h1.7c0.2,0,0.3-0.1,0.3-0.3v-0.4c0-0.2-0.1-0.3-0.3-0.3h-1.7
			c-0.2,0-0.3,0.1-0.3,0.3V47.6z"/>
	</g>
	<g>
		<path class="st17" d="M151.9,43.6h-0.4c-0.2,0-0.3,0.1-0.3,0.3v0h-0.7c-0.2-0.3-0.6-0.6-1.1-0.7v-0.3c0,0,0,0,0.1-0.1L151,43
			c0.2,0,0.3-0.1,0.3-0.3v-0.1c0-0.2-0.1-0.3-0.3-0.3l-1.4,0.1c-0.1-0.2-0.3-0.3-0.5-0.3c-0.2,0-0.4,0.1-0.5,0.3l-1.6-0.1
			c-0.2,0-0.3,0.1-0.3,0.3v0.1c0,0.2,0.1,0.3,0.3,0.3l1.6-0.1c0,0,0,0,0,0c0,0,0,0.1,0.1,0.1v0.3c-0.4,0.1-0.8,0.3-1.1,0.7h-0.9
			c-1,0-1.8,0.8-1.8,1.8v0.8h1.6v-0.8c0-0.1,0.1-0.2,0.2-0.2h0.8c0.3,0.5,0.9,0.9,1.5,0.9s1.3-0.4,1.5-0.9h0.6v0
			c0,0.2,0.1,0.3,0.3,0.3l0.4,0c0.2,0,0.3-0.1,0.3-0.3v-1.7C152.2,43.7,152.1,43.6,151.9,43.6z M146.7,44.6c-0.6,0-1.1,0.5-1.1,1.1
			c0,0.1-0.1,0.1-0.1,0.1c-0.1,0-0.1-0.1-0.1-0.1c0-0.4,0.1-0.7,0.4-1c0.3-0.3,0.6-0.4,1-0.4c0.1,0,0.1,0.1,0.1,0.1
			C146.8,44.5,146.8,44.6,146.7,44.6z"/>
	</g>
	<g>
		<path class="st17" d="M145.5,54.5c-0.4,0-0.8-0.3-0.9-0.6c-0.6,0-1.1-0.1-1.2-0.5c0-0.1,0-0.3,0.1-0.4c-0.5-0.2-0.8-0.6-0.8-1
			c0-0.3,0.2-0.5,0.6-0.6c0.2-0.1,0.4-0.1,0.6-0.1c0-0.1,0-0.2,0-0.3c0.1-0.2,0.4-0.4,0.7-0.3v-2.2c0-0.1,0.1-0.2,0.2-0.2
			c0.1,0,0.2,0.1,0.2,0.2v2.4c0,0.1,0,0.1-0.1,0.2c-0.1,0-0.1,0-0.2,0c-0.3-0.1-0.5,0-0.5,0c0,0,0,0.1,0.1,0.2
			c0.1,0.1,0.1,0.2,0,0.2c0,0.1-0.1,0.1-0.2,0.1c-0.6-0.1-1.1,0.1-1.1,0.3c0,0.2,0.3,0.5,0.8,0.7c0.1,0,0.1,0.1,0.1,0.2
			c0,0.1,0,0.1-0.1,0.2c-0.1,0.1-0.2,0.2-0.2,0.3c0,0.1,0.4,0.3,0.9,0.2c0.1,0,0.1,0,0.2,0c0,0,0.1,0.1,0.1,0.1
			c0,0.3,0.3,0.5,0.5,0.5c0.2,0,0.4-0.1,0.5-0.3c0-0.1,0.1-0.1,0.1-0.1c0.1,0,0.1,0,0.2,0c0.1,0,0.1,0.1,0.2,0.1
			c0.2,0.1,0.5,0.1,0.7,0.1c0.1,0,0.3-0.1,0.3-0.2c0-0.1,0-0.2,0-0.3c0-0.1,0-0.1,0-0.2c0-0.1,0.1-0.1,0.1-0.1
			c0.4-0.1,0.6-0.3,0.6-0.3c0-0.1-0.2-0.3-0.7-0.3c-0.1,0-0.1-0.1-0.2-0.2c0-0.1,0-0.2,0.1-0.2c0.3-0.2,0.5-0.5,0.4-0.6
			c-0.1-0.2-0.6-0.3-1.2-0.1c-0.1,0-0.1,0-0.2,0c-0.1,0-0.1-0.1-0.1-0.2v-2.7c0-0.1,0.1-0.2,0.2-0.2c0.1,0,0.2,0.1,0.2,0.2v2.4
			c0.7-0.2,1.3,0,1.4,0.5c0.1,0.3,0,0.6-0.2,0.9c0.4,0.1,0.6,0.4,0.6,0.6c0,0.3-0.3,0.6-0.7,0.7c0,0.1,0,0.3,0,0.4
			c-0.1,0.2-0.3,0.4-0.6,0.5c-0.3,0.1-0.6,0-0.9-0.1c0,0-0.1,0-0.1,0C146.1,54.4,145.8,54.5,145.5,54.5z"/>
	</g>
	<g>
		<path class="st17" d="M149.8,51.9c-0.5,0-0.8-0.4-0.8-0.8s0.4-0.8,0.8-0.8s0.8,0.4,0.8,0.8S150.2,51.9,149.8,51.9z M149.8,50.6
			c-0.3,0-0.5,0.2-0.5,0.5c0,0.3,0.2,0.5,0.5,0.5s0.5-0.2,0.5-0.5C150.3,50.8,150.1,50.6,149.8,50.6z"/>
	</g>
	<g>
		<path class="st17" d="M148.8,54.6c-0.3,0-0.5-0.2-0.5-0.5c0-0.3,0.2-0.5,0.5-0.5s0.5,0.2,0.5,0.5
			C149.3,54.4,149.1,54.6,148.8,54.6z M148.8,53.9c-0.1,0-0.2,0.1-0.2,0.2s0.1,0.2,0.2,0.2s0.2-0.1,0.2-0.2S148.9,53.9,148.8,53.9z"
			/>
	</g>
	<g>
		<path class="st17" d="M141.5,52.8c-0.4,0-0.7-0.3-0.7-0.7s0.3-0.7,0.7-0.7c0.4,0,0.7,0.3,0.7,0.7S141.9,52.8,141.5,52.8z
			 M141.5,51.7c-0.2,0-0.4,0.2-0.4,0.4c0,0.2,0.2,0.4,0.4,0.4c0.2,0,0.4-0.2,0.4-0.4C141.9,51.9,141.8,51.7,141.5,51.7z"/>
	</g>
	<g>
		<path class="st17" d="M142.4,50.4c-0.3,0-0.5-0.2-0.5-0.5c0-0.3,0.2-0.5,0.5-0.5s0.5,0.2,0.5,0.5
			C142.9,50.2,142.7,50.4,142.4,50.4z M142.4,49.7c-0.1,0-0.2,0.1-0.2,0.2s0.1,0.2,0.2,0.2s0.2-0.1,0.2-0.2S142.6,49.7,142.4,49.7z"
			/>
	</g>
	<g>
		<path class="st17" d="M143.7,55c-0.2,0-0.4-0.2-0.4-0.4c0-0.2,0.2-0.4,0.4-0.4c0.2,0,0.4,0.2,0.4,0.4
			C144.1,54.9,143.9,55,143.7,55z M143.7,54.5c-0.1,0-0.1,0.1-0.1,0.1c0,0.1,0.1,0.1,0.1,0.1s0.1-0.1,0.1-0.1
			C143.9,54.6,143.8,54.5,143.7,54.5z"/>
	</g>
</g>
<g>
	<g>
		<path class="st17" d="M118.5,182.1c0,0.2,0.1,0.3,0.3,0.3h1.7c0.2,0,0.3-0.1,0.3-0.3v-0.4c0-0.2-0.1-0.3-0.3-0.3h-1.7
			c-0.2,0-0.3,0.1-0.3,0.3V182.1z"/>
	</g>
	<g>
		<path class="st17" d="M125.8,178.1h-0.4c-0.2,0-0.3,0.1-0.3,0.3v0h-0.7c-0.2-0.3-0.6-0.6-1.1-0.7v-0.3c0,0,0,0,0.1-0.1l1.5,0.1
			c0.2,0,0.3-0.1,0.3-0.3V177c0-0.2-0.1-0.3-0.3-0.3l-1.4,0.1c-0.1-0.2-0.3-0.3-0.5-0.3c-0.2,0-0.4,0.1-0.5,0.3l-1.6-0.1
			c-0.2,0-0.3,0.1-0.3,0.3v0.1c0,0.2,0.1,0.3,0.3,0.3l1.6-0.1c0,0,0,0,0,0c0,0,0,0.1,0.1,0.1v0.3c-0.4,0.1-0.8,0.3-1.1,0.7h-0.9
			c-1,0-1.8,0.8-1.8,1.8v0.8h1.6v-0.8c0-0.1,0.1-0.2,0.2-0.2h0.8c0.3,0.5,0.9,0.9,1.5,0.9c0.7,0,1.3-0.4,1.5-0.9h0.6v0
			c0,0.2,0.1,0.3,0.3,0.3h0.4c0.2,0,0.3-0.1,0.3-0.3v-1.7C126.1,178.2,125.9,178.1,125.8,178.1z M120.5,179c-0.6,0-1.1,0.5-1.1,1.1
			c0,0.1-0.1,0.1-0.1,0.1c-0.1,0-0.1-0.1-0.1-0.1c0-0.4,0.1-0.7,0.4-1c0.3-0.3,0.6-0.4,1-0.4c0.1,0,0.1,0.1,0.1,0.1
			C120.7,179,120.6,179,120.5,179z"/>
	</g>
	<g>
		<path class="st17" d="M119.3,189c-0.4,0-0.8-0.3-0.9-0.6c-0.6,0-1.1-0.1-1.2-0.5c0-0.1,0-0.3,0.1-0.4c-0.5-0.2-0.8-0.6-0.8-1
			c0-0.3,0.2-0.5,0.6-0.6c0.2-0.1,0.4-0.1,0.6-0.1c0-0.1,0-0.2,0-0.3c0.1-0.2,0.4-0.4,0.7-0.3v-2.2c0-0.1,0.1-0.2,0.2-0.2
			c0.1,0,0.2,0.1,0.2,0.2v2.4c0,0.1,0,0.1-0.1,0.2c-0.1,0-0.1,0-0.2,0c-0.3-0.1-0.5,0-0.5,0c0,0,0,0.1,0.1,0.2
			c0.1,0.1,0.1,0.2,0,0.2c0,0.1-0.1,0.1-0.2,0.1c-0.6-0.1-1.1,0.1-1.1,0.3c0,0.2,0.3,0.5,0.8,0.7c0.1,0,0.1,0.1,0.1,0.2
			c0,0.1,0,0.1-0.1,0.2c-0.1,0.1-0.2,0.2-0.2,0.3c0,0.1,0.4,0.3,0.9,0.2c0.1,0,0.1,0,0.2,0c0,0,0.1,0.1,0.1,0.1
			c0,0.3,0.3,0.5,0.5,0.5c0.2,0,0.4-0.1,0.5-0.3c0-0.1,0.1-0.1,0.1-0.1c0.1,0,0.1,0,0.2,0c0.1,0,0.1,0.1,0.2,0.1
			c0.2,0.1,0.5,0.1,0.7,0.1c0.1,0,0.3-0.1,0.3-0.2c0-0.1,0-0.2,0-0.3c0-0.1,0-0.1,0-0.2c0-0.1,0.1-0.1,0.1-0.1
			c0.4-0.1,0.6-0.3,0.6-0.3c0-0.1-0.2-0.3-0.7-0.3c-0.1,0-0.1-0.1-0.2-0.2c0-0.1,0-0.2,0.1-0.2c0.3-0.2,0.5-0.5,0.4-0.6
			c-0.1-0.2-0.6-0.3-1.2-0.1c-0.1,0-0.1,0-0.2,0c-0.1,0-0.1-0.1-0.1-0.2v-2.7c0-0.1,0.1-0.2,0.2-0.2c0.1,0,0.2,0.1,0.2,0.2v2.4
			c0.7-0.2,1.3,0,1.4,0.5c0.1,0.3,0,0.6-0.2,0.9c0.4,0.1,0.6,0.4,0.6,0.6c0,0.3-0.3,0.6-0.7,0.7c0,0.1,0,0.3,0,0.4
			c-0.1,0.2-0.3,0.4-0.6,0.5c-0.3,0.1-0.6,0-0.9-0.1c0,0-0.1,0-0.1,0C119.9,188.9,119.6,189,119.3,189z"/>
	</g>
	<g>
		<path class="st17" d="M123.6,186.4c-0.5,0-0.8-0.4-0.8-0.8s0.4-0.8,0.8-0.8s0.8,0.4,0.8,0.8S124.1,186.4,123.6,186.4z
			 M123.6,185.1c-0.3,0-0.5,0.2-0.5,0.5s0.2,0.5,0.5,0.5s0.5-0.2,0.5-0.5S123.9,185.1,123.6,185.1z"/>
	</g>
	<g>
		<path class="st17" d="M122.7,189.1c-0.3,0-0.5-0.2-0.5-0.5s0.2-0.5,0.5-0.5c0.3,0,0.5,0.2,0.5,0.5S122.9,189.1,122.7,189.1z
			 M122.7,188.4c-0.1,0-0.2,0.1-0.2,0.2s0.1,0.2,0.2,0.2s0.2-0.1,0.2-0.2S122.8,188.4,122.7,188.4z"/>
	</g>
	<g>
		<path class="st17" d="M115.4,187.3c-0.4,0-0.7-0.3-0.7-0.7c0-0.4,0.3-0.7,0.7-0.7c0.4,0,0.7,0.3,0.7,0.7
			C116.1,187,115.8,187.3,115.4,187.3z M115.4,186.2c-0.2,0-0.4,0.2-0.4,0.4c0,0.2,0.2,0.4,0.4,0.4c0.2,0,0.4-0.2,0.4-0.4
			C115.8,186.4,115.6,186.2,115.4,186.2z"/>
	</g>
	<g>
		<path class="st17" d="M116.3,184.9c-0.3,0-0.5-0.2-0.5-0.5s0.2-0.5,0.5-0.5c0.3,0,0.5,0.2,0.5,0.5S116.6,184.9,116.3,184.9z
			 M116.3,184.2c-0.1,0-0.2,0.1-0.2,0.2s0.1,0.2,0.2,0.2s0.2-0.1,0.2-0.2S116.4,184.2,116.3,184.2z"/>
	</g>
	<g>
		<path class="st17" d="M117.6,189.5c-0.2,0-0.4-0.2-0.4-0.4s0.2-0.4,0.4-0.4s0.4,0.2,0.4,0.4S117.8,189.5,117.6,189.5z M117.6,189
			c-0.1,0-0.1,0.1-0.1,0.1s0.1,0.1,0.1,0.1c0.1,0,0.1-0.1,0.1-0.1S117.7,189,117.6,189z"/>
	</g>
</g>
<polyline class="st15" points="60.5,154.1 60.5,195.6 113.5,195.6 "/>
<text transform="matrix(1 0 0 1 0.75 138.5)" class="st6 st7">柔剣道場</text>
<rect x="33.6" y="292.4" class="st3" width="17" height="8.5"/>
<text transform="matrix(1 0 0 1 36.0814 298.6237)" class="st6 st7">受付</text>
<polyline class="st15" points="45.7,304.4 181.3,271.7 181.3,258.1 "/>
<polygon class="st16" points="181.3,254.7 179.8,258.1 182.8,258.1 "/>
<polyline class="st2" points="120.8,174.2 120.8,170.1 128.5,170.1 128.5,193.2 120.8,193.2 120.8,190.4 "/>
<g>
	<path d="M150,158.8h0.7v-1.1c0,0,0-0.1,0.1-0.1h0.6c0,0,0.1,0,0.1,0.1v1.1h0.7v-1.1c0,0,0-0.1,0.1-0.1h0.6c0,0,0.1,0,0.1,0.1v1.1
		h0.7v-1.1c0,0,0-0.1,0.1-0.1h0.6c0,0,0.1,0,0.1,0.1v1.1h0.7V157H150V158.8z"/>
	<path d="M155.9,152.6h-6.6c-0.2,0-0.4,0.2-0.4,0.4v9c0,0.2,0.2,0.4,0.4,0.4h0.2v0.3h1v-0.3h4.3v0.3h1v-0.3h0.2
		c0.2,0,0.4-0.2,0.4-0.4v-9C156.4,152.8,156.2,152.6,155.9,152.6z M149.7,153.4h5.7v2.4h-5.7V153.4z M149.7,156.7h5.7v2.4h-5.7
		V156.7z M150.5,160h0.3l-1.1,1.1v-0.3L150.5,160z M149.7,160.3V160h0.4L149.7,160.3z M153.8,161.4H150l1.5-1.5h2.4V161.4z
		 M154.4,160h1.1v0.9h-1.1V160z"/>
	<path d="M150,155.5h0.7v-1.1c0,0,0-0.1,0.1-0.1h0.6c0,0,0.1,0,0.1,0.1v1.1h0.7v-1.1c0,0,0-0.1,0.1-0.1h0.6c0,0,0.1,0,0.1,0.1v1.1
		h0.7v-1.1c0,0,0-0.1,0.1-0.1h0.6c0,0,0.1,0,0.1,0.1v1.1h0.7v-1.8H150V155.5z"/>
</g>
<rect x="238" y="235.3" class="st18" width="5.1" height="8.8"/>
<rect x="256.8" y="235.3" class="st18" width="5.1" height="8.8"/>
<rect x="275.5" y="235.3" class="st18" width="5.1" height="8.8"/>
<rect x="294.3" y="235.3" class="st18" width="5.1" height="8.8"/>
<rect x="313" y="235.3" class="st18" width="5.1" height="8.8"/>
<rect x="331.8" y="235.3" class="st18" width="5.1" height="8.8"/>
<rect x="238" y="209.8" class="st18" width="5.1" height="8.8"/>
<rect x="256.8" y="209.8" class="st18" width="5.1" height="8.8"/>
<rect x="275.5" y="209.8" class="st18" width="5.1" height="8.8"/>
<rect x="294.3" y="209.8" class="st18" width="5.1" height="8.8"/>
<rect x="313" y="209.8" class="st18" width="5.1" height="8.8"/>
<rect x="331.8" y="209.8" class="st18" width="5.1" height="8.8"/>
<rect x="238" y="62.7" class="st18" width="5.1" height="8.8"/>
<rect x="256.8" y="62.7" class="st18" width="5.1" height="8.8"/>
<rect x="275.5" y="62.7" class="st18" width="5.1" height="8.8"/>
<rect x="294.3" y="62.7" class="st18" width="5.1" height="8.8"/>
<rect x="313" y="62.7" class="st18" width="5.1" height="8.8"/>
<rect x="331.8" y="62.7" class="st18" width="5.1" height="8.8"/>
<rect x="238" y="5.1" class="st18" width="5.1" height="8.8"/>
<rect x="256.8" y="5.1" class="st18" width="5.1" height="8.8"/>
<rect x="275.5" y="5.1" class="st18" width="5.1" height="8.8"/>
<rect x="294.3" y="5.1" class="st18" width="5.1" height="8.8"/>
<rect x="313" y="5.1" class="st18" width="5.1" height="8.8"/>
<rect x="331.8" y="5.1" class="st18" width="5.1" height="8.8"/>
<rect x="238" y="24" class="st18" width="5.1" height="5.8"/>
<rect x="256.8" y="24" class="st18" width="5.1" height="5.8"/>
<rect x="275.5" y="24" class="st18" width="5.1" height="5.8"/>
<rect x="294.3" y="24" class="st18" width="5.1" height="5.8"/>
<rect x="313" y="24" class="st18" width="5.1" height="5.8"/>
<rect x="331.8" y="24" class="st18" width="5.1" height="5.8"/>
<rect x="238" y="44.2" class="st18" width="5.1" height="5.8"/>
<rect x="256.8" y="44.2" class="st18" width="5.1" height="5.8"/>
<rect x="275.5" y="44.2" class="st18" width="5.1" height="5.8"/>
<rect x="294.3" y="44.2" class="st18" width="5.1" height="5.8"/>
<rect x="313" y="44.2" class="st18" width="5.1" height="5.8"/>
<rect x="331.8" y="44.2" class="st18" width="5.1" height="5.8"/>
<rect x="238" y="184.2" class="st18" width="5.1" height="8.8"/>
<rect x="256.8" y="184.2" class="st18" width="5.1" height="8.8"/>
<rect x="275.5" y="184.2" class="st18" width="5.1" height="8.8"/>
<rect x="294.3" y="184.2" class="st18" width="5.1" height="8.8"/>
<rect x="313" y="184.2" class="st18" width="5.1" height="8.8"/>
<rect x="331.8" y="184.2" class="st18" width="5.1" height="8.8"/>
<text transform="matrix(1 0 0 1 259.357 229.158)" class="st6 st7">イートインスペース</text>
<rect x="204.6" y="249.5" class="st0" width="18.2" height="18.2"/>
<g>
	<text transform="matrix(1 0 0 1 206.1162 255.8011)"><tspan x="0" y="0" class="st6 st19">定時制</tspan><tspan x="0" y="4.8" class="st6 st19">３年生</tspan></text>
</g>
<rect x="224.5" y="249.5" class="st0" width="18.2" height="18.2"/>
<g>
	<text transform="matrix(1 0 0 1 226.083 255.8011)"><tspan x="0" y="0" class="st6 st19">定時制</tspan><tspan x="0" y="4.8" class="st6 st19">４年生</tspan></text>
</g>
<rect x="204.6" y="285.3" class="st0" width="18.2" height="18.2"/>
<g>
	<text transform="matrix(1 0 0 1 203.6953 291.5911)"><tspan x="0" y="0" class="st6 st19">ローゼン</tspan><tspan x="4.8" y="4.8" class="st6 st19">ボア</tspan><tspan x="4.8" y="9.7" class="st6 st19">パン</tspan></text>
</g>
<rect x="224.5" y="285.3" class="st0" width="18.2" height="18.2"/>
<g>
	<text transform="matrix(1 0 0 1 224.1777 291.5911)"><tspan x="0" y="0" class="st6 st19">PTA学年</tspan><tspan x="-2.9" y="4.8" class="st6 st19">ナポリタン</tspan></text>
</g>
<rect x="244.8" y="285.3" class="st0" width="18.2" height="18.2"/>
<g>
	<text transform="matrix(1 0 0 1 246.3643 291.5911)"><tspan x="0" y="0" class="st6 st19">建設科</tspan><tspan x="-0.3" y="4.8" class="st6 st19">3年1組</tspan></text>
</g>
<rect x="264.8" y="285.3" class="st0" width="18.2" height="18.2"/>
<g>
	<text transform="matrix(1 0 0 1 266.332 291.5911)"><tspan x="0" y="0" class="st6 st19">建設科</tspan><tspan x="-0.3" y="4.8" class="st6 st19">3年2組</tspan></text>
</g>
<rect x="285" y="285.3" class="st0" width="18.2" height="18.2"/>
<g>
	<text transform="matrix(1 0 0 1 286.6133 291.5911)"><tspan x="0" y="0" class="st6 st19">機械科</tspan><tspan x="-0.3" y="4.8" class="st6 st19">3年2組</tspan></text>
</g>
<rect x="305" y="285.3" class="st0" width="18.2" height="18.2"/>
<g>
	<text transform="matrix(1 0 0 1 306.5801 291.5911)"><tspan x="0" y="0" class="st6 st19">電気科</tspan><tspan x="-0.3" y="4.8" class="st6 st19">3年2組</tspan></text>
</g>
<rect x="325.3" y="285.3" class="st0" width="18.2" height="18.2"/>
<g>
	<text transform="matrix(1 0 0 1 326.8613 291.5911)"><tspan x="0" y="0" class="st6 st19">電気科</tspan><tspan x="-0.3" y="4.8" class="st6 st19">3年1組</tspan></text>
</g>
<rect x="133.8" y="301.2" class="st0" width="23.7" height="39.8"/>
<text transform="matrix(1 0 0 1 139.8998 320.75)"><tspan x="0" y="0" class="st6 st7">屋外</tspan><tspan x="-6" y="6" class="st6 st7">ステージ</tspan></text>
<line class="st20" x1="161.5" y1="303.5" x2="161.5" y2="346.8"/>
<polyline class="st20" points="204.8,345.8 204.8,320.8 224.5,306.5 285,306.5 "/>
<line class="st20" x1="306.8" y1="306.5" x2="346.2" y2="306.5"/>
<text transform="matrix(1 0 0 1 245.25 277.25)" class="st6 st7">食品販売テント</text>
<text transform="matrix(1 0 0 1 9.3335 336.3333)" class="st6 st7">正門</text>
<text transform="matrix(1 0 0 1 277.65 39.676)" class="st6 st7">ピロティ</text>
<text transform="matrix(1 0 0 1 277.65 203.1961)" class="st6 st7">ピロティ</text>
<text transform="matrix(1 0 0 1 264.5947 329.333)"><tspan x="0" y="0" class="st6 st7">機械科</tspan><tspan x="-0.4" y="6" class="st6 st7">2年2組</tspan></text>
</svg>
