<?xml version="1.0" encoding="utf-8"?>
<!-- Generator: Adobe Illustrator 22.1.0, SVG Export Plug-In . SVG Version: 6.00 Build 0)  -->
<svg version="1.1" id="レイヤー_1" xmlns="http://www.w3.org/2000/svg" xmlns:xlink="http://www.w3.org/1999/xlink" x="0px"
	 y="0px" viewBox="0 0 350 286" style="enable-background:new 0 0 350 286;" xml:space="preserve">
<style type="text/css">
	.st0{fill:#F7F6F5;}
	.st1{fill:none;stroke:#A0A0A0;stroke-width:0.5;stroke-miterlimit:10;}
	.st2{fill:none;stroke:#002355;stroke-width:0.5;stroke-miterlimit:10;}
	.st3{fill:#CCF5FF;stroke:#002355;stroke-width:0.5;stroke-miterlimit:10;}
	.st4{fill:#FFFFFF;stroke:#002355;stroke-width:0.5;stroke-miterlimit:10;}
	.st5{fill:#EBEBEB;stroke:#002355;stroke-width:0.5;stroke-miterlimit:10;}
	.st6{fill:#EAE1CF;stroke:#002355;stroke-width:0.5;stroke-miterlimit:10;}
	.st7{fill:#FAFDFF;stroke:#002355;stroke-width:0.5;stroke-miterlimit:10;}
	.st8{fill:#0A0A0A;}
	.st9{font-family:'HiraginoSans-W5-83pv-RKSJ-H';}
	.st10{font-size:6px;}
	.st11{font-size:5px;}
	.st12{font-size:5.5px;}
	.st13{fill:#323232;}
	.st14{font-size:3.766px;}
	.st15{font-size:4.8px;}
	.st16{font-size:4.4px;}
	.st17{font-size:4.883px;}
	.st18{fill:#CCF5FF;}
	.st19{font-size:4px;}
	.st20{font-family:'KozGoPr6N-Medium-83pv-RKSJ-H';}
	.st21{fill:none;stroke:#D43E00;stroke-miterlimit:10;}
	.st22{fill:#D43E00;}
	.st23{fill:#F7F6F5;stroke:#002355;stroke-width:0.5;stroke-miterlimit:10;}
	.st24{fill:#333333;}
	.st25{fill:none;stroke:#000000;stroke-width:0.5;stroke-miterlimit:10;}
</style>
<path class="st0" d="M80.8,268.5h45.5v-78.9H144v67.1h40.2v-12.5h16.6v12.5h12.5l0,0h26.5v-15.8l0,0l0.2-40.5v-116h102.5V52.8V4.9
	H240v14.5h-38v7.4h-19.8v-7.4h-37.8l0,0H33.8v65H144v85h-17.7V95.8H25.5v172.7h32 M201.6,181.6h-19.1v-75.7h19.1V181.6z"/>
<rect x="57.7" y="268.5" class="st0" width="41.6" height="12.5"/>
<g id="_地-2">
	<g>
		<g>
			<line class="st1" x1="201.4" y1="105.9" x2="182.4" y2="181.5"/>
			<line class="st1" x1="182.4" y1="105.9" x2="201.4" y2="181.5"/>
		</g>
		<path class="st2" d="M342.5,52.8V4.9H240v14.5h-38v7.4h-19.8v-7.4h-37.8l0,0H33.8v65H144v85h-17.7V95.8H25.5v172.7h32 M311.9,84.4
			h30.6 M80.8,268.5h45.5v-78.9H144v67.1h40.2v-12.5h16.6v12.5h12.5l0,0h26.5v-15.8l0,0l0.2-40.5v-116h65.2 M201.6,181.6h-19.1
			v-75.7h19.1V181.6z"/>
	</g>
</g>
<rect x="240" y="5" class="st3" width="81" height="47.8"/>
<rect x="240" y="52.8" class="st4" width="9.9" height="14.9"/>
<polygon class="st4" points="33.5,103.2 33.5,251.5 57.3,251.5 66.2,251.5 75.7,251.5 118.1,251.5 118.1,183.8 118.1,103.2 "/>
<line class="st1" x1="57.2" y1="246.2" x2="75.8" y2="246.2"/>
<polyline class="st2" points="57.3,251.8 57.3,235.2 33.5,235.2 "/>
<rect x="33.5" y="103.2" class="st4" width="69.2" height="17.4"/>
<rect x="33.5" y="120.7" class="st3" width="69.2" height="20.9"/>
<rect x="102.8" y="103.3" class="st5" width="15.3" height="38.3"/>
<rect x="90" y="235.2" class="st4" width="28" height="16.3"/>
<rect x="75.9" y="235.2" class="st5" width="14.2" height="16.3"/>
<line class="st2" x1="103.7" y1="246.7" x2="103.7" y2="251.5"/>
<polyline class="st2" points="57.6,268.3 57.6,281.2 96.5,281.2 "/>
<g id="_央棟-2">
	<rect x="144" y="19.3" class="st4" width="38.2" height="26.8"/>
	<rect x="144" y="70.5" class="st6" width="26.5" height="13.9"/>
	<rect x="213.2" y="223.1" class="st4" width="26.7" height="33.6"/>
	<rect x="213.2" y="215" class="st6" width="26.7" height="8.1"/>
	<rect x="144" y="106.1" class="st4" width="26.7" height="29.2"/>
	<rect x="144" y="135.3" class="st4" width="26.8" height="29.3"/>
	<rect x="144" y="189.7" class="st4" width="26.8" height="67"/>
	<rect x="182" y="57.5" class="st6" width="19.8" height="26.8"/>
	<line class="st2" x1="170.5" y1="70.3" x2="170.5" y2="57.6"/>
	<rect x="213.1" y="122.4" class="st4" width="26.9" height="16.4"/>
	<rect x="213.1" y="105.8" class="st4" width="26.9" height="16.5"/>
	<rect x="181.9" y="193.8" class="st7" width="19.8" height="17.3"/>
	<rect x="181.9" y="211.1" class="st6" width="19.8" height="19"/>
	<polygon class="st4" points="240,67.7 240,19.4 229.1,19.4 229.1,19.4 201.9,19.4 201.9,24.8 213.1,24.8 213.1,67.7 	"/>
	<line class="st2" x1="188.8" y1="230.1" x2="188.8" y2="211"/>
	<line class="st2" x1="239.9" y1="122.3" x2="213.1" y2="122.3"/>
	<line class="st2" x1="213" y1="84.3" x2="240.2" y2="84.3"/>
	<line class="st2" x1="239.9" y1="236.4" x2="213.1" y2="236.4"/>
	<line class="st2" x1="240.1" y1="196.6" x2="212.8" y2="196.6"/>
	<line class="st2" x1="170.9" y1="151.4" x2="144.1" y2="151.4"/>
</g>
<g id="_棟-2">
	<polyline class="st4" points="127,57.6 54.7,57.6 54.7,19.4 144,19.4 144,57.6 	"/>
	<polyline class="st4" points="144,57.6 144,84.3 54.7,84.3 54.7,57.6 127,57.6 	"/>
	<line class="st2" x1="127" y1="57.8" x2="127" y2="31.8"/>
	<line class="st2" x1="54.7" y1="57.4" x2="54.7" y2="19.4"/>
</g>
<g id="_屋名-2">
	<text transform="matrix(1 0 0 1 148.411 221.876)" class="st8 st9 st10">普通科</text>
	<text transform="matrix(1 0 0 1 148.51 229.076)" class="st8 st9 st10">職員</text>
	<text transform="matrix(1 0 0 1 160.311 229.076)" class="st8 st9 st10">室</text>
	<text transform="matrix(1 0 0 1 214 116.069)" class="st8 st9 st11">生徒指導室</text>
	<g>
		<path d="M263,131.2v-2.9l2.6-2.3c4.2-3.7,6.2-5.9,6.3-8.1c0-1.5-0.9-2.7-3.1-2.7c-1.7,0-3.1,0.8-4.2,1.6l-1.3-3.4
			c1.5-1.1,3.8-2,6.5-2c4.5,0,6.9,2.6,6.9,6.2c0,3.2-2.3,5.8-5,8.2l-1.8,1.5v0.1h7.2v3.9L263,131.2L263,131.2z"/>
		<path d="M281.6,117.7h8.3v2.6h-5.2v2.9h4.8v2.6h-4.8v5.3h-3.2L281.6,117.7L281.6,117.7z"/>
	</g>
	<text transform="matrix(1 0 0 1 220.603 42.24)" class="st8 st9 st10">溶接</text>
	<text transform="matrix(1 0 0 1 217.759 49.44)" class="st8 st9 st10">実</text>
	<text transform="matrix(1 0 0 1 223.591 49.44)" class="st8 st9 st10">習</text>
	<text transform="matrix(1 0 0 1 229.448 49.44)" class="st8 st9 st10">室</text>
	<text transform="matrix(1 0 0 1 217.656 168.875)" class="st8 st9 st10">ホ</text>
	<text transform="matrix(1 0 0 1 223.53 168.875)" class="st8 st9 st10">ー</text>
	<text transform="matrix(1 0 0 1 229.213 168.875)" class="st8 st9 st10">ル</text>
	<text transform="matrix(1 0 0 1 145.224 34.99)" class="st8 st9 st10">高電圧</text>
	<text transform="matrix(1 0 0 1 163.224 34.99)" class="st8 st9 st10">実</text>
	<text transform="matrix(1 0 0 1 169.056 34.99)" class="st8 st9 st10">習</text>
	<text transform="matrix(1 0 0 1 174.912 34.99)" class="st8 st9 st10">室</text>
	<text transform="matrix(1 0 0 1 79.747 40.772)" class="st8 st9 st10">吹</text>
	<text transform="matrix(1 0 0 1 85.501 40.772)" class="st8 st9 st10">き</text>
	<text transform="matrix(1 0 0 1 91.135 40.772)" class="st8 st9 st10">抜</text>
	<text transform="matrix(1 0 0 1 96.932 40.772)" class="st8 st9 st10">け</text>
	<text transform="matrix(1 0 0 1 274.6154 31.158)" class="st8 st9 st10">食堂</text>
	<text transform="matrix(1 0 0 1 215.518 129.214)" class="st8 st9 st12">保健体育</text>
	<text transform="matrix(1 0 0 1 218.268 135.714)" class="st8 st9 st12">教材室</text>
	<text transform="matrix(1 0 0 1 145.357 119.326)" class="st8 st9 st10">塑性加工</text>
	<text transform="matrix(1 0 0 1 148.513 126.526)" class="st8 st9 st10">実</text>
	<text transform="matrix(1 0 0 1 154.345 126.526)" class="st8 st9 st10">習</text>
	<text transform="matrix(1 0 0 1 160.202 126.526)" class="st8 st9 st10">室</text>
	<text transform="matrix(1 0 0 1 84.546 73.25)" class="st8 st9 st10">木造</text>
	<text transform="matrix(1 0 0 1 96.546 73.25)" class="st8 st9 st10">実</text>
	<text transform="matrix(1 0 0 1 102.378 73.25)" class="st8 st9 st10">習</text>
	<text transform="matrix(1 0 0 1 108.234 73.25)" class="st8 st9 st10">室</text>
	<text transform="matrix(1 0 0 1 145.249 145.989)" class="st8 st9 st10">防災倉庫</text>
	<text transform="matrix(1 0 0 1 56.446 133.565)" class="st8 st9 st10">ス</text>
	<text transform="matrix(1 0 0 1 62.032 133.565)" class="st8 st9 st10">テ</text>
	<text transform="matrix(1 0 0 1 67.815 133.565)" class="st8 st9 st10">ー</text>
	<text transform="matrix(1 0 0 1 73.57 133.565)" class="st8 st9 st10">ジ</text>
	<text transform="matrix(1 0 0 1 107.053 250.074)" class="st13 st9 st14">全日</text>
	<text transform="matrix(1 0 0 1 93.11 250.039)" class="st13 st9 st14">定時</text>
	<text transform="matrix(1 0 0 1 62.147 110.645)" class="st8 st9 st10">部室</text>
	<text transform="matrix(1 0 0 1 59.832 117.845)" class="st8 st9 st10">(定時)</text>
	<text transform="matrix(1 0 0 1 66.833 181.681)" class="st8 st9 st10">体育館</text>
	<text transform="matrix(1 0 0 1 96.818 240.64)" class="st8 st9 st15">体育科</text>
	<text transform="matrix(1 0 0 1 96.897 245.64)" class="st8 st9 st15">職員</text>
	<text transform="matrix(1 0 0 1 106.435 245.64)" class="st8 st9 st15">室</text>
	<text transform="matrix(1 0 0 1 294.8511 104.7997)" class="st9 st10">1</text>
	<text transform="matrix(1 0 0 1 299.0211 104.7997)" class="st9 st10">F</text>
	<text transform="matrix(1 0 0 1 302.7111 104.7997)" class="st9 st10">中</text>
	<text transform="matrix(1 0 0 1 308.6751 104.7997)" class="st9 st10">庭</text>
	<text transform="matrix(1 0 0 1 314.6271 104.7997)" class="st9 st10">へ</text>
	<text transform="matrix(1 0 0 1 102.243 277.58)" class="st9 st10">正</text>
	<text transform="matrix(1 0 0 1 108.2729 277.58)" class="st9 st10">門</text>
	<text transform="matrix(1 0 0 1 114.2249 277.58)" class="st9 st10">へ</text>
	<g>
		<text transform="matrix(1 0 0 1 242.696 57.868)" class="st9 st16">パ</text>
		<text transform="matrix(1 0 0 1 242.678 61.665)" class="st9 st16">ン</text>
		<text transform="matrix(1 0 0 1 242.703 65.847)" class="st9 st16">屋</text>
	</g>
	<g>
		<text transform="matrix(1 0 0 1 80.594 240.2)" class="st9 st15">器</text>
		<text transform="matrix(1 0 0 1 80.594 245.074)" class="st9 st15">具</text>
		<text transform="matrix(1 0 0 1 80.594 249.919)" class="st9 st15">庫</text>
	</g>
	<g>
		<text transform="matrix(1 0 0 1 107.413 118.565)" class="st9 st10">器</text>
		<text transform="matrix(1 0 0 1 107.413 124.645)" class="st9 st10">具</text>
		<text transform="matrix(1 0 0 1 107.413 130.725)" class="st9 st10">庫</text>
	</g>
	<g>
		<text transform="matrix(1 0 0 1 299.856 74.628)" class="st8 st9 st17">神</text>
		<text transform="matrix(1 0 0 1 304.739 74.628)" class="st8 st9 st17">奈</text>
		<text transform="matrix(1 0 0 1 309.563 74.628)" class="st8 st9 st17">川</text>
		<text transform="matrix(1 0 0 1 314.363 74.628)" class="st8 st9 st17">総合高校</text>
		<polyline class="st2" points="335.4,74.4 338.3,72.8 335.4,71.1 		"/>
	</g>
</g>
<g transform="translate(176.757 45.475) scale(.046)">
</g>
<g transform="translate(180.456 201.59) scale(.046)">
</g>
<g transform="translate(140.614 74.407) scale(.061)">
</g>
<g transform="translate(209.864 74.407) scale(.061)">
</g>
<g transform="translate(209.864 185.031) scale(.061)">
</g>
<g transform="translate(27.663 12.129) scale(.061)">
</g>
<rect x="182.5" y="182.2" class="st18" width="19.2" height="10.9"/>
<text transform="matrix(1 0 0 1 183.9002 186.7)" class="st9 st19">NPO法人</text>
<text transform="matrix(1 0 0 1 182.9002 190.7222)" class="st9 st19">プリン販売</text>
<path class="st4" d="M33.5,141.6"/>
<rect x="33.5" y="141.6" class="st3" width="84.5" height="93.6"/>
<g>
	<text transform="matrix(1 0 0 1 64.5698 161.7636)" class="st20 st10">音楽部</text>
	<text transform="matrix(1 0 0 1 61.5698 170.3271)" class="st20 st10">ダンス部</text>
	<text transform="matrix(1 0 0 1 61.5698 177.35)" class="st20 st10">吹奏楽部</text>
</g>
<text transform="matrix(1 0 0 1 3.7 181.5004)" class="st20 st10">体育館</text>
<polyline class="st21" points="82.9,274.8 70.2,274.8 70.2,219.1 "/>
<polygon class="st22" points="74,260.3 77.5,261.8 77.5,258.9 "/>
<text transform="matrix(1 0 0 1 59.946 256.7)" class="st20 st19">入口</text>
<polyline class="st21" points="157.2,181.5 122.3,181.5 122.3,260.3 75.8,260.3 "/>
<line class="st2" x1="84.5" y1="268.5" x2="84.5" y2="281.2"/>
<rect x="33.8" y="67.6" class="st7" width="20.9" height="16.7"/>
<line class="st2" x1="86.3" y1="268.5" x2="86.3" y2="281.2"/>
<line class="st2" x1="88.1" y1="268.5" x2="88.1" y2="281.2"/>
<line class="st2" x1="89.9" y1="268.5" x2="89.9" y2="281.2"/>
<line class="st2" x1="91.7" y1="268.5" x2="91.7" y2="281.2"/>
<line class="st2" x1="93.5" y1="268.5" x2="93.5" y2="281.2"/>
<line class="st2" x1="95.3" y1="268.5" x2="95.3" y2="281.2"/>
<polygon class="st22" points="70.2,217.3 68.8,220.8 71.7,220.8 "/>
<line class="st23" x1="144" y1="169.4" x2="138.5" y2="175.7"/>
<line class="st23" x1="137.7" y1="184.1" x2="144" y2="189.6"/>
<g>
	<g>
		<path class="st24" d="M195.6,200.2h-8.1c-0.3,0-0.5,0.2-0.5,0.5v8.2c0,0.3,0.2,0.5,0.5,0.5h8.1c0.3,0,0.5-0.2,0.5-0.5v-8.2
			C196.1,200.4,195.9,200.2,195.6,200.2z M189.9,204.7l-0.1,3.3c0,0.3-0.3,0.5-0.6,0.5H189c-0.3,0-0.6-0.2-0.6-0.5l-0.1-3.3
			c0-0.3,0.2-0.5,0.5-0.5h0.5C189.7,204.2,189.9,204.4,189.9,204.7z M189.1,203.8c-0.5,0-0.8-0.4-0.8-0.8s0.4-0.8,0.8-0.8
			c0.5,0,0.8,0.4,0.8,0.8S189.6,203.8,189.1,203.8z M192.4,204.7l-0.1,3.3c0,0.3-0.3,0.5-0.6,0.5h-0.2c-0.3,0-0.6-0.2-0.6-0.5
			l-0.1-3.3c0-0.3,0.2-0.5,0.5-0.5h0.5C192.2,204.2,192.4,204.4,192.4,204.7z M191.6,203.8c-0.5,0-0.8-0.4-0.8-0.8s0.4-0.8,0.8-0.8
			c0.5,0,0.8,0.4,0.8,0.8S192,203.8,191.6,203.8z M194.9,204.7l-0.1,3.3c0,0.3-0.3,0.5-0.6,0.5H194c-0.3,0-0.6-0.2-0.6-0.5l-0.1-3.3
			c0-0.3,0.2-0.5,0.5-0.5h0.5C194.6,204.2,194.9,204.4,194.9,204.7z M194.1,203.8c-0.5,0-0.8-0.4-0.8-0.8s0.4-0.8,0.8-0.8
			c0.5,0,0.8,0.4,0.8,0.8S194.5,203.8,194.1,203.8z"/>
		<g>
			<polygon class="st24" points="189.1,199.4 189.1,197.2 188.5,197.9 187.8,197.2 189.6,195.4 189.7,195.5 191.4,197.2 
				190.7,197.9 190.1,197.2 190.1,199.4 			"/>
			<polygon class="st24" points="193.5,199.4 191.8,197.7 192.5,197.1 193.1,197.7 193.1,195.5 194.1,195.5 194.1,197.7 
				194.7,197.1 195.4,197.7 193.6,199.5 			"/>
		</g>
	</g>
	<g>
		<path class="st24" d="M48.4,73.2h-8.1c-0.3,0-0.5,0.2-0.5,0.5v8.2c0,0.3,0.2,0.5,0.5,0.5h8.1c0.3,0,0.5-0.2,0.5-0.5v-8.2
			C48.9,73.4,48.7,73.2,48.4,73.2z M42.7,77.7l-0.1,3.3c0,0.3-0.3,0.5-0.6,0.5h-0.2c-0.3,0-0.6-0.2-0.6-0.5l-0.1-3.3
			c0-0.3,0.2-0.5,0.5-0.5h0.5C42.5,77.2,42.7,77.4,42.7,77.7z M41.9,76.8c-0.5,0-0.8-0.4-0.8-0.8s0.4-0.8,0.8-0.8
			c0.5,0,0.8,0.4,0.8,0.8S42.4,76.8,41.9,76.8z M45.2,77.7l-0.1,3.3c0,0.3-0.3,0.5-0.6,0.5h-0.2c-0.3,0-0.6-0.2-0.6-0.5l-0.1-3.3
			c0-0.3,0.2-0.5,0.5-0.5h0.5C45,77.2,45.2,77.4,45.2,77.7z M44.4,76.8c-0.5,0-0.8-0.4-0.8-0.8s0.4-0.8,0.8-0.8
			c0.5,0,0.8,0.4,0.8,0.8S44.9,76.8,44.4,76.8z M47.7,77.7l-0.1,3.3c0,0.3-0.3,0.5-0.6,0.5h-0.2c-0.3,0-0.6-0.2-0.6-0.5l-0.1-3.3
			c0-0.3,0.2-0.5,0.5-0.5h0.5C47.5,77.2,47.7,77.4,47.7,77.7z M46.9,76.8c-0.5,0-0.8-0.4-0.8-0.8s0.4-0.8,0.8-0.8
			c0.5,0,0.8,0.4,0.8,0.8S47.3,76.8,46.9,76.8z"/>
		<g>
			<polygon class="st24" points="41.9,72.4 41.9,70.2 41.3,70.9 40.6,70.2 42.4,68.4 42.5,68.5 44.2,70.2 43.5,70.9 42.9,70.2 
				42.9,72.4 			"/>
			<polygon class="st24" points="46.3,72.4 44.6,70.7 45.3,70.1 45.9,70.7 45.9,68.5 46.9,68.5 46.9,70.7 47.5,70.1 48.2,70.7 
				46.4,72.5 			"/>
		</g>
	</g>
	<g>
		<path class="st24" d="M199.9,215.5h-9c-0.5,0-1,0.4-1,1v9c0,0.5,0.4,1,1,1h9c0.5,0,1-0.4,1-1v-9
			C200.9,215.9,200.5,215.5,199.9,215.5z M197.1,217c0.4,0,0.7,0.3,0.7,0.7c0,0.4-0.3,0.7-0.7,0.7c-0.4,0-0.7-0.3-0.7-0.7
			C196.5,217.3,196.8,217,197.1,217z M193.4,217c0.4,0,0.7,0.3,0.7,0.7c0,0.4-0.3,0.7-0.7,0.7c-0.4,0-0.7-0.3-0.7-0.7
			C192.7,217.3,193,217,193.4,217z M194.4,221.7c0,0.1-0.1,0.2-0.2,0.2l-0.3,0.1l-0.1,2.6c0,0.1-0.2,0.3-0.3,0.3h-0.2
			c-0.2,0-0.3-0.1-0.3-0.3l-0.1-2.6l-0.3-0.1c-0.1,0-0.2-0.1-0.2-0.2l-0.1-2.7c0-0.2,0.1-0.3,0.3-0.3h1.6c0.2,0,0.3,0.1,0.3,0.3
			L194.4,221.7z M198.2,222.1h-0.6l-0.2,2.6c0,0.1-0.1,0.3-0.3,0.3h-0.1c-0.1,0-0.3-0.1-0.3-0.3l-0.2-2.6h-0.6
			c-0.2,0-0.4-0.2-0.3-0.4l0.7-1.5c0,0,0-0.1,0-0.1l-0.3-1.1c0-0.1,0.1-0.3,0.2-0.3h1.5c0.1,0,0.3,0.1,0.2,0.3l-0.3,1.1
			c0,0,0,0,0,0.1l0.7,1.5C198.6,221.9,198.4,222.1,198.2,222.1z"/>
	</g>
	<g>
		<path class="st24" d="M196.6,59.2h-9c-0.5,0-1,0.4-1,1v9c0,0.5,0.4,1,1,1h9c0.5,0,1-0.4,1-1v-9C197.6,59.6,197.2,59.2,196.6,59.2z
			 M193.8,60.7c0.4,0,0.7,0.3,0.7,0.7c0,0.4-0.3,0.7-0.7,0.7c-0.4,0-0.7-0.3-0.7-0.7C193.2,61,193.5,60.7,193.8,60.7z M190.1,60.7
			c0.4,0,0.7,0.3,0.7,0.7c0,0.4-0.3,0.7-0.7,0.7c-0.4,0-0.7-0.3-0.7-0.7C189.4,61,189.7,60.7,190.1,60.7z M191.1,65.4
			c0,0.1-0.1,0.2-0.2,0.2l-0.3,0.1l-0.1,2.6c0,0.1-0.2,0.3-0.3,0.3H190c-0.2,0-0.3-0.1-0.3-0.3l-0.1-2.6l-0.3-0.1
			c-0.1,0-0.2-0.1-0.2-0.2l-0.1-2.7c0-0.2,0.1-0.3,0.3-0.3h1.6c0.2,0,0.3,0.1,0.3,0.3L191.1,65.4z M194.9,65.8h-0.6l-0.2,2.6
			c0,0.1-0.1,0.3-0.3,0.3h-0.1c-0.1,0-0.3-0.1-0.3-0.3l-0.2-2.6h-0.6c-0.2,0-0.4-0.2-0.3-0.4l0.7-1.5c0,0,0-0.1,0-0.1l-0.3-1.1
			c0-0.1,0.1-0.3,0.2-0.3h1.5c0.1,0,0.3,0.1,0.2,0.3l-0.3,1.1c0,0,0,0,0,0.1l0.7,1.5C195.2,65.6,195.1,65.8,194.9,65.8z"/>
	</g>
	<g>
		<path class="st24" d="M234.3,87.9h-3.1c-0.1,0-0.2,0-0.2,0.1l-2,1.3l0,0l0,0c0,0,0,0,0,0c0,0,0,0,0,0c0,0,0,0,0,0c0,0,0,0,0,0
			c0,0,0,0,0,0c0,0,0,0,0,0c0,0,0,0,0,0c0,0,0,0,0,0c0,0,0,0,0,0c0,0,0,0,0,0c0,0,0,0,0,0c0,0,0,0,0,0c0,0,0,0,0,0c0,0,0,0,0,0
			c0,0,0,0,0,0c0,0,0,0,0,0c0,0,0,0,0,0c0,0,0,0,0,0c0,0,0,0,0,0c0,0,0,0,0,0v1.5c0,0,0,0,0,0l-2,1.3l0,0l0,0c0,0,0,0,0,0
			c0,0,0,0,0,0c0,0,0,0,0,0c0,0,0,0,0,0c0,0,0,0,0,0c0,0,0,0,0,0c0,0,0,0,0,0c0,0,0,0,0,0c0,0,0,0,0,0c0,0,0,0,0,0c0,0,0,0,0,0
			c0,0,0,0,0,0c0,0,0,0,0,0c0,0,0,0,0,0c0,0,0,0,0,0c0,0,0,0,0,0c0,0,0,0,0,0c0,0,0,0,0,0c0,0,0,0,0,0c0,0,0,0,0,0v1.6l-1.9,1.3l0,0
			l0,0c0,0,0,0,0,0c0,0,0,0,0,0c0,0,0,0,0,0c0,0,0,0,0,0c0,0,0,0,0,0c0,0,0,0,0,0c0,0,0,0,0,0c0,0,0,0,0,0c0,0,0,0,0,0c0,0,0,0,0,0
			c0,0,0,0,0,0c0,0,0,0,0,0c0,0,0,0,0,0c0,0,0,0,0,0c0,0,0,0,0,0c0,0,0,0,0,0c0,0,0,0,0,0c0,0,0,0,0,0c0,0,0,0,0,0c0,0,0,0,0,0v1.6
			l-1.9,1.3l0,0l0,0c0,0,0,0,0,0c0,0,0,0,0,0c0,0,0,0,0,0c0,0,0,0,0,0c0,0,0,0,0,0c0,0,0,0,0,0c0,0,0,0,0,0c0,0,0,0,0,0c0,0,0,0,0,0
			c0,0,0,0,0,0c0,0,0,0,0,0c0,0,0,0,0,0c0,0,0,0,0,0c0,0,0,0,0,0c0,0,0,0,0,0c0,0,0,0,0,0c0,0,0,0,0,0c0,0,0,0,0,0c0,0,0,0,0,0
			c0,0,0,0,0,0v1.9c0,0.2,0.2,0.4,0.4,0.4h11.4c0.2,0,0.4-0.2,0.4-0.4v-13C234.7,88,234.5,87.9,234.3,87.9z M229.7,90h4.2v1.1h-4.2
			V90z M233.9,93.3v1.1h-6.4v-1.1H233.9z M233.9,96.5v1.1h-8.5v-1.1H233.9z M233.9,100.8h-10.6v-1.1h10.6V100.8z"/>
		<path class="st24" d="M228.6,88c-0.2-0.2-0.4-0.2-0.6,0l-9.2,8.4c-0.2,0.2-0.2,0.4,0,0.6c0.1,0.1,0.2,0.1,0.3,0.1
			c0.1,0,0.2,0,0.3-0.1l1.9-1.7v0.8h-0.5c-0.1,0-0.2,0.1-0.2,0.2s0.1,0.2,0.2,0.2h0.8c0.1,0,0.2-0.1,0.2-0.2v-1.5l4.2-3.9v0.9h-0.5
			c-0.1,0-0.3,0.1-0.3,0.3c0,0.1,0.1,0.3,0.3,0.3h0.8c0.1,0,0.3-0.1,0.3-0.3v-1.6l2.1-1.9C228.7,88.4,228.8,88.1,228.6,88z"/>
	</g>
	<g>
		<path class="st24" d="M162,87.9h-3.1c-0.1,0-0.2,0-0.2,0.1l-2,1.3l0,0l0,0c0,0,0,0,0,0c0,0,0,0,0,0c0,0,0,0,0,0c0,0,0,0,0,0
			c0,0,0,0,0,0c0,0,0,0,0,0c0,0,0,0,0,0c0,0,0,0,0,0c0,0,0,0,0,0c0,0,0,0,0,0c0,0,0,0,0,0c0,0,0,0,0,0c0,0,0,0,0,0c0,0,0,0,0,0
			c0,0,0,0,0,0c0,0,0,0,0,0c0,0,0,0,0,0c0,0,0,0,0,0c0,0,0,0,0,0c0,0,0,0,0,0v1.5c0,0,0,0,0,0l-2,1.3l0,0l0,0c0,0,0,0,0,0
			c0,0,0,0,0,0c0,0,0,0,0,0c0,0,0,0,0,0c0,0,0,0,0,0c0,0,0,0,0,0c0,0,0,0,0,0c0,0,0,0,0,0c0,0,0,0,0,0c0,0,0,0,0,0c0,0,0,0,0,0
			c0,0,0,0,0,0c0,0,0,0,0,0c0,0,0,0,0,0c0,0,0,0,0,0c0,0,0,0,0,0c0,0,0,0,0,0c0,0,0,0,0,0c0,0,0,0,0,0c0,0,0,0,0,0v1.6l-1.9,1.3l0,0
			l0,0c0,0,0,0,0,0c0,0,0,0,0,0c0,0,0,0,0,0c0,0,0,0,0,0c0,0,0,0,0,0c0,0,0,0,0,0c0,0,0,0,0,0c0,0,0,0,0,0c0,0,0,0,0,0c0,0,0,0,0,0
			c0,0,0,0,0,0c0,0,0,0,0,0c0,0,0,0,0,0c0,0,0,0,0,0c0,0,0,0,0,0c0,0,0,0,0,0c0,0,0,0,0,0c0,0,0,0,0,0c0,0,0,0,0,0c0,0,0,0,0,0v1.6
			l-1.9,1.3l0,0l0,0c0,0,0,0,0,0c0,0,0,0,0,0c0,0,0,0,0,0c0,0,0,0,0,0c0,0,0,0,0,0c0,0,0,0,0,0c0,0,0,0,0,0c0,0,0,0,0,0c0,0,0,0,0,0
			c0,0,0,0,0,0c0,0,0,0,0,0c0,0,0,0,0,0c0,0,0,0,0,0c0,0,0,0,0,0c0,0,0,0,0,0c0,0,0,0,0,0c0,0,0,0,0,0c0,0,0,0,0,0c0,0,0,0,0,0
			c0,0,0,0,0,0v1.9c0,0.2,0.2,0.4,0.4,0.4H162c0.2,0,0.4-0.2,0.4-0.4v-13C162.4,88,162.2,87.9,162,87.9z M157.4,90h4.2v1.1h-4.2V90z
			 M161.6,93.3v1.1h-6.4v-1.1H161.6z M161.6,96.5v1.1h-8.5v-1.1H161.6z M161.6,100.8H151v-1.1h10.6V100.8z"/>
		<path class="st24" d="M156.3,88c-0.2-0.2-0.4-0.2-0.6,0l-9.2,8.4c-0.2,0.2-0.2,0.4,0,0.6c0.1,0.1,0.2,0.1,0.3,0.1
			c0.1,0,0.2,0,0.3-0.1l1.9-1.7v0.8h-0.5c-0.1,0-0.2,0.1-0.2,0.2s0.1,0.2,0.2,0.2h0.8c0.1,0,0.2-0.1,0.2-0.2v-1.5l4.2-3.9v0.9h-0.5
			c-0.1,0-0.3,0.1-0.3,0.3c0,0.1,0.1,0.3,0.3,0.3h0.8c0.1,0,0.3-0.1,0.3-0.3v-1.6l2.1-1.9C156.4,88.4,156.5,88.1,156.3,88z"/>
	</g>
	<g>
		<path class="st24" d="M52.4,23.4h-3.1c-0.1,0-0.2,0-0.2,0.1l-2,1.3l0,0l0,0c0,0,0,0,0,0c0,0,0,0,0,0c0,0,0,0,0,0c0,0,0,0,0,0
			c0,0,0,0,0,0c0,0,0,0,0,0c0,0,0,0,0,0c0,0,0,0,0,0c0,0,0,0,0,0c0,0,0,0,0,0c0,0,0,0,0,0c0,0,0,0,0,0c0,0,0,0,0,0c0,0,0,0,0,0
			c0,0,0,0,0,0c0,0,0,0,0,0c0,0,0,0,0,0c0,0,0,0,0,0c0,0,0,0,0,0c0,0,0,0,0,0v1.5c0,0,0,0,0,0l-2,1.3l0,0l0,0c0,0,0,0,0,0
			c0,0,0,0,0,0c0,0,0,0,0,0c0,0,0,0,0,0c0,0,0,0,0,0c0,0,0,0,0,0c0,0,0,0,0,0c0,0,0,0,0,0c0,0,0,0,0,0c0,0,0,0,0,0c0,0,0,0,0,0
			c0,0,0,0,0,0c0,0,0,0,0,0c0,0,0,0,0,0c0,0,0,0,0,0c0,0,0,0,0,0c0,0,0,0,0,0c0,0,0,0,0,0c0,0,0,0,0,0c0,0,0,0,0,0V30l-1.9,1.3l0,0
			l0,0c0,0,0,0,0,0c0,0,0,0,0,0c0,0,0,0,0,0c0,0,0,0,0,0c0,0,0,0,0,0c0,0,0,0,0,0c0,0,0,0,0,0c0,0,0,0,0,0c0,0,0,0,0,0c0,0,0,0,0,0
			c0,0,0,0,0,0c0,0,0,0,0,0c0,0,0,0,0,0c0,0,0,0,0,0c0,0,0,0,0,0c0,0,0,0,0,0c0,0,0,0,0,0c0,0,0,0,0,0c0,0,0,0,0,0c0,0,0,0,0,0v1.6
			l-1.9,1.3l0,0l0,0c0,0,0,0,0,0c0,0,0,0,0,0c0,0,0,0,0,0c0,0,0,0,0,0c0,0,0,0,0,0c0,0,0,0,0,0c0,0,0,0,0,0c0,0,0,0,0,0c0,0,0,0,0,0
			c0,0,0,0,0,0c0,0,0,0,0,0c0,0,0,0,0,0c0,0,0,0,0,0c0,0,0,0,0,0c0,0,0,0,0,0c0,0,0,0,0,0c0,0,0,0,0,0c0,0,0,0,0,0c0,0,0,0,0,0
			c0,0,0,0,0,0v1.9c0,0.2,0.2,0.4,0.4,0.4h11.4c0.2,0,0.4-0.2,0.4-0.4v-13C52.8,23.5,52.6,23.4,52.4,23.4z M47.7,25.5h4.2v1.1h-4.2
			V25.5z M51.9,28.8v1.1h-6.4v-1.1H51.9z M51.9,32v1.1h-8.5V32H51.9z M51.9,36.3H41.3v-1.1h10.6V36.3z"/>
		<path class="st24" d="M46.6,23.5c-0.2-0.2-0.4-0.2-0.6,0l-9.2,8.4c-0.2,0.2-0.2,0.4,0,0.6c0.1,0.1,0.2,0.1,0.3,0.1
			c0.1,0,0.2,0,0.3-0.1l1.9-1.7v0.8h-0.5c-0.1,0-0.2,0.1-0.2,0.2c0,0.1,0.1,0.2,0.2,0.2h0.8c0.1,0,0.2-0.1,0.2-0.2v-1.5l4.2-3.9v0.9
			h-0.5c-0.1,0-0.3,0.1-0.3,0.3s0.1,0.3,0.3,0.3h0.8c0.1,0,0.3-0.1,0.3-0.3V26l2.1-1.9C46.8,23.9,46.8,23.6,46.6,23.5z"/>
	</g>
	<g>
		<path class="st24" d="M233,199.1h-3.1c-0.1,0-0.2,0-0.2,0.1l-2,1.3l0,0l0,0c0,0,0,0,0,0c0,0,0,0,0,0c0,0,0,0,0,0c0,0,0,0,0,0
			c0,0,0,0,0,0c0,0,0,0,0,0c0,0,0,0,0,0c0,0,0,0,0,0c0,0,0,0,0,0c0,0,0,0,0,0c0,0,0,0,0,0c0,0,0,0,0,0c0,0,0,0,0,0c0,0,0,0,0,0
			c0,0,0,0,0,0c0,0,0,0,0,0c0,0,0,0,0,0c0,0,0,0,0,0c0,0,0,0,0,0c0,0,0,0,0,0v1.5c0,0,0,0,0,0l-2,1.3l0,0l0,0c0,0,0,0,0,0
			c0,0,0,0,0,0c0,0,0,0,0,0c0,0,0,0,0,0c0,0,0,0,0,0c0,0,0,0,0,0c0,0,0,0,0,0c0,0,0,0,0,0c0,0,0,0,0,0c0,0,0,0,0,0c0,0,0,0,0,0
			c0,0,0,0,0,0c0,0,0,0,0,0c0,0,0,0,0,0c0,0,0,0,0,0c0,0,0,0,0,0c0,0,0,0,0,0c0,0,0,0,0,0c0,0,0,0,0,0c0,0,0,0,0,0v1.6l-1.9,1.3l0,0
			l0,0c0,0,0,0,0,0c0,0,0,0,0,0c0,0,0,0,0,0c0,0,0,0,0,0c0,0,0,0,0,0c0,0,0,0,0,0c0,0,0,0,0,0c0,0,0,0,0,0c0,0,0,0,0,0c0,0,0,0,0,0
			c0,0,0,0,0,0c0,0,0,0,0,0c0,0,0,0,0,0c0,0,0,0,0,0c0,0,0,0,0,0c0,0,0,0,0,0c0,0,0,0,0,0c0,0,0,0,0,0c0,0,0,0,0,0c0,0,0,0,0,0v1.6
			l-1.9,1.3l0,0l0,0c0,0,0,0,0,0c0,0,0,0,0,0c0,0,0,0,0,0c0,0,0,0,0,0c0,0,0,0,0,0c0,0,0,0,0,0c0,0,0,0,0,0c0,0,0,0,0,0c0,0,0,0,0,0
			c0,0,0,0,0,0c0,0,0,0,0,0c0,0,0,0,0,0c0,0,0,0,0,0c0,0,0,0,0,0c0,0,0,0,0,0c0,0,0,0,0,0c0,0,0,0,0,0c0,0,0,0,0,0c0,0,0,0,0,0
			c0,0,0,0,0,0v1.9c0,0.2,0.2,0.4,0.4,0.4H233c0.2,0,0.4-0.2,0.4-0.4v-13C233.4,199.3,233.2,199.1,233,199.1z M228.3,201.3h4.2v1.1
			h-4.2V201.3z M232.6,204.5v1.1h-6.4v-1.1H232.6z M232.6,207.8v1.1h-8.5v-1.1H232.6z M232.6,212.1H222V211h10.6V212.1z"/>
		<path class="st24" d="M227.3,199.2c-0.2-0.2-0.4-0.2-0.6,0l-9.2,8.4c-0.2,0.2-0.2,0.4,0,0.6c0.1,0.1,0.2,0.1,0.3,0.1
			c0.1,0,0.2,0,0.3-0.1l1.9-1.7v0.8h-0.5c-0.1,0-0.2,0.1-0.2,0.2c0,0.1,0.1,0.2,0.2,0.2h0.8c0.1,0,0.2-0.1,0.2-0.2V206l4.2-3.9v0.9
			h-0.5c-0.1,0-0.3,0.1-0.3,0.3c0,0.1,0.1,0.3,0.3,0.3h0.8c0.1,0,0.3-0.1,0.3-0.3v-1.6l2.1-1.9C227.4,199.6,227.4,199.4,227.3,199.2
			z"/>
	</g>
	<g>
		<g>
			<path class="st24" d="M155.7,61.8c0,0.2,0.1,0.3,0.3,0.3h1.7c0.2,0,0.3-0.1,0.3-0.3v-0.4c0-0.2-0.1-0.3-0.3-0.3H156
				c-0.2,0-0.3,0.1-0.3,0.3V61.8z"/>
		</g>
		<g>
			<path class="st24" d="M163,57.8h-0.4c-0.2,0-0.3,0.1-0.3,0.3v0h-0.7c-0.2-0.3-0.6-0.6-1.1-0.7v-0.3c0,0,0,0,0.1-0.1l1.5,0.1
				c0.2,0,0.3-0.1,0.3-0.3v-0.1c0-0.2-0.1-0.3-0.3-0.3l-1.4,0.1c-0.1-0.2-0.3-0.3-0.5-0.3c-0.2,0-0.4,0.1-0.5,0.3l-1.6-0.1
				c-0.2,0-0.3,0.1-0.3,0.3v0.1c0,0.2,0.1,0.3,0.3,0.3l1.6-0.1c0,0,0,0,0,0c0,0,0,0.1,0.1,0.1v0.3c-0.4,0.1-0.8,0.3-1.1,0.7h-0.9
				c-1,0-1.8,0.8-1.8,1.8v0.8h1.6V60c0-0.1,0.1-0.2,0.2-0.2h0.8c0.3,0.5,0.9,0.9,1.5,0.9c0.7,0,1.3-0.4,1.5-0.9h0.6v0
				c0,0.2,0.1,0.3,0.3,0.3l0.4,0c0.2,0,0.3-0.1,0.3-0.3v-1.7C163.3,57.9,163.1,57.8,163,57.8z M157.7,58.7c-0.6,0-1.1,0.5-1.1,1.1
				c0,0.1-0.1,0.1-0.1,0.1c-0.1,0-0.1-0.1-0.1-0.1c0-0.4,0.1-0.7,0.4-1c0.3-0.3,0.6-0.4,1-0.4c0.1,0,0.1,0.1,0.1,0.1
				C157.9,58.7,157.8,58.7,157.7,58.7z"/>
		</g>
		<g>
			<path class="st24" d="M156.5,68.7c-0.4,0-0.8-0.3-0.9-0.6c-0.6,0-1.1-0.1-1.2-0.5c0-0.1,0-0.3,0.1-0.4c-0.5-0.2-0.8-0.6-0.8-1
				c0-0.3,0.2-0.5,0.6-0.6c0.2-0.1,0.4-0.1,0.6-0.1c0-0.1,0-0.2,0-0.3c0.1-0.2,0.4-0.4,0.7-0.3v-2.2c0-0.1,0.1-0.2,0.2-0.2
				c0.1,0,0.2,0.1,0.2,0.2V65c0,0.1,0,0.1-0.1,0.2c-0.1,0-0.1,0-0.2,0c-0.3-0.1-0.5,0-0.5,0c0,0,0,0.1,0.1,0.2
				c0.1,0.1,0.1,0.2,0,0.2c0,0.1-0.1,0.1-0.2,0.1c-0.6-0.1-1.1,0.1-1.1,0.3c0,0.2,0.3,0.5,0.8,0.7c0.1,0,0.1,0.1,0.1,0.2
				c0,0.1,0,0.1-0.1,0.2c-0.1,0.1-0.2,0.2-0.2,0.3c0,0.1,0.4,0.3,0.9,0.2c0.1,0,0.1,0,0.2,0c0,0,0.1,0.1,0.1,0.1
				c0,0.3,0.3,0.5,0.5,0.5c0.2,0,0.4-0.1,0.5-0.3c0-0.1,0.1-0.1,0.1-0.1c0.1,0,0.1,0,0.2,0c0.1,0,0.1,0.1,0.2,0.1
				c0.2,0.1,0.5,0.1,0.7,0.1c0.1,0,0.3-0.1,0.3-0.2c0-0.1,0-0.2,0-0.3c0-0.1,0-0.1,0-0.2c0-0.1,0.1-0.1,0.1-0.1
				c0.4-0.1,0.6-0.3,0.6-0.3c0-0.1-0.2-0.3-0.7-0.3c-0.1,0-0.1-0.1-0.2-0.2c0-0.1,0-0.2,0.1-0.2c0.3-0.2,0.5-0.5,0.4-0.6
				c-0.1-0.2-0.6-0.3-1.2-0.1c-0.1,0-0.1,0-0.2,0c-0.1,0-0.1-0.1-0.1-0.2v-2.7c0-0.1,0.1-0.2,0.2-0.2c0.1,0,0.2,0.1,0.2,0.2V65
				c0.7-0.2,1.3,0,1.4,0.5c0.1,0.3,0,0.6-0.2,0.9c0.4,0.1,0.6,0.4,0.6,0.6c0,0.3-0.3,0.6-0.7,0.7c0,0.1,0,0.3,0,0.4
				c-0.1,0.2-0.3,0.4-0.6,0.5c-0.3,0.1-0.6,0-0.9-0.1c0,0-0.1,0-0.1,0C157.1,68.6,156.8,68.7,156.5,68.7z"/>
		</g>
		<g>
			<path class="st24" d="M160.8,66.1c-0.5,0-0.8-0.4-0.8-0.8s0.4-0.8,0.8-0.8s0.8,0.4,0.8,0.8S161.3,66.1,160.8,66.1z M160.8,64.8
				c-0.3,0-0.5,0.2-0.5,0.5s0.2,0.5,0.5,0.5s0.5-0.2,0.5-0.5S161.1,64.8,160.8,64.8z"/>
		</g>
		<g>
			<path class="st24" d="M159.9,68.8c-0.3,0-0.5-0.2-0.5-0.5s0.2-0.5,0.5-0.5s0.5,0.2,0.5,0.5S160.1,68.8,159.9,68.8z M159.9,68.1
				c-0.1,0-0.2,0.1-0.2,0.2s0.1,0.2,0.2,0.2s0.2-0.1,0.2-0.2S160,68.1,159.9,68.1z"/>
		</g>
		<g>
			<path class="st24" d="M152.6,67c-0.4,0-0.7-0.3-0.7-0.7c0-0.4,0.3-0.7,0.7-0.7c0.4,0,0.7,0.3,0.7,0.7C153.3,66.7,153,67,152.6,67
				z M152.6,65.9c-0.2,0-0.4,0.2-0.4,0.4c0,0.2,0.2,0.4,0.4,0.4c0.2,0,0.4-0.2,0.4-0.4C153,66.1,152.8,65.9,152.6,65.9z"/>
		</g>
		<g>
			<path class="st24" d="M153.5,64.6c-0.3,0-0.5-0.2-0.5-0.5c0-0.3,0.2-0.5,0.5-0.5s0.5,0.2,0.5,0.5C154,64.4,153.7,64.6,153.5,64.6
				z M153.5,63.9c-0.1,0-0.2,0.1-0.2,0.2s0.1,0.2,0.2,0.2s0.2-0.1,0.2-0.2S153.6,63.9,153.5,63.9z"/>
		</g>
		<g>
			<path class="st24" d="M154.8,69.2c-0.2,0-0.4-0.2-0.4-0.4c0-0.2,0.2-0.4,0.4-0.4s0.4,0.2,0.4,0.4C155.1,69.1,155,69.2,154.8,69.2
				z M154.8,68.7c-0.1,0-0.1,0.1-0.1,0.1c0,0.1,0.1,0.1,0.1,0.1s0.1-0.1,0.1-0.1C154.9,68.8,154.8,68.7,154.8,68.7z"/>
		</g>
	</g>
</g>
<text transform="matrix(1 0 0 1 38.2069 44.8002)"><tspan x="0" y="0" class="st20 st19">２階の</tspan><tspan x="0" y="5" class="st20 st19">階段と</tspan><tspan x="-4" y="10" class="st20 st19">エレベータ</tspan><tspan x="2" y="15" class="st20 st19">使用</tspan><tspan x="-4" y="20" class="st20 st19">できません</tspan></text>
<g>
	<path d="M323.6,59.9h0.7v-1.1c0,0,0-0.1,0.1-0.1h0.6c0,0,0.1,0,0.1,0.1v1.1h0.7v-1.1c0,0,0-0.1,0.1-0.1h0.6c0,0,0.1,0,0.1,0.1v1.1
		h0.7v-1.1c0,0,0-0.1,0.1-0.1h0.6c0,0,0.1,0,0.1,0.1v1.1h0.7v-1.8h-5.1V59.9z"/>
	<path d="M329.5,53.7h-6.6c-0.2,0-0.4,0.2-0.4,0.4v9c0,0.2,0.2,0.4,0.4,0.4h0.2v0.3h1v-0.3h4.3v0.3h1v-0.3h0.2
		c0.2,0,0.4-0.2,0.4-0.4v-9C329.9,53.9,329.7,53.7,329.5,53.7z M323.3,54.6h5.7V57h-5.7V54.6z M323.3,57.9h5.7v2.4h-5.7V57.9z
		 M324.1,61.1h0.3l-1.1,1.1v-0.3L324.1,61.1z M323.3,61.5v-0.4h0.4L323.3,61.5z M327.4,62.6h-3.8l1.5-1.5h2.4V62.6z M327.9,61.1h1.1
		v0.9h-1.1V61.1z"/>
	<path d="M323.6,56.7h0.7v-1.1c0,0,0-0.1,0.1-0.1h0.6c0,0,0.1,0,0.1,0.1v1.1h0.7v-1.1c0,0,0-0.1,0.1-0.1h0.6c0,0,0.1,0,0.1,0.1v1.1
		h0.7v-1.1c0,0,0-0.1,0.1-0.1h0.6c0,0,0.1,0,0.1,0.1v1.1h0.7v-1.8h-5.1V56.7z"/>
</g>
<line class="st23" x1="321" y1="52.8" x2="342.5" y2="52.8"/>
<path class="st2" d="M315.5,84.4c0,0,9.8,0,13.8,8.2"/>
<path class="st2" d="M304.4,84.4v8.1c0,0,9.3,0.1,11.2,0.1c1.5,0,5.2,0.2,6.7,4.4"/>
<line class="st2" x1="316.5" y1="92.6" x2="316.5" y2="84.5"/>
<line class="st2" x1="317.4" y1="92.7" x2="318.6" y2="84.6"/>
<line class="st2" x1="318.2" y1="92.9" x2="320.6" y2="85.1"/>
<line class="st2" x1="319.1" y1="93.2" x2="322.6" y2="85.9"/>
<line class="st2" x1="319.8" y1="93.6" x2="324.4" y2="86.9"/>
<line class="st2" x1="320.5" y1="94.2" x2="326.1" y2="88.2"/>
<line class="st2" x1="321.2" y1="94.8" x2="327.5" y2="89.8"/>
<line class="st2" x1="321.7" y1="95.6" x2="328.7" y2="91.5"/>
<g>
	<text transform="matrix(1 0 0 1 177.394 265.3)"><tspan x="0" y="0" class="st20 st10">中学生対象</tspan><tspan x="3" y="6" class="st20 st10">学校相談</tspan></text>
</g>
<rect x="183.1" y="232.4" class="st18" width="19.2" height="10.9"/>
<line class="st25" x1="191.6" y1="258.9" x2="191.6" y2="239.9"/>
<circle cx="191.6" cy="239.9" r="1.1"/>
</svg>
