<?xml version="1.0" encoding="utf-8"?>
<!-- Generator: Adobe Illustrator 22.1.0, SVG Export Plug-In . SVG Version: 6.00 Build 0)  -->
<svg version="1.1" id="レイヤー_1" xmlns="http://www.w3.org/2000/svg" xmlns:xlink="http://www.w3.org/1999/xlink" x="0px"
	 y="0px" viewBox="0 0 350 286" style="enable-background:new 0 0 350 286;" xml:space="preserve">
<style type="text/css">
	.st0{fill:none;stroke:#A0A0A0;stroke-width:0.5;stroke-miterlimit:10;}
	.st1{fill:#F7F6F5;stroke:#002355;stroke-width:0.5;stroke-miterlimit:10;}
	.st2{fill:#F7F6F5;}
	.st3{fill:#55FCFF;stroke:#002355;stroke-width:0.5;stroke-miterlimit:10;}
	.st4{fill:#FFFFFF;stroke:#002355;stroke-width:0.5;stroke-miterlimit:10;}
	.st5{fill:none;stroke:#002355;stroke-width:0.5;stroke-miterlimit:10;}
	.st6{fill:#EBEBEB;stroke:#002355;stroke-width:0.5;stroke-miterlimit:10;}
	.st7{fill:#EAE1CF;stroke:#002355;stroke-width:0.5;stroke-miterlimit:10;}
	.st8{fill:#FAFDFF;stroke:#002355;stroke-width:0.5;stroke-miterlimit:10;}
	.st9{fill:#0A0A0A;}
	.st10{font-family:'HiraginoSans-W5-83pv-RKSJ-H';}
	.st11{font-size:6px;}
	.st12{font-size:5px;}
	.st13{font-size:5.5px;}
	.st14{fill:#323232;}
	.st15{font-size:3.766px;}
	.st16{font-size:4.8px;}
	.st17{font-size:4.4px;}
	.st18{font-size:4.883px;}
	.st19{fill:#686868;}
	.st20{clip-path:url(#SVGID_2_);}
	.st21{stroke:#002355;stroke-width:0.25;stroke-miterlimit:10;}
	.st22{font-size:4px;}
	.st23{font-size:10px;}
</style>
<g id="_地-2">
	<g>
		<g>
			<line class="st0" x1="201.4" y1="105.9" x2="182.4" y2="181.5"/>
			<line class="st0" x1="182.4" y1="105.9" x2="201.4" y2="181.5"/>
		</g>
		<path class="st1" d="M80.8,268.5h45.5v-78.9H144v67.1h40.2v-12.5h16.6v12.5h12.5l0,0h26.5v-15.8l0,0l0.2-40.5v-116h102.5V4.9H240
			v14.5h-38v7.4h-19.8v-7.4h-37.8l0,0H33.8v65H144v85h-17.7V95.8H25.5v172.7h32 M201.6,181.6h-19.1v-75.7h19.1V181.6z"/>
	</g>
</g>
<rect x="304.5" y="84" class="st2" width="9.9" height="0.6"/>
<rect x="240" y="5" class="st3" width="102.5" height="47.8"/>
<rect x="240" y="52.8" class="st4" width="9.9" height="14.9"/>
<polyline class="st5" points="304.4,84.1 304.4,101.7 329.7,101.7 "/>
<polygon class="st4" points="33.5,103.2 33.5,251.5 57.3,251.5 66.2,251.5 75.7,251.5 118.1,251.5 118.1,183.8 118.1,103.2 "/>
<line class="st0" x1="57.2" y1="246.2" x2="75.8" y2="246.2"/>
<polyline class="st5" points="57.3,251.8 57.3,235.2 33.5,235.2 "/>
<rect x="33.5" y="103.2" class="st4" width="69.2" height="17.4"/>
<rect x="33.5" y="120.7" class="st6" width="69.2" height="20.9"/>
<rect x="102.8" y="103.3" class="st6" width="15.3" height="38.3"/>
<rect x="90" y="235.2" class="st4" width="28" height="16.3"/>
<rect x="75.9" y="235.2" class="st6" width="14.2" height="16.3"/>
<line class="st5" x1="103.7" y1="246.7" x2="103.7" y2="251.5"/>
<rect x="57.7" y="263.5" class="st2" width="9.9" height="17.5"/>
<polyline class="st5" points="57.6,268.3 57.6,281.2 82.9,281.2 "/>
<g id="_央棟-2">
	<rect x="144" y="19.3" class="st4" width="38.2" height="26.8"/>
	<rect x="144" y="70.5" class="st7" width="26.5" height="13.9"/>
	<rect x="213.2" y="223.1" class="st4" width="26.7" height="33.6"/>
	<rect x="213.2" y="215" class="st7" width="26.7" height="8.1"/>
	<rect x="144" y="106.1" class="st4" width="26.7" height="29.2"/>
	<rect x="144" y="135.3" class="st4" width="26.8" height="29.3"/>
	<rect x="144" y="189.7" class="st4" width="26.8" height="67"/>
	<rect x="182" y="57.5" class="st7" width="19.8" height="26.8"/>
	<line class="st5" x1="170.5" y1="70.3" x2="170.5" y2="57.6"/>
	<rect x="213.1" y="122.4" class="st4" width="26.9" height="16.4"/>
	<rect x="213.1" y="105.8" class="st4" width="26.9" height="16.5"/>
	<rect x="181.9" y="193.8" class="st8" width="19.8" height="17.3"/>
	<rect x="181.9" y="211.1" class="st7" width="19.8" height="19"/>
	<polygon class="st4" points="240,67.7 240,19.4 229.1,19.4 229.1,19.4 201.9,19.4 201.9,24.8 213.1,24.8 213.1,67.7 	"/>
	<line class="st5" x1="188.8" y1="230.1" x2="188.8" y2="211"/>
	<line class="st5" x1="239.9" y1="122.3" x2="213.1" y2="122.3"/>
	<line class="st5" x1="213" y1="84.3" x2="240.2" y2="84.3"/>
	<line class="st5" x1="239.9" y1="236.4" x2="213.1" y2="236.4"/>
	<line class="st5" x1="240.1" y1="196.6" x2="212.8" y2="196.6"/>
	<line class="st5" x1="170.9" y1="151.4" x2="144.1" y2="151.4"/>
</g>
<g id="_棟-2">
	<polyline class="st4" points="127,57.6 54.7,57.6 54.7,19.4 144,19.4 144,57.6 	"/>
	<polyline class="st4" points="144,57.6 144,84.3 54.7,84.3 54.7,57.6 127,57.6 	"/>
	<line class="st5" x1="127" y1="57.8" x2="127" y2="31.8"/>
	<line class="st5" x1="54.7" y1="57.4" x2="54.7" y2="19.4"/>
</g>
<g id="_屋名-2">
	<text transform="matrix(1 0 0 1 148.411 221.876)" class="st9 st10 st11">普通科</text>
	<text transform="matrix(1 0 0 1 148.51 229.076)" class="st9 st10 st11">職員</text>
	<text transform="matrix(1 0 0 1 160.311 229.076)" class="st9 st10 st11">室</text>
	<text transform="matrix(1 0 0 1 214 116.069)" class="st9 st10 st12">生徒指導室</text>
	<g>
		<path d="M263,131.2v-2.9l2.6-2.3c4.2-3.7,6.2-5.9,6.3-8.1c0-1.5-0.9-2.7-3.1-2.7c-1.7,0-3.1,0.8-4.2,1.6l-1.3-3.4
			c1.5-1.1,3.8-2,6.5-2c4.5,0,6.9,2.6,6.9,6.2c0,3.2-2.3,5.8-5,8.2l-1.8,1.5v0.1h7.2v3.9L263,131.2L263,131.2z"/>
		<path d="M281.6,117.7h8.3v2.6h-5.2v2.9h4.8v2.6h-4.8v5.3h-3.2L281.6,117.7L281.6,117.7z"/>
	</g>
	<text transform="matrix(1 0 0 1 220.603 42.24)" class="st9 st10 st11">溶接</text>
	<text transform="matrix(1 0 0 1 217.759 49.44)" class="st9 st10 st11">実</text>
	<text transform="matrix(1 0 0 1 223.591 49.44)" class="st9 st10 st11">習</text>
	<text transform="matrix(1 0 0 1 229.448 49.44)" class="st9 st10 st11">室</text>
	<text transform="matrix(1 0 0 1 217.656 168.875)" class="st9 st10 st11">ホ</text>
	<text transform="matrix(1 0 0 1 223.53 168.875)" class="st9 st10 st11">ー</text>
	<text transform="matrix(1 0 0 1 229.213 168.875)" class="st9 st10 st11">ル</text>
	<text transform="matrix(1 0 0 1 145.224 34.99)" class="st9 st10 st11">高電圧</text>
	<text transform="matrix(1 0 0 1 163.224 34.99)" class="st9 st10 st11">実</text>
	<text transform="matrix(1 0 0 1 169.056 34.99)" class="st9 st10 st11">習</text>
	<text transform="matrix(1 0 0 1 174.912 34.99)" class="st9 st10 st11">室</text>
	<text transform="matrix(1 0 0 1 79.747 40.772)" class="st9 st10 st11">吹</text>
	<text transform="matrix(1 0 0 1 85.501 40.772)" class="st9 st10 st11">き</text>
	<text transform="matrix(1 0 0 1 91.135 40.772)" class="st9 st10 st11">抜</text>
	<text transform="matrix(1 0 0 1 96.932 40.772)" class="st9 st10 st11">け</text>
	<text transform="matrix(1 0 0 1 285.282 31.158)" class="st9 st10 st11">食堂</text>
	<text transform="matrix(1 0 0 1 215.518 129.214)" class="st9 st10 st13">保健体育</text>
	<text transform="matrix(1 0 0 1 218.268 135.714)" class="st9 st10 st13">教材室</text>
	<text transform="matrix(1 0 0 1 145.357 119.326)" class="st9 st10 st11">塑性加工</text>
	<text transform="matrix(1 0 0 1 148.513 126.526)" class="st9 st10 st11">実</text>
	<text transform="matrix(1 0 0 1 154.345 126.526)" class="st9 st10 st11">習</text>
	<text transform="matrix(1 0 0 1 160.202 126.526)" class="st9 st10 st11">室</text>
	<text transform="matrix(1 0 0 1 84.546 73.25)" class="st9 st10 st11">木造</text>
	<text transform="matrix(1 0 0 1 96.546 73.25)" class="st9 st10 st11">実</text>
	<text transform="matrix(1 0 0 1 102.378 73.25)" class="st9 st10 st11">習</text>
	<text transform="matrix(1 0 0 1 108.234 73.25)" class="st9 st10 st11">室</text>
	<text transform="matrix(1 0 0 1 145.249 145.989)" class="st9 st10 st11">防災倉庫</text>
	<text transform="matrix(1 0 0 1 56.446 133.565)" class="st9 st10 st11">ス</text>
	<text transform="matrix(1 0 0 1 62.032 133.565)" class="st9 st10 st11">テ</text>
	<text transform="matrix(1 0 0 1 67.815 133.565)" class="st9 st10 st11">ー</text>
	<text transform="matrix(1 0 0 1 73.57 133.565)" class="st9 st10 st11">ジ</text>
	<text transform="matrix(1 0 0 1 107.053 250.074)" class="st14 st10 st15">全日</text>
	<text transform="matrix(1 0 0 1 93.11 250.039)" class="st14 st10 st15">定時</text>
	<text transform="matrix(1 0 0 1 62.147 110.645)" class="st9 st10 st11">部室</text>
	<text transform="matrix(1 0 0 1 59.832 117.845)" class="st9 st10 st11">(定時)</text>
	<text transform="matrix(1 0 0 1 66.833 181.681)" class="st9 st10 st11">体育館</text>
	<text transform="matrix(1 0 0 1 96.818 240.64)" class="st9 st10 st16">体育科</text>
	<text transform="matrix(1 0 0 1 96.897 245.64)" class="st9 st10 st16">職員</text>
	<text transform="matrix(1 0 0 1 106.435 245.64)" class="st9 st10 st16">室</text>
	<text transform="matrix(1 0 0 1 315.013 109.434)" class="st10 st11">1</text>
	<text transform="matrix(1 0 0 1 319.183 109.434)" class="st10 st11">F</text>
	<text transform="matrix(1 0 0 1 322.873 109.434)" class="st10 st11">中</text>
	<text transform="matrix(1 0 0 1 328.837 109.434)" class="st10 st11">庭</text>
	<text transform="matrix(1 0 0 1 334.789 109.434)" class="st10 st11">へ</text>
	<text transform="matrix(1 0 0 1 83.829 277.58)" class="st10 st11">正</text>
	<text transform="matrix(1 0 0 1 89.859 277.58)" class="st10 st11">門</text>
	<text transform="matrix(1 0 0 1 95.811 277.58)" class="st10 st11">へ</text>
	<g>
		<text transform="matrix(1 0 0 1 242.696 57.868)" class="st10 st17">パ</text>
		<text transform="matrix(1 0 0 1 242.678 61.665)" class="st10 st17">ン</text>
		<text transform="matrix(1 0 0 1 242.703 65.847)" class="st10 st17">屋</text>
	</g>
	<g>
		<text transform="matrix(1 0 0 1 80.594 240.2)" class="st10 st16">器</text>
		<text transform="matrix(1 0 0 1 80.594 245.074)" class="st10 st16">具</text>
		<text transform="matrix(1 0 0 1 80.594 249.919)" class="st10 st16">庫</text>
	</g>
	<g>
		<text transform="matrix(1 0 0 1 107.413 118.565)" class="st10 st11">器</text>
		<text transform="matrix(1 0 0 1 107.413 124.645)" class="st10 st11">具</text>
		<text transform="matrix(1 0 0 1 107.413 130.725)" class="st10 st11">庫</text>
	</g>
	<g>
		<text transform="matrix(1 0 0 1 299.856 74.628)" class="st9 st10 st18">神</text>
		<text transform="matrix(1 0 0 1 304.739 74.628)" class="st9 st10 st18">奈</text>
		<text transform="matrix(1 0 0 1 309.563 74.628)" class="st9 st10 st18">川</text>
		<text transform="matrix(1 0 0 1 314.363 74.628)" class="st9 st10 st18">総合高校</text>
		<polyline class="st5" points="335.4,74.4 338.3,72.8 335.4,71.1 		"/>
	</g>
</g>
<g id="_クトグラム-2">
	<g>
		<g>
			<path class="st19" d="M190.7,202.1c0,0.3-0.3,0.6-0.6,0.6s-0.6-0.2-0.6-0.6s0.3-0.6,0.6-0.6S190.7,201.8,190.7,202.1z"/>
			<path class="st19" d="M190.1,202.8c-0.4,0-1.3,0-1.3,0.8v1.8c0,0.1,0.1,0.2,0.2,0.2c0.1,0,0.2-0.1,0.2-0.2l0.1-1.1l0.1,4.1
				c0,0.2,0.1,0.3,0.3,0.3s0.3-0.1,0.3-0.3l0.1-2.5l0.1,2.5c0,0.2,0.1,0.3,0.3,0.3s0.3-0.1,0.3-0.3l0.1-4.1l0.1,1.1
				c0,0.1,0.1,0.2,0.2,0.2c0.1,0,0.2-0.1,0.2-0.2v-1.8C191.5,202.8,190.5,202.8,190.1,202.8z"/>
		</g>
		<g>
			<path class="st19" d="M194.1,202.1c0,0.3-0.3,0.6-0.6,0.6s-0.6-0.2-0.6-0.6s0.3-0.6,0.6-0.6S194.1,201.8,194.1,202.1z"/>
			<path class="st19" d="M193.6,202.8c-0.4,0-1.3,0-1.3,0.8v1.8c0,0.1,0.1,0.2,0.2,0.2c0.1,0,0.2-0.1,0.2-0.2l0.1-1.1l0.1,4.1
				c0,0.2,0.1,0.3,0.3,0.3s0.3-0.1,0.3-0.3l0.1-2.5l0.1,2.5c0,0.2,0.1,0.3,0.3,0.3s0.3-0.1,0.3-0.3l0.1-4.1l0.1,1.1
				c0,0.1,0.1,0.2,0.2,0.2c0.1,0,0.2-0.1,0.2-0.2v-1.8C194.9,202.8,194,202.8,193.6,202.8z"/>
		</g>
		<path class="st19" d="M195.6,209.1h-7.4c-0.6,0-1-0.5-1-1v-7.7c0-0.6,0.5-1,1-1h7.4c0.6,0,1,0.5,1,1v7.7
			C196.6,208.7,196.1,209.1,195.6,209.1z M188.1,200c-0.2,0-0.4,0.2-0.4,0.4v7.7c0,0.2,0.2,0.4,0.4,0.4h7.4c0.2,0,0.4-0.2,0.4-0.4
			v-7.7c0-0.2-0.2-0.4-0.4-0.4H188.1z"/>
		<path class="st19" d="M195.2,197.3l-1.3-1.2l0,0l-0.2-0.2l-0.2,0.2l0,0l-1.3,1.2c-0.1,0.1-0.1,0.3,0,0.4s0.3,0.1,0.4,0l0.8-0.8
			v1.7c0,0.2,0.1,0.3,0.3,0.3s0.3-0.1,0.3-0.3V197l0.8,0.8c0.1,0.1,0.1,0.1,0.2,0.1s0.1,0,0.2-0.1
			C195.3,197.6,195.3,197.4,195.2,197.3L195.2,197.3z"/>
		<path class="st19" d="M191.6,197.2c-0.1-0.1-0.3-0.1-0.4,0l-0.8,0.8v-1.7c0-0.2-0.1-0.3-0.3-0.3s-0.3,0.1-0.3,0.3v1.7l-0.8-0.8
			c-0.1-0.1-0.3-0.1-0.4,0s-0.1,0.3,0,0.4l1.3,1.2l0,0l0.2,0.2l0.2-0.2l0,0l1.3-1.2C191.7,197.5,191.7,197.3,191.6,197.2
			L191.6,197.2z"/>
	</g>
	<g transform="translate(186.366 59.216) scale(.046)">
	</g>
	<g transform="translate(190.065 215.331) scale(.046)">
	</g>
	<g transform="translate(150.223 88.148) scale(.061)">
	</g>
	<g transform="translate(219.473 88.148) scale(.061)">
	</g>
	<g transform="translate(219.473 198.772) scale(.061)">
	</g>
	<g transform="translate(37.273 25.871) scale(.061)">
	</g>
	<g transform="translate(128.2 32.136) scale(.061)">
	</g>
	<g transform="translate(315.51 86.135) scale(.061)">
	</g>
	<g transform="translate(65.083 265.061) scale(.061)">
	</g>
	<g>
		<g>
			<defs>
				<path id="SVGID_1_" d="M326.2,53.3h7.9c0.7,0,1.3,0.6,1.3,1.3v7.9c0,0.7-0.6,1.3-1.3,1.3h-7.9c-0.7,0-1.3-0.6-1.3-1.3v-7.9
					C324.9,53.9,325.4,53.3,326.2,53.3z"/>
			</defs>
			<clipPath id="SVGID_2_">
				<use xlink:href="#SVGID_1_"  style="overflow:visible;"/>
			</clipPath>
			<g class="st20">
			</g>
		</g>
	</g>
</g>
<image style="overflow:visible;enable-background:new    ;" width="230" height="230" xlink:href="B611C2C95A65F1D8.png"  transform="matrix(4.600000e-02 0 0 4.600000e-02 186.3852 71.7065)">
</image>
<g transform="translate(176.757 45.475) scale(.046)">
	
		<image style="overflow:visible;enable-background:new    ;" width="230" height="230" id="image_3_" xlink:href="B611C2C95A65F1D9.png"  transform="matrix(4.600000e-02 0 0 4.600000e-02 186.3852 58.7475)">
	</image>
</g>
<image style="overflow:visible;enable-background:new    ;" width="230" height="230" xlink:href="B611C2C95A65F1DF.png"  transform="matrix(4.600000e-02 0 0 4.600000e-02 151.9922 58.3935)">
</image>
<g transform="translate(180.456 201.59) scale(.046)">
	
		<image style="overflow:visible;enable-background:new    ;" width="230" height="230" id="image_1_" xlink:href="B611C2C95A65F1DA.png"  transform="matrix(4.600000e-02 0 0 4.600000e-02 190.0842 214.8625)">
	</image>
</g>
<g transform="translate(140.614 74.407) scale(.061)">
	
		<image style="overflow:visible;enable-background:new    ;" width="230" height="230" id="image-2_7_" xlink:href="B611C2C95A65F1DB.png"  transform="matrix(6.100000e-02 0 0 6.100000e-02 150.2422 87.6795)">
	</image>
</g>
<g transform="translate(209.864 74.407) scale(.061)">
	
		<image style="overflow:visible;enable-background:new    ;" width="230" height="230" id="image-2_6_" xlink:href="B611C2C95A65F1D6.png"  transform="matrix(6.100000e-02 0 0 6.100000e-02 219.4922 87.6795)">
	</image>
</g>
<g transform="translate(209.864 185.031) scale(.061)">
	
		<image style="overflow:visible;enable-background:new    ;" width="230" height="230" id="image-2_5_" xlink:href="B611C2C95A65F1D7.png"  transform="matrix(6.100000e-02 0 0 6.100000e-02 219.4922 198.3035)">
	</image>
</g>
<g transform="translate(27.663 12.129) scale(.061)">
	
		<image style="overflow:visible;enable-background:new    ;" width="230" height="230" id="image-2_1_" xlink:href="B611C2C95A65F1E8.png"  transform="matrix(6.100000e-02 0 0 6.100000e-02 37.2912 25.4015)">
	</image>
</g>
<rect x="182.5" y="181.6" class="st3" width="19.2" height="12.2"/>
<text transform="matrix(1 0 0 1 182.9002 186.7)"><tspan x="0" y="0" class="st21 st10 st22">NPO法人</tspan><tspan x="0" y="4.8" class="st21 st10 st22">プリン販売</tspan></text>
<path class="st4" d="M33.5,141.6"/>
<rect x="33.5" y="141.6" class="st3" width="84.5" height="93.6"/>
<text transform="matrix(0.7034 0 0 1 61.5062 177.3502)"><tspan x="0" y="0" class="st21 st10 st23">音楽部</tspan><tspan x="0" y="12" class="st21 st10 st23">ダンス部</tspan><tspan x="0" y="24" class="st21 st10 st23">吹奏楽部</tspan></text>
</svg>
