<?xml version="1.0" encoding="utf-8"?>
<!-- Generator: Adobe Illustrator 22.1.0, SVG Export Plug-In . SVG Version: 6.00 Build 0)  -->
<svg version="1.1" id="_F-3" xmlns="http://www.w3.org/2000/svg" xmlns:xlink="http://www.w3.org/1999/xlink" x="0px" y="0px"
	 viewBox="0 0 339.3 274.9" style="enable-background:new 0 0 339.3 274.9;" xml:space="preserve">
<style type="text/css">
	.st0{fill:none;stroke:#A0A0A0;stroke-width:0.5;stroke-miterlimit:10;}
	.st1{fill:#F7F6F5;stroke:#002355;stroke-width:0.5;stroke-miterlimit:10;}
	.st2{fill:#FFFFFF;stroke:#002355;stroke-width:0.5;stroke-miterlimit:10;}
	.st3{fill:none;stroke:#002355;stroke-width:0.5;stroke-miterlimit:10;}
	.st4{fill:#2AFCFF;stroke:#002355;stroke-width:0.5;stroke-miterlimit:10;}
	.st5{fill:#EAE1CF;stroke:#002355;stroke-width:0.5;stroke-miterlimit:10;}
	.st6{fill:#FAFDFF;stroke:#002355;stroke-width:0.5;stroke-miterlimit:10;}
	.st7{fill:#323232;}
	.st8{font-family:'HiraginoSans-W5-83pv-RKSJ-H';}
	.st9{font-size:5.5px;}
	.st10{fill:#0A0A0A;}
	.st11{font-size:6px;}
	.st12{font-size:5.8px;}
	.st13{font-size:4.8px;}
	.st14{fill:#686868;}
	.st15{stroke:#002355;stroke-width:0.25;stroke-miterlimit:10;}
	.st16{font-size:9px;}
</style>
<g id="_地-3">
	<g>
		<g>
			<line class="st0" x1="191.9" y1="107.1" x2="172.9" y2="182.7"/>
			<line class="st0" x1="172.9" y1="107.1" x2="191.9" y2="182.7"/>
		</g>
		<path class="st1" d="M333,78V6.1H230.5v14.5h-38V28h-19.8v-7.4h-37.8l0,0H24.4v65h110.2V258h69.3v-15.8h26.6V262
			c0,0,17.6,6.4,53.2,6.4c38.4,0,50.2-6.4,50.2-6.4v-60.3H230.6V85.6H333 M192.2,182.7h-19.1V107h19.1V182.7z"/>
	</g>
</g>
<g id="_別棟-2">
	<rect x="230.5" y="6.2" class="st2" width="102.5" height="71.8"/>
	<line class="st3" x1="220.7" y1="78" x2="230.6" y2="78"/>
	<line class="st3" x1="203.6" y1="85.5" x2="230.7" y2="85.5"/>
</g>
<path class="st2" d="M333.9,201.5c-19.6,0-39.3,0-58.9,0c-14.8,0-29.6,0-44.4,0c-0.1,13.5-0.1,27-0.2,40.5v0.1l-0.1,19.9
	c0,0,17.6,6.4,53.2,6.4c38.4,0,50.2-6.4,50.2-6.4l0.1-19.2h0.1L333.9,201.5L333.9,201.5z"/>
<polyline class="st4" points="230.6,231.2 230.3,262 247.3,265.8 265,267.8 281.8,268.4 300.2,267.9 317.3,266.2 333.7,262 
	333.9,201.5 275.7,201.3 275.7,225.4 255.2,225.4 255.2,231.1 230.1,231.1 "/>
<g id="_央棟-3">
	<rect x="134.4" y="20.5" class="st2" width="38.3" height="26.8"/>
	<rect x="134.6" y="71.7" class="st5" width="26.5" height="13.9"/>
	<rect x="203.8" y="216.2" class="st5" width="26.8" height="15"/>
	<rect x="134.6" y="107.2" class="st2" width="26.8" height="124"/>
	<rect x="134.6" y="231.3" class="st2" width="26.8" height="26.6"/>
	<rect x="203.7" y="20.6" class="st2" width="26.9" height="38"/>
	<rect x="172.5" y="58.7" class="st5" width="19.8" height="26.8"/>
	<line class="st3" x1="161" y1="71.5" x2="161" y2="58.8"/>
	<rect x="203.6" y="107" class="st2" width="26.9" height="90.8"/>
	<rect x="172.5" y="195" class="st6" width="19.8" height="17.3"/>
	<rect x="172.5" y="212.3" class="st5" width="19.8" height="19"/>
	<rect x="203.7" y="58.5" class="st2" width="26.9" height="10.4"/>
	<line class="st3" x1="179.4" y1="231.2" x2="179.4" y2="212.2"/>
	<line class="st3" x1="230.5" y1="152.2" x2="203.7" y2="152.2"/>
	<line class="st3" x1="161.4" y1="126.8" x2="134.6" y2="126.8"/>
	<line class="st3" x1="161.3" y1="145" x2="134.5" y2="145"/>
	<line class="st3" x1="137.3" y1="189.3" x2="134.3" y2="189.3"/>
	<line class="st3" x1="161.4" y1="189.3" x2="158.4" y2="189.3"/>
</g>
<rect x="114.1" y="20.5" class="st2" width="20.2" height="26.7"/>
<rect x="45.5" y="20.5" class="st2" width="68.6" height="26.8"/>
<rect x="45.2" y="58.8" class="st2" width="89.3" height="26.8"/>
<rect x="24.4" y="68.8" class="st6" width="20.9" height="16.7"/>
<line class="st3" x1="89.9" y1="58.5" x2="89.9" y2="64.4"/>
<line class="st3" x1="89.9" y1="76.5" x2="89.9" y2="85.8"/>
<line class="st3" x1="79.8" y1="20.5" x2="79.8" y2="26.1"/>
<line class="st3" x1="79.8" y1="38.2" x2="79.8" y2="47.4"/>
<text transform="matrix(1 0 0 1 61.773 80.719)" class="st7 st8 st9">旋盤</text>
<text transform="matrix(1 0 0 1 108.386 80.777)" class="st7 st8 st9">工作</text>
<text transform="matrix(1 0 0 1 138.968 239.658)" class="st10 st8 st11">機械科</text>
<text transform="matrix(1 0 0 1 139.067 246.858)" class="st10 st8 st11">職員</text>
<text transform="matrix(1 0 0 1 150.868 246.858)" class="st10 st8 st11">室</text>
<text transform="matrix(1 0 0 1 139.653 254.058)" class="st10 st8 st11">(定時)</text>
<text transform="matrix(1 0 0 1 138.982 115.826)" class="st10 st8 st11">講義室</text>
<text transform="matrix(1 0 0 1 140.686 123.026)" class="st10 st8 st11">(M2)</text>
<text transform="matrix(1 0 0 1 138.981 135.341)" class="st10 st8 st11">講義室</text>
<text transform="matrix(1 0 0 1 140.685 142.541)" class="st10 st8 st11">(M1)</text>
<text transform="matrix(1 0 0 1 238.059 216.733)" class="st10 st8 st11">図書管理室</text>
<text transform="matrix(1 0 0 1 205.137 129.169)" class="st10 st8 st11">精密工作</text>
<text transform="matrix(1 0 0 1 208.293 136.369)" class="st10 st8 st11">実</text>
<text transform="matrix(1 0 0 1 214.125 136.369)" class="st10 st8 st11">習</text>
<text transform="matrix(1 0 0 1 219.982 136.369)" class="st10 st8 st11">室</text>
<g>
	<path d="M254.4,127.7c0.8,0.4,2.7,1.2,4.6,1.2c2.3,0,3.5-1,3.5-2.5c0-1.8-1.9-2.7-3.8-2.7h-1.9v-3.4h1.8c1.5,0,3.4-0.6,3.4-2.1
		c0-1.1-0.9-1.9-2.8-1.9c-1.6,0-3.3,0.7-4.1,1.2l-1-3.4c1.2-0.8,3.6-1.5,6.1-1.5c4.2,0,6.6,2.2,6.6,4.9c0,2.1-1.2,3.7-3.6,4.5v0.1
		c2.3,0.4,4.2,2.2,4.2,4.7c0,3.5-3.1,6-8.1,6c-2.6,0-4.7-0.6-5.9-1.4L254.4,127.7L254.4,127.7z"/>
	<path d="M272.2,118.9h8.3v2.6h-5.2v2.9h4.8v2.6h-4.8v5.3h-3.2L272.2,118.9L272.2,118.9z"/>
</g>
<text transform="matrix(1 0 0 1 205.157 38.244)" class="st10 st8 st11">流体制御</text>
<text transform="matrix(1 0 0 1 208.313 45.444)" class="st10 st8 st11">実</text>
<text transform="matrix(1 0 0 1 214.145 45.444)" class="st10 st8 st11">習</text>
<text transform="matrix(1 0 0 1 220.002 45.444)" class="st10 st8 st11">室</text>
<text transform="matrix(1 0 0 1 204.885 166.504)" class="st10 st8 st11">自</text>
<text transform="matrix(1 0 0 1 210.651 166.504)" class="st10 st8 st11">動生産</text>
<text transform="matrix(1 0 0 1 205.805 173.704)" class="st10 st8 st11">シ</text>
<text transform="matrix(1 0 0 1 211.049 173.704)" class="st10 st8 st11">ス</text>
<text transform="matrix(1 0 0 1 216.635 173.704)" class="st10 st8 st11">テ</text>
<text transform="matrix(1 0 0 1 221.861 173.704)" class="st10 st8 st11">ム</text>
<text transform="matrix(1 0 0 1 208.037 180.904)" class="st10 st8 st11">実</text>
<text transform="matrix(1 0 0 1 213.869 180.904)" class="st10 st8 st11">習</text>
<text transform="matrix(1 0 0 1 219.726 180.904)" class="st10 st8 st11">室</text>
<text transform="matrix(1 0 0 1 207.503 188.104)" class="st10 st8 st11">(CNC)</text>
<g>
	<path class="st7" d="M152.5,208.5h2.4v0.5h-1.8v1.5h1.7v0.5h-1.7v2h-0.6L152.5,208.5L152.5,208.5z"/>
	<path class="st7" d="M156.1,211.5l-0.5,1.4H155l1.5-4.4h0.7l1.5,4.4h-0.6l-0.5-1.4H156.1z M157.5,211.1l-0.4-1.3
		c-0.1-0.3-0.2-0.5-0.2-0.8l0,0c-0.1,0.3-0.1,0.5-0.2,0.8l-0.4,1.3H157.5L157.5,211.1z"/>
</g>
<text transform="matrix(1 0 0 1 136.02 180.562)" class="st10 st8 st11">自</text>
<text transform="matrix(1 0 0 1 141.786 180.562)" class="st10 st8 st11">動生産</text>
<text transform="matrix(1 0 0 1 136.94 187.762)" class="st10 st8 st11">シ</text>
<text transform="matrix(1 0 0 1 142.184 187.762)" class="st10 st8 st11">ス</text>
<text transform="matrix(1 0 0 1 147.77 187.762)" class="st10 st8 st11">テ</text>
<text transform="matrix(1 0 0 1 152.996 187.762)" class="st10 st8 st11">ム</text>
<text transform="matrix(1 0 0 1 139.172 194.962)" class="st10 st8 st11">実</text>
<text transform="matrix(1 0 0 1 145.004 194.962)" class="st10 st8 st11">習</text>
<text transform="matrix(1 0 0 1 150.861 194.962)" class="st10 st8 st11">室</text>
<g>
	<path class="st7" d="M153.9,164.1c0-0.6-0.1-1.3-0.1-1.9l0,0c-0.1,0.5-0.3,1.1-0.6,1.7l-0.8,2.1H152l-0.7-2.1
		c-0.2-0.6-0.4-1.2-0.5-1.7l0,0c0,0.5,0,1.3-0.1,1.9l-0.1,1.9H150l0.3-4.4h0.7l0.7,2.1c0.2,0.5,0.3,1,0.4,1.5l0,0
		c0.1-0.4,0.3-0.9,0.5-1.5l0.8-2.1h0.7l0.3,4.4H154L153.9,164.1z"/>
	<path class="st7" d="M158.6,165.9c-0.2,0.1-0.6,0.2-1.2,0.2c-1.2,0-2.2-0.8-2.2-2.2s0.9-2.3,2.3-2.3c0.5,0,0.9,0.1,1,0.2l-0.1,0.5
		c-0.2-0.1-0.5-0.2-0.9-0.2c-1,0-1.7,0.7-1.7,1.8s0.6,1.8,1.7,1.8c0.3,0,0.7-0.1,0.9-0.2L158.6,165.9L158.6,165.9z"/>
</g>
<text transform="matrix(1 0 0 1 69.892 72.347)" class="st10 st8 st11">機械加工</text>
<text transform="matrix(1 0 0 1 94.372 72.347)" class="st10 st8 st11">実</text>
<text transform="matrix(1 0 0 1 100.324 72.347)" class="st10 st8 st11">習</text>
<text transform="matrix(1 0 0 1 106.3 72.347)" class="st10 st8 st11">室</text>
<text transform="matrix(1 0 0 1 58.673 34.007)" class="st10 st8 st11">機械加工</text>
<text transform="matrix(1 0 0 1 83.153 34.007)" class="st10 st8 st11">実</text>
<text transform="matrix(1 0 0 1 89.105 34.007)" class="st10 st8 st11">習</text>
<text transform="matrix(1 0 0 1 95.081 34.007)" class="st10 st8 st11">室</text>
<text transform="matrix(1 0 0 1 54.17 43.412)" class="st7 st8 st9">仕</text>
<text transform="matrix(1 0 0 1 59.67 43.412)" class="st7 st8 st9">上</text>
<text transform="matrix(1 0 0 1 65.049 43.412)" class="st7 st8 st9">げ</text>
<text transform="matrix(1 0 0 1 91.448 43.407)" class="st7 st8 st9">特殊</text>
<text transform="matrix(1 0 0 1 139.099 32.611)" class="st10 st8 st11">エ</text>
<text transform="matrix(1 0 0 1 144.745 32.611)" class="st10 st8 st11">ネ</text>
<text transform="matrix(1 0 0 1 150.421 32.611)" class="st10 st8 st11">ル</text>
<text transform="matrix(1 0 0 1 156.152 32.611)" class="st10 st8 st11">ギ</text>
<text transform="matrix(1 0 0 1 161.971 32.611)" class="st10 st8 st11">ー</text>
<text transform="matrix(1 0 0 1 138.773 39.811)" class="st10 st8 st11">計測</text>
<text transform="matrix(1 0 0 1 150.773 39.811)" class="st10 st8 st11">実</text>
<text transform="matrix(1 0 0 1 156.605 39.811)" class="st10 st8 st11">習</text>
<text transform="matrix(1 0 0 1 162.461 39.811)" class="st10 st8 st11">室</text>
<text transform="matrix(1 0 0 1 118.494 32.622)" class="st10 st8 st12">機械</text>
<text transform="matrix(1 0 0 1 115.594 39.582)" class="st10 st8 st12">工具室</text>
<text transform="matrix(1 0 0 1 208.171 66.019)" class="st10 st8 st11">教材室</text>
<text transform="matrix(1 0 0 1 261.443 44.404)" class="st10 st8 st11">屋</text>
<text transform="matrix(1 0 0 1 267.401 44.404)" class="st10 st8 st11">内</text>
<text transform="matrix(1 0 0 1 273.383 44.404)" class="st10 st8 st11">温</text>
<text transform="matrix(1 0 0 1 279.383 44.404)" class="st10 st8 st11">水</text>
<text transform="matrix(1 0 0 1 285.035 44.404)" class="st10 st8 st11">プ</text>
<text transform="matrix(1 0 0 1 290.621 44.404)" class="st10 st8 st11">ー</text>
<text transform="matrix(1 0 0 1 296.303 44.404)" class="st10 st8 st11">ル</text>
<g>
	<text transform="matrix(1 0 0 1 290.7 83.815)" class="st10 st8 st13">神</text>
	<text transform="matrix(1 0 0 1 295.5 83.815)" class="st10 st8 st13">奈</text>
	<text transform="matrix(1 0 0 1 300.242 83.815)" class="st10 st8 st13">川</text>
	<text transform="matrix(1 0 0 1 304.961 83.815)" class="st10 st8 st13">総合高校</text>
	<polyline class="st3" points="326,83.6 328.8,82 326,80.3 	"/>
</g>
<g id="_クトグラム-3">
	<g>
		<g>
			<path class="st14" d="M33.7,76.8c0,0.3-0.3,0.6-0.6,0.6s-0.6-0.2-0.6-0.6s0.3-0.6,0.6-0.6S33.7,76.5,33.7,76.8z"/>
			<path class="st14" d="M33.1,77.5c-0.4,0-1.3,0-1.3,0.8v1.8c0,0.1,0.1,0.2,0.2,0.2c0.1,0,0.2-0.1,0.2-0.2l0.1-1.1l0.1,4.1
				c0,0.2,0.1,0.3,0.3,0.3s0.3-0.1,0.3-0.3l0.1-2.5l0.1,2.5c0,0.2,0.1,0.3,0.3,0.3s0.3-0.1,0.3-0.3l0.1-4.1l0.1,1.1
				c0,0.1,0.1,0.2,0.2,0.2c0.1,0,0.2-0.1,0.2-0.2v-1.8C34.4,77.5,33.5,77.5,33.1,77.5L33.1,77.5z"/>
		</g>
		<g>
			<path class="st14" d="M37.1,76.8c0,0.3-0.3,0.6-0.6,0.6S36,77.1,36,76.8s0.3-0.6,0.6-0.6S37.1,76.5,37.1,76.8z"/>
			<path class="st14" d="M36.6,77.5c-0.4,0-1.3,0-1.3,0.8v1.8c0,0.1,0.1,0.2,0.2,0.2c0.1,0,0.2-0.1,0.2-0.2l0.1-1.1l0.1,4.1
				c0,0.2,0.1,0.3,0.3,0.3s0.3-0.1,0.3-0.3l0.1-2.5l0.1,2.5c0,0.2,0.1,0.3,0.3,0.3s0.3-0.1,0.3-0.3l0.1-4.1l0.1,1.1
				c0,0.1,0.1,0.2,0.2,0.2c0.1,0,0.2-0.1,0.2-0.2v-1.8C37.9,77.5,37,77.5,36.6,77.5L36.6,77.5z"/>
		</g>
		<path class="st14" d="M38.5,83.8h-7.4c-0.6,0-1-0.5-1-1v-7.7c0-0.6,0.5-1,1-1h7.4c0.6,0,1,0.5,1,1v7.7
			C39.6,83.3,39.1,83.8,38.5,83.8z M31.1,74.7c-0.2,0-0.4,0.2-0.4,0.4v7.7c0,0.2,0.2,0.4,0.4,0.4h7.4c0.2,0,0.4-0.2,0.4-0.4v-7.7
			c0-0.2-0.2-0.4-0.4-0.4H31.1z"/>
		<path class="st14" d="M38.2,72l-1.3-1.2l0,0l-0.2-0.2l-0.2,0.2l0,0L35.2,72c-0.1,0.1-0.1,0.3,0,0.4s0.3,0.1,0.4,0l0.8-0.8v1.7
			c0,0.2,0.1,0.3,0.3,0.3s0.3-0.1,0.3-0.3v-1.7l0.8,0.8c0.1,0.1,0.1,0.1,0.2,0.1s0.1,0,0.2-0.1C38.3,72.3,38.3,72.1,38.2,72L38.2,72
			z"/>
		<path class="st14" d="M34.6,71.9c-0.1-0.1-0.3-0.1-0.4,0l-0.8,0.8V71c0-0.2-0.1-0.3-0.3-0.3s-0.3,0.1-0.3,0.3v1.7L32,71.9
			c-0.1-0.1-0.3-0.1-0.4,0s-0.1,0.3,0,0.4l1.3,1.2l0,0l0.2,0.2l0.2-0.2l0,0l1.3-1.2C34.7,72.2,34.7,72,34.6,71.9L34.6,71.9z"/>
	</g>
	<g>
		<g>
			<path class="st14" d="M181.2,203.3c0,0.3-0.3,0.6-0.6,0.6s-0.6-0.2-0.6-0.6s0.3-0.6,0.6-0.6S181.2,203,181.2,203.3z"/>
			<path class="st14" d="M180.7,204c-0.4,0-1.3,0-1.3,0.8v1.8c0,0.1,0.1,0.2,0.2,0.2c0.1,0,0.2-0.1,0.2-0.2l0.1-1.1l0.1,4.1
				c0,0.2,0.1,0.3,0.3,0.3s0.3-0.1,0.3-0.3l0.1-2.5l0.1,2.5c0,0.2,0.1,0.3,0.3,0.3s0.3-0.1,0.3-0.3l0.1-4.1l0.1,1.1
				c0,0.1,0.1,0.2,0.2,0.2c0.1,0,0.2-0.1,0.2-0.2v-1.8C182,204,181.1,204,180.7,204z"/>
		</g>
		<g>
			<path class="st14" d="M184.7,203.3c0,0.3-0.3,0.6-0.6,0.6s-0.6-0.2-0.6-0.6s0.3-0.6,0.6-0.6S184.7,203,184.7,203.3z"/>
			<path class="st14" d="M184.1,204c-0.4,0-1.3,0-1.3,0.8v1.8c0,0.1,0.1,0.2,0.2,0.2c0.1,0,0.2-0.1,0.2-0.2l0.1-1.1l0.1,4.1
				c0,0.2,0.1,0.3,0.3,0.3s0.3-0.1,0.3-0.3l0.1-2.5l0.1,2.5c0,0.2,0.1,0.3,0.3,0.3s0.3-0.1,0.3-0.3l0.1-4.1l0.1,1.1
				c0,0.1,0.1,0.2,0.2,0.2c0.1,0,0.2-0.1,0.2-0.2v-1.8C185.5,204,184.5,204,184.1,204z"/>
		</g>
		<path class="st14" d="M186.1,210.3h-7.4c-0.6,0-1-0.5-1-1v-7.7c0-0.6,0.5-1,1-1h7.4c0.6,0,1,0.5,1,1v7.7
			C187.1,209.8,186.7,210.3,186.1,210.3z M178.7,201.2c-0.2,0-0.4,0.2-0.4,0.4v7.7c0,0.2,0.2,0.4,0.4,0.4h7.4c0.2,0,0.4-0.2,0.4-0.4
			v-7.7c0-0.2-0.2-0.4-0.4-0.4H178.7z"/>
		<path class="st14" d="M185.7,198.5l-1.3-1.2l0,0l-0.2-0.2l-0.2,0.2l0,0l-1.3,1.2c-0.1,0.1-0.1,0.3,0,0.4s0.3,0.1,0.4,0l0.8-0.8
			v1.7c0,0.2,0.1,0.3,0.3,0.3s0.3-0.1,0.3-0.3v-1.7l0.8,0.8c0.1,0.1,0.1,0.1,0.2,0.1s0.1,0,0.2-0.1
			C185.9,198.8,185.9,198.6,185.7,198.5L185.7,198.5z"/>
		<path class="st14" d="M182.1,198.4c-0.1-0.1-0.3-0.1-0.4,0l-0.8,0.8v-1.7c0-0.2-0.1-0.3-0.3-0.3s-0.3,0.1-0.3,0.3v1.7l-0.8-0.8
			c-0.1-0.1-0.3-0.1-0.4,0s-0.1,0.3,0,0.4l1.3,1.2l0,0l0.2,0.2l0.2-0.2l0,0l1.3-1.2C182.2,198.7,182.2,198.5,182.1,198.4
			L182.1,198.4z"/>
	</g>
	<g transform="translate(176.921 60.399) scale(.046)">
	</g>
	<g transform="translate(180.62 216.514) scale(.046)">
	</g>
	<g transform="translate(140.778 89.331) scale(.061)">
	</g>
	<g transform="translate(210.028 89.331) scale(.061)">
	</g>
	<g transform="translate(210.028 199.955) scale(.061)">
	</g>
	<g transform="translate(27.827 27.053) scale(.061)">
	</g>
</g>
<image style="overflow:visible;enable-background:new    ;" width="230" height="230" xlink:href="1503AC501C2BB6D9.png"  transform="matrix(4.600000e-02 0 0 4.600000e-02 176.6185 74.0845)">
</image>
<g transform="translate(176.757 45.475) scale(.046)">
	
		<image style="overflow:visible;enable-background:new    ;" width="230" height="230" id="image_3_" xlink:href="1503AC501C2BB6DB.png"  transform="matrix(4.600000e-02 0 0 4.600000e-02 176.6185 61.1255)">
	</image>
</g>
<image style="overflow:visible;enable-background:new    ;" width="230" height="230" xlink:href="1503AC501C2BB6DE.png"  transform="matrix(4.600000e-02 0 0 4.600000e-02 142.2254 60.7715)">
</image>
<g transform="translate(180.456 201.59) scale(.046)">
	
		<image style="overflow:visible;enable-background:new    ;" width="230" height="230" id="image_1_" xlink:href="1503AC501C2BB6DF.png"  transform="matrix(4.600000e-02 0 0 4.600000e-02 180.3174 217.2405)">
	</image>
</g>
<g transform="translate(140.614 74.407) scale(.061)">
	
		<image style="overflow:visible;enable-background:new    ;" width="230" height="230" id="image-2_7_" xlink:href="1503AC501C2BB6DA.png"  transform="matrix(6.100000e-02 0 0 6.100000e-02 140.4754 90.0575)">
	</image>
</g>
<g transform="translate(209.864 74.407) scale(.061)">
	
		<image style="overflow:visible;enable-background:new    ;" width="230" height="230" id="image-2_6_" xlink:href="1503AC501C2BB6D5.png"  transform="matrix(6.100000e-02 0 0 6.100000e-02 209.7254 90.0575)">
	</image>
</g>
<g transform="translate(209.864 185.031) scale(.061)">
	
		<image style="overflow:visible;enable-background:new    ;" width="230" height="230" id="image-2_5_" xlink:href="1503AC501C2BB6D6.png"  transform="matrix(6.100000e-02 0 0 6.100000e-02 209.7254 200.6815)">
	</image>
</g>
<g transform="translate(27.663 12.129) scale(.061)">
	
		<image style="overflow:visible;enable-background:new    ;" width="230" height="230" id="image-2_1_" xlink:href="1503AC501C2BB6D7.png"  transform="matrix(6.100000e-02 0 0 6.100000e-02 27.5244 27.7795)">
	</image>
</g>
<text transform="matrix(1 0 0 1 264.75 238.1758)" class="st15 st8 st16">図書委員会</text>
<rect x="45.2" y="58.8" class="st4" width="44.7" height="26.7"/>
<text transform="matrix(1 0 0 1 48.0544 70.6)"><tspan x="0" y="0" class="st15 st8 st16">ものづくり</tspan><tspan x="0" y="10.8" class="st15 st8 st16">研究部</tspan></text>
</svg>
