<?xml version="1.0" encoding="utf-8"?>
<!-- Generator: Adobe Illustrator 22.1.0, SVG Export Plug-In . SVG Version: 6.00 Build 0)  -->
<svg version="1.1" id="_F-3" xmlns="http://www.w3.org/2000/svg" xmlns:xlink="http://www.w3.org/1999/xlink" x="0px" y="0px"
	 viewBox="0 0 339.3 274.9" style="enable-background:new 0 0 339.3 274.9;" xml:space="preserve">
<style type="text/css">
	.st0{fill:none;stroke:#A0A0A0;stroke-width:0.5;stroke-miterlimit:10;}
	.st1{fill:#F7F6F5;stroke:#002355;stroke-width:0.5;stroke-miterlimit:10;}
	.st2{fill:#FFFFFF;stroke:#002355;stroke-width:0.5;stroke-miterlimit:10;}
	.st3{fill:none;stroke:#002355;stroke-width:0.5;stroke-miterlimit:10;}
	.st4{fill:#CCF5FF;stroke:#002355;stroke-width:0.5;stroke-miterlimit:10;}
	.st5{fill:#EAE1CF;stroke:#002355;stroke-width:0.5;stroke-miterlimit:10;}
	.st6{fill:#FAFDFF;stroke:#002355;stroke-width:0.5;stroke-miterlimit:10;}
	.st7{fill:#323232;}
	.st8{font-family:'HiraginoSans-W5-83pv-RKSJ-H';}
	.st9{font-size:5.5px;}
	.st10{fill:#0A0A0A;}
	.st11{font-size:6px;}
	.st12{font-size:5.8px;}
	.st13{font-size:4.8px;}
	.st14{font-family:'KozGoPr6N-Medium-83pv-RKSJ-H';}
	.st15{fill:#333333;}
	.st16{font-family:'KozGoPr6N-Regular-83pv-RKSJ-H';}
	.st17{font-size:3px;}
</style>
<g id="_地-3">
	<g>
		<g>
			<line class="st0" x1="191.9" y1="107.1" x2="172.9" y2="182.7"/>
			<line class="st0" x1="172.9" y1="107.1" x2="191.9" y2="182.7"/>
		</g>
		<path class="st1" d="M333,78V6.1H230.5v14.5h-38V28h-19.8v-7.4h-37.8l0,0H24.4v65h110.2V258h69.3v-15.8h26.6V262
			c0,0,17.6,6.4,53.2,6.4c38.4,0,50.2-6.4,50.2-6.4v-60.3H230.6V85.6H333 M192.2,182.7h-19.1V107h19.1V182.7z"/>
	</g>
</g>
<g id="_別棟-2">
	<rect x="230.5" y="6.2" class="st2" width="102.5" height="71.8"/>
	<line class="st3" x1="220.7" y1="78" x2="230.6" y2="78"/>
	<line class="st3" x1="203.6" y1="85.5" x2="230.7" y2="85.5"/>
</g>
<path class="st2" d="M333.9,201.5c-19.6,0-39.3,0-58.9,0c-14.8,0-29.6,0-44.4,0c-0.1,13.5-0.1,27-0.2,40.5v0.1l-0.1,19.9
	c0,0,17.6,6.4,53.2,6.4c38.4,0,50.2-6.4,50.2-6.4l0.1-19.2h0.1L333.9,201.5L333.9,201.5z"/>
<path class="st4" d="M230.6,231.2l-0.3,30.8c0,0,12.8,6.4,51.5,6.4s51.9-6.4,51.9-6.4l0.2-60.5l-58.2-0.2v24.1h-20.5v5.7h-25.1"/>
<g id="_央棟-3">
	<rect x="134.4" y="20.5" class="st2" width="38.3" height="26.8"/>
	<rect x="134.6" y="71.7" class="st5" width="26.5" height="13.9"/>
	<rect x="203.8" y="216.2" class="st5" width="26.8" height="15"/>
	<rect x="134.6" y="107.2" class="st2" width="26.8" height="124"/>
	<rect x="134.6" y="231.3" class="st2" width="26.8" height="26.6"/>
	<rect x="203.7" y="20.6" class="st2" width="26.9" height="38"/>
	<rect x="172.5" y="58.7" class="st5" width="19.8" height="26.8"/>
	<line class="st3" x1="161" y1="71.5" x2="161" y2="58.8"/>
	<rect x="203.6" y="107" class="st2" width="26.9" height="90.8"/>
	<rect x="172.5" y="195" class="st6" width="19.8" height="17.3"/>
	<rect x="172.5" y="212.3" class="st5" width="19.8" height="19"/>
	<rect x="203.7" y="58.5" class="st2" width="26.9" height="10.4"/>
	<line class="st3" x1="179.4" y1="231.2" x2="179.4" y2="212.2"/>
	<line class="st3" x1="230.5" y1="152.2" x2="203.7" y2="152.2"/>
	<line class="st3" x1="161.4" y1="126.8" x2="134.6" y2="126.8"/>
	<line class="st3" x1="161.3" y1="145" x2="134.5" y2="145"/>
	<line class="st3" x1="137.3" y1="189.3" x2="134.3" y2="189.3"/>
	<line class="st3" x1="161.4" y1="189.3" x2="158.4" y2="189.3"/>
</g>
<rect x="114.1" y="20.5" class="st2" width="20.2" height="26.7"/>
<rect x="45.5" y="20.5" class="st2" width="68.6" height="26.8"/>
<rect x="45.2" y="58.8" class="st2" width="89.3" height="26.8"/>
<rect x="24.4" y="68.8" class="st6" width="20.9" height="16.7"/>
<line class="st3" x1="89.9" y1="58.5" x2="89.9" y2="63.7"/>
<line class="st3" x1="89.9" y1="76.5" x2="89.9" y2="85.8"/>
<line class="st3" x1="79.8" y1="20.5" x2="79.8" y2="26.1"/>
<line class="st3" x1="79.8" y1="38.2" x2="79.8" y2="47.4"/>
<text transform="matrix(1 0 0 1 61.773 80.719)" class="st7 st8 st9">旋盤</text>
<text transform="matrix(1 0 0 1 108.386 80.777)" class="st7 st8 st9">工作</text>
<text transform="matrix(1 0 0 1 138.968 239.658)" class="st10 st8 st11">機械科</text>
<text transform="matrix(1 0 0 1 139.067 246.858)" class="st10 st8 st11">職員</text>
<text transform="matrix(1 0 0 1 150.868 246.858)" class="st10 st8 st11">室</text>
<text transform="matrix(1 0 0 1 139.653 254.058)" class="st10 st8 st11">(定時)</text>
<text transform="matrix(1 0 0 1 138.982 115.826)" class="st10 st8 st11">講義室</text>
<text transform="matrix(1 0 0 1 140.686 123.026)" class="st10 st8 st11">(M2)</text>
<text transform="matrix(1 0 0 1 138.981 135.341)" class="st10 st8 st11">講義室</text>
<text transform="matrix(1 0 0 1 140.685 142.541)" class="st10 st8 st11">(M1)</text>
<text transform="matrix(1 0 0 1 238.059 216.733)" class="st10 st8 st11">図書管理室</text>
<text transform="matrix(1 0 0 1 205.137 129.169)" class="st10 st8 st11">精密工作</text>
<text transform="matrix(1 0 0 1 208.293 136.369)" class="st10 st8 st11">実</text>
<text transform="matrix(1 0 0 1 214.125 136.369)" class="st10 st8 st11">習</text>
<text transform="matrix(1 0 0 1 219.982 136.369)" class="st10 st8 st11">室</text>
<g>
	<path d="M254.4,127.7c0.8,0.4,2.7,1.2,4.6,1.2c2.3,0,3.5-1,3.5-2.5c0-1.8-1.9-2.7-3.8-2.7h-1.9v-3.4h1.8c1.5,0,3.4-0.6,3.4-2.1
		c0-1.1-0.9-1.9-2.8-1.9c-1.6,0-3.3,0.7-4.1,1.2l-1-3.4c1.2-0.8,3.6-1.5,6.1-1.5c4.2,0,6.6,2.2,6.6,4.9c0,2.1-1.2,3.7-3.6,4.5v0.1
		c2.3,0.4,4.2,2.2,4.2,4.7c0,3.5-3.1,6-8.1,6c-2.6,0-4.7-0.6-5.9-1.4L254.4,127.7L254.4,127.7z"/>
	<path d="M272.2,118.9h8.3v2.6h-5.2v2.9h4.8v2.6h-4.8v5.3h-3.2L272.2,118.9L272.2,118.9z"/>
</g>
<text transform="matrix(1 0 0 1 205.157 38.244)" class="st10 st8 st11">流体制御</text>
<text transform="matrix(1 0 0 1 208.313 45.444)" class="st10 st8 st11">実</text>
<text transform="matrix(1 0 0 1 214.145 45.444)" class="st10 st8 st11">習</text>
<text transform="matrix(1 0 0 1 220.002 45.444)" class="st10 st8 st11">室</text>
<text transform="matrix(1 0 0 1 204.885 166.504)" class="st10 st8 st11">自</text>
<text transform="matrix(1 0 0 1 210.651 166.504)" class="st10 st8 st11">動生産</text>
<text transform="matrix(1 0 0 1 205.805 173.704)" class="st10 st8 st11">シ</text>
<text transform="matrix(1 0 0 1 211.049 173.704)" class="st10 st8 st11">ス</text>
<text transform="matrix(1 0 0 1 216.635 173.704)" class="st10 st8 st11">テ</text>
<text transform="matrix(1 0 0 1 221.861 173.704)" class="st10 st8 st11">ム</text>
<text transform="matrix(1 0 0 1 208.037 180.904)" class="st10 st8 st11">実</text>
<text transform="matrix(1 0 0 1 213.869 180.904)" class="st10 st8 st11">習</text>
<text transform="matrix(1 0 0 1 219.726 180.904)" class="st10 st8 st11">室</text>
<text transform="matrix(1 0 0 1 207.503 188.104)" class="st10 st8 st11">(CNC)</text>
<g>
	<path class="st7" d="M152.5,208.5h2.4v0.5h-1.8v1.5h1.7v0.5h-1.7v2h-0.6L152.5,208.5L152.5,208.5z"/>
	<path class="st7" d="M156.1,211.5l-0.5,1.4H155l1.5-4.4h0.7l1.5,4.4h-0.6l-0.5-1.4H156.1z M157.5,211.1l-0.4-1.3
		c-0.1-0.3-0.2-0.5-0.2-0.8l0,0c-0.1,0.3-0.1,0.5-0.2,0.8l-0.4,1.3H157.5L157.5,211.1z"/>
</g>
<text transform="matrix(1 0 0 1 136.02 180.562)" class="st10 st8 st11">自</text>
<text transform="matrix(1 0 0 1 141.786 180.562)" class="st10 st8 st11">動生産</text>
<text transform="matrix(1 0 0 1 136.94 187.762)" class="st10 st8 st11">シ</text>
<text transform="matrix(1 0 0 1 142.184 187.762)" class="st10 st8 st11">ス</text>
<text transform="matrix(1 0 0 1 147.77 187.762)" class="st10 st8 st11">テ</text>
<text transform="matrix(1 0 0 1 152.996 187.762)" class="st10 st8 st11">ム</text>
<text transform="matrix(1 0 0 1 139.172 194.962)" class="st10 st8 st11">実</text>
<text transform="matrix(1 0 0 1 145.004 194.962)" class="st10 st8 st11">習</text>
<text transform="matrix(1 0 0 1 150.861 194.962)" class="st10 st8 st11">室</text>
<g>
	<path class="st7" d="M153.9,164.1c0-0.6-0.1-1.3-0.1-1.9l0,0c-0.1,0.5-0.3,1.1-0.6,1.7l-0.8,2.1H152l-0.7-2.1
		c-0.2-0.6-0.4-1.2-0.5-1.7l0,0c0,0.5,0,1.3-0.1,1.9l-0.1,1.9H150l0.3-4.4h0.7l0.7,2.1c0.2,0.5,0.3,1,0.4,1.5l0,0
		c0.1-0.4,0.3-0.9,0.5-1.5l0.8-2.1h0.7l0.3,4.4H154L153.9,164.1z"/>
	<path class="st7" d="M158.6,165.9c-0.2,0.1-0.6,0.2-1.2,0.2c-1.2,0-2.2-0.8-2.2-2.2s0.9-2.3,2.3-2.3c0.5,0,0.9,0.1,1,0.2l-0.1,0.5
		c-0.2-0.1-0.5-0.2-0.9-0.2c-1,0-1.7,0.7-1.7,1.8s0.6,1.8,1.7,1.8c0.3,0,0.7-0.1,0.9-0.2L158.6,165.9L158.6,165.9z"/>
</g>
<text transform="matrix(1 0 0 1 91.182 70.6001)" class="st10 st8 st11">機械加工</text>
<text transform="matrix(1 0 0 1 115.662 70.6001)" class="st10 st8 st11">実</text>
<text transform="matrix(1 0 0 1 121.614 70.6001)" class="st10 st8 st11">習</text>
<text transform="matrix(1 0 0 1 127.59 70.6001)" class="st10 st8 st11">室</text>
<text transform="matrix(1 0 0 1 58.673 34.007)" class="st10 st8 st11">機械加工</text>
<text transform="matrix(1 0 0 1 83.153 34.007)" class="st10 st8 st11">実</text>
<text transform="matrix(1 0 0 1 89.105 34.007)" class="st10 st8 st11">習</text>
<text transform="matrix(1 0 0 1 95.081 34.007)" class="st10 st8 st11">室</text>
<text transform="matrix(1 0 0 1 54.17 43.412)" class="st7 st8 st9">仕</text>
<text transform="matrix(1 0 0 1 59.67 43.412)" class="st7 st8 st9">上</text>
<text transform="matrix(1 0 0 1 65.049 43.412)" class="st7 st8 st9">げ</text>
<text transform="matrix(1 0 0 1 91.448 43.407)" class="st7 st8 st9">特殊</text>
<text transform="matrix(1 0 0 1 139.099 32.611)" class="st10 st8 st11">エ</text>
<text transform="matrix(1 0 0 1 144.745 32.611)" class="st10 st8 st11">ネ</text>
<text transform="matrix(1 0 0 1 150.421 32.611)" class="st10 st8 st11">ル</text>
<text transform="matrix(1 0 0 1 156.152 32.611)" class="st10 st8 st11">ギ</text>
<text transform="matrix(1 0 0 1 161.971 32.611)" class="st10 st8 st11">ー</text>
<text transform="matrix(1 0 0 1 138.773 39.811)" class="st10 st8 st11">計測</text>
<text transform="matrix(1 0 0 1 150.773 39.811)" class="st10 st8 st11">実</text>
<text transform="matrix(1 0 0 1 156.605 39.811)" class="st10 st8 st11">習</text>
<text transform="matrix(1 0 0 1 162.461 39.811)" class="st10 st8 st11">室</text>
<text transform="matrix(1 0 0 1 118.494 32.622)" class="st10 st8 st12">機械</text>
<text transform="matrix(1 0 0 1 115.594 39.582)" class="st10 st8 st12">工具室</text>
<text transform="matrix(1 0 0 1 208.171 66.019)" class="st10 st8 st11">教材室</text>
<text transform="matrix(1 0 0 1 261.443 44.404)" class="st10 st8 st11">屋</text>
<text transform="matrix(1 0 0 1 267.401 44.404)" class="st10 st8 st11">内</text>
<text transform="matrix(1 0 0 1 273.383 44.404)" class="st10 st8 st11">温</text>
<text transform="matrix(1 0 0 1 279.383 44.404)" class="st10 st8 st11">水</text>
<text transform="matrix(1 0 0 1 285.035 44.404)" class="st10 st8 st11">プ</text>
<text transform="matrix(1 0 0 1 290.621 44.404)" class="st10 st8 st11">ー</text>
<text transform="matrix(1 0 0 1 296.303 44.404)" class="st10 st8 st11">ル</text>
<g>
	<text transform="matrix(1 0 0 1 290.7 83.815)" class="st10 st8 st13">神</text>
	<text transform="matrix(1 0 0 1 295.5 83.815)" class="st10 st8 st13">奈</text>
	<text transform="matrix(1 0 0 1 300.242 83.815)" class="st10 st8 st13">川</text>
	<text transform="matrix(1 0 0 1 304.961 83.815)" class="st10 st8 st13">総合高校</text>
	<polyline class="st3" points="326,83.6 328.8,82 326,80.3 	"/>
</g>
<g transform="translate(180.456 201.59) scale(.046)">
</g>
<g transform="translate(140.614 74.407) scale(.061)">
</g>
<g transform="translate(209.864 185.031) scale(.061)">
</g>
<g>
	<text transform="matrix(1 0 0 1 275.621 248.5508)" class="st14 st11">図書委員会</text>
</g>
<rect x="45.2" y="58.8" class="st4" width="44.7" height="26.7"/>
<g>
	<text transform="matrix(1 0 0 1 55.0489 64.45)" class="st14 st11">ものづくり</text>
	<text transform="matrix(1 0 0 1 59.0486 70.3498)" class="st14 st11">研究部</text>
</g>
<g>
	<g>
		<path class="st15" d="M186.1,200.9H178c-0.3,0-0.5,0.2-0.5,0.5v8.2c0,0.3,0.2,0.5,0.5,0.5h8.1c0.3,0,0.5-0.2,0.5-0.5v-8.2
			C186.6,201.1,186.4,200.9,186.1,200.9z M180.4,205.4l-0.1,3.3c0,0.3-0.3,0.5-0.6,0.5h-0.2c-0.3,0-0.6-0.2-0.6-0.5l-0.1-3.3
			c0-0.3,0.2-0.5,0.5-0.5h0.5C180.2,204.9,180.4,205.1,180.4,205.4z M179.6,204.5c-0.5,0-0.8-0.4-0.8-0.8s0.4-0.8,0.8-0.8
			c0.5,0,0.8,0.4,0.8,0.8S180.1,204.5,179.6,204.5z M182.9,205.4l-0.1,3.3c0,0.3-0.3,0.5-0.6,0.5H182c-0.3,0-0.6-0.2-0.6-0.5
			l-0.1-3.3c0-0.3,0.2-0.5,0.5-0.5h0.5C182.6,204.9,182.9,205.1,182.9,205.4z M182.1,204.5c-0.5,0-0.8-0.4-0.8-0.8s0.4-0.8,0.8-0.8
			c0.5,0,0.8,0.4,0.8,0.8S182.5,204.5,182.1,204.5z M185.3,205.4l-0.1,3.3c0,0.3-0.3,0.5-0.6,0.5h-0.2c-0.3,0-0.6-0.2-0.6-0.5
			l-0.1-3.3c0-0.3,0.2-0.5,0.5-0.5h0.5C185.1,204.9,185.4,205.1,185.3,205.4z M184.5,204.5c-0.5,0-0.8-0.4-0.8-0.8s0.4-0.8,0.8-0.8
			c0.5,0,0.8,0.4,0.8,0.8S185,204.5,184.5,204.5z"/>
		<g>
			<polygon class="st15" points="179.6,200.1 179.6,197.9 179,198.6 178.3,197.9 180.1,196.1 180.1,196.2 181.8,197.9 181.2,198.6 
				180.5,197.9 180.5,200.1 			"/>
			<polygon class="st15" points="184,200.1 182.3,198.4 183,197.8 183.6,198.4 183.6,196.2 184.5,196.2 184.5,198.4 185.2,197.8 
				185.8,198.4 184.1,200.2 			"/>
		</g>
	</g>
	<g>
		<path class="st15" d="M38.9,73.9h-8.1c-0.3,0-0.5,0.2-0.5,0.5v8.2c0,0.3,0.2,0.5,0.5,0.5h8.1c0.3,0,0.5-0.2,0.5-0.5v-8.2
			C39.4,74.1,39.2,73.9,38.9,73.9z M33.2,78.4l-0.1,3.3c0,0.3-0.3,0.5-0.6,0.5h-0.2c-0.3,0-0.6-0.2-0.6-0.5l-0.1-3.3
			c0-0.3,0.2-0.5,0.5-0.5h0.5C33,77.9,33.2,78.1,33.2,78.4z M32.4,77.5c-0.5,0-0.8-0.4-0.8-0.8c0-0.5,0.4-0.8,0.8-0.8
			c0.5,0,0.8,0.4,0.8,0.8S32.9,77.5,32.4,77.5z M35.7,78.4l-0.1,3.3c0,0.3-0.3,0.5-0.6,0.5h-0.2c-0.3,0-0.6-0.2-0.6-0.5l-0.1-3.3
			c0-0.3,0.2-0.5,0.5-0.5h0.5C35.5,77.9,35.7,78.1,35.7,78.4z M34.9,77.5c-0.5,0-0.8-0.4-0.8-0.8c0-0.5,0.4-0.8,0.8-0.8
			c0.5,0,0.8,0.4,0.8,0.8S35.3,77.5,34.9,77.5z M38.2,78.4L38,81.8c0,0.3-0.3,0.5-0.6,0.5h-0.2c-0.3,0-0.6-0.2-0.6-0.5l-0.1-3.3
			c0-0.3,0.2-0.5,0.5-0.5h0.5C37.9,77.9,38.2,78.1,38.2,78.4z M37.4,77.5c-0.5,0-0.8-0.4-0.8-0.8c0-0.5,0.4-0.8,0.8-0.8
			c0.5,0,0.8,0.4,0.8,0.8S37.8,77.5,37.4,77.5z"/>
		<g>
			<polygon class="st15" points="32.4,73.1 32.4,70.9 31.8,71.6 31.1,70.9 32.9,69.1 33,69.2 34.6,70.9 34,71.6 33.4,70.9 
				33.4,73.1 			"/>
			<polygon class="st15" points="36.8,73.1 35.1,71.4 35.8,70.8 36.4,71.4 36.4,69.2 37.4,69.2 37.4,71.4 38,70.8 38.6,71.4 
				36.9,73.2 			"/>
		</g>
	</g>
	<g>
		<path class="st15" d="M190.4,216.2h-9c-0.5,0-1,0.4-1,1v9c0,0.5,0.4,1,1,1h9c0.5,0,1-0.4,1-1v-9
			C191.4,216.6,190.9,216.2,190.4,216.2z M187.6,217.7c0.4,0,0.7,0.3,0.7,0.7s-0.3,0.7-0.7,0.7s-0.7-0.3-0.7-0.7
			C186.9,218,187.2,217.7,187.6,217.7z M183.9,217.7c0.4,0,0.7,0.3,0.7,0.7s-0.3,0.7-0.7,0.7s-0.7-0.3-0.7-0.7
			S183.5,217.7,183.9,217.7z M184.9,222.4c0,0.1-0.1,0.2-0.2,0.2l-0.3,0.1l-0.1,2.6c0,0.1-0.2,0.3-0.3,0.3h-0.2
			c-0.2,0-0.3-0.1-0.3-0.3l-0.1-2.6l-0.3-0.1c-0.1,0-0.2-0.1-0.2-0.2l-0.1-2.7c0-0.2,0.1-0.3,0.3-0.3h1.6c0.2,0,0.3,0.1,0.3,0.3
			L184.9,222.4z M188.7,222.8h-0.6l-0.2,2.6c0,0.1-0.1,0.3-0.3,0.3h-0.1c-0.1,0-0.3-0.1-0.3-0.3l-0.2-2.6h-0.6
			c-0.2,0-0.4-0.2-0.3-0.4l0.7-1.5v-0.1l-0.3-1.1c0-0.1,0.1-0.3,0.2-0.3h1.5c0.1,0,0.3,0.1,0.2,0.3l-0.3,1.1c0,0,0,0,0,0.1l0.7,1.5
			C189,222.6,188.9,222.8,188.7,222.8z"/>
	</g>
	<g>
		<path class="st15" d="M187.1,59.9h-9c-0.5,0-1,0.4-1,1v9c0,0.5,0.4,1,1,1h9c0.5,0,1-0.4,1-1v-9C188.1,60.3,187.6,59.9,187.1,59.9z
			 M184.3,61.4c0.4,0,0.7,0.3,0.7,0.7s-0.3,0.7-0.7,0.7s-0.7-0.3-0.7-0.7S183.9,61.4,184.3,61.4z M180.6,61.4c0.4,0,0.7,0.3,0.7,0.7
			s-0.3,0.7-0.7,0.7s-0.7-0.3-0.7-0.7C179.9,61.7,180.2,61.4,180.6,61.4z M181.6,66.1c0,0.1-0.1,0.2-0.2,0.2l-0.3,0.1L181,69
			c0,0.1-0.2,0.3-0.3,0.3h-0.2c-0.2,0-0.3-0.1-0.3-0.3l-0.1-2.6l-0.3-0.1c-0.1,0-0.2-0.1-0.2-0.2l-0.1-2.7c0-0.2,0.1-0.3,0.3-0.3
			h1.6c0.2,0,0.3,0.1,0.3,0.3L181.6,66.1z M185.4,66.5h-0.6l-0.2,2.6c0,0.1-0.1,0.3-0.3,0.3h-0.1c-0.1,0-0.3-0.1-0.3-0.3l-0.2-2.6
			h-0.6c-0.2,0-0.4-0.2-0.3-0.4l0.7-1.5v-0.1l-0.3-1.1c0-0.1,0.1-0.3,0.2-0.3h1.5c0.1,0,0.3,0.1,0.2,0.3l-0.3,1.1c0,0,0,0,0,0.1
			l0.7,1.5C185.7,66.3,185.6,66.5,185.4,66.5z"/>
	</g>
	<g>
		<path class="st15" d="M224.8,88.6h-3.1c-0.1,0-0.2,0-0.2,0.1l-2,1.3l0,0l0,0l0,0l0,0l0,0l0,0l0,0l0,0l0,0l0,0l0,0l0,0l0,0l0,0l0,0
			l0,0l0,0l0,0l0,0l0,0l0,0l0,0v1.5l0,0l-2,1.3l0,0l0,0l0,0l0,0l0,0l0,0l0,0l0,0l0,0l0,0l0,0l0,0l0,0l0,0l0,0l0,0l0,0l0,0l0,0l0,0
			l0,0l0,0v1.6l-1.9,1.3l0,0l0,0l0,0l0,0l0,0l0,0l0,0l0,0l0,0l0,0l0,0l0,0l0,0l0,0l0,0l0,0l0,0l0,0l0,0l0,0l0,0l0,0v1.6l-1.9,1.3
			l0,0l0,0l0,0l0,0l0,0l0,0l0,0l0,0l0,0l0,0l0,0l0,0l0,0l0,0l0,0l0,0l0,0l0,0l0,0l0,0l0,0l0,0v1.9c0,0.2,0.2,0.4,0.4,0.4h11.4
			c0.2,0,0.4-0.2,0.4-0.4V89C225.2,88.7,225,88.6,224.8,88.6z M220.1,90.7h4.2v1.1h-4.2V90.7z M224.4,94v1H218v-1H224.4z
			 M224.4,97.2v1.1h-8.5v-1.1H224.4z M224.4,101.5h-10.6v-1.1h10.6V101.5z"/>
		<path class="st15" d="M219.1,88.7c-0.2-0.2-0.4-0.2-0.6,0l-9.2,8.4c-0.2,0.2-0.2,0.4,0,0.6c0.1,0.1,0.2,0.1,0.3,0.1s0.2,0,0.3-0.1
			l1.9-1.7v0.8h-0.5c-0.1,0-0.2,0.1-0.2,0.2s0.1,0.2,0.2,0.2h0.8c0.1,0,0.2-0.1,0.2-0.2v-1.5l4.2-3.9v0.9H216
			c-0.1,0-0.3,0.1-0.3,0.3s0.1,0.3,0.3,0.3h0.8c0.1,0,0.3-0.1,0.3-0.3v-1.6l2.1-1.9C219.2,89.1,219.2,88.8,219.1,88.7z"/>
	</g>
	<g>
		<path class="st15" d="M152.5,88.6h-3.1c-0.1,0-0.2,0-0.2,0.1l-2,1.3l0,0l0,0l0,0l0,0l0,0l0,0l0,0l0,0l0,0l0,0l0,0l0,0l0,0l0,0l0,0
			l0,0l0,0l0,0l0,0l0,0l0,0l0,0v1.5l0,0l-2,1.3l0,0l0,0l0,0l0,0l0,0l0,0l0,0l0,0l0,0l0,0l0,0l0,0l0,0l0,0l0,0l0,0l0,0l0,0l0,0l0,0
			l0,0l0,0v1.6l-1.9,1.3l0,0l0,0l0,0l0,0l0,0l0,0l0,0l0,0l0,0l0,0l0,0l0,0l0,0l0,0l0,0l0,0l0,0l0,0l0,0l0,0l0,0l0,0v1.6l-1.9,1.3
			l0,0l0,0l0,0l0,0l0,0l0,0l0,0l0,0l0,0l0,0l0,0l0,0l0,0l0,0l0,0l0,0l0,0l0,0l0,0l0,0l0,0l0,0v1.9c0,0.2,0.2,0.4,0.4,0.4h11.4
			c0.2,0,0.4-0.2,0.4-0.4V89C152.9,88.7,152.7,88.6,152.5,88.6z M147.8,90.7h4.2v1.1h-4.2V90.7z M152.1,94v1h-6.4v-1H152.1z
			 M152.1,97.2v1.1h-8.5v-1.1H152.1z M152.1,101.5h-10.6v-1.1h10.6V101.5z"/>
		<path class="st15" d="M146.8,88.7c-0.2-0.2-0.4-0.2-0.6,0l-9.2,8.4c-0.2,0.2-0.2,0.4,0,0.6c0.1,0.1,0.2,0.1,0.3,0.1s0.2,0,0.3-0.1
			l1.9-1.7v0.8H139c-0.1,0-0.2,0.1-0.2,0.2s0.1,0.2,0.2,0.2h0.8c0.1,0,0.2-0.1,0.2-0.2v-1.5l4.2-3.9v0.9h-0.5
			c-0.1,0-0.3,0.1-0.3,0.3s0.1,0.3,0.3,0.3h0.8c0.1,0,0.3-0.1,0.3-0.3v-1.6l2.1-1.9C146.9,89.1,146.9,88.8,146.8,88.7z"/>
	</g>
	<g>
		<path class="st15" d="M42.8,24.1h-3.1c-0.1,0-0.2,0-0.2,0.1l-2,1.3l0,0l0,0l0,0l0,0l0,0l0,0l0,0l0,0l0,0l0,0l0,0l0,0l0,0l0,0l0,0
			l0,0l0,0l0,0l0,0l0,0l0,0l0,0V27l0,0l-2,1.3l0,0l0,0l0,0l0,0l0,0l0,0l0,0l0,0l0,0l0,0l0,0l0,0l0,0l0,0l0,0l0,0l0,0l0,0l0,0l0,0
			l0,0l0,0v1.6L33.3,32l0,0l0,0l0,0l0,0l0,0l0,0l0,0l0,0l0,0l0,0l0,0l0,0l0,0l0,0l0,0l0,0l0,0l0,0l0,0l0,0l0,0l0,0v1.6l-1.9,1.3l0,0
			l0,0l0,0l0,0l0,0l0,0l0,0l0,0l0,0l0,0l0,0l0,0l0,0l0,0l0,0l0,0l0,0l0,0l0,0l0,0l0,0l0,0v1.9c0,0.2,0.2,0.4,0.4,0.4h11.4
			c0.2,0,0.4-0.2,0.4-0.4v-13C43.2,24.2,43.1,24.1,42.8,24.1z M38.2,26.2h4.2v1.1h-4.2V26.2z M42.4,29.5v1.1H36v-1.1H42.4z
			 M42.4,32.7v1.1h-8.5v-1.1H42.4z M42.4,37H31.8v-1h10.6V37z"/>
		<path class="st15" d="M37.1,24.2c-0.2-0.2-0.4-0.2-0.6,0l-9.2,8.4c-0.2,0.2-0.2,0.4,0,0.6c0.1,0.1,0.2,0.1,0.3,0.1
			c0.1,0,0.2,0,0.3-0.1l1.9-1.7v0.8h-0.5c-0.1,0-0.2,0.1-0.2,0.2c0,0.1,0.1,0.2,0.2,0.2H30c0.1,0,0.2-0.1,0.2-0.2V31l4.2-3.9V28H34
			c-0.1,0-0.3,0.1-0.3,0.3s0.1,0.3,0.3,0.3h0.8c0.1,0,0.3-0.1,0.3-0.3v-1.6l2.1-1.9C37.3,24.6,37.3,24.3,37.1,24.2z"/>
	</g>
	<g>
		<path class="st15" d="M223.5,199.8h-3.1c-0.1,0-0.2,0-0.2,0.1l-2,1.3l0,0l0,0l0,0l0,0l0,0l0,0l0,0l0,0l0,0l0,0l0,0l0,0l0,0l0,0
			l0,0l0,0l0,0l0,0l0,0l0,0l0,0l0,0v1.5l0,0l-2,1.3l0,0l0,0l0,0l0,0l0,0l0,0l0,0l0,0l0,0l0,0l0,0l0,0l0,0l0,0l0,0l0,0l0,0l0,0l0,0
			l0,0l0,0l0,0v1.6l-1.9,1.3l0,0l0,0l0,0l0,0l0,0l0,0l0,0l0,0l0,0l0,0l0,0l0,0l0,0l0,0l0,0l0,0l0,0l0,0l0,0l0,0l0,0l0,0v1.6
			l-1.9,1.3l0,0l0,0l0,0l0,0l0,0l0,0l0,0l0,0l0,0l0,0l0,0l0,0l0,0l0,0l0,0l0,0l0,0l0,0l0,0l0,0l0,0l0,0v1.9c0,0.2,0.2,0.4,0.4,0.4
			h11.4c0.2,0,0.4-0.2,0.4-0.4v-13C223.9,200,223.7,199.8,223.5,199.8z M218.8,202h4.2v1.1h-4.2V202z M223.1,205.2v1.1h-6.4v-1.1
			H223.1z M223.1,208.5v1.1h-8.5v-1.1H223.1z M223.1,212.8h-10.6v-1.1h10.6V212.8z"/>
		<path class="st15" d="M217.8,199.9c-0.2-0.2-0.4-0.2-0.6,0l-9.2,8.4c-0.2,0.2-0.2,0.4,0,0.6c0.1,0.1,0.2,0.1,0.3,0.1
			s0.2,0,0.3-0.1l1.9-1.7v0.8H210c-0.1,0-0.2,0.1-0.2,0.2c0,0.1,0.1,0.2,0.2,0.2h0.8c0.1,0,0.2-0.1,0.2-0.2v-1.5l4.2-3.9v0.9h-0.5
			c-0.1,0-0.3,0.1-0.3,0.3c0,0.1,0.1,0.3,0.3,0.3h0.8c0.1,0,0.3-0.1,0.3-0.3v-1.6l2.1-1.9C217.9,200.3,217.9,200.1,217.8,199.9z"/>
	</g>
	<g>
		<g>
			<path class="st15" d="M146.1,62.5c0,0.2,0.1,0.3,0.3,0.3h1.7c0.2,0,0.3-0.1,0.3-0.3v-0.4c0-0.2-0.1-0.3-0.3-0.3h-1.7
				c-0.2,0-0.3,0.1-0.3,0.3V62.5z"/>
		</g>
		<g>
			<path class="st15" d="M153.4,58.5H153c-0.2,0-0.3,0.1-0.3,0.3l0,0H152c-0.2-0.3-0.6-0.6-1.1-0.7v-0.3c0,0,0,0,0.1-0.1l1.5,0.1
				c0.2,0,0.3-0.1,0.3-0.3v-0.1c0-0.2-0.1-0.3-0.3-0.3l-1.4,0.1c-0.1-0.2-0.3-0.3-0.5-0.3s-0.4,0.1-0.5,0.3l-1.6-0.1
				c-0.2,0-0.3,0.1-0.3,0.3v0.1c0,0.2,0.1,0.3,0.3,0.3l1.6-0.1l0,0c0,0,0,0.1,0.1,0.1v0.3c-0.4,0.1-0.8,0.3-1.1,0.7h-0.9
				c-1,0-1.8,0.8-1.8,1.8v0.8h1.6v-0.8c0-0.1,0.1-0.2,0.2-0.2h0.8c0.3,0.5,0.9,0.9,1.5,0.9s1.3-0.4,1.5-0.9h0.6l0,0
				c0,0.2,0.1,0.3,0.3,0.3h0.4c0.2,0,0.3-0.1,0.3-0.3v-1.7C153.7,58.6,153.6,58.5,153.4,58.5z M148.2,59.4c-0.6,0-1.1,0.5-1.1,1.1
				c0,0.1-0.1,0.1-0.1,0.1l-0.1-0.1c0-0.4,0.1-0.7,0.4-1c0.3-0.3,0.6-0.4,1-0.4c0.1,0,0.1,0.1,0.1,0.1
				C148.3,59.4,148.3,59.4,148.2,59.4z"/>
		</g>
		<g>
			<path class="st15" d="M147,69.4c-0.4,0-0.8-0.3-0.9-0.6c-0.6,0-1.1-0.1-1.2-0.5c0-0.1,0-0.3,0.1-0.4c-0.5-0.2-0.8-0.6-0.8-1
				c0-0.3,0.2-0.5,0.6-0.6c0.2-0.1,0.4-0.1,0.6-0.1c0-0.1,0-0.2,0-0.3c0.1-0.2,0.4-0.4,0.7-0.3v-2.2c0-0.1,0.1-0.2,0.2-0.2
				c0.1,0,0.2,0.1,0.2,0.2v2.4c0,0.1,0,0.1-0.1,0.2c-0.1,0-0.1,0-0.2,0c-0.3-0.1-0.5,0-0.5,0s0,0.1,0.1,0.2s0.1,0.2,0,0.2
				c0,0.1-0.1,0.1-0.2,0.1c-0.6-0.1-1.1,0.1-1.1,0.3c0,0.2,0.3,0.5,0.8,0.7c0.1,0,0.1,0.1,0.1,0.2s0,0.1-0.1,0.2s-0.2,0.2-0.2,0.3
				c0,0.1,0.4,0.3,0.9,0.2c0.1,0,0.1,0,0.2,0l0.1,0.1c0,0.3,0.3,0.5,0.5,0.5s0.4-0.1,0.5-0.3c0-0.1,0.1-0.1,0.1-0.1
				c0.1,0,0.1,0,0.2,0c0.1,0,0.1,0.1,0.2,0.1c0.2,0.1,0.5,0.1,0.7,0.1c0.1,0,0.3-0.1,0.3-0.2s0-0.2,0-0.3c0-0.1,0-0.1,0-0.2
				s0.1-0.1,0.1-0.1c0.4-0.1,0.6-0.3,0.6-0.3c0-0.1-0.2-0.3-0.7-0.3c-0.1,0-0.1-0.1-0.2-0.2c0-0.1,0-0.2,0.1-0.2
				c0.3-0.2,0.5-0.5,0.4-0.6c-0.1-0.2-0.6-0.3-1.2-0.1c-0.1,0-0.1,0-0.2,0c-0.1,0-0.1-0.1-0.1-0.2v-2.7c0-0.1,0.1-0.2,0.2-0.2
				c0.1,0,0.2,0.1,0.2,0.2v2.4c0.7-0.2,1.3,0,1.4,0.5c0.1,0.3,0,0.6-0.2,0.9c0.4,0.1,0.6,0.4,0.6,0.6c0,0.3-0.3,0.6-0.7,0.7
				c0,0.1,0,0.3,0,0.4c-0.1,0.2-0.3,0.4-0.6,0.5s-0.6,0-0.9-0.1h-0.1C147.6,69.3,147.3,69.4,147,69.4z"/>
		</g>
		<g>
			<path class="st15" d="M151.3,66.8c-0.5,0-0.8-0.4-0.8-0.8c0-0.5,0.4-0.8,0.8-0.8s0.8,0.4,0.8,0.8S151.8,66.8,151.3,66.8z
				 M151.3,65.5c-0.3,0-0.5,0.2-0.5,0.5s0.2,0.5,0.5,0.5s0.5-0.2,0.5-0.5S151.6,65.5,151.3,65.5z"/>
		</g>
		<g>
			<path class="st15" d="M150.3,69.5c-0.3,0-0.5-0.2-0.5-0.5s0.2-0.5,0.5-0.5s0.5,0.2,0.5,0.5S150.6,69.5,150.3,69.5z M150.3,68.8
				c-0.1,0-0.2,0.1-0.2,0.2s0.1,0.2,0.2,0.2s0.2-0.1,0.2-0.2S150.4,68.8,150.3,68.8z"/>
		</g>
		<g>
			<path class="st15" d="M143,67.7c-0.4,0-0.7-0.3-0.7-0.7c0-0.4,0.3-0.7,0.7-0.7s0.7,0.3,0.7,0.7C143.8,67.4,143.4,67.7,143,67.7z
				 M143,66.6c-0.2,0-0.4,0.2-0.4,0.4s0.2,0.4,0.4,0.4s0.4-0.2,0.4-0.4S143.3,66.6,143,66.6z"/>
		</g>
		<g>
			<path class="st15" d="M144,65.3c-0.3,0-0.5-0.2-0.5-0.5s0.2-0.5,0.5-0.5s0.5,0.2,0.5,0.5C144.4,65.1,144.2,65.3,144,65.3z
				 M144,64.6c-0.1,0-0.2,0.1-0.2,0.2s0.1,0.2,0.2,0.2s0.2-0.1,0.2-0.2S144.1,64.6,144,64.6z"/>
		</g>
		<g>
			<path class="st15" d="M145.2,69.9c-0.2,0-0.4-0.2-0.4-0.4s0.2-0.4,0.4-0.4s0.4,0.2,0.4,0.4S145.4,69.9,145.2,69.9z M145.2,69.4
				c-0.1,0-0.1,0.1-0.1,0.1l0.1,0.1l0.1-0.1C145.3,69.5,145.3,69.4,145.2,69.4z"/>
		</g>
	</g>
</g>
<text transform="matrix(1 0 0 1 52 75.1498)"><tspan x="0" y="0" class="st16 st17">マジックキューブ販売</tspan><tspan x="4.5" y="3" class="st16 st17">高校生コマ対戦</tspan><tspan x="-6" y="6" class="st16 st17">高校生ものづくりコンテストの</tspan><tspan x="7.5" y="9" class="st16 st17">実演と展示</tspan></text>
<text transform="matrix(1 0 0 1 286.121 253.0579)"><tspan x="0" y="0" class="st16 st17">古本市</tspan><tspan x="-9" y="3" class="st16 st17">和綴じ製本製作体験</tspan></text>
</svg>
