<?xml version="1.0" encoding="utf-8"?>
<!-- Generator: Adobe Illustrator 22.1.0, SVG Export Plug-In . SVG Version: 6.00 Build 0)  -->
<svg version="1.1" id="_F-4" xmlns="http://www.w3.org/2000/svg" xmlns:xlink="http://www.w3.org/1999/xlink" x="0px" y="0px"
	 viewBox="0 0 338.8 260.8" style="enable-background:new 0 0 338.8 260.8;" xml:space="preserve">
<style type="text/css">
	.st0{fill:none;stroke:#A0A0A0;stroke-width:0.5;stroke-miterlimit:10;}
	.st1{fill:#F7F6F5;stroke:#002355;stroke-width:0.5;stroke-miterlimit:10;}
	.st2{fill:#FFFFFF;stroke:#002355;stroke-width:0.5;stroke-miterlimit:10;}
	.st3{fill:none;stroke:#002355;stroke-width:0.5;stroke-miterlimit:10;}
	.st4{fill:#CCF5FF;stroke:#002355;stroke-width:0.5;stroke-miterlimit:10;}
	.st5{fill:#EAE1CF;stroke:#002355;stroke-width:0.5;stroke-miterlimit:10;}
	.st6{fill:#FAFDFF;stroke:#002355;stroke-width:0.5;stroke-miterlimit:10;}
	.st7{fill:#0A0A0A;}
	.st8{font-family:'HiraginoSans-W5-83pv-RKSJ-H';}
	.st9{font-size:6px;}
	.st10{font-family:'KozGoPr6N-Medium-83pv-RKSJ-H';}
	.st11{fill:#333333;}
	.st12{font-family:'KozGoPr6N-Regular-83pv-RKSJ-H';}
	.st13{font-size:3px;}
</style>
<g id="_地-4">
	<g>
		<g>
			<line class="st0" x1="191.9" y1="92.2" x2="172.9" y2="167.8"/>
			<line class="st0" x1="172.9" y1="92.2" x2="191.9" y2="167.8"/>
		</g>
		<path class="st1" d="M230.5,186.8V5.7h-38.1v7.4h-19.8V5.7h-37.8l0,0H24.3v65h110.2v172.4h69.3v-15.8h26.6v19.9
			c0,0,17.6,6.4,53.2,6.4c38.4,0,50.2-6.4,50.2-6.4v-60.3L230.5,186.8L230.5,186.8z M192.1,167.9H173V92.2h19.1V167.9z"/>
	</g>
</g>
<g id="_棟-5">
	<path class="st2" d="M333.9,227.3H230.5l-0.1,19.9c0,0,17.6,6.4,53.2,6.4c38.4,0,50.2-6.4,50.2-6.4L333.9,227.3L333.9,227.3z"/>
	<rect x="230.5" y="186.6" class="st2" width="103.4" height="29.6"/>
	<line class="st3" x1="272" y1="227.3" x2="272" y2="253.2"/>
	<line class="st3" x1="277" y1="186.4" x2="277" y2="216.4"/>
</g>
<rect x="134.4" y="5.7" class="st4" width="38.3" height="26.8"/>
<rect x="134.5" y="56.8" class="st5" width="26.5" height="13.9"/>
<rect x="203.8" y="201.3" class="st5" width="26.8" height="15"/>
<rect x="134.5" y="136.8" class="st2" width="26.8" height="43.2"/>
<rect x="134.5" y="180.1" class="st2" width="26.8" height="62.9"/>
<rect x="203.6" y="5.7" class="st2" width="26.8" height="65"/>
<rect x="134.5" y="92.2" class="st2" width="26.8" height="44.6"/>
<rect x="172.5" y="43.9" class="st5" width="19.8" height="26.8"/>
<line class="st3" x1="161" y1="56.7" x2="161" y2="43.9"/>
<rect x="203.6" y="92.2" class="st2" width="26.9" height="32.6"/>
<rect x="203.6" y="124.8" class="st2" width="26.9" height="32.5"/>
<line class="st3" x1="203.4" y1="183" x2="230.5" y2="183"/>
<rect x="172.4" y="180.2" class="st6" width="19.8" height="17.3"/>
<rect x="172.4" y="197.4" class="st5" width="19.8" height="19"/>
<line class="st3" x1="179.3" y1="216.4" x2="179.3" y2="197.3"/>
<line class="st3" x1="134.6" y1="213.4" x2="161.3" y2="213.4"/>
<rect x="75" y="5.7" class="st4" width="29.7" height="26.8"/>
<rect x="104.6" y="5.7" class="st4" width="29.7" height="26.8"/>
<rect x="45.4" y="5.7" class="st4" width="29.7" height="26.8"/>
<rect x="45.3" y="43.9" class="st2" width="89.2" height="26.8"/>
<line class="st3" x1="90" y1="43.9" x2="90" y2="70.9"/>
<rect x="24.3" y="54" class="st6" width="20.9" height="16.7"/>
<text transform="matrix(1 0 0 1 55.983 55.975)" class="st7 st8 st9">工業基礎</text>
<text transform="matrix(1 0 0 1 59.139 63.175)" class="st7 st8 st9">実</text>
<text transform="matrix(1 0 0 1 64.971 63.175)" class="st7 st8 st9">習</text>
<text transform="matrix(1 0 0 1 70.828 63.175)" class="st7 st8 st9">室</text>
<text transform="matrix(1 0 0 1 99.709 55.975)" class="st7 st8 st9">電子基礎</text>
<text transform="matrix(1 0 0 1 96.865 63.175)" class="st7 st8 st9">制御</text>
<text transform="matrix(1 0 0 1 108.865 63.175)" class="st7 st8 st9">実</text>
<text transform="matrix(1 0 0 1 114.697 63.175)" class="st7 st8 st9">習</text>
<text transform="matrix(1 0 0 1 120.554 63.175)" class="st7 st8 st9">室</text>
<text transform="matrix(1 0 0 1 208.035 36.888)" class="st7 st8 st9">機械科</text>
<text transform="matrix(1 0 0 1 208.134 44.088)" class="st7 st8 st9">職員</text>
<text transform="matrix(1 0 0 1 219.935 44.088)" class="st7 st8 st9">室</text>
<text transform="matrix(1 0 0 1 135.883 112.779)" class="st7 st8 st9">材料基礎</text>
<text transform="matrix(1 0 0 1 139.039 119.979)" class="st7 st8 st9">実</text>
<text transform="matrix(1 0 0 1 144.871 119.979)" class="st7 st8 st9">習</text>
<text transform="matrix(1 0 0 1 150.728 119.979)" class="st7 st8 st9">室</text>
<text transform="matrix(1 0 0 1 141.954 192.14)" class="st7 st8 st9">計測</text>
<text transform="matrix(1 0 0 1 139.11 199.34)" class="st7 st8 st9">実</text>
<text transform="matrix(1 0 0 1 144.942 199.34)" class="st7 st8 st9">習</text>
<text transform="matrix(1 0 0 1 150.799 199.34)" class="st7 st8 st9">室</text>
<text transform="matrix(1 0 0 1 139.639 206.54)" class="st7 st8 st9">(精密)</text>
<text transform="matrix(1 0 0 1 232.839 203.745)" class="st7 st8 st9">課題研究</text>
<text transform="matrix(1 0 0 1 256.839 203.745)" class="st7 st8 st9">実</text>
<text transform="matrix(1 0 0 1 262.671 203.745)" class="st7 st8 st9">習</text>
<text transform="matrix(1 0 0 1 268.527 203.745)" class="st7 st8 st9">室</text>
<text transform="matrix(1 0 0 1 204.953 103.557)" class="st7 st8 st9">電子基礎</text>
<text transform="matrix(1 0 0 1 210.953 110.757)" class="st7 st8 st9">制御</text>
<text transform="matrix(1 0 0 1 208.109 117.957)" class="st7 st8 st9">実</text>
<text transform="matrix(1 0 0 1 213.941 117.957)" class="st7 st8 st9">習</text>
<text transform="matrix(1 0 0 1 219.798 117.957)" class="st7 st8 st9">室</text>
<text transform="matrix(1 0 0 1 236.779 241.656)" class="st7 st8 st9">工</text>
<text transform="matrix(1 0 0 1 242.779 241.656)" class="st7 st8 st9">場</text>
<text transform="matrix(1 0 0 1 248.737 241.656)" class="st7 st8 st9">内</text>
<text transform="matrix(1 0 0 1 254.719 241.656)" class="st7 st8 st9">教室</text>
<text transform="matrix(1 0 0 1 290.599 203.745)" class="st7 st8 st9">製図</text>
<text transform="matrix(1 0 0 1 302.599 203.745)" class="st7 st8 st9">実</text>
<text transform="matrix(1 0 0 1 308.431 203.745)" class="st7 st8 st9">習</text>
<text transform="matrix(1 0 0 1 314.287 203.745)" class="st7 st8 st9">室</text>
<text transform="matrix(1 0 0 1 288.256 241.664)" class="st7 st8 st9">CAD</text>
<text transform="matrix(1 0 0 1 302.338 241.664)" class="st7 st8 st9">実</text>
<text transform="matrix(1 0 0 1 308.17 241.664)" class="st7 st8 st9">習</text>
<text transform="matrix(1 0 0 1 314.026 241.664)" class="st7 st8 st9">室</text>
<g>
	<path d="M268.1,87.6V83h-8.6v-3.1l7.2-11.8h5.9v11.4h2.3V83h-2.3v4.6H268.1L268.1,87.6z M268.1,79.5v-4.1c0-1.2,0.1-2.4,0.1-3.7
		h-0.1c-0.6,1.3-1.2,2.4-1.8,3.7l-2.4,4v0.1H268.1L268.1,79.5z"/>
	<path d="M278.6,74.1h8.3v2.6h-5.2v2.9h4.8v2.6h-4.8v5.3h-3.2L278.6,74.1L278.6,74.1z"/>
</g>
<text transform="matrix(1 0 0 1 141.954 223.31)" class="st7 st8 st9">計測</text>
<text transform="matrix(1 0 0 1 139.11 230.51)" class="st7 st8 st9">実</text>
<text transform="matrix(1 0 0 1 144.942 230.51)" class="st7 st8 st9">習</text>
<text transform="matrix(1 0 0 1 150.799 230.51)" class="st7 st8 st9">室</text>
<text transform="matrix(1 0 0 1 139.639 237.71)" class="st7 st8 st9">(恒温)</text>
<text transform="matrix(1 0 0 1 208.072 136.105)" class="st7 st8 st9">国語科</text>
<text transform="matrix(1 0 0 1 208.228 143.305)" class="st7 st8 st9">学</text>
<text transform="matrix(1 0 0 1 214.06 143.305)" class="st7 st8 st9">習</text>
<text transform="matrix(1 0 0 1 219.917 143.305)" class="st7 st8 st9">室</text>
<text transform="matrix(1 0 0 1 208.757 150.505)" class="st7 st8 st9">(定時)</text>
<text transform="matrix(1 0 0 1 135.79 157.118)" class="st7 st8 st9">電子基礎</text>
<text transform="matrix(1 0 0 1 138.79 164.318)" class="st7 st8 st9">計測室</text>
<g transform="translate(180.456 201.59) scale(.046)">
</g>
<text transform="matrix(1 0 0 1 144.1654 11.9568)" class="st10 st9">機械科</text>
<text transform="matrix(1 0 0 1 143.7654 18.1746)" class="st10 st9">3年1組</text>
<text transform="matrix(1 0 0 1 110.4499 11.9569)" class="st10 st9">機械科</text>
<text transform="matrix(1 0 0 1 110.0499 18.1747)" class="st10 st9">3年2組</text>
<text transform="matrix(1 0 0 1 81.0002 11.9573)" class="st10 st9">機械科</text>
<text transform="matrix(1 0 0 1 80.6002 18.1751)" class="st10 st9">1年1組</text>
<text transform="matrix(1 0 0 1 51.2498 11.9573)" class="st10 st9">機械科</text>
<text transform="matrix(1 0 0 1 50.8498 18.1751)" class="st10 st9">1年2組</text>
<g>
	<g>
		<path class="st11" d="M186.1,186.1H178c-0.3,0-0.5,0.2-0.5,0.5v8.2c0,0.3,0.2,0.5,0.5,0.5h8.1c0.3,0,0.5-0.2,0.5-0.5v-8.2
			C186.6,186.3,186.4,186.1,186.1,186.1z M180.4,190.6l-0.1,3.3c0,0.3-0.3,0.5-0.6,0.5h-0.2c-0.3,0-0.6-0.2-0.6-0.5l-0.1-3.3
			c0-0.3,0.2-0.5,0.5-0.5h0.5C180.2,190,180.4,190.3,180.4,190.6z M179.6,189.7c-0.5,0-0.8-0.4-0.8-0.8s0.4-0.8,0.8-0.8
			c0.5,0,0.8,0.4,0.8,0.8S180.1,189.7,179.6,189.7z M182.9,190.6l-0.1,3.3c0,0.3-0.3,0.5-0.6,0.5H182c-0.3,0-0.6-0.2-0.6-0.5
			l-0.1-3.3c0-0.3,0.2-0.5,0.5-0.5h0.5C182.7,190,182.9,190.3,182.9,190.6z M182.1,189.7c-0.5,0-0.8-0.4-0.8-0.8s0.4-0.8,0.8-0.8
			c0.5,0,0.8,0.4,0.8,0.8S182.5,189.7,182.1,189.7z M185.3,190.6l-0.1,3.3c0,0.3-0.3,0.5-0.6,0.5h-0.2c-0.3,0-0.6-0.2-0.6-0.5
			l-0.1-3.3c0-0.3,0.2-0.5,0.5-0.5h0.5C185.1,190,185.4,190.3,185.3,190.6z M184.5,189.7c-0.5,0-0.8-0.4-0.8-0.8s0.4-0.8,0.8-0.8
			c0.5,0,0.8,0.4,0.8,0.8S185,189.7,184.5,189.7z"/>
		<g>
			<polygon class="st11" points="179.6,185.3 179.6,183.1 179,183.7 178.3,183.1 180.1,181.3 180.1,181.4 181.8,183.1 181.2,183.7 
				180.5,183.1 180.5,185.3 			"/>
			<polygon class="st11" points="184,185.3 182.3,183.6 183,182.9 183.6,183.5 183.6,181.3 184.5,181.3 184.5,183.6 185.2,182.9 
				185.8,183.6 184.1,185.3 			"/>
		</g>
	</g>
	<g>
		<path class="st11" d="M38.9,59.1h-8.1c-0.3,0-0.5,0.2-0.5,0.5v8.2c0,0.3,0.2,0.5,0.5,0.5h8.1c0.3,0,0.5-0.2,0.5-0.5v-8.2
			C39.4,59.3,39.2,59.1,38.9,59.1z M33.2,63.6l-0.1,3.3c0,0.3-0.3,0.5-0.6,0.5h-0.2c-0.3,0-0.6-0.2-0.6-0.5l-0.1-3.3
			c0-0.3,0.2-0.5,0.5-0.5h0.5C33,63,33.2,63.3,33.2,63.6z M32.4,62.7c-0.5,0-0.8-0.4-0.8-0.8c0-0.5,0.4-0.8,0.8-0.8
			c0.5,0,0.8,0.4,0.8,0.8S32.9,62.7,32.4,62.7z M35.7,63.6l-0.1,3.3c0,0.3-0.3,0.5-0.6,0.5h-0.2c-0.3,0-0.6-0.2-0.6-0.5l-0.1-3.3
			c0-0.3,0.2-0.5,0.5-0.5h0.5C35.5,63,35.7,63.3,35.7,63.6z M34.9,62.7c-0.5,0-0.8-0.4-0.8-0.8c0-0.5,0.4-0.8,0.8-0.8
			c0.5,0,0.8,0.4,0.8,0.8S35.3,62.7,34.9,62.7z M38.2,63.6L38,66.9c0,0.3-0.3,0.5-0.6,0.5h-0.2c-0.3,0-0.6-0.2-0.6-0.5l-0.1-3.3
			c0-0.3,0.2-0.5,0.5-0.5h0.5C37.9,63,38.2,63.3,38.2,63.6z M37.4,62.7c-0.5,0-0.8-0.4-0.8-0.8c0-0.5,0.4-0.8,0.8-0.8
			c0.5,0,0.8,0.4,0.8,0.8S37.8,62.7,37.4,62.7z"/>
		<g>
			<polygon class="st11" points="32.4,58.3 32.4,56.1 31.8,56.7 31.1,56.1 32.9,54.3 33,54.4 34.6,56.1 34,56.7 33.4,56.1 
				33.4,58.3 			"/>
			<polygon class="st11" points="36.8,58.3 35.1,56.6 35.8,55.9 36.4,56.5 36.4,54.3 37.4,54.3 37.4,56.6 38,55.9 38.7,56.6 
				36.9,58.3 			"/>
		</g>
	</g>
	<g>
		<path class="st11" d="M190.4,201.3h-9c-0.5,0-1,0.4-1,1v9c0,0.5,0.4,1,1,1h9c0.5,0,1-0.4,1-1v-9
			C191.4,201.8,191,201.3,190.4,201.3z M187.6,202.9c0.4,0,0.7,0.3,0.7,0.7s-0.3,0.7-0.7,0.7s-0.7-0.3-0.7-0.7
			C186.9,203.2,187.2,202.9,187.6,202.9z M183.9,202.9c0.4,0,0.7,0.3,0.7,0.7s-0.3,0.7-0.7,0.7s-0.7-0.3-0.7-0.7
			S183.5,202.9,183.9,202.9z M184.9,207.6c0,0.1-0.1,0.2-0.2,0.2l-0.3,0.1l-0.1,2.6c0,0.1-0.2,0.3-0.3,0.3h-0.2
			c-0.2,0-0.3-0.1-0.3-0.3l-0.1-2.6l-0.3-0.1c-0.1,0-0.2-0.1-0.2-0.2l-0.1-2.7c0-0.2,0.1-0.3,0.3-0.3h1.6c0.2,0,0.3,0.1,0.3,0.3
			L184.9,207.6z M188.7,207.9h-0.6l-0.2,2.6c0,0.1-0.1,0.3-0.3,0.3h-0.1c-0.1,0-0.3-0.1-0.3-0.3l-0.2-2.6h-0.6
			c-0.2,0-0.4-0.2-0.3-0.4l0.7-1.5v-0.1l-0.3-1.1c0-0.1,0.1-0.3,0.2-0.3h1.5c0.1,0,0.3,0.1,0.2,0.3l-0.3,1.1c0,0,0,0,0,0.1l0.7,1.5
			C189,207.8,188.9,207.9,188.7,207.9z"/>
	</g>
	<g>
		<path class="st11" d="M187.1,45h-9c-0.5,0-1,0.4-1,1v9c0,0.5,0.4,1,1,1h9c0.5,0,1-0.4,1-1v-9C188.1,45.5,187.6,45,187.1,45z
			 M184.3,46.6c0.4,0,0.7,0.3,0.7,0.7s-0.3,0.7-0.7,0.7s-0.7-0.3-0.7-0.7C183.6,46.9,183.9,46.6,184.3,46.6z M180.6,46.6
			c0.4,0,0.7,0.3,0.7,0.7S181,48,180.6,48s-0.7-0.3-0.7-0.7C179.9,46.9,180.2,46.6,180.6,46.6z M181.6,51.3c0,0.1-0.1,0.2-0.2,0.2
			l-0.3,0.1l-0.1,2.6c0,0.1-0.2,0.3-0.3,0.3h-0.2c-0.2,0-0.3-0.1-0.3-0.3l-0.1-2.6l-0.3-0.1c-0.1,0-0.2-0.1-0.2-0.2l-0.1-2.7
			c0-0.2,0.1-0.3,0.3-0.3h1.6c0.2,0,0.3,0.1,0.3,0.3L181.6,51.3z M185.4,51.6h-0.6l-0.2,2.6c0,0.1-0.1,0.3-0.3,0.3h-0.1
			c-0.1,0-0.3-0.1-0.3-0.3l-0.2-2.6h-0.6c-0.2,0-0.4-0.2-0.3-0.4l0.7-1.5v-0.1l-0.3-1.1c0-0.1,0.1-0.3,0.2-0.3h1.5
			c0.1,0,0.3,0.1,0.2,0.3l-0.3,1.1c0,0,0,0,0,0.1l0.7,1.5C185.7,51.5,185.6,51.6,185.4,51.6z"/>
	</g>
	<g>
		<path class="st11" d="M224.8,73.7h-3.1c-0.1,0-0.2,0-0.2,0.1l-2,1.3l0,0l0,0l0,0l0,0l0,0l0,0l0,0l0,0l0,0l0,0l0,0l0,0l0,0l0,0l0,0
			l0,0l0,0l0,0l0,0l0,0l0,0l0,0V77l0,0l-2,1.3l0,0l0,0l0,0l0,0l0,0l0,0l0,0l0,0l0,0l0,0l0,0l0,0l0,0l0,0l0,0l0,0l0,0l0,0l0,0l0,0
			l0,0l0,0v1.6l-1.9,1.3l0,0l0,0l0,0l0,0l0,0l0,0l0,0l0,0l0,0l0,0l0,0l0,0l0,0l0,0l0,0l0,0l0,0l0,0l0,0l0,0l0,0l0,0v1.6l-1.9,1.3
			l0,0l0,0l0,0l0,0l0,0l0,0l0,0l0,0l0,0l0,0l0,0l0,0l0,0l0,0l0,0l0,0l0,0l0,0l0,0l0,0l0,0l0,0V86c0,0.2,0.2,0.4,0.4,0.4h11.4
			c0.2,0,0.4-0.2,0.4-0.4V73C225.2,73.9,225,73.7,224.8,73.7z M220.2,75.9h4.2V77h-4.2V75.9z M224.4,79.1v1.1H218v-1.1H224.4z
			 M224.4,82.4v1.1h-8.5v-1.1H224.4z M224.4,86.7h-10.6v-1.1h10.6V86.7z"/>
		<path class="st11" d="M219.1,73.8c-0.2-0.2-0.4-0.2-0.6,0l-9.2,8.4c-0.2,0.2-0.2,0.4,0,0.6c0.1,0.1,0.2,0.1,0.3,0.1s0.2,0,0.3-0.1
			l1.9-1.7v0.8h-0.5c-0.1,0-0.2,0.1-0.2,0.2s0.1,0.2,0.2,0.2h0.8c0.1,0,0.2-0.1,0.2-0.2v-1.5l4.2-3.9v0.9H216
			c-0.1,0-0.3,0.1-0.3,0.3c0,0.1,0.1,0.3,0.3,0.3h0.8c0.1,0,0.3-0.1,0.3-0.3v-1.6l2.1-1.9C219.2,74.3,219.2,74,219.1,73.8z"/>
	</g>
	<g>
		<path class="st11" d="M152.5,73.7h-3.1c-0.1,0-0.2,0-0.2,0.1l-2,1.3l0,0l0,0l0,0l0,0l0,0l0,0l0,0l0,0l0,0l0,0l0,0l0,0l0,0l0,0l0,0
			l0,0l0,0l0,0l0,0l0,0l0,0l0,0V77l0,0l-2,1.3l0,0l0,0l0,0l0,0l0,0l0,0l0,0l0,0l0,0l0,0l0,0l0,0l0,0l0,0l0,0l0,0l0,0l0,0l0,0l0,0
			l0,0l0,0v1.6l-1.9,1.3l0,0l0,0l0,0l0,0l0,0l0,0l0,0l0,0l0,0l0,0l0,0l0,0l0,0l0,0l0,0l0,0l0,0l0,0l0,0l0,0l0,0l0,0v1.6l-1.9,1.3
			l0,0l0,0l0,0l0,0l0,0l0,0l0,0l0,0l0,0l0,0l0,0l0,0l0,0l0,0l0,0l0,0l0,0l0,0l0,0l0,0l0,0l0,0V86c0,0.2,0.2,0.4,0.4,0.4h11.4
			c0.2,0,0.4-0.2,0.4-0.4V73C152.9,73.9,152.7,73.7,152.5,73.7z M147.8,75.9h4.2V77h-4.2V75.9z M152.1,79.1v1.1h-6.4v-1.1H152.1z
			 M152.1,82.4v1.1h-8.5v-1.1H152.1z M152.1,86.7h-10.6v-1.1h10.6V86.7z"/>
		<path class="st11" d="M146.8,73.8c-0.2-0.2-0.4-0.2-0.6,0l-9.2,8.4c-0.2,0.2-0.2,0.4,0,0.6c0.1,0.1,0.2,0.1,0.3,0.1s0.2,0,0.3-0.1
			l1.9-1.7v0.8H139c-0.1,0-0.2,0.1-0.2,0.2s0.1,0.2,0.2,0.2h0.8c0.1,0,0.2-0.1,0.2-0.2v-1.5l4.2-3.9v0.9h-0.5
			c-0.1,0-0.3,0.1-0.3,0.3c0,0.1,0.1,0.3,0.3,0.3h0.8c0.1,0,0.3-0.1,0.3-0.3v-1.6l2.1-1.9C146.9,74.3,146.9,74,146.8,73.8z"/>
	</g>
	<g>
		<path class="st11" d="M42.8,9.2h-3.1c-0.1,0-0.2,0-0.2,0.1l-2,1.3l0,0l0,0l0,0l0,0l0,0l0,0l0,0l0,0l0,0l0,0l0,0l0,0l0,0l0,0l0,0
			l0,0l0,0l0,0l0,0l0,0l0,0l0,0v1.5l0,0l-2,1.3l0,0l0,0l0,0l0,0l0,0l0,0l0,0l0,0l0,0l0,0l0,0l0,0l0,0l0,0l0,0l0,0l0,0l0,0l0,0l0,0
			l0,0l0,0V15l-1.9,1.3l0,0l0,0l0,0l0,0l0,0l0,0l0,0l0,0l0,0l0,0l0,0l0,0l0,0l0,0l0,0l0,0l0,0l0,0l0,0l0,0l0,0l0,0v1.6l-1.9,1.3l0,0
			l0,0l0,0l0,0l0,0l0,0l0,0l0,0l0,0l0,0l0,0l0,0l0,0l0,0l0,0l0,0l0,0l0,0l0,0l0,0l0,0l0,0v1.9c0,0.2,0.2,0.4,0.4,0.4h11.4
			c0.2,0,0.4-0.2,0.4-0.4v-13C43.2,9.4,43.1,9.2,42.8,9.2z M38.2,11.4h4.2v1.1h-4.2V11.4z M42.4,14.6v1.1H36v-1.1H42.4z M42.4,17.9
			V19h-8.5v-1.1H42.4z M42.4,22.2H31.8v-1.1h10.6V22.2z"/>
		<path class="st11" d="M37.1,9.3c-0.2-0.2-0.4-0.2-0.6,0l-9.2,8.4c-0.2,0.2-0.2,0.4,0,0.6c0.1,0.1,0.2,0.1,0.3,0.1
			c0.1,0,0.2,0,0.3-0.1l1.9-1.7v0.8h-0.5c-0.1,0-0.2,0.1-0.2,0.2s0.1,0.2,0.2,0.2H30c0.1,0,0.2-0.1,0.2-0.2v-1.5l4.2-3.9v0.9H34
			c-0.1,0-0.3,0.1-0.3,0.3c0,0.1,0.1,0.3,0.3,0.3h0.8c0.1,0,0.3-0.1,0.3-0.3v-1.6l2.1-1.9C37.3,9.8,37.3,9.5,37.1,9.3z"/>
	</g>
	<g>
		<path class="st11" d="M223.5,185h-3.1c-0.1,0-0.2,0-0.2,0.1l-2,1.3l0,0l0,0l0,0l0,0l0,0l0,0l0,0l0,0l0,0l0,0l0,0l0,0l0,0l0,0l0,0
			l0,0l0,0l0,0l0,0l0,0l0,0l0,0v1.5l0,0l-2,1.3l0,0l0,0l0,0l0,0l0,0l0,0l0,0l0,0l0,0l0,0l0,0l0,0l0,0l0,0l0,0l0,0l0,0l0,0l0,0l0,0
			l0,0l0,0v1.6l-1.9,1.3l0,0l0,0l0,0l0,0l0,0l0,0l0,0l0,0l0,0l0,0l0,0l0,0l0,0l0,0l0,0l0,0l0,0l0,0l0,0l0,0l0,0l0,0v1.6l-1.9,1.3
			l0,0l0,0l0,0l0,0l0,0l0,0l0,0l0,0l0,0l0,0l0,0l0,0l0,0l0,0l0,0l0,0l0,0l0,0l0,0l0,0l0,0l0,0v1.9c0,0.2,0.2,0.4,0.4,0.4h11.4
			c0.2,0,0.4-0.2,0.4-0.4v-13C223.9,185.2,223.7,185,223.5,185z M218.8,187.1h4.2v1.1h-4.2V187.1z M223.1,190.4v1.1h-6.4v-1.1H223.1
			z M223.1,193.6v1.1h-8.5v-1.1H223.1z M223.1,197.9h-10.6v-1.1h10.6V197.9z"/>
		<path class="st11" d="M217.8,185.1c-0.2-0.2-0.4-0.2-0.6,0l-9.2,8.4c-0.2,0.2-0.2,0.4,0,0.6c0.1,0.1,0.2,0.1,0.3,0.1
			s0.2,0,0.3-0.1l1.9-1.7v0.8H210c-0.1,0-0.2,0.1-0.2,0.2c0,0.1,0.1,0.2,0.2,0.2h0.8c0.1,0,0.2-0.1,0.2-0.2v-1.5l4.2-3.9v0.9h-0.5
			c-0.1,0-0.3,0.1-0.3,0.3c0,0.1,0.1,0.3,0.3,0.3h0.8c0.1,0,0.3-0.1,0.3-0.3v-1.6l2.1-1.9C217.9,185.5,217.9,185.3,217.8,185.1z"/>
	</g>
	<g>
		<g>
			<path class="st11" d="M146.1,47.6c0,0.2,0.1,0.3,0.3,0.3h1.7c0.2,0,0.3-0.1,0.3-0.3v-0.4c0-0.2-0.1-0.3-0.3-0.3h-1.7
				c-0.2,0-0.3,0.1-0.3,0.3V47.6z"/>
		</g>
		<g>
			<path class="st11" d="M153.4,43.6H153c-0.2,0-0.3,0.1-0.3,0.3l0,0H152c-0.2-0.3-0.6-0.6-1.1-0.7V43c0,0,0,0,0.1-0.1l1.5,0.1
				c0.2,0,0.3-0.1,0.3-0.3v-0.1c0-0.2-0.1-0.3-0.3-0.3l-1.4,0.1c-0.1-0.2-0.3-0.3-0.5-0.3s-0.4,0.1-0.5,0.3l-1.6-0.1
				c-0.2,0-0.3,0.1-0.3,0.3v0.1c0,0.2,0.1,0.3,0.3,0.3l1.6-0.1l0,0c0,0,0,0.1,0.1,0.1v0.3c-0.4,0.1-0.8,0.3-1.1,0.7h-0.9
				c-1,0-1.8,0.8-1.8,1.8v0.8h1.6v-0.8c0-0.1,0.1-0.2,0.2-0.2h0.8c0.3,0.5,0.9,0.9,1.5,0.9s1.3-0.4,1.5-0.9h0.6l0,0
				c0,0.2,0.1,0.3,0.3,0.3h0.4c0.2,0,0.3-0.1,0.3-0.3v-1.7C153.7,43.8,153.6,43.6,153.4,43.6z M148.2,44.6c-0.6,0-1.1,0.5-1.1,1.1
				c0,0.1-0.1,0.1-0.1,0.1l-0.1-0.1c0-0.4,0.1-0.7,0.4-1c0.3-0.3,0.6-0.4,1-0.4c0.1,0,0.1,0.1,0.1,0.1
				C148.3,44.5,148.3,44.6,148.2,44.6z"/>
		</g>
		<g>
			<path class="st11" d="M147,54.6c-0.4,0-0.8-0.3-0.9-0.6c-0.6,0-1.1-0.1-1.2-0.5c0-0.1,0-0.3,0.1-0.4c-0.5-0.2-0.8-0.6-0.8-1
				c0-0.3,0.2-0.5,0.6-0.6c0.2-0.1,0.4-0.1,0.6-0.1c0-0.1,0-0.2,0-0.3c0.1-0.2,0.4-0.4,0.7-0.3v-2.2c0-0.1,0.1-0.2,0.2-0.2
				c0.1,0,0.2,0.1,0.2,0.2V51c0,0.1,0,0.1-0.1,0.2c-0.1,0-0.1,0-0.2,0c-0.3-0.1-0.5,0-0.5,0s0,0.1,0.1,0.2c0.1,0.1,0.1,0.2,0,0.2
				c0,0.1-0.1,0.1-0.2,0.1c-0.6-0.1-1.1,0.1-1.1,0.3s0.3,0.5,0.8,0.7c0.1,0,0.1,0.1,0.1,0.2c0,0.1,0,0.1-0.1,0.2
				c-0.1,0.1-0.2,0.2-0.2,0.3s0.4,0.3,0.9,0.2c0.1,0,0.1,0,0.2,0l0.1,0.1c0,0.3,0.3,0.5,0.5,0.5s0.4-0.1,0.5-0.3
				c0-0.1,0.1-0.1,0.1-0.1c0.1,0,0.1,0,0.2,0c0.1,0,0.1,0.1,0.2,0.1c0.2,0.1,0.5,0.1,0.7,0.1c0.1,0,0.3-0.1,0.3-0.2
				c0-0.1,0-0.2,0-0.3s0-0.1,0-0.2c0-0.1,0.1-0.1,0.1-0.1c0.4-0.1,0.6-0.3,0.6-0.3c0-0.1-0.2-0.3-0.7-0.3c-0.1,0-0.1-0.1-0.2-0.2
				c0-0.1,0-0.2,0.1-0.2c0.3-0.2,0.5-0.5,0.4-0.6c-0.1-0.2-0.6-0.3-1.2-0.1c-0.1,0-0.1,0-0.2,0c-0.1,0-0.1-0.1-0.1-0.2v-2.7
				c0-0.1,0.1-0.2,0.2-0.2c0.1,0,0.2,0.1,0.2,0.2V51c0.7-0.2,1.3,0,1.4,0.5c0.1,0.3,0,0.6-0.2,0.9c0.4,0.1,0.6,0.4,0.6,0.6
				c0,0.3-0.3,0.6-0.7,0.7c0,0.1,0,0.3,0,0.4c-0.1,0.2-0.3,0.4-0.6,0.5s-0.6,0-0.9-0.1h-0.1C147.6,54.4,147.3,54.6,147,54.6z"/>
		</g>
		<g>
			<path class="st11" d="M151.3,52c-0.5,0-0.8-0.4-0.8-0.8s0.4-0.8,0.8-0.8s0.8,0.4,0.8,0.8S151.8,52,151.3,52z M151.3,50.6
				c-0.3,0-0.5,0.2-0.5,0.5s0.2,0.5,0.5,0.5s0.5-0.2,0.5-0.5C151.8,50.9,151.6,50.6,151.3,50.6z"/>
		</g>
		<g>
			<path class="st11" d="M150.3,54.7c-0.3,0-0.5-0.2-0.5-0.5s0.2-0.5,0.5-0.5s0.5,0.2,0.5,0.5S150.6,54.7,150.3,54.7z M150.3,54
				c-0.1,0-0.2,0.1-0.2,0.2c0,0.1,0.1,0.2,0.2,0.2s0.2-0.1,0.2-0.2S150.5,54,150.3,54z"/>
		</g>
		<g>
			<path class="st11" d="M143,52.9c-0.4,0-0.7-0.3-0.7-0.7s0.3-0.7,0.7-0.7s0.7,0.3,0.7,0.7S143.4,52.9,143,52.9z M143,51.8
				c-0.2,0-0.4,0.2-0.4,0.4s0.2,0.4,0.4,0.4s0.4-0.2,0.4-0.4C143.5,51.9,143.3,51.8,143,51.8z"/>
		</g>
		<g>
			<path class="st11" d="M144,50.5c-0.3,0-0.5-0.2-0.5-0.5s0.2-0.5,0.5-0.5s0.5,0.2,0.5,0.5S144.2,50.5,144,50.5z M144,49.8
				c-0.1,0-0.2,0.1-0.2,0.2s0.1,0.2,0.2,0.2s0.2-0.1,0.2-0.2S144.1,49.8,144,49.8z"/>
		</g>
		<g>
			<path class="st11" d="M145.2,55.1c-0.2,0-0.4-0.2-0.4-0.4s0.2-0.4,0.4-0.4s0.4,0.2,0.4,0.4C145.6,54.9,145.4,55.1,145.2,55.1z
				 M145.2,54.6c-0.1,0-0.1,0.1-0.1,0.1c0,0.1,0.1,0.1,0.1,0.1l0.1-0.1C145.4,54.6,145.3,54.6,145.2,54.6z"/>
		</g>
	</g>
</g>
<text transform="matrix(1 0 0 1 57.25 22.2)" class="st12 st13">縁日</text>
<text transform="matrix(1 0 0 1 82.5 22.2)" class="st12 st13">脱出ゲーム</text>
<text transform="matrix(1 0 0 1 111.95 22.2)" class="st12 st13">飲み物販売</text>
<text transform="matrix(1 0 0 1 141.9 22.2)" class="st12 st13">ビスマス結晶販売</text>
</svg>
