<?xml version="1.0" encoding="utf-8"?>
<!-- Generator: Adobe Illustrator 22.1.0, SVG Export Plug-In . SVG Version: 6.00 Build 0)  -->
<svg version="1.1" id="_F-4" xmlns="http://www.w3.org/2000/svg" xmlns:xlink="http://www.w3.org/1999/xlink" x="0px" y="0px"
	 viewBox="0 0 338.8 260.8" style="enable-background:new 0 0 338.8 260.8;" xml:space="preserve">
<style type="text/css">
	.st0{fill:none;stroke:#A0A0A0;stroke-width:0.5;stroke-miterlimit:10;}
	.st1{fill:#F7F6F5;stroke:#002355;stroke-width:0.5;stroke-miterlimit:10;}
	.st2{fill:#FFFFFF;stroke:#002355;stroke-width:0.5;stroke-miterlimit:10;}
	.st3{fill:none;stroke:#002355;stroke-width:0.5;stroke-miterlimit:10;}
	.st4{fill:#00EDFF;stroke:#002355;stroke-width:0.5;stroke-miterlimit:10;}
	.st5{fill:#EAE1CF;stroke:#002355;stroke-width:0.5;stroke-miterlimit:10;}
	.st6{fill:#FAFDFF;stroke:#002355;stroke-width:0.5;stroke-miterlimit:10;}
	.st7{fill:#0A0A0A;}
	.st8{font-family:'HiraginoSans-W5-83pv-RKSJ-H';}
	.st9{font-size:6px;}
	.st10{fill:#686868;}
	.st11{stroke:#002355;stroke-width:0.25;stroke-miterlimit:10;}
	.st12{font-size:7px;}
</style>
<g id="_地-4">
	<g>
		<g>
			<line class="st0" x1="191.9" y1="92.2" x2="172.9" y2="167.8"/>
			<line class="st0" x1="172.9" y1="92.2" x2="191.9" y2="167.8"/>
		</g>
		<path class="st1" d="M230.5,186.8V5.7h-38.1v7.4h-19.8V5.7h-37.8v0H24.3v65h110.2v172.4h69.3v-15.8h26.6v19.9
			c0,0,17.6,6.4,53.2,6.4c38.4,0,50.2-6.4,50.2-6.4v-60.3L230.5,186.8L230.5,186.8z M192.1,167.9H173V92.2h19.1V167.9z"/>
	</g>
</g>
<g id="_棟-5">
	<path class="st2" d="M333.9,227.3H230.5l-0.1,19.9c0,0,17.6,6.4,53.2,6.4c38.4,0,50.2-6.4,50.2-6.4L333.9,227.3L333.9,227.3z"/>
	<rect x="230.5" y="186.6" class="st2" width="103.4" height="29.6"/>
	<line class="st3" x1="272" y1="227.3" x2="272" y2="253.2"/>
	<line class="st3" x1="277" y1="186.4" x2="277" y2="216.4"/>
</g>
<rect x="134.4" y="5.7" class="st4" width="38.3" height="26.8"/>
<rect x="134.5" y="56.8" class="st5" width="26.5" height="13.9"/>
<rect x="203.8" y="201.3" class="st5" width="26.8" height="15"/>
<rect x="134.5" y="136.8" class="st2" width="26.8" height="43.2"/>
<rect x="134.5" y="180.1" class="st2" width="26.8" height="62.9"/>
<rect x="203.6" y="5.7" class="st2" width="26.8" height="65"/>
<rect x="134.5" y="92.2" class="st2" width="26.8" height="44.6"/>
<rect x="172.5" y="43.9" class="st5" width="19.8" height="26.8"/>
<line class="st3" x1="161" y1="56.7" x2="161" y2="43.9"/>
<rect x="203.6" y="92.2" class="st2" width="26.9" height="32.6"/>
<rect x="203.6" y="124.8" class="st2" width="26.9" height="32.5"/>
<line class="st3" x1="203.4" y1="183" x2="230.5" y2="183"/>
<rect x="172.4" y="180.2" class="st6" width="19.8" height="17.3"/>
<rect x="172.4" y="197.4" class="st5" width="19.8" height="19"/>
<line class="st3" x1="179.3" y1="216.4" x2="179.3" y2="197.3"/>
<line class="st3" x1="134.6" y1="213.4" x2="161.3" y2="213.4"/>
<rect x="75" y="5.7" class="st4" width="29.7" height="26.8"/>
<rect x="104.6" y="5.7" class="st4" width="29.7" height="26.8"/>
<rect x="45.4" y="5.7" class="st4" width="29.7" height="26.8"/>
<rect x="45.3" y="43.9" class="st2" width="89.2" height="26.8"/>
<line class="st3" x1="90" y1="43.9" x2="90" y2="70.9"/>
<rect x="24.3" y="54" class="st6" width="20.9" height="16.7"/>
<g>
	<path class="st7" d="M117.2,19.2c0-0.8-0.1-1.8-0.1-2.5l0,0c-0.2,0.7-0.4,1.4-0.7,2.2l-1,2.8h-0.6l-0.9-2.7
		c-0.3-0.8-0.5-1.5-0.7-2.2l0,0c0,0.7-0.1,1.7-0.1,2.5l-0.2,2.5h-0.7l0.4-5.7h0.9l1,2.8c0.2,0.7,0.4,1.3,0.6,1.9l0,0
		c0.2-0.6,0.4-1.2,0.6-1.9l1-2.8h0.9l0.4,5.7h-0.7L117.2,19.2L117.2,19.2z"/>
	<path class="st7" d="M119.1,20.9c0.2,0.1,0.7,0.3,1.2,0.3c1,0,1.3-0.6,1.2-1.1c0-0.8-0.7-1.1-1.4-1.1h-0.4v-0.6h0.4
		c0.5,0,1.2-0.3,1.2-0.9c0-0.4-0.3-0.8-1-0.8c-0.4,0-0.9,0.2-1.1,0.4l-0.2-0.5c0.3-0.2,0.9-0.4,1.4-0.4c1.1,0,1.6,0.6,1.6,1.3
		c0,0.6-0.3,1.1-1,1.3l0,0c0.7,0.1,1.2,0.6,1.2,1.4c0,0.9-0.7,1.7-2,1.7c-0.6,0-1.2-0.2-1.4-0.4L119.1,20.9L119.1,20.9z"/>
	<path class="st7" d="M123.3,21.7v-0.5l0.6-0.6c1.4-1.3,2.1-2.1,2.1-2.9c0-0.6-0.3-1.1-1.1-1.1c-0.5,0-0.9,0.3-1.2,0.5l-0.2-0.5
		c0.4-0.3,0.9-0.6,1.6-0.6c1.2,0,1.7,0.8,1.7,1.6c0,1-0.7,1.9-1.9,3l-0.4,0.4l0,0h2.5v0.6L123.3,21.7L123.3,21.7z"/>
</g>
<g>
	<path class="st7" d="M151.8,19.2c0-0.8-0.1-1.8-0.1-2.5l0,0c-0.2,0.7-0.4,1.4-0.7,2.2l-1,2.8h-0.6l-0.9-2.7
		c-0.3-0.8-0.5-1.5-0.7-2.2l0,0c0,0.7-0.1,1.7-0.1,2.5l-0.2,2.5h-0.7l0.4-5.7h0.9l1,2.8c0.2,0.7,0.4,1.3,0.6,1.9l0,0
		c0.1-0.6,0.4-1.2,0.6-1.9l1-2.8h0.9l0.4,5.7h-0.7L151.8,19.2L151.8,19.2z"/>
	<path class="st7" d="M153.7,20.9c0.2,0.1,0.7,0.3,1.2,0.3c1,0,1.3-0.6,1.2-1.1c0-0.8-0.7-1.1-1.4-1.1h-0.4v-0.6h0.4
		c0.5,0,1.2-0.3,1.2-0.9c0-0.4-0.3-0.8-1-0.8c-0.4,0-0.9,0.2-1.1,0.4l-0.2-0.5c0.3-0.2,0.9-0.4,1.4-0.4c1.1,0,1.6,0.6,1.6,1.3
		c0,0.6-0.3,1.1-1,1.3l0,0c0.7,0.1,1.2,0.6,1.2,1.4c0,0.9-0.7,1.7-2,1.7c-0.6,0-1.2-0.2-1.4-0.4L153.7,20.9L153.7,20.9z"/>
	<path class="st7" d="M159.5,16.9L159.5,16.9l-1,0.5l-0.1-0.6l1.2-0.6h0.6v5.5h-0.7V16.9L159.5,16.9z"/>
</g>
<text transform="matrix(1 0 0 1 55.983 55.975)" class="st7 st8 st9">工業基礎</text>
<text transform="matrix(1 0 0 1 59.139 63.175)" class="st7 st8 st9">実</text>
<text transform="matrix(1 0 0 1 64.971 63.175)" class="st7 st8 st9">習</text>
<text transform="matrix(1 0 0 1 70.828 63.175)" class="st7 st8 st9">室</text>
<text transform="matrix(1 0 0 1 99.709 55.975)" class="st7 st8 st9">電子基礎</text>
<text transform="matrix(1 0 0 1 96.865 63.175)" class="st7 st8 st9">制御</text>
<text transform="matrix(1 0 0 1 108.865 63.175)" class="st7 st8 st9">実</text>
<text transform="matrix(1 0 0 1 114.697 63.175)" class="st7 st8 st9">習</text>
<text transform="matrix(1 0 0 1 120.554 63.175)" class="st7 st8 st9">室</text>
<text transform="matrix(1 0 0 1 208.035 36.888)" class="st7 st8 st9">機械科</text>
<text transform="matrix(1 0 0 1 208.134 44.088)" class="st7 st8 st9">職員</text>
<text transform="matrix(1 0 0 1 219.935 44.088)" class="st7 st8 st9">室</text>
<text transform="matrix(1 0 0 1 135.883 112.779)" class="st7 st8 st9">材料基礎</text>
<text transform="matrix(1 0 0 1 139.039 119.979)" class="st7 st8 st9">実</text>
<text transform="matrix(1 0 0 1 144.871 119.979)" class="st7 st8 st9">習</text>
<text transform="matrix(1 0 0 1 150.728 119.979)" class="st7 st8 st9">室</text>
<text transform="matrix(1 0 0 1 141.954 192.14)" class="st7 st8 st9">計測</text>
<text transform="matrix(1 0 0 1 139.11 199.34)" class="st7 st8 st9">実</text>
<text transform="matrix(1 0 0 1 144.942 199.34)" class="st7 st8 st9">習</text>
<text transform="matrix(1 0 0 1 150.799 199.34)" class="st7 st8 st9">室</text>
<text transform="matrix(1 0 0 1 139.639 206.54)" class="st7 st8 st9">(精密)</text>
<text transform="matrix(1 0 0 1 232.839 203.745)" class="st7 st8 st9">課題研究</text>
<text transform="matrix(1 0 0 1 256.839 203.745)" class="st7 st8 st9">実</text>
<text transform="matrix(1 0 0 1 262.671 203.745)" class="st7 st8 st9">習</text>
<text transform="matrix(1 0 0 1 268.527 203.745)" class="st7 st8 st9">室</text>
<text transform="matrix(1 0 0 1 204.953 103.557)" class="st7 st8 st9">電子基礎</text>
<text transform="matrix(1 0 0 1 210.953 110.757)" class="st7 st8 st9">制御</text>
<text transform="matrix(1 0 0 1 208.109 117.957)" class="st7 st8 st9">実</text>
<text transform="matrix(1 0 0 1 213.941 117.957)" class="st7 st8 st9">習</text>
<text transform="matrix(1 0 0 1 219.798 117.957)" class="st7 st8 st9">室</text>
<text transform="matrix(1 0 0 1 236.779 241.656)" class="st7 st8 st9">工</text>
<text transform="matrix(1 0 0 1 242.779 241.656)" class="st7 st8 st9">場</text>
<text transform="matrix(1 0 0 1 248.737 241.656)" class="st7 st8 st9">内</text>
<text transform="matrix(1 0 0 1 254.719 241.656)" class="st7 st8 st9">教室</text>
<text transform="matrix(1 0 0 1 290.599 203.745)" class="st7 st8 st9">製図</text>
<text transform="matrix(1 0 0 1 302.599 203.745)" class="st7 st8 st9">実</text>
<text transform="matrix(1 0 0 1 308.431 203.745)" class="st7 st8 st9">習</text>
<text transform="matrix(1 0 0 1 314.287 203.745)" class="st7 st8 st9">室</text>
<text transform="matrix(1 0 0 1 288.256 241.664)" class="st7 st8 st9">CAD</text>
<text transform="matrix(1 0 0 1 302.338 241.664)" class="st7 st8 st9">実</text>
<text transform="matrix(1 0 0 1 308.17 241.664)" class="st7 st8 st9">習</text>
<text transform="matrix(1 0 0 1 314.026 241.664)" class="st7 st8 st9">室</text>
<g>
	<path d="M268.1,87.6V83h-8.6v-3.1l7.2-11.8h5.9v11.4h2.3V83h-2.3v4.6H268.1L268.1,87.6z M268.1,79.5v-4.1c0-1.2,0.1-2.4,0.1-3.7
		h-0.1c-0.6,1.3-1.2,2.4-1.8,3.7l-2.4,4v0.1H268.1L268.1,79.5z"/>
	<path d="M278.6,74.1h8.3v2.6h-5.2v2.9h4.8v2.6h-4.8v5.3h-3.2L278.6,74.1L278.6,74.1z"/>
</g>
<text transform="matrix(1 0 0 1 141.954 223.31)" class="st7 st8 st9">計測</text>
<text transform="matrix(1 0 0 1 139.11 230.51)" class="st7 st8 st9">実</text>
<text transform="matrix(1 0 0 1 144.942 230.51)" class="st7 st8 st9">習</text>
<text transform="matrix(1 0 0 1 150.799 230.51)" class="st7 st8 st9">室</text>
<text transform="matrix(1 0 0 1 139.639 237.71)" class="st7 st8 st9">(恒温)</text>
<text transform="matrix(1 0 0 1 208.072 136.105)" class="st7 st8 st9">国語科</text>
<text transform="matrix(1 0 0 1 208.228 143.305)" class="st7 st8 st9">学</text>
<text transform="matrix(1 0 0 1 214.06 143.305)" class="st7 st8 st9">習</text>
<text transform="matrix(1 0 0 1 219.917 143.305)" class="st7 st8 st9">室</text>
<text transform="matrix(1 0 0 1 208.757 150.505)" class="st7 st8 st9">(定時)</text>
<text transform="matrix(1 0 0 1 135.79 157.118)" class="st7 st8 st9">電子基礎</text>
<text transform="matrix(1 0 0 1 138.79 164.318)" class="st7 st8 st9">計測室</text>
<g id="_クトグラム-4">
	<g>
		<g>
			<path class="st10" d="M33.6,61.9c0,0.3-0.3,0.6-0.6,0.6s-0.6-0.2-0.6-0.6s0.3-0.6,0.6-0.6S33.6,61.6,33.6,61.9z"/>
			<path class="st10" d="M33.1,62.6c-0.4,0-1.3,0-1.3,0.8v1.8c0,0.1,0.1,0.2,0.2,0.2c0.1,0,0.2-0.1,0.2-0.2l0.1-1.1l0.1,4.1
				c0,0.2,0.1,0.3,0.3,0.3s0.3-0.1,0.3-0.3l0.1-2.5l0.1,2.5c0,0.2,0.1,0.3,0.3,0.3s0.3-0.1,0.3-0.3l0.1-4.1l0.1,1.1
				c0,0.1,0.1,0.2,0.2,0.2c0.1,0,0.2-0.1,0.2-0.2v-1.8C34.4,62.7,33.5,62.6,33.1,62.6L33.1,62.6z"/>
		</g>
		<g>
			<path class="st10" d="M37.1,61.9c0,0.3-0.3,0.6-0.6,0.6S36,62.2,36,61.9s0.3-0.6,0.6-0.6S37.1,61.6,37.1,61.9z"/>
			<path class="st10" d="M36.5,62.6c-0.4,0-1.3,0-1.3,0.8v1.8c0,0.1,0.1,0.2,0.2,0.2c0.1,0,0.2-0.1,0.2-0.2l0.1-1.1l0.1,4.1
				c0,0.2,0.1,0.3,0.3,0.3s0.3-0.1,0.3-0.3l0.1-2.5l0.1,2.5c0,0.2,0.1,0.3,0.3,0.3s0.3-0.1,0.3-0.3l0.1-4.1l0.1,1.1
				c0,0.1,0.1,0.2,0.2,0.2c0.1,0,0.2-0.1,0.2-0.2v-1.8C37.9,62.7,36.9,62.6,36.5,62.6L36.5,62.6z"/>
		</g>
		<path class="st10" d="M38.5,68.9h-7.4c-0.6,0-1-0.5-1-1v-7.7c0-0.6,0.5-1,1-1h7.4c0.6,0,1,0.5,1,1v7.7
			C39.6,68.5,39.1,68.9,38.5,68.9z M31.1,59.8c-0.2,0-0.4,0.2-0.4,0.4v7.7c0,0.2,0.2,0.4,0.4,0.4h7.4c0.2,0,0.4-0.2,0.4-0.4v-7.7
			c0-0.2-0.2-0.4-0.4-0.4H31.1z"/>
		<path class="st10" d="M38.1,57.1l-1.3-1.2l0,0l-0.2-0.2l-0.2,0.2l0,0l-1.3,1.2c-0.1,0.1-0.1,0.3,0,0.4s0.3,0.1,0.4,0l0.8-0.8v1.7
			c0,0.2,0.1,0.3,0.3,0.3s0.3-0.1,0.3-0.3v-1.7l0.8,0.8c0.1,0.1,0.1,0.1,0.2,0.1s0.1,0,0.2-0.1C38.3,57.4,38.3,57.3,38.1,57.1
			L38.1,57.1z"/>
		<path class="st10" d="M34.5,57.1c-0.1-0.1-0.3-0.1-0.4,0l-0.8,0.8v-1.7c0-0.2-0.1-0.3-0.3-0.3s-0.3,0.1-0.3,0.3v1.7L32,57.1
			c-0.1-0.1-0.3-0.1-0.4,0s-0.1,0.3,0,0.4l1.3,1.2l0,0l0.2,0.2l0.2-0.2l0,0l1.3-1.2C34.6,57.3,34.6,57.2,34.5,57.1L34.5,57.1z"/>
	</g>
	<g>
		<g>
			<path class="st10" d="M181.2,188.4c0,0.3-0.3,0.6-0.6,0.6s-0.6-0.2-0.6-0.6s0.3-0.6,0.6-0.6S181.2,188.1,181.2,188.4z"/>
			<path class="st10" d="M180.6,189.1c-0.4,0-1.3,0-1.3,0.8v1.8c0,0.1,0.1,0.2,0.2,0.2c0.1,0,0.2-0.1,0.2-0.2l0.1-1.1l0.1,4.1
				c0,0.2,0.1,0.3,0.3,0.3s0.3-0.1,0.3-0.3l0.1-2.5l0.1,2.5c0,0.2,0.1,0.3,0.3,0.3s0.3-0.1,0.3-0.3l0.1-4.1l0.1,1.1
				c0,0.1,0.1,0.2,0.2,0.2c0.1,0,0.2-0.1,0.2-0.2v-1.8C182,189.2,181,189.1,180.6,189.1z"/>
		</g>
		<g>
			<path class="st10" d="M184.7,188.4c0,0.3-0.3,0.6-0.6,0.6s-0.6-0.2-0.6-0.6s0.3-0.6,0.6-0.6S184.7,188.1,184.7,188.4z"/>
			<path class="st10" d="M184.1,189.1c-0.4,0-1.3,0-1.3,0.8v1.8c0,0.1,0.1,0.2,0.2,0.2c0.1,0,0.2-0.1,0.2-0.2l0.1-1.1l0.1,4.1
				c0,0.2,0.1,0.3,0.3,0.3s0.3-0.1,0.3-0.3l0.1-2.5l0.1,2.5c0,0.2,0.1,0.3,0.3,0.3s0.3-0.1,0.3-0.3l0.1-4.1l0.1,1.1
				c0,0.1,0.1,0.2,0.2,0.2c0.1,0,0.2-0.1,0.2-0.2v-1.8C185.4,189.2,184.5,189.1,184.1,189.1z"/>
		</g>
		<path class="st10" d="M186.1,195.4h-7.4c-0.6,0-1-0.5-1-1v-7.7c0-0.6,0.5-1,1-1h7.4c0.6,0,1,0.5,1,1v7.7
			C187.1,195,186.7,195.4,186.1,195.4z M178.7,186.3c-0.2,0-0.4,0.2-0.4,0.4v7.7c0,0.2,0.2,0.4,0.4,0.4h7.4c0.2,0,0.4-0.2,0.4-0.4
			v-7.7c0-0.2-0.2-0.4-0.4-0.4H178.7z"/>
		<path class="st10" d="M185.7,183.6l-1.3-1.2l0,0l-0.2-0.2l-0.2,0.2l0,0l-1.3,1.2c-0.1,0.1-0.1,0.3,0,0.4s0.3,0.1,0.4,0l0.8-0.8
			v1.7c0,0.2,0.1,0.3,0.3,0.3s0.3-0.1,0.3-0.3v-1.7l0.8,0.8c0.1,0.1,0.1,0.1,0.2,0.1s0.1,0,0.2-0.1
			C185.8,183.9,185.8,183.8,185.7,183.6L185.7,183.6z"/>
		<path class="st10" d="M182.1,183.6c-0.1-0.1-0.3-0.1-0.4,0l-0.8,0.8v-1.7c0-0.2-0.1-0.3-0.3-0.3s-0.3,0.1-0.3,0.3v1.7l-0.8-0.8
			c-0.1-0.1-0.3-0.1-0.4,0s-0.1,0.3,0,0.4l1.3,1.2l0,0l0.2,0.2l0.2-0.2l0,0l1.3-1.2C182.2,183.8,182.2,183.7,182.1,183.6
			L182.1,183.6z"/>
	</g>
	<g transform="translate(176.896 45.541) scale(.046)">
	</g>
	<g transform="translate(180.595 201.656) scale(.046)">
	</g>
	<g transform="translate(140.753 74.472) scale(.061)">
	</g>
	<g transform="translate(210.003 74.472) scale(.061)">
	</g>
	<g transform="translate(210.003 185.097) scale(.061)">
	</g>
	<g transform="translate(27.802 12.195) scale(.061)">
	</g>
</g>
<image style="overflow:visible;enable-background:new    ;" width="230" height="230" xlink:href="E14DA8928BC2083B.png"  transform="matrix(4.600000e-02 0 0 4.600000e-02 176.9785 58.0415)">
</image>
<g transform="translate(176.757 45.475) scale(.046)">
	
		<image style="overflow:visible;enable-background:new    ;" width="230" height="230" id="image_3_" xlink:href="E14DA8928BC20839.png"  transform="matrix(4.600000e-02 0 0 4.600000e-02 176.9785 45.0825)">
	</image>
</g>
<image style="overflow:visible;enable-background:new    ;" width="230" height="230" xlink:href="E14DA8928BC2083F.png"  transform="matrix(4.600000e-02 0 0 4.600000e-02 142.5855 44.7285)">
</image>
<g transform="translate(180.456 201.59) scale(.046)">
	
		<image style="overflow:visible;enable-background:new    ;" width="230" height="230" id="image_1_" xlink:href="E14DA8928BC20838.png"  transform="matrix(4.600000e-02 0 0 4.600000e-02 180.6775 201.1975)">
	</image>
</g>
<g transform="translate(140.614 74.407) scale(.061)">
	
		<image style="overflow:visible;enable-background:new    ;" width="230" height="230" id="image-2_7_" xlink:href="E14DA8928BC20836.png"  transform="matrix(6.100000e-02 0 0 6.100000e-02 140.8355 74.0145)">
	</image>
</g>
<g transform="translate(209.864 74.407) scale(.061)">
	
		<image style="overflow:visible;enable-background:new    ;" width="230" height="230" id="image-2_6_" xlink:href="E14DA8928BC20837.png"  transform="matrix(6.100000e-02 0 0 6.100000e-02 210.0855 74.0145)">
	</image>
</g>
<g transform="translate(209.864 185.031) scale(.061)">
	
		<image style="overflow:visible;enable-background:new    ;" width="230" height="230" id="image-2_5_" xlink:href="E14DA8928BC20847.png"  transform="matrix(6.100000e-02 0 0 6.100000e-02 210.0855 184.6385)">
	</image>
</g>
<g transform="translate(27.663 12.129) scale(.061)">
	
		<image style="overflow:visible;enable-background:new    ;" width="230" height="230" id="image-2_1_" xlink:href="E14DA8928BC20849.png"  transform="matrix(6.100000e-02 0 0 6.100000e-02 27.8845 11.7365)">
	</image>
</g>
<text transform="matrix(1 0 0 1 82.0002 21.9002)" class="st11 st8 st12">M１１</text>
<text transform="matrix(1 0 0 1 50.6665 22.4)" class="st11 st8 st12">M１２</text>
</svg>
