<?xml version="1.0" encoding="utf-8"?>
<!-- Generator: Adobe Illustrator 22.1.0, SVG Export Plug-In . SVG Version: 6.00 Build 0)  -->
<svg version="1.1" id="_F-5" xmlns="http://www.w3.org/2000/svg" xmlns:xlink="http://www.w3.org/1999/xlink" x="0px" y="0px"
	 viewBox="0 0 338.8 260.8" style="enable-background:new 0 0 338.8 260.8;" xml:space="preserve">
<style type="text/css">
	.st0{fill:#F7F6F5;stroke:#002355;stroke-width:0.5;stroke-miterlimit:10;}
	.st1{fill:none;stroke:#A0A0A0;stroke-width:0.5;stroke-miterlimit:10;}
	.st2{fill:#FFFFFF;stroke:#002355;stroke-width:0.5;stroke-miterlimit:10;}
	.st3{fill:#3FF7FF;stroke:#002355;stroke-width:0.5;stroke-miterlimit:10;}
	.st4{fill:none;stroke:#002355;stroke-width:0.5;stroke-miterlimit:10;}
	.st5{fill:#EAE1CF;stroke:#002355;stroke-width:0.5;stroke-miterlimit:10;}
	.st6{fill:#FAFDFF;stroke:#002355;stroke-width:0.5;stroke-miterlimit:10;}
	.st7{fill:#686868;}
	.st8{fill:#0A0A0A;}
	.st9{font-family:'HiraginoSans-W5-83pv-RKSJ-H';}
	.st10{font-size:4.6px;}
	.st11{font-size:6px;}
	.st12{font-size:4.8px;}
	.st13{font-size:5.3px;}
	.st14{stroke:#002355;stroke-width:0.25;stroke-miterlimit:10;}
	.st15{font-size:12px;}
	.st16{font-size:7px;}
	.st17{font-size:9px;}
	.st18{font-size:10px;}
	.st19{font-size:4px;}
</style>
<g id="_地-5">
	<g>
		<path class="st0" d="M230.5,186.8V5.7h-38.1v7.4h-19.8V5.7h-37.8v0H24.3v65h110.2v172.4h69.3v-15.8h26.6v19.9
			c0,0,17.6,6.4,53.2,6.4c38.4,0,50.2-6.4,50.2-6.4v-60.3L230.5,186.8L230.5,186.8z M192.1,167.9H173V92.2h19.1V167.9z"/>
		<g>
			<line class="st1" x1="191.9" y1="92.2" x2="172.9" y2="167.8"/>
			<line class="st1" x1="172.9" y1="92.2" x2="191.9" y2="167.8"/>
		</g>
	</g>
</g>
<path class="st2" d="M333.9,227.3l-25.9-0.1v25.3c19.3-1.8,25.9-5.4,25.9-5.4V227.3L333.9,227.3z"/>
<path class="st2" d="M296.8,227.2v25.9v0.1c4.2-0.2,7.9-0.4,11.3-0.7v-25.3H296.8L296.8,227.2z"/>
<rect x="230.5" y="186.7" class="st2" width="103.4" height="29.6"/>
<path class="st3" d="M296.7,227.2h-66.3l-0.1,19.9c0,0,17.6,6.4,53.2,6.4c4.8,0,9.2-0.1,13.2-0.3V227.2L296.7,227.2z"/>
<line class="st4" x1="296.8" y1="216.4" x2="296.8" y2="186.5"/>
<line class="st4" x1="281.6" y1="216.4" x2="281.6" y2="186.5"/>
<rect x="134.4" y="5.7" class="st3" width="38.3" height="26.8"/>
<rect x="134.5" y="56.8" class="st5" width="26.5" height="13.9"/>
<rect x="203.7" y="201.3" class="st5" width="26.8" height="15"/>
<rect x="134.5" y="92.4" class="st2" width="26.8" height="124"/>
<rect x="134.5" y="216.4" class="st2" width="26.8" height="26.6"/>
<rect x="203.6" y="5.8" class="st2" width="26.9" height="51.5"/>
<rect x="172.5" y="43.9" class="st5" width="19.8" height="26.8"/>
<line class="st4" x1="161" y1="56.7" x2="161" y2="44"/>
<rect x="203.6" y="92.2" class="st2" width="26.9" height="90.8"/>
<rect x="172.4" y="180.2" class="st6" width="19.8" height="17.3"/>
<rect x="172.4" y="197.4" class="st5" width="19.8" height="19"/>
<rect x="203.6" y="57.2" class="st2" width="26.9" height="13.5"/>
<line class="st4" x1="179.3" y1="216.4" x2="179.3" y2="197.4"/>
<line class="st4" x1="230.5" y1="137.3" x2="203.7" y2="137.3"/>
<line class="st4" x1="161.1" y1="137.3" x2="134.2" y2="137.3"/>
<line class="st4" x1="161.4" y1="106.9" x2="134.6" y2="106.9"/>
<line class="st4" x1="161.2" y1="122.1" x2="134.4" y2="122.1"/>
<rect x="75.2" y="5.7" class="st3" width="29.8" height="26.8"/>
<rect x="104.6" y="5.7" class="st3" width="29.7" height="26.8"/>
<rect x="45.4" y="5.7" class="st3" width="29.8" height="26.8"/>
<rect x="45.2" y="43.9" class="st2" width="14.9" height="26.8"/>
<rect x="104.9" y="43.9" class="st2" width="29.6" height="26.7"/>
<rect x="60.1" y="43.9" class="st3" width="44.8" height="26.8"/>
<rect x="24.3" y="54" class="st6" width="20.9" height="16.7"/>
<g id="_クトグラム-5">
	<g>
		<g>
			<path class="st7" d="M33.6,62c0,0.3-0.3,0.6-0.6,0.6s-0.6-0.2-0.6-0.6s0.3-0.6,0.6-0.6S33.6,61.7,33.6,62z"/>
			<path class="st7" d="M33.1,62.7c-0.4,0-1.3,0-1.3,0.8v1.8c0,0.1,0.1,0.2,0.2,0.2c0.1,0,0.2-0.1,0.2-0.2l0.1-1.1l0.1,4.1
				c0,0.2,0.1,0.3,0.3,0.3s0.3-0.1,0.3-0.3l0.1-2.5l0.1,2.5c0,0.2,0.1,0.3,0.3,0.3s0.3-0.1,0.3-0.3l0.1-4.1l0.1,1.1
				c0,0.1,0.1,0.2,0.2,0.2c0.1,0,0.2-0.1,0.2-0.2v-1.8C34.4,62.7,33.5,62.6,33.1,62.7L33.1,62.7z"/>
		</g>
		<g>
			<path class="st7" d="M37.1,62c0,0.3-0.3,0.6-0.6,0.6s-0.6-0.2-0.6-0.6s0.3-0.6,0.6-0.6S37.1,61.7,37.1,62z"/>
			<path class="st7" d="M36.5,62.7c-0.4,0-1.3,0-1.3,0.8v1.8c0,0.1,0.1,0.2,0.2,0.2c0.1,0,0.2-0.1,0.2-0.2l0.1-1.1l0.1,4.1
				c0,0.2,0.1,0.3,0.3,0.3s0.3-0.1,0.3-0.3l0.1-2.5l0.1,2.5c0,0.2,0.1,0.3,0.3,0.3s0.3-0.1,0.3-0.3l0.1-4.1l0.1,1.1
				c0,0.1,0.1,0.2,0.2,0.2c0.1,0,0.2-0.1,0.2-0.2v-1.8C37.9,62.7,36.9,62.6,36.5,62.7L36.5,62.7z"/>
		</g>
		<path class="st7" d="M38.5,69h-7.4c-0.6,0-1-0.5-1-1v-7.7c0-0.6,0.5-1,1-1h7.4c0.6,0,1,0.5,1,1V68C39.5,68.5,39.1,69,38.5,69z
			 M31.1,59.9c-0.2,0-0.4,0.2-0.4,0.4V68c0,0.2,0.2,0.4,0.4,0.4h7.4c0.2,0,0.4-0.2,0.4-0.4v-7.7c0-0.2-0.2-0.4-0.4-0.4
			C38.5,59.9,31.1,59.9,31.1,59.9z"/>
		<path class="st7" d="M38.1,57.2L36.8,56l0,0l-0.2-0.2L36.4,56l0,0l-1.3,1.2c-0.1,0.1-0.1,0.3,0,0.4s0.3,0.1,0.4,0l0.8-0.8v1.7
			c0,0.2,0.1,0.3,0.3,0.3s0.3-0.1,0.3-0.3v-1.7l0.8,0.8c0.1,0.1,0.1,0.1,0.2,0.1s0.1,0,0.2-0.1C38.2,57.5,38.2,57.3,38.1,57.2
			L38.1,57.2z"/>
		<path class="st7" d="M34.5,57.1c-0.1-0.1-0.3-0.1-0.4,0l-0.8,0.8v-1.7c0-0.2-0.1-0.3-0.3-0.3s-0.3,0.1-0.3,0.3v1.7L32,57.1
			c-0.1-0.1-0.3-0.1-0.4,0s-0.1,0.3,0,0.4l1.3,1.2l0,0l0.2,0.2l0.2-0.2l0,0l1.3-1.2C34.6,57.4,34.6,57.2,34.5,57.1L34.5,57.1z"/>
	</g>
	<g>
		<g>
			<path class="st7" d="M181.2,188.5c0,0.3-0.3,0.6-0.6,0.6s-0.6-0.2-0.6-0.6s0.3-0.6,0.6-0.6S181.2,188.2,181.2,188.5z"/>
			<path class="st7" d="M180.6,189.1c-0.4,0-1.3,0-1.3,0.8v1.8c0,0.1,0.1,0.2,0.2,0.2c0.1,0,0.2-0.1,0.2-0.2l0.1-1.1l0.1,4.1
				c0,0.2,0.1,0.3,0.3,0.3s0.3-0.1,0.3-0.3l0.1-2.5l0.1,2.5c0,0.2,0.1,0.3,0.3,0.3s0.3-0.1,0.3-0.3l0.1-4.1l0.1,1.1
				c0,0.1,0.1,0.2,0.2,0.2c0.1,0,0.2-0.1,0.2-0.2v-1.8C182,189.2,181,189.1,180.6,189.1z"/>
		</g>
		<g>
			<path class="st7" d="M184.6,188.5c0,0.3-0.3,0.6-0.6,0.6s-0.6-0.2-0.6-0.6s0.3-0.6,0.6-0.6S184.6,188.2,184.6,188.5z"/>
			<path class="st7" d="M184.1,189.1c-0.4,0-1.3,0-1.3,0.8v1.8c0,0.1,0.1,0.2,0.2,0.2c0.1,0,0.2-0.1,0.2-0.2l0.1-1.1l0.1,4.1
				c0,0.2,0.1,0.3,0.3,0.3s0.3-0.1,0.3-0.3l0.1-2.5l0.1,2.5c0,0.2,0.1,0.3,0.3,0.3s0.3-0.1,0.3-0.3l0.1-4.1l0.1,1.1
				c0,0.1,0.1,0.2,0.2,0.2c0.1,0,0.2-0.1,0.2-0.2v-1.8C185.4,189.2,184.5,189.1,184.1,189.1z"/>
		</g>
		<path class="st7" d="M186.1,195.4h-7.4c-0.6,0-1-0.5-1-1v-7.7c0-0.6,0.5-1,1-1h7.4c0.6,0,1,0.5,1,1v7.7
			C187.1,195,186.6,195.4,186.1,195.4z M178.6,186.3c-0.2,0-0.4,0.2-0.4,0.4v7.7c0,0.2,0.2,0.4,0.4,0.4h7.4c0.2,0,0.4-0.2,0.4-0.4
			v-7.7c0-0.2-0.2-0.4-0.4-0.4H178.6z"/>
		<path class="st7" d="M185.7,183.7l-1.3-1.2l0,0l-0.2-0.2l-0.2,0.2l0,0l-1.3,1.2c-0.1,0.1-0.1,0.3,0,0.4s0.3,0.1,0.4,0l0.8-0.8v1.7
			c0,0.2,0.1,0.3,0.3,0.3s0.3-0.1,0.3-0.3v-1.7l0.8,0.8c0.1,0.1,0.1,0.1,0.2,0.1s0.1,0,0.2-0.1C185.8,184,185.8,183.8,185.7,183.7
			L185.7,183.7z"/>
		<path class="st7" d="M182.1,183.6c-0.1-0.1-0.3-0.1-0.4,0l-0.8,0.8v-1.7c0-0.2-0.1-0.3-0.3-0.3s-0.3,0.1-0.3,0.3v1.7l-0.8-0.8
			c-0.1-0.1-0.3-0.1-0.4,0s-0.1,0.3,0,0.4l1.3,1.2l0,0l0.2,0.2l0.2-0.2l0,0l1.3-1.2C182.2,183.9,182.2,183.7,182.1,183.6
			L182.1,183.6z"/>
	</g>
	<g transform="translate(176.881 45.561) scale(.046)">
	</g>
	<g transform="translate(180.579 201.676) scale(.046)">
	</g>
	<g transform="translate(140.737 74.493) scale(.061)">
	</g>
	<g transform="translate(209.987 74.493) scale(.061)">
	</g>
	<g transform="translate(209.987 185.117) scale(.061)">
	</g>
	<g transform="translate(27.787 12.215) scale(.061)">
	</g>
</g>
<text transform="matrix(1 0 0 1 210.134 63.118)" class="st8 st9 st10">家庭科</text>
<text transform="matrix(1 0 0 1 210.21 68.618)" class="st8 st9 st10">職</text>
<text transform="matrix(1 0 0 1 214.778 68.618)" class="st8 st9 st10">員</text>
<text transform="matrix(1 0 0 1 219.351 68.618)" class="st8 st9 st10">室</text>
<text transform="matrix(1 0 0 1 138.935 232.024)" class="st8 st9 st11">放送室</text>
<text transform="matrix(1 0 0 1 135.88 98.528)" class="st8 st9 st12">生徒指導室</text>
<text transform="matrix(1 0 0 1 141.228 104.288)" class="st8 st9 st12">(定時)</text>
<text transform="matrix(1 0 0 1 138.971 172.936)" class="st8 st9 st11">定時制</text>
<text transform="matrix(1 0 0 1 139.07 180.136)" class="st8 st9 st11">職員</text>
<text transform="matrix(1 0 0 1 150.871 180.136)" class="st8 st9 st11">室</text>
<text transform="matrix(1 0 0 1 248.018 203.777)" class="st8 st9 st11">音楽室</text>
<text transform="matrix(1 0 0 1 211.074 114.331)" class="st8 st9 st11">被服</text>
<text transform="matrix(1 0 0 1 208.23 121.531)" class="st8 st9 st11">実</text>
<text transform="matrix(1 0 0 1 214.062 121.531)" class="st8 st9 st11">習</text>
<text transform="matrix(1 0 0 1 219.919 121.531)" class="st8 st9 st11">室</text>
<text transform="matrix(1 0 0 1 305.022 203.76)" class="st8 st9 st11">LL</text>
<text transform="matrix(1 0 0 1 313.134 203.76)" class="st8 st9 st11">教室</text>
<text transform="matrix(1 0 0 1 311.957 238.148)" class="st8 st9 st11">英語科</text>
<text transform="matrix(1 0 0 1 312.056 245.348)" class="st8 st9 st11">職員</text>
<text transform="matrix(1 0 0 1 323.857 245.348)" class="st8 st9 st11">室</text>
<g>
	<path d="M273.2,72.1h-7.6l-0.4,2.8c0.4,0,0.8-0.1,1.2-0.1c1.9,0,3.9,0.4,5.2,1.4c1.5,1,2.3,2.6,2.3,4.9c0,3.6-3.1,6.9-8.5,6.9
		c-2.4,0-4.4-0.5-5.5-1.1l0.8-3.6c0.9,0.4,2.7,1,4.4,1c1.8,0,3.8-0.8,3.8-2.8c0-1.9-1.6-3.1-5.5-3.1c-1.1,0-1.8,0.1-2.6,0.2
		l1.3-10.3H273L273.2,72.1L273.2,72.1z"/>
	<path d="M278.6,74.2h8.3v2.6h-5.2v2.9h4.8v2.6h-4.8v5.3h-3.2L278.6,74.2L278.6,74.2z"/>
</g>
<text transform="matrix(1 0 0 1 205.117 30.155)" class="st8 st9 st11">保健体育</text>
<text transform="matrix(1 0 0 1 208.117 37.355)" class="st8 st9 st11">講義室</text>
<text transform="matrix(1 0 0 1 140.754 113.328)" class="st8 st9 st12">保健室</text>
<text transform="matrix(1 0 0 1 141.302 119.088)" class="st8 st9 st12">(定時)</text>
<text transform="matrix(1 0 0 1 113.749 52.395)" class="st8 st9 st11">理科</text>
<text transform="matrix(1 0 0 1 110.905 59.595)" class="st8 st9 st11">学</text>
<text transform="matrix(1 0 0 1 116.737 59.595)" class="st8 st9 st11">習</text>
<text transform="matrix(1 0 0 1 122.594 59.595)" class="st8 st9 st11">室</text>
<text transform="matrix(1 0 0 1 111.434 66.795)" class="st8 st9 st11">(定時)</text>
<text transform="matrix(1 0 0 1 211.074 157.669)" class="st8 st9 st11">調理</text>
<text transform="matrix(1 0 0 1 208.23 164.869)" class="st8 st9 st11">実</text>
<text transform="matrix(1 0 0 1 214.062 164.869)" class="st8 st9 st11">習</text>
<text transform="matrix(1 0 0 1 219.919 164.869)" class="st8 st9 st11">室</text>
<g>
	<text transform="matrix(1 0 0 1 46.826 61.964)" class="st8 st9 st13">室</text>
	<text transform="matrix(1 0 0 1 53.229 56.75)" class="st8 st9 st13">術</text>
	<text transform="matrix(1 0 0 1 53.229 51.412)" class="st8 st9 st13">美</text>
	<text transform="matrix(1 0 0 1 46.826 51.411)" class="st8 st9 st13">準</text>
	<text transform="matrix(1 0 0 1 46.826 56.687)" class="st8 st9 st13">備</text>
	<text transform="matrix(1 0 0 1 53.228 67.426)" class="st8 st9 st13">芸</text>
	<text transform="matrix(1 0 0 1 53.228 62.088)" class="st8 st9 st13">工</text>
</g>
<g>
	<text transform="matrix(1 0 0 1 286.777 214.375)" class="st8 st9 st13">室</text>
	<text transform="matrix(1 0 0 1 286.777 203.599)" class="st8 st9 st13">準</text>
	<text transform="matrix(1 0 0 1 286.778 208.952)" class="st8 st9 st13">備</text>
	<text transform="matrix(1 0 0 1 286.777 198.242)" class="st8 st9 st13">楽</text>
	<text transform="matrix(1 0 0 1 286.777 192.895)" class="st8 st9 st13">音</text>
</g>
<g>
	<text transform="matrix(1 0 0 1 297.531 249.79)" class="st8 st9 st12">室</text>
	<text transform="matrix(1 0 0 1 302.331 239.707)" class="st8 st9 st12">聴</text>
	<text transform="matrix(1 0 0 1 302.332 234.641)" class="st8 st9 st12">視</text>
	<text transform="matrix(1 0 0 1 297.531 239.707)" class="st8 st9 st12">準</text>
	<text transform="matrix(1 0 0 1 297.531 244.731)" class="st8 st9 st12">備</text>
	<text transform="matrix(1 0 0 1 302.331 244.731)" class="st8 st9 st12">覚</text>
</g>
<image style="overflow:visible;enable-background:new    ;" width="261" height="261" xlink:href="8BC6DDA7D3AA595F.png"  transform="matrix(4.053640e-02 0 0 4.053640e-02 176.88 57.1545)">
</image>
<image style="overflow:visible;enable-background:new    ;" width="239" height="239" xlink:href="8BC6DDA7D3AA5959.png"  transform="matrix(4.426778e-02 0 0 4.426778e-02 142.487 43.8415)">
</image>
<rect x="172.7" y="18.1" class="st3" width="19.2" height="14.4"/>
<rect x="172.9" y="167.8" class="st3" width="19" height="10.2"/>
<rect x="161.4" y="223" class="st3" width="42.4" height="13.3"/>
<rect x="203.8" y="219" class="st3" width="26.6" height="8.2"/>
<text transform="matrix(1 0 0 1 47.6667 23.5)" class="st14 st9 st15">PTA</text>
<text transform="matrix(1 0 0 1 76.2 16.3332)"><tspan x="0" y="0" class="st14 st9 st16">文化祭</tspan><tspan x="0" y="8.4" class="st14 st9 st16">実行委員</tspan></text>
<text transform="matrix(1 0 0 1 106.5623 16.3333)"><tspan x="0" y="0" class="st14 st9 st17">建築</tspan><tspan x="0" y="10.8" class="st14 st9 st17">研究部</tspan></text>
<text transform="matrix(1 0 0 1 69.0002 61.4)" class="st14 st9 st18">２学年</text>
<text transform="matrix(1 0 0 1 175.9667 171.8999)"><tspan x="0" y="0" class="st14 st9 st19">生徒会</tspan><tspan x="0" y="4.8" class="st14 st9 st19">　（定）</tspan></text>
<text transform="matrix(1 0 0 1 163 232.0243)" class="st14 st9 st11">ライフル射撃部</text>
<text transform="matrix(1 0 0 1 208.1174 225.3077)" class="st14 st9 st11">吊り橋</text>
<text transform="matrix(1 0 0 1 240.6668 243)" class="st14 st9 st17">M・C・E科展</text>
<text transform="matrix(1 0 0 1 138.935 23.5)" class="st14 st9 st18">１学年</text>
<text transform="matrix(1 0 0 1 172.7507 27.2993)" class="st14 st9 st11">写真部</text>
</svg>
