<?xml version="1.0" encoding="utf-8"?>
<!-- Generator: Adobe Illustrator 22.1.0, SVG Export Plug-In . SVG Version: 6.00 Build 0)  -->
<svg version="1.1" id="_F-5" xmlns="http://www.w3.org/2000/svg" xmlns:xlink="http://www.w3.org/1999/xlink" x="0px" y="0px"
	 viewBox="0 0 338.8 260.8" style="enable-background:new 0 0 338.8 260.8;" xml:space="preserve">
<style type="text/css">
	.st0{fill:#F7F6F5;stroke:#002355;stroke-width:0.5;stroke-miterlimit:10;}
	.st1{fill:none;stroke:#A0A0A0;stroke-width:0.5;stroke-miterlimit:10;}
	.st2{fill:#FFFFFF;stroke:#002355;stroke-width:0.5;stroke-miterlimit:10;}
	.st3{fill:#CCF5FF;stroke:#002355;stroke-width:0.5;stroke-miterlimit:10;}
	.st4{fill:none;stroke:#002355;stroke-width:0.5;stroke-miterlimit:10;}
	.st5{fill:#EAE1CF;stroke:#002355;stroke-width:0.5;stroke-miterlimit:10;}
	.st6{fill:#FAFDFF;stroke:#002355;stroke-width:0.5;stroke-miterlimit:10;}
	.st7{fill:#0A0A0A;}
	.st8{font-family:'HiraginoSans-W5-83pv-RKSJ-H';}
	.st9{font-size:4.6px;}
	.st10{font-size:6px;}
	.st11{font-size:4.8px;}
	.st12{font-size:5.3px;}
	.st13{fill:#CCF5FF;}
	.st14{font-family:'KozGoPr6N-Medium-83pv-RKSJ-H';}
	.st15{font-size:7px;}
	.st16{font-size:5px;}
	.st17{enable-background:new    ;}
	.st18{fill:none;stroke:#000000;stroke-width:0.5;stroke-miterlimit:10;}
	.st19{fill:#333333;}
</style>
<g id="_地-5">
	<g>
		<path class="st0" d="M230.5,186.8V5.7h-38.1v7.4h-19.8V5.7h-37.8l0,0H24.3v65h110.2v172.4h69.3v-15.8h26.6v19.9
			c0,0,17.6,6.4,53.2,6.4c38.4,0,50.2-6.4,50.2-6.4v-60.3L230.5,186.8L230.5,186.8z M192.1,167.9H173V92.2h19.1V167.9z"/>
		<g>
			<line class="st1" x1="191.9" y1="92.2" x2="172.9" y2="167.8"/>
			<line class="st1" x1="172.9" y1="92.2" x2="191.9" y2="167.8"/>
		</g>
	</g>
</g>
<path class="st2" d="M333.9,227.3l-25.9-0.1v25.3c19.3-1.8,25.9-5.4,25.9-5.4V227.3L333.9,227.3z"/>
<path class="st2" d="M296.8,227.2v25.9v0.1c4.2-0.2,7.9-0.4,11.3-0.7v-25.3H296.8L296.8,227.2z"/>
<rect x="230.5" y="186.7" class="st2" width="103.4" height="29.6"/>
<path class="st3" d="M296.7,227.2h-66.3l-0.1,19.9c0,0,17.6,6.4,53.2,6.4c4.8,0,9.2-0.1,13.2-0.3V227.2L296.7,227.2z"/>
<line class="st4" x1="296.8" y1="216.4" x2="296.8" y2="186.5"/>
<line class="st4" x1="281.6" y1="216.4" x2="281.6" y2="186.5"/>
<rect x="134.4" y="5.7" class="st3" width="38.3" height="26.8"/>
<rect x="134.5" y="56.8" class="st5" width="26.5" height="13.9"/>
<rect x="203.7" y="201.3" class="st5" width="26.8" height="15"/>
<rect x="134.5" y="92.4" class="st2" width="26.8" height="124"/>
<rect x="134.5" y="216.4" class="st2" width="26.8" height="26.6"/>
<rect x="203.6" y="5.8" class="st2" width="26.9" height="51.5"/>
<rect x="172.5" y="43.9" class="st5" width="19.8" height="26.8"/>
<line class="st4" x1="161" y1="56.7" x2="161" y2="44"/>
<rect x="203.6" y="92.2" class="st2" width="26.9" height="90.8"/>
<rect x="172.4" y="180.2" class="st6" width="19.8" height="17.3"/>
<rect x="172.4" y="197.4" class="st5" width="19.8" height="19"/>
<rect x="203.6" y="57.2" class="st2" width="26.9" height="13.5"/>
<line class="st4" x1="179.3" y1="216.4" x2="179.3" y2="197.4"/>
<line class="st4" x1="230.5" y1="137.3" x2="203.7" y2="137.3"/>
<line class="st4" x1="161.1" y1="137.3" x2="134.2" y2="137.3"/>
<line class="st4" x1="161.4" y1="106.9" x2="134.6" y2="106.9"/>
<line class="st4" x1="161.2" y1="122.1" x2="134.4" y2="122.1"/>
<rect x="75.2" y="5.7" class="st3" width="29.8" height="26.8"/>
<rect x="104.6" y="5.7" class="st3" width="29.7" height="26.8"/>
<rect x="45.4" y="5.7" class="st3" width="29.8" height="26.8"/>
<rect x="45.2" y="43.9" class="st2" width="14.9" height="26.8"/>
<rect x="104.9" y="43.9" class="st2" width="29.6" height="26.7"/>
<rect x="60.1" y="43.9" class="st3" width="44.8" height="26.8"/>
<rect x="24.3" y="54" class="st6" width="20.9" height="16.7"/>
<text transform="matrix(1 0 0 1 210.134 63.118)" class="st7 st8 st9">家庭科</text>
<text transform="matrix(1 0 0 1 210.21 68.618)" class="st7 st8 st9">職</text>
<text transform="matrix(1 0 0 1 214.778 68.618)" class="st7 st8 st9">員</text>
<text transform="matrix(1 0 0 1 219.351 68.618)" class="st7 st8 st9">室</text>
<text transform="matrix(1 0 0 1 138.935 232.024)" class="st7 st8 st10">放送室</text>
<text transform="matrix(1 0 0 1 135.88 98.528)" class="st7 st8 st11">生徒指導室</text>
<text transform="matrix(1 0 0 1 141.228 104.288)" class="st7 st8 st11">(定時)</text>
<text transform="matrix(1 0 0 1 138.971 172.936)" class="st7 st8 st10">定時制</text>
<text transform="matrix(1 0 0 1 139.07 180.136)" class="st7 st8 st10">職員</text>
<text transform="matrix(1 0 0 1 150.871 180.136)" class="st7 st8 st10">室</text>
<text transform="matrix(1 0 0 1 248.018 203.777)" class="st7 st8 st10">音楽室</text>
<text transform="matrix(1 0 0 1 211.074 114.331)" class="st7 st8 st10">被服</text>
<text transform="matrix(1 0 0 1 208.23 121.531)" class="st7 st8 st10">実</text>
<text transform="matrix(1 0 0 1 214.062 121.531)" class="st7 st8 st10">習</text>
<text transform="matrix(1 0 0 1 219.919 121.531)" class="st7 st8 st10">室</text>
<text transform="matrix(1 0 0 1 305.022 203.76)" class="st7 st8 st10">LL</text>
<text transform="matrix(1 0 0 1 313.134 203.76)" class="st7 st8 st10">教室</text>
<text transform="matrix(1 0 0 1 311.957 238.148)" class="st7 st8 st10">英語科</text>
<text transform="matrix(1 0 0 1 312.056 245.348)" class="st7 st8 st10">職員</text>
<text transform="matrix(1 0 0 1 323.857 245.348)" class="st7 st8 st10">室</text>
<g>
	<path d="M273.2,72.1h-7.6l-0.4,2.8c0.4,0,0.8-0.1,1.2-0.1c1.9,0,3.9,0.4,5.2,1.4c1.5,1,2.3,2.6,2.3,4.9c0,3.6-3.1,6.9-8.5,6.9
		c-2.4,0-4.4-0.5-5.5-1.1l0.8-3.6c0.9,0.4,2.7,1,4.4,1c1.8,0,3.8-0.8,3.8-2.8c0-1.9-1.6-3.1-5.5-3.1c-1.1,0-1.8,0.1-2.6,0.2
		l1.3-10.3H273L273.2,72.1L273.2,72.1z"/>
	<path d="M278.6,74.2h8.3v2.6h-5.2v2.9h4.8v2.6h-4.8v5.3h-3.2L278.6,74.2L278.6,74.2z"/>
</g>
<text transform="matrix(1 0 0 1 205.117 30.155)" class="st7 st8 st10">保健体育</text>
<text transform="matrix(1 0 0 1 208.117 37.355)" class="st7 st8 st10">講義室</text>
<text transform="matrix(1 0 0 1 140.754 113.328)" class="st7 st8 st11">保健室</text>
<text transform="matrix(1 0 0 1 141.302 119.088)" class="st7 st8 st11">(定時)</text>
<text transform="matrix(1 0 0 1 113.749 52.395)" class="st7 st8 st10">理科</text>
<text transform="matrix(1 0 0 1 110.905 59.595)" class="st7 st8 st10">学</text>
<text transform="matrix(1 0 0 1 116.737 59.595)" class="st7 st8 st10">習</text>
<text transform="matrix(1 0 0 1 122.594 59.595)" class="st7 st8 st10">室</text>
<text transform="matrix(1 0 0 1 111.434 66.795)" class="st7 st8 st10">(定時)</text>
<text transform="matrix(1 0 0 1 211.074 157.669)" class="st7 st8 st10">調理</text>
<text transform="matrix(1 0 0 1 208.23 164.869)" class="st7 st8 st10">実</text>
<text transform="matrix(1 0 0 1 214.062 164.869)" class="st7 st8 st10">習</text>
<text transform="matrix(1 0 0 1 219.919 164.869)" class="st7 st8 st10">室</text>
<g>
	<text transform="matrix(1 0 0 1 46.826 61.964)" class="st7 st8 st12">室</text>
	<text transform="matrix(1 0 0 1 53.229 56.75)" class="st7 st8 st12">術</text>
	<text transform="matrix(1 0 0 1 53.229 51.412)" class="st7 st8 st12">美</text>
	<text transform="matrix(1 0 0 1 46.826 51.411)" class="st7 st8 st12">準</text>
	<text transform="matrix(1 0 0 1 46.826 56.687)" class="st7 st8 st12">備</text>
	<text transform="matrix(1 0 0 1 53.228 67.426)" class="st7 st8 st12">芸</text>
	<text transform="matrix(1 0 0 1 53.228 62.088)" class="st7 st8 st12">工</text>
</g>
<g>
	<text transform="matrix(1 0 0 1 286.777 214.375)" class="st7 st8 st12">室</text>
	<text transform="matrix(1 0 0 1 286.777 203.599)" class="st7 st8 st12">準</text>
	<text transform="matrix(1 0 0 1 286.778 208.952)" class="st7 st8 st12">備</text>
	<text transform="matrix(1 0 0 1 286.777 198.242)" class="st7 st8 st12">楽</text>
	<text transform="matrix(1 0 0 1 286.777 192.895)" class="st7 st8 st12">音</text>
</g>
<g>
	<text transform="matrix(1 0 0 1 297.531 249.79)" class="st7 st8 st11">室</text>
	<text transform="matrix(1 0 0 1 302.331 239.707)" class="st7 st8 st11">聴</text>
	<text transform="matrix(1 0 0 1 302.332 234.641)" class="st7 st8 st11">視</text>
	<text transform="matrix(1 0 0 1 297.531 239.707)" class="st7 st8 st11">準</text>
	<text transform="matrix(1 0 0 1 297.531 244.731)" class="st7 st8 st11">備</text>
	<text transform="matrix(1 0 0 1 302.331 244.731)" class="st7 st8 st11">覚</text>
</g>
<rect x="172.7" y="18.1" class="st3" width="19.2" height="14.4"/>
<rect x="172.9" y="168.8" class="st13" width="19" height="10.2"/>
<rect x="161.4" y="223" class="st3" width="42.4" height="13.3"/>
<rect x="203.8" y="219" class="st3" width="26.6" height="8.2"/>
<g>
	<text transform="matrix(1 0 0 1 49.8002 17.8322)"><tspan x="0" y="0" class="st14 st15">定時制</tspan><tspan x="4.2" y="8" class="st14 st15">PTA</tspan></text>
</g>
<g>
	<text transform="matrix(1 0 0 1 78.8899 15.7641)"><tspan x="0" y="0" class="st14 st15">定時制</tspan><tspan x="0" y="7" class="st14 st15">文化祭</tspan></text>
	<text transform="matrix(1 0 0 1 75.3899 29.5001)" class="st14 st15">実行委員</text>
</g>
<g>
	<text transform="matrix(1 0 0 1 108.9498 15.625)"><tspan x="0" y="0" class="st14 st15">定時制</tspan><tspan x="3.5" y="7" class="st14 st15">建築</tspan></text>
	<text transform="matrix(1 0 0 1 108.9498 29.6555)" class="st14 st15">研究部</text>
</g>
<g>
	<text transform="matrix(1 0 0 1 72.3335 55.6869)"><tspan x="0" y="0" class="st14 st15">定時制</tspan><tspan x="1.5" y="8.4" class="st14 st15">2学年</tspan></text>
</g>
<g>
	<text transform="matrix(1 0 0 1 143.05 17.1952)"><tspan x="0" y="0" class="st14 st15">定時制</tspan><tspan x="1.5" y="8.4" class="st14 st15">1学年</tspan></text>
</g>
<text transform="matrix(1 0 0 1 174.6222 173.3154)"><tspan x="0" y="0" class="st8 st16">定時制</tspan><tspan x="0" y="5" class="st8 st16">生徒会</tspan></text>
<text transform="matrix(1 0 0 1 163 229.1409)" class="st17"><tspan x="0" y="0" class="st8 st10">定時制</tspan><tspan x="0" y="6" class="st8 st10">ライフル射撃部</tspan></text>
<text transform="matrix(1 0 0 1 207.1667 234.6412)" class="st17"><tspan x="0" y="0" class="st8 st10">定時制</tspan><tspan x="0" y="6" class="st8 st10">吊り橋</tspan></text>
<text transform="matrix(1 0 0 1 234.1668 234.6412)" class="st17"><tspan x="0" y="0" class="st8 st15">定時制 機械科</tspan><tspan x="0" y="8.4" class="st8 st15">　　　 建設科 科展</tspan><tspan x="0" y="16.8" class="st8 st15">　　　 電気科</tspan></text>
<g>
	<text transform="matrix(1 0 0 1 173.0004 24.5502)"><tspan x="0" y="0" class="st8 st10">定時制</tspan><tspan x="0" y="6" class="st8 st10">写真部</tspan></text>
</g>
<line class="st18" x1="217.1" y1="223.1" x2="216.2" y2="229.1"/>
<text transform="matrix(1 0 0 1 240.6204 100.0127)" class="st8 st15">定時制は22日（日）のみの公開</text>
<g>
	<g>
		<path class="st19" d="M185.9,186h-8.1c-0.3,0-0.5,0.2-0.5,0.5v8.2c0,0.3,0.2,0.5,0.5,0.5h8.1c0.3,0,0.5-0.2,0.5-0.5v-8.2
			C186.4,186.2,186.1,186,185.9,186z M180.2,190.5l-0.1,3.3c0,0.3-0.3,0.5-0.6,0.5h-0.2c-0.3,0-0.6-0.2-0.6-0.5l-0.1-3.3
			c0-0.3,0.2-0.5,0.5-0.5h0.5C179.9,190,180.2,190.2,180.2,190.5z M179.4,189.6c-0.5,0-0.8-0.4-0.8-0.8s0.4-0.8,0.8-0.8
			c0.5,0,0.8,0.4,0.8,0.8S179.8,189.6,179.4,189.6z M182.6,190.5l-0.1,3.3c0,0.3-0.3,0.5-0.6,0.5h-0.2c-0.3,0-0.6-0.2-0.6-0.5
			l-0.1-3.3c0-0.3,0.2-0.5,0.5-0.5h0.5C182.4,190,182.6,190.2,182.6,190.5z M181.8,189.6c-0.5,0-0.8-0.4-0.8-0.8s0.4-0.8,0.8-0.8
			c0.5,0,0.8,0.4,0.8,0.8S182.3,189.6,181.8,189.6z M185.1,190.5l-0.1,3.3c0,0.3-0.3,0.5-0.6,0.5h-0.2c-0.3,0-0.6-0.2-0.6-0.5
			l-0.1-3.3c0-0.3,0.2-0.5,0.5-0.5h0.5C184.9,190,185.1,190.2,185.1,190.5z M184.3,189.6c-0.5,0-0.8-0.4-0.8-0.8s0.4-0.8,0.8-0.8
			c0.5,0,0.8,0.4,0.8,0.8S184.8,189.6,184.3,189.6z"/>
		<g>
			<polygon class="st19" points="179.4,185.2 179.4,183 178.7,183.7 178.1,183 179.8,181.2 179.9,181.3 181.6,183 180.9,183.7 
				180.3,183 180.3,185.2 			"/>
			<polygon class="st19" points="183.8,185.2 182.1,183.5 182.7,182.9 183.4,183.5 183.4,181.3 184.3,181.3 184.3,183.5 
				184.9,182.9 185.6,183.5 183.8,185.3 			"/>
		</g>
	</g>
	<g>
		<path class="st19" d="M38.7,59h-8.1c-0.3,0-0.5,0.2-0.5,0.5v8.2c0,0.3,0.2,0.5,0.5,0.5h8.1c0.3,0,0.5-0.2,0.5-0.5v-8.2
			C39.2,59.2,39,59,38.7,59z M33,63.5l-0.1,3.3c0,0.3-0.3,0.5-0.6,0.5h-0.2c-0.3,0-0.6-0.2-0.6-0.5l-0.1-3.3c0-0.3,0.2-0.5,0.5-0.5
			h0.5C32.7,63,33,63.2,33,63.5z M32.2,62.6c-0.5,0-0.8-0.4-0.8-0.8s0.4-0.8,0.8-0.8c0.5,0,0.8,0.4,0.8,0.8S32.6,62.6,32.2,62.6z
			 M35.4,63.5l-0.1,3.3c0,0.3-0.3,0.5-0.6,0.5h-0.2c-0.3,0-0.6-0.2-0.6-0.5l-0.1-3.3c0-0.3,0.2-0.5,0.5-0.5h0.5
			C35.2,63,35.5,63.2,35.4,63.5z M34.6,62.6c-0.5,0-0.8-0.4-0.8-0.8s0.4-0.8,0.8-0.8c0.5,0,0.8,0.4,0.8,0.8S35.1,62.6,34.6,62.6z
			 M37.9,63.5l-0.1,3.3c0,0.3-0.3,0.5-0.6,0.5H37c-0.3,0-0.6-0.2-0.6-0.5l-0.1-3.3c0-0.3,0.2-0.5,0.5-0.5h0.5
			C37.7,63,37.9,63.2,37.9,63.5z M37.1,62.6c-0.5,0-0.8-0.4-0.8-0.8s0.4-0.8,0.8-0.8c0.5,0,0.8,0.4,0.8,0.8S37.6,62.6,37.1,62.6z"/>
		<g>
			<polygon class="st19" points="32.2,58.2 32.2,56 31.5,56.7 30.9,56 32.6,54.3 32.7,54.3 34.4,56 33.7,56.7 33.1,56 33.1,58.2 			
				"/>
			<polygon class="st19" points="36.6,58.2 34.9,56.5 35.5,55.9 36.2,56.5 36.2,54.3 37.1,54.3 37.1,56.5 37.7,55.9 38.4,56.5 
				36.6,58.3 			"/>
		</g>
	</g>
	<g>
		<path class="st19" d="M190.2,201.3h-9c-0.5,0-1,0.4-1,1v9c0,0.5,0.4,1,1,1h9c0.5,0,1-0.4,1-1v-9
			C191.1,201.7,190.7,201.3,190.2,201.3z M187.4,202.8c0.4,0,0.7,0.3,0.7,0.7c0,0.4-0.3,0.7-0.7,0.7c-0.4,0-0.7-0.3-0.7-0.7
			C186.7,203.1,187,202.8,187.4,202.8z M183.6,202.8c0.4,0,0.7,0.3,0.7,0.7c0,0.4-0.3,0.7-0.7,0.7c-0.4,0-0.7-0.3-0.7-0.7
			C183,203.1,183.3,202.8,183.6,202.8z M184.6,207.5c0,0.1-0.1,0.2-0.2,0.2l-0.3,0.1l-0.1,2.6c0,0.1-0.2,0.3-0.3,0.3h-0.2
			c-0.2,0-0.3-0.1-0.3-0.3l-0.1-2.6l-0.3-0.1c-0.1,0-0.2-0.1-0.2-0.2l-0.1-2.7c0-0.2,0.1-0.3,0.3-0.3h1.6c0.2,0,0.3,0.1,0.3,0.3
			L184.6,207.5z M188.4,207.9h-0.6l-0.2,2.6c0,0.1-0.1,0.3-0.3,0.3h-0.1c-0.1,0-0.3-0.1-0.3-0.3l-0.2-2.6h-0.6
			c-0.2,0-0.4-0.2-0.3-0.4l0.7-1.5c0,0,0-0.1,0-0.1l-0.3-1.1c0-0.1,0.1-0.3,0.2-0.3h1.5c0.1,0,0.3,0.1,0.2,0.3l-0.3,1.1
			c0,0,0,0,0,0.1l0.7,1.5C188.8,207.7,188.6,207.9,188.4,207.9z"/>
	</g>
	<g>
		<path class="st19" d="M186.9,45h-9c-0.5,0-1,0.4-1,1v9c0,0.5,0.4,1,1,1h9c0.5,0,1-0.4,1-1v-9C187.8,45.4,187.4,45,186.9,45z
			 M184.1,46.5c0.4,0,0.7,0.3,0.7,0.7c0,0.4-0.3,0.7-0.7,0.7c-0.4,0-0.7-0.3-0.7-0.7C183.4,46.8,183.7,46.5,184.1,46.5z M180.3,46.5
			c0.4,0,0.7,0.3,0.7,0.7c0,0.4-0.3,0.7-0.7,0.7c-0.4,0-0.7-0.3-0.7-0.7C179.6,46.8,179.9,46.5,180.3,46.5z M181.3,51.2
			c0,0.1-0.1,0.2-0.2,0.2l-0.3,0.1l-0.1,2.6c0,0.1-0.2,0.3-0.3,0.3h-0.2c-0.2,0-0.3-0.1-0.3-0.3l-0.1-2.6l-0.3-0.1
			c-0.1,0-0.2-0.1-0.2-0.2l-0.1-2.7c0-0.2,0.1-0.3,0.3-0.3h1.6c0.2,0,0.3,0.1,0.3,0.3L181.3,51.2z M185.1,51.6h-0.6l-0.2,2.6
			c0,0.1-0.1,0.3-0.3,0.3H184c-0.1,0-0.3-0.1-0.3-0.3l-0.2-2.6H183c-0.2,0-0.4-0.2-0.3-0.4l0.7-1.5c0,0,0-0.1,0-0.1l-0.3-1.1
			c0-0.1,0.1-0.3,0.2-0.3h1.5c0.1,0,0.3,0.1,0.2,0.3l-0.3,1.1c0,0,0,0,0,0.1l0.7,1.5C185.5,51.4,185.3,51.6,185.1,51.6z"/>
	</g>
	<g>
		<path class="st19" d="M224.5,73.7h-3.1c-0.1,0-0.2,0-0.2,0.1l-2,1.3l0,0l0,0c0,0,0,0,0,0c0,0,0,0,0,0c0,0,0,0,0,0c0,0,0,0,0,0
			c0,0,0,0,0,0c0,0,0,0,0,0c0,0,0,0,0,0c0,0,0,0,0,0c0,0,0,0,0,0c0,0,0,0,0,0c0,0,0,0,0,0c0,0,0,0,0,0c0,0,0,0,0,0c0,0,0,0,0,0
			c0,0,0,0,0,0c0,0,0,0,0,0c0,0,0,0,0,0c0,0,0,0,0,0c0,0,0,0,0,0c0,0,0,0,0,0V77c0,0,0,0,0,0l-2,1.3l0,0l0,0c0,0,0,0,0,0
			c0,0,0,0,0,0c0,0,0,0,0,0c0,0,0,0,0,0c0,0,0,0,0,0c0,0,0,0,0,0c0,0,0,0,0,0c0,0,0,0,0,0c0,0,0,0,0,0c0,0,0,0,0,0c0,0,0,0,0,0
			c0,0,0,0,0,0c0,0,0,0,0,0c0,0,0,0,0,0c0,0,0,0,0,0c0,0,0,0,0,0c0,0,0,0,0,0c0,0,0,0,0,0c0,0,0,0,0,0c0,0,0,0,0,0v1.6l-1.9,1.3l0,0
			l0,0c0,0,0,0,0,0c0,0,0,0,0,0c0,0,0,0,0,0c0,0,0,0,0,0c0,0,0,0,0,0c0,0,0,0,0,0c0,0,0,0,0,0c0,0,0,0,0,0c0,0,0,0,0,0c0,0,0,0,0,0
			c0,0,0,0,0,0c0,0,0,0,0,0c0,0,0,0,0,0c0,0,0,0,0,0c0,0,0,0,0,0c0,0,0,0,0,0c0,0,0,0,0,0c0,0,0,0,0,0c0,0,0,0,0,0c0,0,0,0,0,0v1.6
			l-1.9,1.3l0,0l0,0c0,0,0,0,0,0c0,0,0,0,0,0c0,0,0,0,0,0c0,0,0,0,0,0c0,0,0,0,0,0c0,0,0,0,0,0c0,0,0,0,0,0c0,0,0,0,0,0c0,0,0,0,0,0
			c0,0,0,0,0,0c0,0,0,0,0,0c0,0,0,0,0,0c0,0,0,0,0,0c0,0,0,0,0,0c0,0,0,0,0,0c0,0,0,0,0,0c0,0,0,0,0,0c0,0,0,0,0,0c0,0,0,0,0,0
			c0,0,0,0,0,0v1.9c0,0.2,0.2,0.4,0.4,0.4h11.4c0.2,0,0.4-0.2,0.4-0.4v-13C225,73.9,224.8,73.7,224.5,73.7z M219.9,75.8h4.2v1.1
			h-4.2V75.8z M224.1,79.1v1.1h-6.4v-1.1H224.1z M224.1,82.3v1.1h-8.5v-1.1H224.1z M224.1,86.6h-10.6v-1.1h10.6V86.6z"/>
		<path class="st19" d="M218.8,73.8c-0.2-0.2-0.4-0.2-0.6,0l-9.2,8.4c-0.2,0.2-0.2,0.4,0,0.6c0.1,0.1,0.2,0.1,0.3,0.1
			c0.1,0,0.2,0,0.3-0.1l1.9-1.7v0.8H211c-0.1,0-0.2,0.1-0.2,0.2s0.1,0.2,0.2,0.2h0.8c0.1,0,0.2-0.1,0.2-0.2v-1.5l4.2-3.9v0.9h-0.5
			c-0.1,0-0.3,0.1-0.3,0.3c0,0.1,0.1,0.3,0.3,0.3h0.8c0.1,0,0.3-0.1,0.3-0.3v-1.6l2.1-1.9C219,74.2,219,73.9,218.8,73.8z"/>
	</g>
	<g>
		<path class="st19" d="M152.2,73.7h-3.1c-0.1,0-0.2,0-0.2,0.1l-2,1.3l0,0l0,0c0,0,0,0,0,0c0,0,0,0,0,0c0,0,0,0,0,0c0,0,0,0,0,0
			c0,0,0,0,0,0c0,0,0,0,0,0c0,0,0,0,0,0c0,0,0,0,0,0c0,0,0,0,0,0c0,0,0,0,0,0c0,0,0,0,0,0c0,0,0,0,0,0c0,0,0,0,0,0c0,0,0,0,0,0
			c0,0,0,0,0,0c0,0,0,0,0,0c0,0,0,0,0,0c0,0,0,0,0,0c0,0,0,0,0,0c0,0,0,0,0,0V77c0,0,0,0,0,0l-2,1.3l0,0l0,0c0,0,0,0,0,0
			c0,0,0,0,0,0c0,0,0,0,0,0c0,0,0,0,0,0c0,0,0,0,0,0c0,0,0,0,0,0c0,0,0,0,0,0c0,0,0,0,0,0c0,0,0,0,0,0c0,0,0,0,0,0c0,0,0,0,0,0
			c0,0,0,0,0,0c0,0,0,0,0,0c0,0,0,0,0,0c0,0,0,0,0,0c0,0,0,0,0,0c0,0,0,0,0,0c0,0,0,0,0,0c0,0,0,0,0,0c0,0,0,0,0,0v1.6l-1.9,1.3l0,0
			l0,0c0,0,0,0,0,0c0,0,0,0,0,0c0,0,0,0,0,0c0,0,0,0,0,0c0,0,0,0,0,0c0,0,0,0,0,0c0,0,0,0,0,0c0,0,0,0,0,0c0,0,0,0,0,0c0,0,0,0,0,0
			c0,0,0,0,0,0c0,0,0,0,0,0c0,0,0,0,0,0c0,0,0,0,0,0c0,0,0,0,0,0c0,0,0,0,0,0c0,0,0,0,0,0c0,0,0,0,0,0c0,0,0,0,0,0c0,0,0,0,0,0v1.6
			l-1.9,1.3l0,0l0,0c0,0,0,0,0,0c0,0,0,0,0,0c0,0,0,0,0,0c0,0,0,0,0,0c0,0,0,0,0,0c0,0,0,0,0,0c0,0,0,0,0,0c0,0,0,0,0,0c0,0,0,0,0,0
			c0,0,0,0,0,0c0,0,0,0,0,0c0,0,0,0,0,0c0,0,0,0,0,0c0,0,0,0,0,0c0,0,0,0,0,0c0,0,0,0,0,0c0,0,0,0,0,0c0,0,0,0,0,0c0,0,0,0,0,0
			c0,0,0,0,0,0v1.9c0,0.2,0.2,0.4,0.4,0.4h11.4c0.2,0,0.4-0.2,0.4-0.4v-13C152.7,73.9,152.5,73.7,152.2,73.7z M147.6,75.8h4.2v1.1
			h-4.2V75.8z M151.8,79.1v1.1h-6.4v-1.1H151.8z M151.8,82.3v1.1h-8.5v-1.1H151.8z M151.8,86.6h-10.6v-1.1h10.6V86.6z"/>
		<path class="st19" d="M146.5,73.8c-0.2-0.2-0.4-0.2-0.6,0l-9.2,8.4c-0.2,0.2-0.2,0.4,0,0.6c0.1,0.1,0.2,0.1,0.3,0.1
			c0.1,0,0.2,0,0.3-0.1l1.9-1.7v0.8h-0.5c-0.1,0-0.2,0.1-0.2,0.2s0.1,0.2,0.2,0.2h0.8c0.1,0,0.2-0.1,0.2-0.2v-1.5l4.2-3.9v0.9h-0.5
			c-0.1,0-0.3,0.1-0.3,0.3c0,0.1,0.1,0.3,0.3,0.3h0.8c0.1,0,0.3-0.1,0.3-0.3v-1.6l2.1-1.9C146.7,74.2,146.7,73.9,146.5,73.8z"/>
	</g>
	<g>
		<path class="st19" d="M42.6,9.2h-3.1c-0.1,0-0.2,0-0.2,0.1l-2,1.3l0,0l0,0c0,0,0,0,0,0c0,0,0,0,0,0c0,0,0,0,0,0c0,0,0,0,0,0
			c0,0,0,0,0,0c0,0,0,0,0,0c0,0,0,0,0,0c0,0,0,0,0,0c0,0,0,0,0,0c0,0,0,0,0,0c0,0,0,0,0,0c0,0,0,0,0,0c0,0,0,0,0,0c0,0,0,0,0,0
			c0,0,0,0,0,0c0,0,0,0,0,0c0,0,0,0,0,0c0,0,0,0,0,0c0,0,0,0,0,0c0,0,0,0,0,0v1.5c0,0,0,0,0,0l-2,1.3l0,0l0,0c0,0,0,0,0,0
			c0,0,0,0,0,0c0,0,0,0,0,0c0,0,0,0,0,0c0,0,0,0,0,0c0,0,0,0,0,0c0,0,0,0,0,0c0,0,0,0,0,0c0,0,0,0,0,0c0,0,0,0,0,0c0,0,0,0,0,0
			c0,0,0,0,0,0c0,0,0,0,0,0c0,0,0,0,0,0c0,0,0,0,0,0c0,0,0,0,0,0c0,0,0,0,0,0c0,0,0,0,0,0c0,0,0,0,0,0c0,0,0,0,0,0v1.6L33,17.1l0,0
			l0,0c0,0,0,0,0,0c0,0,0,0,0,0c0,0,0,0,0,0c0,0,0,0,0,0c0,0,0,0,0,0c0,0,0,0,0,0c0,0,0,0,0,0c0,0,0,0,0,0c0,0,0,0,0,0c0,0,0,0,0,0
			c0,0,0,0,0,0c0,0,0,0,0,0c0,0,0,0,0,0c0,0,0,0,0,0c0,0,0,0,0,0c0,0,0,0,0,0c0,0,0,0,0,0c0,0,0,0,0,0c0,0,0,0,0,0c0,0,0,0,0,0V19
			l-1.9,1.3l0,0l0,0c0,0,0,0,0,0c0,0,0,0,0,0c0,0,0,0,0,0c0,0,0,0,0,0c0,0,0,0,0,0c0,0,0,0,0,0c0,0,0,0,0,0c0,0,0,0,0,0c0,0,0,0,0,0
			c0,0,0,0,0,0c0,0,0,0,0,0c0,0,0,0,0,0c0,0,0,0,0,0c0,0,0,0,0,0c0,0,0,0,0,0c0,0,0,0,0,0c0,0,0,0,0,0c0,0,0,0,0,0c0,0,0,0,0,0
			c0,0,0,0,0,0v1.9c0,0.2,0.2,0.4,0.4,0.4h11.4c0.2,0,0.4-0.2,0.4-0.4v-13C43,9.4,42.8,9.2,42.6,9.2z M37.9,11.3h4.2v1.1h-4.2V11.3z
			 M42.2,14.6v1.1h-6.4v-1.1H42.2z M42.2,17.8v1.1h-8.5v-1.1H42.2z M42.2,22.1H31.6v-1.1h10.6V22.1z"/>
		<path class="st19" d="M36.9,9.3c-0.2-0.2-0.4-0.2-0.6,0l-9.2,8.4c-0.2,0.2-0.2,0.4,0,0.6c0.1,0.1,0.2,0.1,0.3,0.1
			c0.1,0,0.2,0,0.3-0.1l1.9-1.7v0.8H29c-0.1,0-0.2,0.1-0.2,0.2c0,0.1,0.1,0.2,0.2,0.2h0.8c0.1,0,0.2-0.1,0.2-0.2v-1.5l4.2-3.9v0.9
			h-0.5c-0.1,0-0.3,0.1-0.3,0.3c0,0.1,0.1,0.3,0.3,0.3h0.8c0.1,0,0.3-0.1,0.3-0.3v-1.6l2.1-1.9C37,9.7,37,9.4,36.9,9.3z"/>
	</g>
	<g>
		<path class="st19" d="M223.2,184.9h-3.1c-0.1,0-0.2,0-0.2,0.1l-2,1.3l0,0l0,0c0,0,0,0,0,0c0,0,0,0,0,0c0,0,0,0,0,0c0,0,0,0,0,0
			c0,0,0,0,0,0c0,0,0,0,0,0c0,0,0,0,0,0c0,0,0,0,0,0c0,0,0,0,0,0c0,0,0,0,0,0c0,0,0,0,0,0c0,0,0,0,0,0c0,0,0,0,0,0c0,0,0,0,0,0
			c0,0,0,0,0,0c0,0,0,0,0,0c0,0,0,0,0,0c0,0,0,0,0,0c0,0,0,0,0,0c0,0,0,0,0,0v1.5c0,0,0,0,0,0l-2,1.3l0,0l0,0c0,0,0,0,0,0
			c0,0,0,0,0,0c0,0,0,0,0,0c0,0,0,0,0,0c0,0,0,0,0,0c0,0,0,0,0,0c0,0,0,0,0,0c0,0,0,0,0,0c0,0,0,0,0,0c0,0,0,0,0,0c0,0,0,0,0,0
			c0,0,0,0,0,0c0,0,0,0,0,0c0,0,0,0,0,0c0,0,0,0,0,0c0,0,0,0,0,0c0,0,0,0,0,0c0,0,0,0,0,0c0,0,0,0,0,0c0,0,0,0,0,0v1.6l-1.9,1.3l0,0
			l0,0c0,0,0,0,0,0c0,0,0,0,0,0c0,0,0,0,0,0c0,0,0,0,0,0c0,0,0,0,0,0c0,0,0,0,0,0c0,0,0,0,0,0c0,0,0,0,0,0c0,0,0,0,0,0c0,0,0,0,0,0
			c0,0,0,0,0,0c0,0,0,0,0,0c0,0,0,0,0,0c0,0,0,0,0,0c0,0,0,0,0,0c0,0,0,0,0,0c0,0,0,0,0,0c0,0,0,0,0,0c0,0,0,0,0,0c0,0,0,0,0,0v1.6
			l-1.9,1.3l0,0l0,0c0,0,0,0,0,0c0,0,0,0,0,0c0,0,0,0,0,0c0,0,0,0,0,0c0,0,0,0,0,0c0,0,0,0,0,0c0,0,0,0,0,0c0,0,0,0,0,0c0,0,0,0,0,0
			c0,0,0,0,0,0c0,0,0,0,0,0c0,0,0,0,0,0c0,0,0,0,0,0c0,0,0,0,0,0c0,0,0,0,0,0c0,0,0,0,0,0c0,0,0,0,0,0c0,0,0,0,0,0c0,0,0,0,0,0
			c0,0,0,0,0,0v1.9c0,0.2,0.2,0.4,0.4,0.4h11.4c0.2,0,0.4-0.2,0.4-0.4v-13C223.6,185.1,223.5,184.9,223.2,184.9z M218.6,187.1h4.2
			v1.1h-4.2V187.1z M222.8,190.3v1.1h-6.4v-1.1H222.8z M222.8,193.6v1.1h-8.5v-1.1H222.8z M222.8,197.9h-10.6v-1.1h10.6V197.9z"/>
		<path class="st19" d="M217.5,185c-0.2-0.2-0.4-0.2-0.6,0l-9.2,8.4c-0.2,0.2-0.2,0.4,0,0.6c0.1,0.1,0.2,0.1,0.3,0.1
			c0.1,0,0.2,0,0.3-0.1l1.9-1.7v0.8h-0.5c-0.1,0-0.2,0.1-0.2,0.2c0,0.1,0.1,0.2,0.2,0.2h0.8c0.1,0,0.2-0.1,0.2-0.2v-1.5l4.2-3.9v0.9
			h-0.5c-0.1,0-0.3,0.1-0.3,0.3c0,0.1,0.1,0.3,0.3,0.3h0.8c0.1,0,0.3-0.1,0.3-0.3v-1.6l2.1-1.9C217.7,185.5,217.7,185.2,217.5,185z"
			/>
	</g>
	<g>
		<g>
			<path class="st19" d="M145.9,47.6c0,0.2,0.1,0.3,0.3,0.3h1.7c0.2,0,0.3-0.1,0.3-0.3v-0.4c0-0.2-0.1-0.3-0.3-0.3h-1.7
				c-0.2,0-0.3,0.1-0.3,0.3V47.6z"/>
		</g>
		<g>
			<path class="st19" d="M153.2,43.6h-0.4c-0.2,0-0.3,0.1-0.3,0.3v0h-0.7c-0.2-0.3-0.6-0.6-1.1-0.7v-0.3c0,0,0,0,0.1-0.1l1.5,0.1
				c0.2,0,0.3-0.1,0.3-0.3v-0.1c0-0.2-0.1-0.3-0.3-0.3l-1.4,0.1c-0.1-0.2-0.3-0.3-0.5-0.3c-0.2,0-0.4,0.1-0.5,0.3l-1.6-0.1
				c-0.2,0-0.3,0.1-0.3,0.3v0.1c0,0.2,0.1,0.3,0.3,0.3l1.6-0.1c0,0,0,0,0,0c0,0,0,0.1,0.1,0.1v0.3c-0.4,0.1-0.8,0.3-1.1,0.7h-0.9
				c-1,0-1.8,0.8-1.8,1.8v0.8h1.6v-0.8c0-0.1,0.1-0.2,0.2-0.2h0.8c0.3,0.5,0.9,0.9,1.5,0.9s1.3-0.4,1.5-0.9h0.6v0
				c0,0.2,0.1,0.3,0.3,0.3l0.4,0c0.2,0,0.3-0.1,0.3-0.3v-1.7C153.5,43.7,153.4,43.6,153.2,43.6z M147.9,44.5c-0.6,0-1.1,0.5-1.1,1.1
				c0,0.1-0.1,0.1-0.1,0.1s-0.1-0.1-0.1-0.1c0-0.4,0.1-0.7,0.4-1c0.3-0.3,0.6-0.4,1-0.4c0.1,0,0.1,0.1,0.1,0.1
				C148.1,44.5,148,44.5,147.9,44.5z"/>
		</g>
		<g>
			<path class="st19" d="M146.7,54.5c-0.4,0-0.8-0.3-0.9-0.6c-0.6,0-1.1-0.1-1.2-0.5c0-0.1,0-0.3,0.1-0.4c-0.5-0.2-0.8-0.6-0.8-1
				c0-0.3,0.2-0.5,0.6-0.6c0.2-0.1,0.4-0.1,0.6-0.1c0-0.1,0-0.2,0-0.3c0.1-0.2,0.4-0.4,0.7-0.3v-2.2c0-0.1,0.1-0.2,0.2-0.2
				c0.1,0,0.2,0.1,0.2,0.2v2.4c0,0.1,0,0.1-0.1,0.2c-0.1,0-0.1,0-0.2,0c-0.3-0.1-0.5,0-0.5,0c0,0,0,0.1,0.1,0.2
				c0.1,0.1,0.1,0.2,0,0.2c0,0.1-0.1,0.1-0.2,0.1c-0.6-0.1-1.1,0.1-1.1,0.3c0,0.2,0.3,0.5,0.8,0.7c0.1,0,0.1,0.1,0.1,0.2
				c0,0.1,0,0.1-0.1,0.2c-0.1,0.1-0.2,0.2-0.2,0.3c0,0.1,0.4,0.3,0.9,0.2c0.1,0,0.1,0,0.2,0c0,0,0.1,0.1,0.1,0.1
				c0,0.3,0.3,0.5,0.5,0.5c0.2,0,0.4-0.1,0.5-0.3c0-0.1,0.1-0.1,0.1-0.1c0.1,0,0.1,0,0.2,0c0.1,0,0.1,0.1,0.2,0.1
				c0.2,0.1,0.5,0.1,0.7,0.1c0.1,0,0.3-0.1,0.3-0.2c0-0.1,0-0.2,0-0.3c0-0.1,0-0.1,0-0.2c0-0.1,0.1-0.1,0.1-0.1
				c0.4-0.1,0.6-0.3,0.6-0.3c0-0.1-0.2-0.3-0.7-0.3c-0.1,0-0.1-0.1-0.2-0.2c0-0.1,0-0.2,0.1-0.2c0.3-0.2,0.5-0.5,0.4-0.6
				c-0.1-0.2-0.6-0.3-1.2-0.1c-0.1,0-0.1,0-0.2,0c-0.1,0-0.1-0.1-0.1-0.2v-2.7c0-0.1,0.1-0.2,0.2-0.2c0.1,0,0.2,0.1,0.2,0.2v2.4
				c0.7-0.2,1.3,0,1.4,0.5c0.1,0.3,0,0.6-0.2,0.9c0.4,0.1,0.6,0.4,0.6,0.6c0,0.3-0.3,0.6-0.7,0.7c0,0.1,0,0.3,0,0.4
				c-0.1,0.2-0.3,0.4-0.6,0.5c-0.3,0.1-0.6,0-0.9-0.1c0,0-0.1,0-0.1,0C147.3,54.4,147.1,54.5,146.7,54.5z"/>
		</g>
		<g>
			<path class="st19" d="M151.1,51.9c-0.5,0-0.8-0.4-0.8-0.8s0.4-0.8,0.8-0.8s0.8,0.4,0.8,0.8S151.5,51.9,151.1,51.9z M151.1,50.6
				c-0.3,0-0.5,0.2-0.5,0.5c0,0.3,0.2,0.5,0.5,0.5s0.5-0.2,0.5-0.5C151.6,50.8,151.3,50.6,151.1,50.6z"/>
		</g>
		<g>
			<path class="st19" d="M150.1,54.6c-0.3,0-0.5-0.2-0.5-0.5c0-0.3,0.2-0.5,0.5-0.5s0.5,0.2,0.5,0.5
				C150.6,54.4,150.4,54.6,150.1,54.6z M150.1,53.9c-0.1,0-0.2,0.1-0.2,0.2s0.1,0.2,0.2,0.2s0.2-0.1,0.2-0.2S150.2,53.9,150.1,53.9z
				"/>
		</g>
		<g>
			<path class="st19" d="M142.8,52.8c-0.4,0-0.7-0.3-0.7-0.7s0.3-0.7,0.7-0.7c0.4,0,0.7,0.3,0.7,0.7S143.2,52.8,142.8,52.8z
				 M142.8,51.7c-0.2,0-0.4,0.2-0.4,0.4c0,0.2,0.2,0.4,0.4,0.4c0.2,0,0.4-0.2,0.4-0.4C143.2,51.9,143,51.7,142.8,51.7z"/>
		</g>
		<g>
			<path class="st19" d="M143.7,50.4c-0.3,0-0.5-0.2-0.5-0.5s0.2-0.5,0.5-0.5s0.5,0.2,0.5,0.5S144,50.4,143.7,50.4z M143.7,49.7
				c-0.1,0-0.2,0.1-0.2,0.2s0.1,0.2,0.2,0.2s0.2-0.1,0.2-0.2S143.8,49.7,143.7,49.7z"/>
		</g>
		<g>
			<path class="st19" d="M145,55c-0.2,0-0.4-0.2-0.4-0.4c0-0.2,0.2-0.4,0.4-0.4c0.2,0,0.4,0.2,0.4,0.4C145.4,54.9,145.2,55,145,55z
				 M145,54.5c-0.1,0-0.1,0.1-0.1,0.1c0,0.1,0.1,0.1,0.1,0.1s0.1-0.1,0.1-0.1C145.1,54.6,145.1,54.5,145,54.5z"/>
		</g>
	</g>
</g>
<circle cx="217.1" cy="223.1" r="1"/>
</svg>
