<?xml version="1.0" encoding="utf-8"?>
<!-- Generator: Adobe Illustrator 22.1.0, SVG Export Plug-In . SVG Version: 6.00 Build 0)  -->
<svg version="1.1" id="_F-6" xmlns="http://www.w3.org/2000/svg" xmlns:xlink="http://www.w3.org/1999/xlink" x="0px" y="0px"
	 viewBox="0 0 338.8 260.8" style="enable-background:new 0 0 338.8 260.8;" xml:space="preserve">
<style type="text/css">
	.st0{fill:#F7F6F5;stroke:#002355;stroke-width:0.5;stroke-miterlimit:10;}
	.st1{fill:none;stroke:#A0A0A0;stroke-width:0.5;stroke-miterlimit:10;}
	.st2{fill:#FFFFFF;stroke:#002355;stroke-width:0.5;stroke-miterlimit:10;}
	.st3{fill:none;stroke:#002355;stroke-width:0.5;stroke-miterlimit:10;}
	.st4{fill:#15FBFF;stroke:#002355;stroke-width:0.5;stroke-miterlimit:10;}
	.st5{fill:#EAE1CF;stroke:#002355;stroke-width:0.5;stroke-miterlimit:10;}
	.st6{fill:#FAFDFF;stroke:#002355;stroke-width:0.5;stroke-miterlimit:10;}
	.st7{fill:#0A0A0A;}
	.st8{font-family:'HiraginoSans-W5-83pv-RKSJ-H';}
	.st9{font-size:5.8px;}
	.st10{font-size:6px;}
	.st11{font-size:4.3px;}
	.st12{fill:#686868;}
	.st13{font-size:9px;}
	.st14{fill:none;stroke:#002355;stroke-width:0.25;stroke-miterlimit:10;}
	.st15{stroke:#002355;stroke-width:0.25;stroke-miterlimit:10;}
	.st16{font-size:10px;}
</style>
<g id="_地-6">
	<g>
		<path class="st0" d="M230.4,186.8V5.7h-38.1v7.4h-19.8V5.7h-37.8l0,0H24.2v65h110.2v172.4h69.3v-15.8h26.6v19.9
			c0,0,17.6,6.4,53.2,6.4c38.4,0,50.2-6.4,50.2-6.4v-60.3L230.4,186.8L230.4,186.8z M192,167.9h-19.1V92.2H192V167.9z"/>
		<g>
			<line class="st1" x1="191.8" y1="92.2" x2="172.8" y2="167.8"/>
			<line class="st1" x1="172.8" y1="92.2" x2="191.8" y2="167.8"/>
		</g>
	</g>
</g>
<path class="st2" d="M296.7,253.2c28-1.2,37.1-6.1,37.1-6.1l0.1-19.9H296"/>
<path class="st2" d="M296.6,227.3h-66.3l-0.1,19.9c0,0,17.6,6.4,53.2,6.4c4.8,0,9.2-0.1,13.2-0.3V227.3L296.6,227.3z"/>
<rect x="230.4" y="186.7" class="st2" width="103.4" height="29.6"/>
<line class="st3" x1="314.5" y1="216.4" x2="314.5" y2="186.5"/>
<line class="st3" x1="280.5" y1="216.4" x2="280.5" y2="186.5"/>
<line class="st3" x1="271.5" y1="216.4" x2="271.5" y2="186.5"/>
<rect x="134.3" y="5.7" class="st4" width="38.3" height="26.8"/>
<rect x="134.4" y="56.8" class="st5" width="26.5" height="13.9"/>
<rect x="203.6" y="201.3" class="st5" width="26.8" height="15"/>
<rect x="134.4" y="157.4" class="st2" width="26.8" height="85.7"/>
<rect x="203.5" y="5.8" class="st2" width="26.8" height="65"/>
<rect x="134.4" y="92.2" class="st2" width="26.8" height="65.1"/>
<rect x="172.3" y="43.9" class="st5" width="19.8" height="26.8"/>
<line class="st3" x1="160.9" y1="56.7" x2="160.9" y2="44"/>
<rect x="203.5" y="157.3" class="st2" width="26.9" height="25.7"/>
<rect x="203.5" y="92.2" class="st2" width="26.9" height="65.1"/>
<rect x="172.3" y="180.2" class="st6" width="19.8" height="17.3"/>
<rect x="172.3" y="197.4" class="st5" width="19.8" height="19"/>
<line class="st3" x1="179.2" y1="216.4" x2="179.2" y2="197.4"/>
<line class="st3" x1="203.4" y1="17" x2="230.3" y2="17"/>
<line class="st3" x1="161" y1="216.4" x2="134.5" y2="216.4"/>
<rect x="104.5" y="5.7" class="st4" width="29.7" height="26.8"/>
<rect x="74.9" y="5.7" class="st4" width="29.6" height="26.8"/>
<rect x="45.3" y="5.7" class="st4" width="29.8" height="26.8"/>
<rect x="45.1" y="43.9" class="st2" width="29.8" height="26.8"/>
<rect x="74.9" y="43.9" class="st2" width="59.5" height="26.8"/>
<rect x="24.2" y="54" class="st6" width="20.9" height="16.7"/>
<line class="st3" x1="60" y1="70.7" x2="60" y2="44.2"/>
<text transform="matrix(1 0 0 1 318.262 200.164)" class="st7 st8 st9">物理</text>
<text transform="matrix(1 0 0 1 315.362 207.124)" class="st7 st8 st9">化学庫</text>
<g>
	<path class="st7" d="M86.9,18.9h-2.2V21h2.5v0.6H84v-5.7h3v0.6h-2.4v1.8h2.2v0.6H86.9z"/>
	<path class="st7" d="M89.5,16.7L89.5,16.7l-1,0.5l-0.1-0.6l1.2-0.6h0.6v5.5h-0.7V16.7L89.5,16.7z"/>
	<path class="st7" d="M92.4,20.7c0.2,0.1,0.7,0.3,1.2,0.3c1,0,1.3-0.6,1.2-1.1c0-0.8-0.7-1.1-1.4-1.1H93v-0.6h0.4
		c0.5,0,1.2-0.3,1.2-0.9c0-0.4-0.3-0.8-1-0.8c-0.4,0-0.9,0.2-1.1,0.4l-0.2-0.5c0.3-0.2,0.9-0.4,1.4-0.4c1.1,0,1.6,0.6,1.6,1.3
		c0,0.6-0.3,1.1-1,1.3l0,0c0.7,0.1,1.2,0.6,1.2,1.4c0,0.9-0.7,1.7-2,1.7c-0.6,0-1.2-0.2-1.4-0.4L92.4,20.7L92.4,20.7z"/>
</g>
<g>
	<path class="st7" d="M116.4,18.9h-2.2V21h2.5v0.6h-3.2v-5.7h3.1v0.6h-2.4v1.8h2.2V18.9L116.4,18.9z"/>
	<path class="st7" d="M119,16.7L119,16.7l-1,0.5l-0.1-0.6l1.2-0.6h0.6v5.5H119V16.7L119,16.7z"/>
	<path class="st7" d="M121.7,21.6v-0.5l0.6-0.6c1.4-1.3,2.1-2.1,2.1-2.9c0-0.6-0.3-1.1-1.1-1.1c-0.5,0-0.9,0.3-1.2,0.5l-0.2-0.5
		c0.4-0.3,0.9-0.6,1.6-0.6c1.2,0,1.7,0.8,1.7,1.6c0,1-0.7,1.9-1.9,3l-0.4,0.4l0,0h2.5v0.6L121.7,21.6L121.7,21.6z"/>
</g>
<text transform="matrix(1 0 0 1 95.649 55.991)" class="st7 st8 st10">建設科</text>
<text transform="matrix(1 0 0 1 89.649 63.191)" class="st7 st8 st10">作品保管庫</text>
<text transform="matrix(1 0 0 1 210.396 10.741)" class="st7 st8 st11">社会科</text>
<text transform="matrix(1 0 0 1 210.467 15.362)" class="st7 st8 st11">職員</text>
<text transform="matrix(1 0 0 1 219.011 15.362)" class="st7 st8 st11">室</text>
<text transform="matrix(1 0 0 1 138.805 224.816)" class="st7 st8 st10">建設科</text>
<text transform="matrix(1 0 0 1 138.904 232.016)" class="st7 st8 st10">職員</text>
<text transform="matrix(1 0 0 1 150.705 232.016)" class="st7 st8 st10">室</text>
<text transform="matrix(1 0 0 1 139.49 239.216)" class="st7 st8 st10">(定時)</text>
<text transform="matrix(1 0 0 1 207.929 165.222)" class="st7 st8 st10">社会科</text>
<text transform="matrix(1 0 0 1 208.085 172.422)" class="st7 st8 st10">学</text>
<text transform="matrix(1 0 0 1 213.917 172.422)" class="st7 st8 st10">習</text>
<text transform="matrix(1 0 0 1 219.774 172.422)" class="st7 st8 st10">室</text>
<text transform="matrix(1 0 0 1 208.614 179.622)" class="st7 st8 st10">(定時)</text>
<text transform="matrix(1 0 0 1 140.271 123.444)" class="st7 st8 st10">PC</text>
<text transform="matrix(1 0 0 1 149.379 123.444)" class="st7 st8 st10">室</text>
<text transform="matrix(1 0 0 1 140.439 130.644)" class="st7 st8 st10">(1年)</text>
<text transform="matrix(1 0 0 1 141.818 181.937)" class="st7 st8 st10">製図</text>
<text transform="matrix(1 0 0 1 138.974 189.137)" class="st7 st8 st10">実</text>
<text transform="matrix(1 0 0 1 144.806 189.137)" class="st7 st8 st10">習</text>
<text transform="matrix(1 0 0 1 150.663 189.137)" class="st7 st8 st10">室</text>
<text transform="matrix(1 0 0 1 139.503 196.337)" class="st7 st8 st10">(定時)</text>
<text transform="matrix(1 0 0 1 235.95 203.752)" class="st7 st8 st10">物理実験室</text>
<text transform="matrix(1 0 0 1 207.969 127.023)" class="st7 st8 st10">会議室</text>
<text transform="matrix(1 0 0 1 251.868 241.563)" class="st7 st8 st10">吹</text>
<text transform="matrix(1 0 0 1 257.622 241.563)" class="st7 st8 st10">き</text>
<text transform="matrix(1 0 0 1 263.256 241.563)" class="st7 st8 st10">抜</text>
<text transform="matrix(1 0 0 1 269.053 241.563)" class="st7 st8 st10">け</text>
<text transform="matrix(1 0 0 1 282.374 203.752)" class="st7 st8 st10">理科</text>
<text transform="matrix(1 0 0 1 294.374 203.752)" class="st7 st8 st10">職員</text>
<text transform="matrix(1 0 0 1 306.176 203.752)" class="st7 st8 st10">室</text>
<text transform="matrix(1 0 0 1 300.079 241.558)" class="st7 st8 st10">化学実験室</text>
<g>
	<path d="M272.5,71.5c-0.5,0-1,0-1.8,0c-4,0.3-5.8,2.2-6.3,4.4h0.1c1-0.9,2.3-1.5,4.1-1.5c3.2,0,6.1,2.3,6.1,6.4
		c0,3.9-3,7.1-7.3,7.1c-5.3,0-7.8-3.9-7.8-8.5c0-3.7,1.3-6.7,3.5-8.7c2-1.8,4.5-2.7,7.6-2.9c0.8-0.1,1.4,0,1.8,0L272.5,71.5z
		 M269.8,81.2c0-1.7-0.9-3.2-2.8-3.2c-1.2,0-2.2,0.7-2.6,1.7c-0.1,0.3-0.2,0.6-0.2,1.2c0.1,1.9,1,3.7,3,3.7
		C268.8,84.5,269.8,83.1,269.8,81.2L269.8,81.2z"/>
	<path d="M278.5,74.2h8.3v2.6h-5.1v2.9h4.8v2.6h-4.8v5.3h-3.2L278.5,74.2L278.5,74.2z"/>
</g>
<text transform="matrix(1 0 0 1 207.885 41.702)" class="st7 st8 st10">社会科</text>
<text transform="matrix(1 0 0 1 210.885 48.902)" class="st7 st8 st10">教室</text>
<g>
	<path class="st7" d="M150.6,18.9h-2.2V21h2.5v0.6h-3.2v-5.7h3.1v0.6h-2.4v1.8h2.2L150.6,18.9L150.6,18.9z"/>
	<path class="st7" d="M153.2,16.7L153.2,16.7l-1,0.5l-0.1-0.6l1.2-0.6h0.6v5.5h-0.7V16.7L153.2,16.7z"/>
	<path class="st7" d="M157.5,16.7L157.5,16.7l-1,0.5l-0.1-0.6l1.2-0.6h0.6v5.5h-0.7V16.7L157.5,16.7z"/>
</g>
<g>
	<text transform="matrix(1 0 0 1 272.998 201.001)" class="st8 st10">暗</text>
	<text transform="matrix(1 0 0 1 272.998 207.583)" class="st8 st10">室</text>
</g>
<g>
	<text transform="matrix(1 0 0 1 64.266 62.356)" class="st8 st10">会</text>
	<text transform="matrix(1 0 0 1 64.266 68.174)" class="st8 st10">室</text>
	<text transform="matrix(1 0 0 1 64.266 50.721)" class="st8 st10">生</text>
	<text transform="matrix(1 0 0 1 64.266 56.538)" class="st8 st10">徒</text>
</g>
<g>
	<text transform="matrix(1 0 0 1 49.544 62.356)" class="st8 st10">会</text>
	<text transform="matrix(1 0 0 1 49.544 68.174)" class="st8 st10">室</text>
	<text transform="matrix(1 0 0 1 49.534 50.72)" class="st8 st10">同</text>
	<text transform="matrix(1 0 0 1 49.544 56.538)" class="st8 st10">窓</text>
</g>
<g id="_クトグラム-6">
	<g>
		<g>
			<path class="st12" d="M33.5,62c0,0.3-0.3,0.6-0.6,0.6s-0.6-0.2-0.6-0.6s0.3-0.6,0.6-0.6S33.5,61.7,33.5,62z"/>
			<path class="st12" d="M32.9,62.6c-0.4,0-1.3,0-1.3,0.8v1.8c0,0.1,0.1,0.2,0.2,0.2s0.2-0.1,0.2-0.2l0.1-1.1l0.1,4.1
				c0,0.2,0.1,0.3,0.3,0.3s0.3-0.1,0.3-0.3l0.1-2.5l0.1,2.5c0,0.2,0.1,0.3,0.3,0.3s0.3-0.1,0.3-0.3l0.1-4.1l0.1,1.1
				c0,0.1,0.1,0.2,0.2,0.2c0.1,0,0.2-0.1,0.2-0.2v-1.8C34.3,62.7,33.3,62.6,32.9,62.6L32.9,62.6z"/>
		</g>
		<g>
			<path class="st12" d="M37,62c0,0.3-0.3,0.6-0.6,0.6s-0.6-0.2-0.6-0.6s0.3-0.6,0.6-0.6S37,61.7,37,62z"/>
			<path class="st12" d="M36.4,62.6c-0.4,0-1.3,0-1.3,0.8v1.8c0,0.1,0.1,0.2,0.2,0.2c0.1,0,0.2-0.1,0.2-0.2l0.1-1.1l0.1,4.1
				c0,0.2,0.1,0.3,0.3,0.3s0.3-0.1,0.3-0.3l0.1-2.5l0.1,2.5c0,0.2,0.1,0.3,0.3,0.3s0.3-0.1,0.3-0.3l0.1-4.1l0.1,1.1
				c0,0.1,0.1,0.2,0.2,0.2c0.1,0,0.2-0.1,0.2-0.2v-1.8C37.7,62.7,36.8,62.6,36.4,62.6L36.4,62.6z"/>
		</g>
		<path class="st12" d="M38.4,68.9H31c-0.6,0-1-0.5-1-1v-7.7c0-0.6,0.5-1,1-1h7.4c0.6,0,1,0.5,1,1v7.7C39.4,68.5,39,68.9,38.4,68.9z
			 M31,59.8c-0.2,0-0.4,0.2-0.4,0.4v7.7c0,0.2,0.2,0.4,0.4,0.4h7.4c0.2,0,0.4-0.2,0.4-0.4v-7.7c0-0.2-0.2-0.4-0.4-0.4H31z"/>
		<path class="st12" d="M38,57.2L36.7,56l0,0l-0.2-0.2L36.3,56l0,0L35,57.2c-0.1,0.1-0.1,0.3,0,0.4s0.3,0.1,0.4,0l0.8-0.8v1.7
			c0,0.2,0.1,0.3,0.3,0.3s0.3-0.1,0.3-0.3v-1.7l0.8,0.8c0.1,0.1,0.1,0.1,0.2,0.1s0.1,0,0.2-0.1C38.1,57.5,38.1,57.3,38,57.2L38,57.2
			z"/>
		<path class="st12" d="M34.4,57.1c-0.1-0.1-0.3-0.1-0.4,0l-0.8,0.8v-1.7c0-0.2-0.1-0.3-0.3-0.3s-0.3,0.1-0.3,0.3v1.7l-0.8-0.8
			c-0.1-0.1-0.3-0.1-0.4,0s-0.1,0.3,0,0.4l1.3,1.2l0,0l0.2,0.2l0.2-0.2l0,0l1.3-1.2C34.5,57.4,34.5,57.2,34.4,57.1L34.4,57.1z"/>
	</g>
	<g>
		<g>
			<path class="st12" d="M181.1,188.5c0,0.3-0.3,0.6-0.6,0.6s-0.6-0.2-0.6-0.6s0.3-0.6,0.6-0.6S181.1,188.2,181.1,188.5z"/>
			<path class="st12" d="M180.5,189.1c-0.4,0-1.3,0-1.3,0.8v1.8c0,0.1,0.1,0.2,0.2,0.2c0.1,0,0.2-0.1,0.2-0.2l0.1-1.1l0.1,4.1
				c0,0.2,0.1,0.3,0.3,0.3s0.3-0.1,0.3-0.3l0.1-2.5l0.1,2.5c0,0.2,0.1,0.3,0.3,0.3s0.3-0.1,0.3-0.3l0.1-4.1l0.1,1.1
				c0,0.1,0.1,0.2,0.2,0.2c0.1,0,0.2-0.1,0.2-0.2v-1.8C181.9,189.2,180.9,189.1,180.5,189.1z"/>
		</g>
		<g>
			<path class="st12" d="M184.5,188.5c0,0.3-0.3,0.6-0.6,0.6s-0.6-0.2-0.6-0.6s0.3-0.6,0.6-0.6S184.5,188.2,184.5,188.5z"/>
			<path class="st12" d="M184,189.1c-0.4,0-1.3,0-1.3,0.8v1.8c0,0.1,0.1,0.2,0.2,0.2c0.1,0,0.2-0.1,0.2-0.2l0.1-1.1l0.1,4.1
				c0,0.2,0.1,0.3,0.3,0.3s0.3-0.1,0.3-0.3l0.1-2.5l0.1,2.5c0,0.2,0.1,0.3,0.3,0.3s0.3-0.1,0.3-0.3l0.1-4.1l0.1,1.1
				c0,0.1,0.1,0.2,0.2,0.2c0.1,0,0.2-0.1,0.2-0.2v-1.8C185.3,189.2,184.4,189.1,184,189.1z"/>
		</g>
		<path class="st12" d="M185.9,195.4h-7.4c-0.6,0-1-0.5-1-1v-7.7c0-0.6,0.5-1,1-1h7.4c0.6,0,1,0.5,1,1v7.7
			C187,195,186.5,195.4,185.9,195.4z M178.5,186.3c-0.2,0-0.4,0.2-0.4,0.4v7.7c0,0.2,0.2,0.4,0.4,0.4h7.4c0.2,0,0.4-0.2,0.4-0.4
			v-7.7c0-0.2-0.2-0.4-0.4-0.4H178.5z"/>
		<path class="st12" d="M185.6,183.7l-1.3-1.2l0,0l-0.2-0.2l-0.2,0.2l0,0l-1.3,1.2c-0.1,0.1-0.1,0.3,0,0.4s0.3,0.1,0.4,0l0.8-0.8
			v1.7c0,0.2,0.1,0.3,0.3,0.3s0.3-0.1,0.3-0.3v-1.7l0.8,0.8c0.1,0.1,0.1,0.1,0.2,0.1s0.1,0,0.2-0.1
			C185.7,183.9,185.7,183.8,185.6,183.7L185.6,183.7z"/>
		<path class="st12" d="M182,183.6c-0.1-0.1-0.3-0.1-0.4,0l-0.8,0.8v-1.7c0-0.2-0.1-0.3-0.3-0.3s-0.3,0.1-0.3,0.3v1.7l-0.8-0.8
			c-0.1-0.1-0.3-0.1-0.4,0s-0.1,0.3,0,0.4l1.3,1.2l0,0l0.2,0.2l0.2-0.2l0,0l1.3-1.2C182.1,183.9,182.1,183.7,182,183.6L182,183.6z"
			/>
	</g>
	<g transform="translate(176.761 45.557) scale(.046)">
	</g>
	<g transform="translate(180.459 201.672) scale(.046)">
	</g>
	<g transform="translate(140.617 74.489) scale(.061)">
	</g>
	<g transform="translate(209.867 74.489) scale(.061)">
	</g>
	<g transform="translate(209.867 185.113) scale(.061)">
	</g>
	<g transform="translate(27.667 12.211) scale(.061)">
	</g>
</g>
<image style="overflow:visible;enable-background:new    ;" width="239" height="261" xlink:href="639EC9E3CA1C5F9A.png"  transform="matrix(4.227909e-02 0 0 4.227909e-02 176.6161 58.0335)">
</image>
<g transform="translate(176.757 45.475) scale(.046)">
	
		<image style="overflow:visible;enable-background:new    ;" width="239" height="261" id="image_3_" xlink:href="639EC9E3CA1C5F9E.png"  transform="matrix(4.227909e-02 0 0 4.227909e-02 176.6161 45.0745)">
	</image>
</g>
<image style="overflow:visible;enable-background:new    ;" width="261" height="239" xlink:href="639EC9E3CA1C5F99.png"  transform="matrix(4.227909e-02 0 0 4.227909e-02 141.7581 45.1855)">
</image>
<g transform="translate(180.456 201.59) scale(.046)">
	
		<image style="overflow:visible;enable-background:new    ;" width="239" height="261" id="image_1_" xlink:href="639EC9E3CA1C5F9B.png"  transform="matrix(4.227909e-02 0 0 4.227909e-02 180.3151 201.1895)">
	</image>
</g>
<g transform="translate(140.614 74.407) scale(.061)">
	
		<image style="overflow:visible;enable-background:new    ;" width="246" height="246" id="image-2_7_" xlink:href="639EC9E3CA1C5F98.png"  transform="matrix(5.703252e-02 0 0 5.703252e-02 140.2355 74.2339)">
	</image>
</g>
<g transform="translate(209.864 74.407) scale(.061)">
	
		<image style="overflow:visible;enable-background:new    ;" width="246" height="246" id="image-2_6_" xlink:href="639EC9E3CA1C5FA6.png"  transform="matrix(5.703252e-02 0 0 5.703252e-02 209.4855 74.2339)">
	</image>
</g>
<g transform="translate(209.864 185.031) scale(.061)">
	
		<image style="overflow:visible;enable-background:new    ;" width="246" height="246" id="image-2_5_" xlink:href="639EC9E3CA1C5FA9.png"  transform="matrix(5.703252e-02 0 0 5.703252e-02 209.4855 184.8579)">
	</image>
</g>
<rect x="230.4" y="186.5" class="st4" width="41.1" height="29.8"/>
<g transform="translate(27.663 12.129) scale(.061)">
	
		<image style="overflow:visible;enable-background:new    ;" width="246" height="246" id="image-2_1_" xlink:href="639EC9E3CA1C5FAA.png"  transform="matrix(5.703252e-02 0 0 5.703252e-02 27.2845 11.9559)">
	</image>
</g>
<rect x="134.5" y="157.4" class="st4" width="26.5" height="59"/>
<text transform="matrix(1 0 0 1 237.6668 205.333)" class="st8 st13">陶芸部</text>
<text transform="matrix(1 0 0 1 237.6668 205.333)" class="st14 st8 st13">陶芸部</text>
<text transform="matrix(1 0 0 1 49.534 17.9823)" class="st8 st10">ロボティ</text>
<text transform="matrix(1 0 0 1 49.534 17.9823)" class="st14 st8 st10">ロボティ</text>
<text transform="matrix(1 0 0 1 49.534 25.1823)" class="st8 st10">クス部</text>
<text transform="matrix(1 0 0 1 49.534 25.1823)" class="st14 st8 st10">クス部</text>
<text transform="matrix(1 0 0 1 137.805 183.8)"><tspan x="0" y="0" class="st15 st8 st16">A科</tspan><tspan x="0" y="12" class="st15 st8 st16">科展</tspan></text>
</svg>
