<?xml version="1.0" encoding="utf-8"?>
<!-- Generator: Adobe Illustrator 22.1.0, SVG Export Plug-In . SVG Version: 6.00 Build 0)  -->
<svg version="1.1" id="_F-6" xmlns="http://www.w3.org/2000/svg" xmlns:xlink="http://www.w3.org/1999/xlink" x="0px" y="0px"
	 viewBox="0 0 338.8 260.8" style="enable-background:new 0 0 338.8 260.8;" xml:space="preserve">
<style type="text/css">
	.st0{fill:#F7F6F5;stroke:#002355;stroke-width:0.5;stroke-miterlimit:10;}
	.st1{fill:none;stroke:#A0A0A0;stroke-width:0.5;stroke-miterlimit:10;}
	.st2{fill:#FFFFFF;stroke:#002355;stroke-width:0.5;stroke-miterlimit:10;}
	.st3{fill:none;stroke:#002355;stroke-width:0.5;stroke-miterlimit:10;}
	.st4{fill:#CCF5FF;stroke:#002355;stroke-width:0.5;stroke-miterlimit:10;}
	.st5{fill:#EAE1CF;stroke:#002355;stroke-width:0.5;stroke-miterlimit:10;}
	.st6{fill:#FAFDFF;stroke:#002355;stroke-width:0.5;stroke-miterlimit:10;}
	.st7{fill:#0A0A0A;}
	.st8{font-family:'HiraginoSans-W5-83pv-RKSJ-H';}
	.st9{font-size:5.8px;}
	.st10{font-size:6px;}
	.st11{font-size:4.3px;}
	.st12{font-family:'KozGoPr6N-Medium-83pv-RKSJ-H';}
	.st13{fill:#333333;}
	.st14{font-family:'KozGoPr6N-Regular-83pv-RKSJ-H';}
	.st15{font-size:3px;}
</style>
<g id="_地-6">
	<g>
		<path class="st0" d="M230.4,186.8V5.7h-38.1v7.4h-19.8V5.7h-37.8l0,0H24.2v65h110.2v172.4h69.3v-15.8h26.6v19.9
			c0,0,17.6,6.4,53.2,6.4c38.4,0,50.2-6.4,50.2-6.4v-60.3L230.4,186.8L230.4,186.8z M192,167.9h-19.1V92.2H192V167.9z"/>
		<g>
			<line class="st1" x1="191.8" y1="92.2" x2="172.8" y2="167.8"/>
			<line class="st1" x1="172.8" y1="92.2" x2="191.8" y2="167.8"/>
		</g>
	</g>
</g>
<path class="st2" d="M296.7,253.2c28-1.2,37.1-6.1,37.1-6.1l0.1-19.9H296"/>
<path class="st2" d="M296.6,227.3h-66.3l-0.1,19.9c0,0,17.6,6.4,53.2,6.4c4.8,0,9.2-0.1,13.2-0.3V227.3L296.6,227.3z"/>
<rect x="230.4" y="186.7" class="st2" width="103.4" height="29.6"/>
<line class="st3" x1="314.5" y1="216.4" x2="314.5" y2="186.5"/>
<line class="st3" x1="280.5" y1="216.4" x2="280.5" y2="186.5"/>
<line class="st3" x1="271.5" y1="216.4" x2="271.5" y2="186.5"/>
<rect x="134.3" y="5.7" class="st4" width="38.3" height="26.8"/>
<rect x="134.4" y="56.8" class="st5" width="26.5" height="13.9"/>
<rect x="203.6" y="201.3" class="st5" width="26.8" height="15"/>
<rect x="134.4" y="157.4" class="st2" width="26.8" height="85.7"/>
<rect x="203.5" y="5.8" class="st2" width="26.8" height="65"/>
<rect x="134.4" y="92.2" class="st2" width="26.8" height="65.1"/>
<rect x="172.3" y="43.9" class="st5" width="19.8" height="26.8"/>
<line class="st3" x1="160.9" y1="56.7" x2="160.9" y2="44"/>
<rect x="203.5" y="157.3" class="st2" width="26.9" height="25.7"/>
<rect x="203.5" y="92.2" class="st2" width="26.9" height="65.1"/>
<rect x="172.3" y="180.2" class="st6" width="19.8" height="17.3"/>
<rect x="172.3" y="197.4" class="st5" width="19.8" height="19"/>
<line class="st3" x1="179.2" y1="216.4" x2="179.2" y2="197.4"/>
<line class="st3" x1="203.4" y1="17" x2="230.3" y2="17"/>
<line class="st3" x1="161" y1="216.4" x2="134.5" y2="216.4"/>
<rect x="104.5" y="5.7" class="st4" width="29.7" height="26.8"/>
<rect x="74.9" y="5.7" class="st4" width="29.6" height="26.8"/>
<rect x="45.3" y="5.7" class="st4" width="29.8" height="26.8"/>
<rect x="45.1" y="43.9" class="st2" width="29.8" height="26.8"/>
<rect x="74.9" y="43.9" class="st2" width="59.5" height="26.8"/>
<rect x="24.2" y="54" class="st6" width="20.9" height="16.7"/>
<line class="st3" x1="60" y1="70.7" x2="60" y2="44.2"/>
<text transform="matrix(1 0 0 1 318.262 200.164)" class="st7 st8 st9">物理</text>
<text transform="matrix(1 0 0 1 315.362 207.124)" class="st7 st8 st9">化学庫</text>
<text transform="matrix(1 0 0 1 95.649 55.991)" class="st7 st8 st10">建設科</text>
<text transform="matrix(1 0 0 1 89.649 63.191)" class="st7 st8 st10">作品保管庫</text>
<text transform="matrix(1 0 0 1 210.396 10.741)" class="st7 st8 st11">社会科</text>
<text transform="matrix(1 0 0 1 210.467 15.362)" class="st7 st8 st11">職員</text>
<text transform="matrix(1 0 0 1 219.011 15.362)" class="st7 st8 st11">室</text>
<text transform="matrix(1 0 0 1 138.805 224.816)" class="st7 st8 st10">建設科</text>
<text transform="matrix(1 0 0 1 138.904 232.016)" class="st7 st8 st10">職員</text>
<text transform="matrix(1 0 0 1 150.705 232.016)" class="st7 st8 st10">室</text>
<text transform="matrix(1 0 0 1 139.49 239.216)" class="st7 st8 st10">(定時)</text>
<text transform="matrix(1 0 0 1 207.929 165.222)" class="st7 st8 st10">社会科</text>
<text transform="matrix(1 0 0 1 208.085 172.422)" class="st7 st8 st10">学</text>
<text transform="matrix(1 0 0 1 213.917 172.422)" class="st7 st8 st10">習</text>
<text transform="matrix(1 0 0 1 219.774 172.422)" class="st7 st8 st10">室</text>
<text transform="matrix(1 0 0 1 208.614 179.622)" class="st7 st8 st10">(定時)</text>
<text transform="matrix(1 0 0 1 140.271 123.444)" class="st7 st8 st10">PC</text>
<text transform="matrix(1 0 0 1 149.379 123.444)" class="st7 st8 st10">室</text>
<text transform="matrix(1 0 0 1 140.439 130.644)" class="st7 st8 st10">(1年)</text>
<g>
	<text transform="matrix(1 0 0 1 141.818 181.937)" class="st12 st10">製図</text>
</g>
<g>
	<text transform="matrix(1 0 0 1 138.974 189.137)" class="st12 st10">実</text>
</g>
<g>
	<text transform="matrix(1 0 0 1 144.806 189.137)" class="st12 st10">習</text>
</g>
<text transform="matrix(1 0 0 1 150.663 189.137)" class="st7 st8 st10">室</text>
<text transform="matrix(1 0 0 1 139.503 196.337)" class="st7 st8 st10">(定時)</text>
<text transform="matrix(1 0 0 1 235.95 203.752)" class="st7 st8 st10">物理実験室</text>
<text transform="matrix(1 0 0 1 207.969 127.023)" class="st7 st8 st10">会議室</text>
<text transform="matrix(1 0 0 1 251.868 241.563)" class="st7 st8 st10">吹</text>
<text transform="matrix(1 0 0 1 257.622 241.563)" class="st7 st8 st10">き</text>
<text transform="matrix(1 0 0 1 263.256 241.563)" class="st7 st8 st10">抜</text>
<text transform="matrix(1 0 0 1 269.053 241.563)" class="st7 st8 st10">け</text>
<text transform="matrix(1 0 0 1 282.374 203.752)" class="st7 st8 st10">理科</text>
<text transform="matrix(1 0 0 1 294.374 203.752)" class="st7 st8 st10">職員</text>
<text transform="matrix(1 0 0 1 306.176 203.752)" class="st7 st8 st10">室</text>
<text transform="matrix(1 0 0 1 300.079 241.558)" class="st7 st8 st10">化学実験室</text>
<g>
	<path d="M272.5,71.5c-0.5,0-1,0-1.8,0c-4,0.3-5.8,2.2-6.3,4.4h0.1c1-0.9,2.3-1.5,4.1-1.5c3.2,0,6.1,2.3,6.1,6.4
		c0,3.9-3,7.1-7.3,7.1c-5.3,0-7.8-3.9-7.8-8.5c0-3.7,1.3-6.7,3.5-8.7c2-1.8,4.5-2.7,7.6-2.9c0.8-0.1,1.4,0,1.8,0L272.5,71.5z
		 M269.8,81.2c0-1.7-0.9-3.2-2.8-3.2c-1.2,0-2.2,0.7-2.6,1.7c-0.1,0.3-0.2,0.6-0.2,1.2c0.1,1.9,1,3.7,3,3.7
		C268.8,84.5,269.8,83.1,269.8,81.2L269.8,81.2z"/>
	<path d="M278.5,74.2h8.3v2.6h-5.1v2.9h4.8v2.6h-4.8v5.3h-3.2L278.5,74.2L278.5,74.2z"/>
</g>
<text transform="matrix(1 0 0 1 207.885 41.702)" class="st7 st8 st10">社会科</text>
<text transform="matrix(1 0 0 1 210.885 48.902)" class="st7 st8 st10">教室</text>
<g>
	<text transform="matrix(1 0 0 1 272.998 201.001)" class="st8 st10">暗</text>
	<text transform="matrix(1 0 0 1 272.998 207.583)" class="st8 st10">室</text>
</g>
<g>
	<text transform="matrix(1 0 0 1 64.266 62.356)" class="st8 st10">会</text>
	<text transform="matrix(1 0 0 1 64.266 68.174)" class="st8 st10">室</text>
	<text transform="matrix(1 0 0 1 64.266 50.721)" class="st8 st10">生</text>
	<text transform="matrix(1 0 0 1 64.266 56.538)" class="st8 st10">徒</text>
</g>
<g>
	<text transform="matrix(1 0 0 1 49.544 62.356)" class="st8 st10">会</text>
	<text transform="matrix(1 0 0 1 49.544 68.174)" class="st8 st10">室</text>
	<text transform="matrix(1 0 0 1 49.534 50.72)" class="st8 st10">同</text>
	<text transform="matrix(1 0 0 1 49.544 56.538)" class="st8 st10">窓</text>
</g>
<g transform="translate(180.456 201.59) scale(.046)">
</g>
<rect x="230.4" y="186.5" class="st4" width="41.1" height="29.8"/>
<rect x="134.5" y="157.4" class="st4" width="26.5" height="59"/>
<g>
	<text transform="matrix(1 0 0 1 241.6666 197.8)" class="st12 st10">陶芸部</text>
</g>
<text transform="matrix(1 0 0 1 48.534 12.4472)" class="st8 st10">ロボティ</text>
<text transform="matrix(1 0 0 1 51.534 19.6472)" class="st8 st10">クス部</text>
<g>
	<text transform="matrix(1 0 0 1 141.5 167.0223)" class="st12 st10">建設</text>
</g>
<g>
	<text transform="matrix(1 0 0 1 141.5 175.4223)" class="st12 st10">工芸</text>
</g>
<g>
	<text transform="matrix(1 0 0 1 138.5 183.8223)" class="st12 st10">専門部</text>
</g>
<g>
	<text transform="matrix(1 0 0 1 138.5 192.2223)" class="st12 st10">巡回展</text>
</g>
<text transform="matrix(1 0 0 1 143.7931 12.5489)" class="st12 st10">電気科</text>
<text transform="matrix(1 0 0 1 143.3931 18.7667)" class="st12 st10">1年1組</text>
<text transform="matrix(1 0 0 1 110.3501 12.5491)" class="st12 st10">電気科</text>
<text transform="matrix(1 0 0 1 109.9501 18.7669)" class="st12 st10">1年2組</text>
<text transform="matrix(1 0 0 1 80.6491 12.549)" class="st12 st10">電気科</text>
<text transform="matrix(1 0 0 1 80.2491 18.7668)" class="st12 st10">1年3組</text>
<g>
	<g>
		<path class="st13" d="M185.8,186.6h-8.1c-0.3,0-0.5,0.2-0.5,0.5v8.2c0,0.3,0.2,0.5,0.5,0.5h8.1c0.3,0,0.5-0.2,0.5-0.5v-8.2
			C186.3,186.8,186.1,186.6,185.8,186.6z M180.1,191.1l-0.1,3.3c0,0.3-0.3,0.5-0.6,0.5h-0.2c-0.3,0-0.6-0.2-0.6-0.5l-0.1-3.3
			c0-0.3,0.2-0.5,0.5-0.5h0.5C179.9,190.6,180.1,190.8,180.1,191.1z M179.3,190.2c-0.5,0-0.8-0.4-0.8-0.8c0-0.5,0.4-0.8,0.8-0.8
			c0.5,0,0.8,0.4,0.8,0.8S179.8,190.2,179.3,190.2z M182.6,191.1l-0.1,3.3c0,0.3-0.3,0.5-0.6,0.5h-0.2c-0.3,0-0.6-0.2-0.6-0.5
			l-0.1-3.3c0-0.3,0.2-0.5,0.5-0.5h0.5C182.4,190.6,182.6,190.8,182.6,191.1z M181.8,190.2c-0.5,0-0.8-0.4-0.8-0.8
			c0-0.5,0.4-0.8,0.8-0.8c0.5,0,0.8,0.4,0.8,0.8S182.2,190.2,181.8,190.2z M185,191.1l-0.1,3.3c0,0.3-0.3,0.5-0.6,0.5h-0.2
			c-0.3,0-0.6-0.2-0.6-0.5l-0.1-3.3c0-0.3,0.2-0.5,0.5-0.5h0.5C184.8,190.6,185.1,190.8,185,191.1z M184.3,190.2
			c-0.5,0-0.8-0.4-0.8-0.8c0-0.5,0.4-0.8,0.8-0.8c0.5,0,0.8,0.4,0.8,0.8S184.7,190.2,184.3,190.2z"/>
		<g>
			<polygon class="st13" points="179.3,185.8 179.3,183.6 178.7,184.3 178,183.6 179.8,181.8 179.8,181.9 181.5,183.6 180.9,184.3 
				180.2,183.6 180.2,185.8 			"/>
			<polygon class="st13" points="183.7,185.8 182,184.1 182.7,183.5 183.3,184.1 183.3,181.9 184.2,181.9 184.2,184.1 184.9,183.5 
				185.5,184.1 183.8,185.9 			"/>
		</g>
	</g>
	<g>
		<path class="st13" d="M38.6,59.6h-8.1c-0.3,0-0.5,0.2-0.5,0.5v8.2c0,0.3,0.2,0.5,0.5,0.5h8.1c0.3,0,0.5-0.2,0.5-0.5v-8.2
			C39.1,59.8,38.9,59.6,38.6,59.6z M32.9,64.1l-0.1,3.3c0,0.3-0.3,0.5-0.6,0.5H32c-0.3,0-0.6-0.2-0.6-0.5l-0.1-3.3
			c0-0.3,0.2-0.5,0.5-0.5h0.5C32.7,63.6,32.9,63.8,32.9,64.1z M32.1,63.2c-0.5,0-0.8-0.4-0.8-0.8c0-0.5,0.4-0.8,0.8-0.8
			c0.5,0,0.8,0.4,0.8,0.8C32.9,62.8,32.6,63.2,32.1,63.2z M35.4,64.1l-0.1,3.3c0,0.3-0.3,0.5-0.6,0.5h-0.2c-0.3,0-0.6-0.2-0.6-0.5
			l-0.1-3.3c0-0.3,0.2-0.5,0.5-0.5h0.5C35.2,63.6,35.4,63.8,35.4,64.1z M34.6,63.2c-0.5,0-0.8-0.4-0.8-0.8c0-0.5,0.4-0.8,0.8-0.8
			c0.5,0,0.8,0.4,0.8,0.8C35.4,62.8,35,63.2,34.6,63.2z M37.9,64.1l-0.1,3.3c0,0.3-0.3,0.5-0.6,0.5H37c-0.3,0-0.6-0.2-0.6-0.5
			l-0.1-3.3c0-0.3,0.2-0.5,0.5-0.5h0.5C37.6,63.6,37.9,63.8,37.9,64.1z M37.1,63.2c-0.5,0-0.8-0.4-0.8-0.8c0-0.5,0.4-0.8,0.8-0.8
			c0.5,0,0.8,0.4,0.8,0.8C37.9,62.8,37.5,63.2,37.1,63.2z"/>
		<g>
			<polygon class="st13" points="32.1,58.8 32.1,56.6 31.5,57.3 30.8,56.6 32.6,54.8 32.7,54.9 34.3,56.6 33.7,57.3 33.1,56.6 
				33.1,58.8 			"/>
			<polygon class="st13" points="36.5,58.8 34.8,57.1 35.5,56.5 36.1,57.1 36.1,54.9 37.1,54.9 37.1,57.1 37.7,56.5 38.4,57.1 
				36.6,58.9 			"/>
		</g>
	</g>
	<g>
		<path class="st13" d="M190.1,201.9h-9c-0.5,0-1,0.4-1,1v9c0,0.5,0.4,1,1,1h9c0.5,0,1-0.4,1-1v-9
			C191.1,202.3,190.7,201.9,190.1,201.9z M187.3,203.4c0.4,0,0.7,0.3,0.7,0.7s-0.3,0.7-0.7,0.7s-0.7-0.3-0.7-0.7
			S186.9,203.4,187.3,203.4z M183.6,203.4c0.4,0,0.7,0.3,0.7,0.7s-0.3,0.7-0.7,0.7s-0.7-0.3-0.7-0.7S183.2,203.4,183.6,203.4z
			 M184.6,208.1c0,0.1-0.1,0.2-0.2,0.2l-0.3,0.1L184,211c0,0.1-0.2,0.3-0.3,0.3h-0.2c-0.2,0-0.3-0.1-0.3-0.3l-0.1-2.6l-0.3-0.1
			c-0.1,0-0.2-0.1-0.2-0.2l-0.1-2.7c0-0.2,0.1-0.3,0.3-0.3h1.6c0.2,0,0.3,0.1,0.3,0.3L184.6,208.1z M188.4,208.5h-0.6l-0.2,2.6
			c0,0.1-0.1,0.3-0.3,0.3h-0.1c-0.1,0-0.3-0.1-0.3-0.3l-0.2-2.6h-0.6c-0.2,0-0.4-0.2-0.3-0.4l0.7-1.5v-0.1l-0.3-1.1
			c0-0.1,0.1-0.3,0.2-0.3h1.5c0.1,0,0.3,0.1,0.2,0.3l-0.3,1.1c0,0,0,0,0,0.1l0.7,1.5C188.7,208.3,188.6,208.5,188.4,208.5z"/>
	</g>
	<g>
		<path class="st13" d="M186.8,45.6h-9c-0.5,0-1,0.4-1,1v9c0,0.5,0.4,1,1,1h9c0.5,0,1-0.4,1-1v-9C187.8,46,187.3,45.6,186.8,45.6z
			 M184,47.1c0.4,0,0.7,0.3,0.7,0.7s-0.3,0.7-0.7,0.7s-0.7-0.3-0.7-0.7C183.3,47.4,183.6,47.1,184,47.1z M180.3,47.1
			c0.4,0,0.7,0.3,0.7,0.7s-0.3,0.7-0.7,0.7s-0.7-0.3-0.7-0.7C179.6,47.4,179.9,47.1,180.3,47.1z M181.3,51.8c0,0.1-0.1,0.2-0.2,0.2
			l-0.3,0.1l-0.1,2.6c0,0.1-0.2,0.3-0.3,0.3h-0.2c-0.2,0-0.3-0.1-0.3-0.3l-0.1-2.6l-0.3-0.1c-0.1,0-0.2-0.1-0.2-0.2l-0.1-2.7
			c0-0.2,0.1-0.3,0.3-0.3h1.6c0.2,0,0.3,0.1,0.3,0.3L181.3,51.8z M185.1,52.2h-0.6l-0.2,2.6c0,0.1-0.1,0.3-0.3,0.3l0,0
			c-0.1,0-0.3-0.1-0.3-0.3l-0.2-2.6h-0.6c-0.2,0-0.4-0.2-0.3-0.4l0.7-1.5v-0.1l-0.3-1.1c0-0.1,0.1-0.3,0.2-0.3h1.5
			c0.1,0,0.3,0.1,0.2,0.3l-0.3,1.1c0,0,0,0,0,0.1l0.7,1.5C185.4,52,185.3,52.2,185.1,52.2z"/>
	</g>
	<g>
		<path class="st13" d="M224.5,74.3h-3.1c-0.1,0-0.2,0-0.2,0.1l-2,1.3l0,0l0,0l0,0l0,0l0,0l0,0l0,0l0,0l0,0l0,0l0,0l0,0l0,0l0,0l0,0
			l0,0l0,0l0,0l0,0l0,0l0,0l0,0v1.5l0,0l-2,1.3l0,0l0,0l0,0l0,0l0,0l0,0l0,0l0,0l0,0l0,0l0,0l0,0l0,0l0,0l0,0l0,0l0,0l0,0l0,0l0,0
			l0,0l0,0v1.6l-1.9,1.3l0,0l0,0l0,0l0,0l0,0l0,0l0,0l0,0l0,0l0,0l0,0l0,0l0,0l0,0l0,0l0,0l0,0l0,0l0,0l0,0l0,0l0,0V83l-1.9,1.3l0,0
			l0,0l0,0l0,0l0,0l0,0l0,0l0,0l0,0l0,0l0,0l0,0l0,0l0,0l0,0l0,0l0,0l0,0l0,0l0,0l0,0l0,0v1.9c0,0.2,0.2,0.4,0.4,0.4h11.4
			c0.2,0,0.4-0.2,0.4-0.4v-13C224.9,74.4,224.7,74.3,224.5,74.3z M219.9,76.4h4.2v1.1h-4.2V76.4z M224.1,79.7v1.1h-6.4v-1.1H224.1z
			 M224.1,82.9V84h-8.5v-1.1H224.1z M224.1,87.2h-10.6v-1.1h10.6V87.2z"/>
		<path class="st13" d="M218.8,74.4c-0.2-0.2-0.4-0.2-0.6,0l-9.2,8.4c-0.2,0.2-0.2,0.4,0,0.6c0.1,0.1,0.2,0.1,0.3,0.1s0.2,0,0.3-0.1
			l1.9-1.7v0.8H211c-0.1,0-0.2,0.1-0.2,0.2s0.1,0.2,0.2,0.2h0.8c0.1,0,0.2-0.1,0.2-0.2v-1.5l4.2-3.9v0.9h-0.5
			c-0.1,0-0.3,0.1-0.3,0.3s0.1,0.3,0.3,0.3h0.8c0.1,0,0.3-0.1,0.3-0.3v-1.6l2.1-1.9C218.9,74.8,218.9,74.5,218.8,74.4z"/>
	</g>
	<g>
		<path class="st13" d="M152.2,74.3h-3.1c-0.1,0-0.2,0-0.2,0.1l-2,1.3l0,0l0,0l0,0l0,0l0,0l0,0l0,0l0,0l0,0l0,0l0,0l0,0l0,0l0,0l0,0
			l0,0l0,0l0,0l0,0l0,0l0,0l0,0v1.5l0,0l-2,1.3l0,0l0,0l0,0l0,0l0,0l0,0l0,0l0,0l0,0l0,0l0,0l0,0l0,0l0,0l0,0l0,0l0,0l0,0l0,0l0,0
			l0,0l0,0v1.6l-1.9,1.3l0,0l0,0l0,0l0,0l0,0l0,0l0,0l0,0l0,0l0,0l0,0l0,0l0,0l0,0l0,0l0,0l0,0l0,0l0,0l0,0l0,0l0,0V83l-1.9,1.3l0,0
			l0,0l0,0l0,0l0,0l0,0l0,0l0,0l0,0l0,0l0,0l0,0l0,0l0,0l0,0l0,0l0,0l0,0l0,0l0,0l0,0l0,0v1.9c0,0.2,0.2,0.4,0.4,0.4h11.4
			c0.2,0,0.4-0.2,0.4-0.4v-13C152.6,74.4,152.4,74.3,152.2,74.3z M147.5,76.4h4.2v1.1h-4.2V76.4z M151.8,79.7v1.1h-6.4v-1.1H151.8z
			 M151.8,82.9V84h-8.5v-1.1H151.8z M151.8,87.2h-10.6v-1.1h10.6V87.2z"/>
		<path class="st13" d="M146.5,74.4c-0.2-0.2-0.4-0.2-0.6,0l-9.2,8.4c-0.2,0.2-0.2,0.4,0,0.6c0.1,0.1,0.2,0.1,0.3,0.1s0.2,0,0.3-0.1
			l1.9-1.7v0.8h-0.5c-0.1,0-0.2,0.1-0.2,0.2s0.1,0.2,0.2,0.2h0.8c0.1,0,0.2-0.1,0.2-0.2v-1.5l4.2-3.9v0.9h-0.5
			c-0.1,0-0.3,0.1-0.3,0.3s0.1,0.3,0.3,0.3h0.8c0.1,0,0.3-0.1,0.3-0.3v-1.6l2.1-1.9C146.6,74.8,146.6,74.5,146.5,74.4z"/>
	</g>
	<g>
		<path class="st13" d="M42.5,9.8h-3.1c-0.1,0-0.2,0-0.2,0.1l-2,1.3l0,0l0,0l0,0l0,0l0,0l0,0l0,0l0,0l0,0l0,0l0,0l0,0l0,0l0,0l0,0
			l0,0l0,0l0,0l0,0l0,0l0,0l0,0v1.5l0,0l-2,1.3l0,0l0,0l0,0l0,0l0,0l0,0l0,0l0,0l0,0l0,0l0,0l0,0l0,0l0,0l0,0l0,0l0,0l0,0l0,0l0,0
			l0,0l0,0v1.6L33,17.7l0,0l0,0l0,0l0,0l0,0l0,0l0,0l0,0l0,0l0,0l0,0l0,0l0,0l0,0l0,0l0,0l0,0l0,0l0,0l0,0l0,0l0,0v1.6l-1.9,1.3l0,0
			l0,0l0,0l0,0l0,0l0,0l0,0l0,0l0,0l0,0l0,0l0,0l0,0l0,0l0,0l0,0l0,0l0,0l0,0l0,0l0,0l0,0v1.9c0,0.2,0.2,0.4,0.4,0.4h11.4
			c0.2,0,0.4-0.2,0.4-0.4v-13C42.9,9.9,42.8,9.8,42.5,9.8z M37.9,11.9h4.2V13h-4.2V11.9z M42.1,15.2v1.1h-6.4v-1.1
			C35.7,15.2,42.1,15.2,42.1,15.2z M42.1,18.4v1.1h-8.5v-1.1H42.1z M42.1,22.7H31.5v-1.1h10.6V22.7z"/>
		<path class="st13" d="M36.8,9.9c-0.2-0.2-0.4-0.2-0.6,0L27,18.3c-0.2,0.2-0.2,0.4,0,0.6c0.1,0.1,0.2,0.1,0.3,0.1
			c0.1,0,0.2,0,0.3-0.1l1.9-1.7V18H29c-0.1,0-0.2,0.1-0.2,0.2s0.1,0.2,0.2,0.2h0.8c0.1,0,0.2-0.1,0.2-0.2v-1.5l4.2-3.9v0.9h-0.5
			c-0.1,0-0.3,0.1-0.3,0.3s0.1,0.3,0.3,0.3h0.8c0.1,0,0.3-0.1,0.3-0.3v-1.6l2.1-1.9C37,10.3,37,10,36.8,9.9z"/>
	</g>
	<g>
		<path class="st13" d="M223.2,185.5h-3.1c-0.1,0-0.2,0-0.2,0.1l-2,1.3l0,0l0,0l0,0l0,0l0,0l0,0l0,0l0,0l0,0l0,0l0,0l0,0l0,0l0,0
			l0,0l0,0l0,0l0,0l0,0l0,0l0,0l0,0v1.5l0,0l-2,1.3l0,0l0,0l0,0l0,0l0,0l0,0l0,0l0,0l0,0l0,0l0,0l0,0l0,0l0,0l0,0l0,0l0,0l0,0l0,0
			l0,0l0,0l0,0v1.6l-1.9,1.3l0,0l0,0l0,0l0,0l0,0l0,0l0,0l0,0l0,0l0,0l0,0l0,0l0,0l0,0l0,0l0,0l0,0l0,0l0,0l0,0l0,0l0,0v1.6
			l-1.9,1.3l0,0l0,0l0,0l0,0l0,0l0,0l0,0l0,0l0,0l0,0l0,0l0,0l0,0l0,0l0,0l0,0l0,0l0,0l0,0l0,0l0,0l0,0v1.9c0,0.2,0.2,0.4,0.4,0.4
			h11.4c0.2,0,0.4-0.2,0.4-0.4v-13C223.6,185.7,223.4,185.5,223.2,185.5z M218.5,187.7h4.2v1.1h-4.2V187.7z M222.8,190.9v1.1h-6.4
			v-1.1H222.8z M222.8,194.2v1.1h-8.5v-1.1H222.8z M222.8,198.5h-10.6v-1.1h10.6V198.5z"/>
		<path class="st13" d="M217.5,185.6c-0.2-0.2-0.4-0.2-0.6,0l-9.2,8.4c-0.2,0.2-0.2,0.4,0,0.6c0.1,0.1,0.2,0.1,0.3,0.1
			s0.2,0,0.3-0.1l1.9-1.7v0.8h-0.5c-0.1,0-0.2,0.1-0.2,0.2c0,0.1,0.1,0.2,0.2,0.2h0.8c0.1,0,0.2-0.1,0.2-0.2v-1.5l4.2-3.9v0.9h-0.5
			c-0.1,0-0.3,0.1-0.3,0.3c0,0.1,0.1,0.3,0.3,0.3h0.8c0.1,0,0.3-0.1,0.3-0.3v-1.6l2.1-1.9C217.6,186,217.6,185.8,217.5,185.6z"/>
	</g>
	<g>
		<g>
			<path class="st13" d="M145.8,48.2c0,0.2,0.1,0.3,0.3,0.3h1.7c0.2,0,0.3-0.1,0.3-0.3v-0.4c0-0.2-0.1-0.3-0.3-0.3h-1.7
				c-0.2,0-0.3,0.1-0.3,0.3V48.2z"/>
		</g>
		<g>
			<path class="st13" d="M153.1,44.2h-0.4c-0.2,0-0.3,0.1-0.3,0.3l0,0h-0.7c-0.2-0.3-0.6-0.6-1.1-0.7v-0.3c0,0,0,0,0.1-0.1l1.5,0.1
				c0.2,0,0.3-0.1,0.3-0.3v-0.1c0-0.2-0.1-0.3-0.3-0.3l-1.4,0.1c-0.1-0.2-0.3-0.3-0.5-0.3s-0.4,0.1-0.5,0.3l-1.6-0.1
				c-0.2,0-0.3,0.1-0.3,0.3v0.1c0,0.2,0.1,0.3,0.3,0.3l1.6-0.1l0,0c0,0,0,0.1,0.1,0.1v0.3c-0.4,0.1-0.8,0.3-1.1,0.7H148
				c-1,0-1.8,0.8-1.8,1.8v0.8h1.6v-0.8c0-0.1,0.1-0.2,0.2-0.2h0.8c0.3,0.5,0.9,0.9,1.5,0.9c0.7,0,1.3-0.4,1.5-0.9h0.6l0,0
				c0,0.2,0.1,0.3,0.3,0.3h0.4c0.2,0,0.3-0.1,0.3-0.3v-1.7C153.4,44.3,153.3,44.2,153.1,44.2z M147.9,45.1c-0.6,0-1.1,0.5-1.1,1.1
				c0,0.1-0.1,0.1-0.1,0.1l-0.1-0.1c0-0.4,0.1-0.7,0.4-1c0.3-0.3,0.6-0.4,1-0.4c0.1,0,0.1,0.1,0.1,0.1C148,45.1,148,45.1,147.9,45.1
				z"/>
		</g>
		<g>
			<path class="st13" d="M146.7,55.1c-0.4,0-0.8-0.3-0.9-0.6c-0.6,0-1.1-0.1-1.2-0.5c0-0.1,0-0.3,0.1-0.4c-0.5-0.2-0.8-0.6-0.8-1
				c0-0.3,0.2-0.5,0.6-0.6c0.2-0.1,0.4-0.1,0.6-0.1c0-0.1,0-0.2,0-0.3c0.1-0.2,0.4-0.4,0.7-0.3V49c0-0.1,0.1-0.2,0.2-0.2
				s0.2,0.1,0.2,0.2v2.4c0,0.1,0,0.1-0.1,0.2c-0.1,0-0.1,0-0.2,0c-0.3-0.1-0.5,0-0.5,0s0,0.1,0.1,0.2c0.1,0.1,0.1,0.2,0,0.2
				c0,0.1-0.1,0.1-0.2,0.1c-0.6-0.1-1.1,0.1-1.1,0.3s0.3,0.5,0.8,0.7c0.1,0,0.1,0.1,0.1,0.2c0,0.1,0,0.1-0.1,0.2
				c-0.1,0.1-0.2,0.2-0.2,0.3s0.4,0.3,0.9,0.2c0.1,0,0.1,0,0.2,0l0.1,0.1c0,0.3,0.3,0.5,0.5,0.5s0.4-0.1,0.5-0.3
				c0-0.1,0.1-0.1,0.1-0.1c0.1,0,0.1,0,0.2,0c0.1,0,0.1,0.1,0.2,0.1c0.2,0.1,0.5,0.1,0.7,0.1c0.1,0,0.3-0.1,0.3-0.2
				c0-0.1,0-0.2,0-0.3s0-0.1,0-0.2c0-0.1,0.1-0.1,0.1-0.1c0.4-0.1,0.6-0.3,0.6-0.3c0-0.1-0.2-0.3-0.7-0.3c-0.1,0-0.1-0.1-0.2-0.2
				c0-0.1,0-0.2,0.1-0.2c0.3-0.2,0.5-0.5,0.4-0.6c-0.1-0.2-0.6-0.3-1.2-0.1c-0.1,0-0.1,0-0.2,0c-0.1,0-0.1-0.1-0.1-0.2V49
				c0-0.1,0.1-0.2,0.2-0.2s0.2,0.1,0.2,0.2v2.4c0.7-0.2,1.3,0,1.4,0.5c0.1,0.3,0,0.6-0.2,0.9c0.4,0.1,0.6,0.4,0.6,0.6
				c0,0.3-0.3,0.6-0.7,0.7c0,0.1,0,0.3,0,0.4c-0.1,0.2-0.3,0.4-0.6,0.5s-0.6,0-0.9-0.1h-0.1C147.3,55,147,55.1,146.7,55.1z"/>
		</g>
		<g>
			<path class="st13" d="M151,52.5c-0.5,0-0.8-0.4-0.8-0.8c0-0.5,0.4-0.8,0.8-0.8s0.8,0.4,0.8,0.8S151.5,52.5,151,52.5z M151,51.2
				c-0.3,0-0.5,0.2-0.5,0.5s0.2,0.5,0.5,0.5s0.5-0.2,0.5-0.5S151.3,51.2,151,51.2z"/>
		</g>
		<g>
			<path class="st13" d="M150,55.2c-0.3,0-0.5-0.2-0.5-0.5s0.2-0.5,0.5-0.5s0.5,0.2,0.5,0.5S150.3,55.2,150,55.2z M150,54.5
				c-0.1,0-0.2,0.1-0.2,0.2c0,0.1,0.1,0.2,0.2,0.2c0.1,0,0.2-0.1,0.2-0.2S150.2,54.5,150,54.5z"/>
		</g>
		<g>
			<path class="st13" d="M142.7,53.4c-0.4,0-0.7-0.3-0.7-0.7s0.3-0.7,0.7-0.7s0.7,0.3,0.7,0.7S143.1,53.4,142.7,53.4z M142.7,52.3
				c-0.2,0-0.4,0.2-0.4,0.4s0.2,0.4,0.4,0.4s0.4-0.2,0.4-0.4C143.2,52.5,143,52.3,142.7,52.3z"/>
		</g>
		<g>
			<path class="st13" d="M143.7,51c-0.3,0-0.5-0.2-0.5-0.5s0.2-0.5,0.5-0.5s0.5,0.2,0.5,0.5C144.1,50.8,143.9,51,143.7,51z
				 M143.7,50.3c-0.1,0-0.2,0.1-0.2,0.2s0.1,0.2,0.2,0.2c0.1,0,0.2-0.1,0.2-0.2S143.8,50.3,143.7,50.3z"/>
		</g>
		<g>
			<path class="st13" d="M144.9,55.6c-0.2,0-0.4-0.2-0.4-0.4s0.2-0.4,0.4-0.4s0.4,0.2,0.4,0.4C145.3,55.5,145.1,55.6,144.9,55.6z
				 M144.9,55.1c-0.1,0-0.1,0.1-0.1,0.1l0.1,0.1c0.1,0,0.1-0.1,0.1-0.1S145,55.1,144.9,55.1z"/>
		</g>
	</g>
</g>
<text transform="matrix(1 0 0 1 50.3333 23.3734)"><tspan x="0" y="0" class="st14 st15">ロボット展示</tspan><tspan x="-4.1" y="3.5" class="st14 st15">３Dプリンター展示</tspan><tspan x="-4.1" y="7" class="st14 st15">３DCADの操作体験</tspan></text>
<text transform="matrix(1 0 0 1 85 23.3734)" class="st14 st15">喫茶店</text>
<text transform="matrix(1 0 0 1 116.35 23.3734)" class="st14 st15">神社</text>
<text transform="matrix(1 0 0 1 148.7 23.3734)" class="st14 st15">カジノ</text>
<text transform="matrix(1 0 0 1 138.8058 198.5833)"><tspan x="0" y="0" class="st14 st15">県内工業高校</tspan><tspan x="4.5" y="3.5" class="st14 st15">建設科</tspan><tspan x="1.5" y="7" class="st14 st15">デザイン科</tspan><tspan x="3" y="10.5" class="st14 st15">作品展示</tspan></text>
<text transform="matrix(1 0 0 1 237.4501 202.7277)" class="st14 st15">作品販売・作品展示</text>
</svg>
