<?xml version="1.0" encoding="utf-8"?>
<!-- Generator: Adobe Illustrator 22.1.0, SVG Export Plug-In . SVG Version: 6.00 Build 0)  -->
<svg version="1.1" id="_F-7" xmlns="http://www.w3.org/2000/svg" xmlns:xlink="http://www.w3.org/1999/xlink" x="0px" y="0px"
	 viewBox="0 0 338.8 261" style="enable-background:new 0 0 338.8 261;" xml:space="preserve">
<style type="text/css">
	.st0{fill:#F7F6F5;stroke:#002355;stroke-width:0.5;stroke-miterlimit:10;}
	.st1{fill:none;stroke:#A0A0A0;stroke-width:0.5;stroke-miterlimit:10;}
	.st2{fill:#FFFFFF;stroke:#002355;stroke-width:0.5;stroke-miterlimit:10;}
	.st3{fill:none;stroke:#002355;stroke-width:0.5;stroke-miterlimit:10;}
	.st4{fill:#2AFCFF;stroke:#002355;stroke-width:0.5;stroke-miterlimit:10;}
	.st5{fill:#EAE1CF;stroke:#002355;stroke-width:0.5;stroke-miterlimit:10;}
	.st6{fill:#FAFDFF;stroke:#002355;stroke-width:0.5;stroke-miterlimit:10;}
	.st7{fill:#0A0A0A;}
	.st8{font-family:'HiraginoSans-W5-83pv-RKSJ-H';}
	.st9{font-size:6px;}
	.st10{font-size:5.9px;}
	.st11{font-size:5.6px;}
	.st12{fill:#323232;}
	.st13{font-size:5.5px;}
	.st14{fill:#686868;}
	.st15{font-size:7px;}
	.st16{fill:none;stroke:#002355;stroke-width:0.25;stroke-miterlimit:10;}
	.st17{font-size:9px;}
	.st18{stroke:#002355;stroke-width:0.25;stroke-miterlimit:10;}
</style>
<g id="_地-7">
	<g>
		<path class="st0" d="M230.5,186.8V5.7h-38.1v7.4h-19.8V5.7h-37.8l0,0H24.3v65h110.2v172.4h69.3v-15.8h26.6v19.9
			c0,0,17.6,6.4,53.2,6.4c38.4,0,50.2-6.4,50.2-6.4v-60.3L230.5,186.8L230.5,186.8z M192.1,167.9H173V92.2h19.1V167.9z"/>
		<g>
			<line class="st1" x1="191.8" y1="92.2" x2="172.8" y2="167.8"/>
			<line class="st1" x1="172.8" y1="92.2" x2="191.8" y2="167.8"/>
		</g>
	</g>
</g>
<g id="_棟-11">
	<path class="st2" d="M333.9,227.3H230.4l-0.1,19.9c0,0,17.6,6.4,53.2,6.4c38.4,0,50.2-6.4,50.2-6.4L333.9,227.3L333.9,227.3z"/>
	<rect x="230.5" y="186.7" class="st2" width="103.4" height="29.6"/>
	<line class="st3" x1="283.9" y1="227.3" x2="283.9" y2="253.2"/>
	<line class="st3" x1="283.9" y1="186.4" x2="283.9" y2="216.4"/>
</g>
<rect x="134.4" y="5.7" class="st4" width="38.3" height="26.8"/>
<rect x="134.5" y="56.8" class="st5" width="26.5" height="13.9"/>
<rect x="203.7" y="201.3" class="st5" width="26.8" height="15"/>
<rect x="134.5" y="136.8" class="st2" width="26.8" height="43.2"/>
<rect x="134.5" y="180.1" class="st4" width="26.8" height="62.9"/>
<rect x="203.6" y="5.7" class="st2" width="26.8" height="54.2"/>
<rect x="203.6" y="60" class="st2" width="26.8" height="10.7"/>
<rect x="134.5" y="106.3" class="st2" width="26.8" height="30.5"/>
<rect x="134.5" y="92.2" class="st2" width="26.8" height="14.1"/>
<rect x="172.4" y="43.9" class="st5" width="19.8" height="26.8"/>
<line class="st3" x1="160.9" y1="56.7" x2="160.9" y2="44"/>
<rect x="203.6" y="92.2" class="st2" width="26.9" height="65.1"/>
<line class="st3" x1="203.5" y1="124.7" x2="206.5" y2="124.7"/>
<line class="st3" x1="227.2" y1="124.7" x2="230.2" y2="124.7"/>
<line class="st3" x1="203.4" y1="183" x2="230.4" y2="183"/>
<rect x="172.4" y="180.2" class="st6" width="19.8" height="17.3"/>
<rect x="172.4" y="197.4" class="st5" width="19.8" height="19"/>
<line class="st3" x1="179.3" y1="216.4" x2="179.3" y2="197.4"/>
<rect x="75" y="5.7" class="st4" width="29.7" height="26.8"/>
<rect x="104.6" y="5.7" class="st4" width="29.7" height="26.8"/>
<rect x="45.4" y="5.7" class="st4" width="29.7" height="26.7"/>
<rect x="45.2" y="43.9" class="st2" width="89.2" height="26.8"/>
<line class="st3" x1="104.7" y1="43.9" x2="104.7" y2="70.8"/>
<line class="st3" x1="75" y1="43.9" x2="75" y2="70.9"/>
<rect x="24.3" y="54" class="st6" width="20.9" height="16.7"/>
<g>
	<path class="st7" d="M113.6,19.9l-0.6,1.8h-0.8l1.9-5.7h0.9l2,5.7h-0.8l-0.6-1.8H113.6z M115.5,19.3l-0.6-1.6
		c-0.1-0.4-0.2-0.7-0.3-1l0,0c-0.1,0.3-0.2,0.7-0.3,1l-0.6,1.7h1.8V19.3z"/>
	<path class="st7" d="M117.8,20.9c0.2,0.1,0.7,0.3,1.2,0.3c1,0,1.3-0.6,1.2-1.1c0-0.8-0.7-1.1-1.4-1.1h-0.4v-0.6h0.4
		c0.5,0,1.2-0.3,1.2-0.9c0-0.4-0.3-0.8-1-0.8c-0.4,0-0.9,0.2-1.1,0.4l-0.2-0.5c0.3-0.2,0.9-0.4,1.4-0.4c1.1,0,1.6,0.6,1.6,1.3
		c0,0.6-0.3,1.1-1,1.3l0,0c0.7,0.1,1.2,0.6,1.2,1.4c0,0.9-0.7,1.7-2,1.7c-0.6,0-1.2-0.2-1.4-0.4L117.8,20.9L117.8,20.9z"/>
	<path class="st7" d="M121.9,21.7v-0.5l0.6-0.6c1.4-1.3,2.1-2.1,2.1-2.9c0-0.6-0.3-1.1-1.1-1.1c-0.5,0-0.9,0.3-1.2,0.5l-0.2-0.5
		c0.4-0.3,0.9-0.6,1.6-0.6c1.2,0,1.7,0.8,1.7,1.6c0,1-0.7,1.9-1.9,3l-0.4,0.4l0,0h2.5v0.6L121.9,21.7L121.9,21.7z"/>
</g>
<g>
	<path class="st7" d="M148.8,19.9l-0.6,1.8h-0.8l1.9-5.7h0.9l2,5.7h-0.8l-0.6-1.8H148.8z M150.7,19.3l-0.6-1.6
		c-0.1-0.4-0.2-0.7-0.3-1l0,0c-0.1,0.3-0.2,0.7-0.3,1l-0.6,1.7h1.8L150.7,19.3L150.7,19.3z"/>
	<path class="st7" d="M153,20.9c0.2,0.1,0.7,0.3,1.2,0.3c1,0,1.3-0.6,1.2-1.1c0-0.8-0.7-1.1-1.4-1.1h-0.4v-0.6h0.4
		c0.5,0,1.2-0.3,1.2-0.9c0-0.4-0.3-0.8-1-0.8c-0.4,0-0.9,0.2-1.1,0.4l-0.2-0.5c0.3-0.2,0.9-0.4,1.4-0.4c1.1,0,1.6,0.6,1.6,1.3
		c0,0.6-0.3,1.1-1,1.3l0,0c0.7,0.1,1.2,0.6,1.2,1.4c0,0.9-0.7,1.7-2,1.7c-0.6,0-1.2-0.2-1.4-0.4L153,20.9L153,20.9z"/>
	<path class="st7" d="M158.8,16.9L158.8,16.9l-1,0.5l-0.1-0.6l1.2-0.6h0.6v5.5h-0.7V16.9L158.8,16.9z"/>
</g>
<text transform="matrix(1 0 0 1 47.919 56.003)" class="st7 st8 st9">音響計測</text>
<text transform="matrix(1 0 0 1 51.075 63.203)" class="st7 st8 st9">実</text>
<text transform="matrix(1 0 0 1 56.907 63.203)" class="st7 st8 st9">習</text>
<text transform="matrix(1 0 0 1 62.764 63.203)" class="st7 st8 st9">室</text>
<text transform="matrix(1 0 0 1 77.922 55.989)" class="st7 st8 st9">日</text>
<text transform="matrix(1 0 0 1 83.67 55.989)" class="st7 st8 st9">照採光</text>
<text transform="matrix(1 0 0 1 81.075 63.189)" class="st7 st8 st9">実</text>
<text transform="matrix(1 0 0 1 86.907 63.189)" class="st7 st8 st9">習</text>
<text transform="matrix(1 0 0 1 92.764 63.189)" class="st7 st8 st9">室</text>
<text transform="matrix(1 0 0 1 107.655 55.989)" class="st7 st8 st9">環境計測</text>
<text transform="matrix(1 0 0 1 110.811 63.189)" class="st7 st8 st9">実</text>
<text transform="matrix(1 0 0 1 116.643 63.189)" class="st7 st8 st9">習</text>
<text transform="matrix(1 0 0 1 122.5 63.189)" class="st7 st8 st9">室</text>
<text transform="matrix(1 0 0 1 207.973 32.68)" class="st7 st8 st9">建設科</text>
<text transform="matrix(1 0 0 1 208.072 39.88)" class="st7 st8 st9">職員</text>
<text transform="matrix(1 0 0 1 219.873 39.88)" class="st7 st8 st9">室</text>
<text transform="matrix(1 0 0 1 208.013 67.612)" class="st7 st8 st10">印刷室</text>
<text transform="matrix(1 0 0 1 138.849 116.622)" class="st7 st8 st9">英語科</text>
<text transform="matrix(1 0 0 1 139.005 123.822)" class="st7 st8 st9">学</text>
<text transform="matrix(1 0 0 1 144.837 123.822)" class="st7 st8 st9">習</text>
<text transform="matrix(1 0 0 1 150.694 123.822)" class="st7 st8 st9">室</text>
<text transform="matrix(1 0 0 1 139.534 131.022)" class="st7 st8 st9">(定時)</text>
<text transform="matrix(1 0 0 1 135.599 157.874)" class="st7 st8 st11">デ</text>
<text transform="matrix(1 0 0 1 140.42 157.874)" class="st7 st8 st11">ザ</text>
<text transform="matrix(1 0 0 1 144.991 157.874)" class="st7 st8 st11">イ</text>
<text transform="matrix(1 0 0 1 149.353 157.874)" class="st7 st8 st11">ン</text>
<text transform="matrix(1 0 0 1 154.146 157.874)" class="st7 st8 st11">科</text>
<text transform="matrix(1 0 0 1 140.2 164.306)" class="st7 st8 st9">PC</text>
<text transform="matrix(1 0 0 1 149.308 165.026)" class="st7 st8 st9">室</text>
<text transform="matrix(1 0 0 1 141.769 98.341)" class="st7 st8 st9">P</text>
<text transform="matrix(1 0 0 1 145.915 98.341)" class="st7 st8 st9">T</text>
<text transform="matrix(1 0 0 1 149.347 98.341)" class="st7 st8 st9">A</text>
<text transform="matrix(1 0 0 1 138.91 104.341)" class="st7 st8 st9">会議室</text>
<text transform="matrix(1 0 0 1 245.324 196.561)" class="st7 st8 st9">設計製図</text>
<text transform="matrix(1 0 0 1 248.48 203.761)" class="st7 st8 st9">実</text>
<text transform="matrix(1 0 0 1 254.312 203.761)" class="st7 st8 st9">習</text>
<text transform="matrix(1 0 0 1 260.169 203.761)" class="st7 st8 st9">室</text>
<text transform="matrix(1 0 0 1 249.938 210.961)" class="st7 st8 st9">(3年)</text>
<text transform="matrix(1 0 0 1 210.017 123.246)" class="st7 st8 st9">CAD</text>
<text transform="matrix(1 0 0 1 208.214 130.446)" class="st7 st8 st9">実</text>
<text transform="matrix(1 0 0 1 214.046 130.446)" class="st7 st8 st9">習</text>
<text transform="matrix(1 0 0 1 219.903 130.446)" class="st7 st8 st9">室</text>
<text transform="matrix(1 0 0 1 245.324 234.978)" class="st7 st8 st9">設計製図</text>
<text transform="matrix(1 0 0 1 248.48 242.178)" class="st7 st8 st9">実</text>
<text transform="matrix(1 0 0 1 254.312 242.178)" class="st7 st8 st9">習</text>
<text transform="matrix(1 0 0 1 260.169 242.178)" class="st7 st8 st9">室</text>
<text transform="matrix(1 0 0 1 249.938 249.378)" class="st7 st8 st9">(2年)</text>
<text transform="matrix(1 0 0 1 296.37 200.173)" class="st7 st8 st9">建築工作</text>
<text transform="matrix(1 0 0 1 299.526 207.373)" class="st7 st8 st9">実</text>
<text transform="matrix(1 0 0 1 305.358 207.373)" class="st7 st8 st9">習</text>
<text transform="matrix(1 0 0 1 311.215 207.373)" class="st7 st8 st9">室</text>
<text transform="matrix(1 0 0 1 287.54 242.175)" class="st7 st8 st9">課題研究</text>
<text transform="matrix(1 0 0 1 311.54 242.175)" class="st7 st8 st9">実</text>
<text transform="matrix(1 0 0 1 317.372 242.175)" class="st7 st8 st9">習</text>
<text transform="matrix(1 0 0 1 323.228 242.175)" class="st7 st8 st9">室</text>
<text transform="matrix(1 0 0 1 199.187 172.914)" class="st7 st8 st9">展</text>
<text transform="matrix(1 0 0 1 205.187 172.914)" class="st7 st8 st9">示</text>
<text transform="matrix(1 0 0 1 211.067 172.914)" class="st7 st8 st9">ホ</text>
<text transform="matrix(1 0 0 1 216.941 172.914)" class="st7 st8 st9">ー</text>
<text transform="matrix(1 0 0 1 222.624 172.914)" class="st7 st8 st9">ル</text>
<g>
	<path d="M274.1,68.1v3l-8,16.5H261l8-15.5V72h-8.9v-3.9H274.1L274.1,68.1z"/>
	<path d="M278.6,74.2h8.3v2.6h-5.2v2.9h4.8v2.6h-4.8v5.3h-3.2L278.6,74.2L278.6,74.2z"/>
</g>
<text transform="matrix(1 0 0 1 205.704 110.824)" class="st12 st8 st13">A室</text>
<text transform="matrix(1 0 0 1 205.834 145.432)" class="st12 st8 st13">B室</text>
<g id="_クトグラム-7">
	<g>
		<g>
			<path class="st14" d="M33.6,62c0,0.3-0.3,0.6-0.6,0.6s-0.6-0.2-0.6-0.6s0.3-0.6,0.6-0.6S33.6,61.7,33.6,62z"/>
			<path class="st14" d="M33,62.6c-0.4,0-1.3,0-1.3,0.8v1.8c0,0.1,0.1,0.2,0.2,0.2c0.1,0,0.2-0.1,0.2-0.2l0.1-1.1l0.1,4.1
				c0,0.2,0.1,0.3,0.3,0.3s0.3-0.1,0.3-0.3l0.1-2.5l0.1,2.5c0,0.2,0.1,0.3,0.3,0.3s0.3-0.1,0.3-0.3l0.1-4.1l0.1,1.1
				c0,0.1,0.1,0.2,0.2,0.2c0.1,0,0.2-0.1,0.2-0.2v-1.8C34.4,62.7,33.4,62.6,33,62.6L33,62.6z"/>
		</g>
		<g>
			<path class="st14" d="M37,62c0,0.3-0.3,0.6-0.6,0.6s-0.6-0.2-0.6-0.6s0.3-0.6,0.6-0.6S37,61.7,37,62z"/>
			<path class="st14" d="M36.5,62.6c-0.4,0-1.3,0-1.3,0.8v1.8c0,0.1,0.1,0.2,0.2,0.2c0.1,0,0.2-0.1,0.2-0.2l0.1-1.1l0.1,4.1
				c0,0.2,0.1,0.3,0.3,0.3s0.3-0.1,0.3-0.3l0.1-2.5l0.1,2.5c0,0.2,0.1,0.3,0.3,0.3s0.3-0.1,0.3-0.3l0.1-4.1l0.1,1.1
				c0,0.1,0.1,0.2,0.2,0.2c0.1,0,0.2-0.1,0.2-0.2v-1.8C37.8,62.7,36.9,62.6,36.5,62.6L36.5,62.6z"/>
		</g>
		<path class="st14" d="M38.5,68.9H31c-0.6,0-1-0.5-1-1v-7.7c0-0.6,0.5-1,1-1h7.4c0.6,0,1,0.5,1,1v7.7C39.5,68.5,39,68.9,38.5,68.9z
			 M31,59.8c-0.2,0-0.4,0.2-0.4,0.4v7.7c0,0.2,0.2,0.4,0.4,0.4h7.4c0.2,0,0.4-0.2,0.4-0.4v-7.7c0-0.2-0.2-0.4-0.4-0.4
			C38.5,59.8,31,59.8,31,59.8z"/>
		<path class="st14" d="M38.1,57.2L36.8,56l0,0l-0.2-0.2L36.4,56l0,0l-1.3,1.2c-0.1,0.1-0.1,0.3,0,0.4s0.3,0.1,0.4,0l0.8-0.8v1.7
			c0,0.2,0.1,0.3,0.3,0.3s0.3-0.1,0.3-0.3v-1.7l0.8,0.8c0.1,0.1,0.1,0.1,0.2,0.1s0.1,0,0.2-0.1C38.2,57.4,38.2,57.3,38.1,57.2
			L38.1,57.2z"/>
		<path class="st14" d="M34.5,57.1c-0.1-0.1-0.3-0.1-0.4,0l-0.8,0.8v-1.7c0-0.2-0.1-0.3-0.3-0.3s-0.3,0.1-0.3,0.3v1.7l-0.8-0.8
			c-0.1-0.1-0.3-0.1-0.4,0s-0.1,0.3,0,0.4l1.3,1.2l0,0l0.2,0.2l0.2-0.2l0,0l1.3-1.2C34.6,57.4,34.6,57.2,34.5,57.1L34.5,57.1z"/>
	</g>
	<g>
		<g>
			<path class="st14" d="M181.1,188.5c0,0.3-0.3,0.6-0.6,0.6s-0.6-0.2-0.6-0.6s0.3-0.6,0.6-0.6S181.1,188.1,181.1,188.5z"/>
			<path class="st14" d="M180.6,189.1c-0.4,0-1.3,0-1.3,0.8v1.8c0,0.1,0.1,0.2,0.2,0.2c0.1,0,0.2-0.1,0.2-0.2l0.1-1.1l0.1,4.1
				c0,0.2,0.1,0.3,0.3,0.3s0.3-0.1,0.3-0.3l0.1-2.5l0.1,2.5c0,0.2,0.1,0.3,0.3,0.3s0.3-0.1,0.3-0.3l0.1-4.1l0.1,1.1
				c0,0.1,0.1,0.2,0.2,0.2c0.1,0,0.2-0.1,0.2-0.2v-1.8C181.9,189.2,181,189.1,180.6,189.1z"/>
		</g>
		<g>
			<path class="st14" d="M184.6,188.5c0,0.3-0.3,0.6-0.6,0.6s-0.6-0.2-0.6-0.6s0.3-0.6,0.6-0.6S184.6,188.1,184.6,188.5z"/>
			<path class="st14" d="M184,189.1c-0.4,0-1.3,0-1.3,0.8v1.8c0,0.1,0.1,0.2,0.2,0.2c0.1,0,0.2-0.1,0.2-0.2l0.1-1.1l0.1,4.1
				c0,0.2,0.1,0.3,0.3,0.3s0.3-0.1,0.3-0.3l0.1-2.5l0.1,2.5c0,0.2,0.1,0.3,0.3,0.3s0.3-0.1,0.3-0.3l0.1-4.1l0.1,1.1
				c0,0.1,0.1,0.2,0.2,0.2c0.1,0,0.2-0.1,0.2-0.2v-1.8C185.4,189.2,184.4,189.1,184,189.1z"/>
		</g>
		<path class="st14" d="M186,195.4h-7.4c-0.6,0-1-0.5-1-1v-7.7c0-0.6,0.5-1,1-1h7.4c0.6,0,1,0.5,1,1v7.7
			C187.1,195,186.6,195.4,186,195.4z M178.6,186.3c-0.2,0-0.4,0.2-0.4,0.4v7.7c0,0.2,0.2,0.4,0.4,0.4h7.4c0.2,0,0.4-0.2,0.4-0.4
			v-7.7c0-0.2-0.2-0.4-0.4-0.4H178.6z"/>
		<path class="st14" d="M185.7,183.7l-1.3-1.2l0,0l-0.2-0.2l-0.2,0.2l0,0l-1.3,1.2c-0.1,0.1-0.1,0.3,0,0.4s0.3,0.1,0.4,0l0.8-0.8
			v1.7c0,0.2,0.1,0.3,0.3,0.3s0.3-0.1,0.3-0.3v-1.7l0.8,0.8c0.1,0.1,0.1,0.1,0.2,0.1s0.1,0,0.2-0.1
			C185.8,183.9,185.8,183.8,185.7,183.7L185.7,183.7z"/>
		<path class="st14" d="M182,183.6c-0.1-0.1-0.3-0.1-0.4,0l-0.8,0.8v-1.7c0-0.2-0.1-0.3-0.3-0.3s-0.3,0.1-0.3,0.3v1.7l-0.8-0.8
			c-0.1-0.1-0.3-0.1-0.4,0s-0.1,0.3,0,0.4l1.3,1.2l0,0l0.2,0.2l0.2-0.2l0,0l1.3-1.2C182.2,183.9,182.2,183.7,182,183.6L182,183.6z"
			/>
	</g>
	<g transform="translate(176.837 45.554) scale(.046)">
	</g>
	<g transform="translate(180.536 201.669) scale(.046)">
	</g>
	<g transform="translate(140.694 74.486) scale(.061)">
	</g>
	<g transform="translate(209.944 74.486) scale(.061)">
	</g>
	<g transform="translate(209.944 185.11) scale(.061)">
	</g>
	<g transform="translate(27.743 12.208) scale(.061)">
	</g>
</g>
<image style="overflow:visible;enable-background:new    ;" width="239" height="261" xlink:href="4C50DD7504C5533D.png"  transform="matrix(4.227909e-02 0 0 4.227909e-02 177.6228 57.4791)">
</image>
<g transform="translate(176.757 45.475) scale(.046)">
	
		<image style="overflow:visible;enable-background:new    ;" width="239" height="261" id="image_3_" xlink:href="4C50DD7504C5533F.png"  transform="matrix(4.227909e-02 0 0 4.227909e-02 177.6228 44.5201)">
	</image>
</g>
<image style="overflow:visible;enable-background:new    ;" width="261" height="239" xlink:href="4C50DD7504C5533A.png"  transform="matrix(4.227909e-02 0 0 4.227909e-02 142.7648 44.6311)">
</image>
<g transform="translate(180.456 201.59) scale(.046)">
	
		<image style="overflow:visible;enable-background:new    ;" width="239" height="261" id="image_1_" xlink:href="4C50DD7504C5533B.png"  transform="matrix(4.227909e-02 0 0 4.227909e-02 181.3218 200.6351)">
	</image>
</g>
<g transform="translate(140.614 74.407) scale(.061)">
	
		<image style="overflow:visible;enable-background:new    ;" width="246" height="246" id="image-2_7_" xlink:href="4C50DD7504C55345.png"  transform="matrix(5.703252e-02 0 0 5.703252e-02 141.2422 73.6795)">
	</image>
</g>
<g transform="translate(209.864 74.407) scale(.061)">
	
		<image style="overflow:visible;enable-background:new    ;" width="246" height="246" id="image-2_6_" xlink:href="4C50DD7504C55347.png"  transform="matrix(5.703252e-02 0 0 5.703252e-02 210.4922 73.6795)">
	</image>
</g>
<g transform="translate(209.864 185.031) scale(.061)">
	
		<image style="overflow:visible;enable-background:new    ;" width="246" height="246" id="image-2_5_" xlink:href="4C50DD7504C5534A.png"  transform="matrix(5.703252e-02 0 0 5.703252e-02 210.4922 184.3035)">
	</image>
</g>
<g transform="translate(27.663 12.129) scale(.061)">
	
		<image style="overflow:visible;enable-background:new    ;" width="246" height="246" id="image-2_1_" xlink:href="4C50DD7504C5534B.png"  transform="matrix(5.703252e-02 0 0 5.703252e-02 28.2912 11.4015)">
	</image>
</g>
<text transform="matrix(1 0 0 1 81.075 21.4315)" class="st8 st15">A１１</text>
<text transform="matrix(1 0 0 1 81.075 21.4315)" class="st16 st8 st15">A１１</text>
<text transform="matrix(1 0 0 1 46.919 22.4315)" class="st8 st17">料理部</text>
<text transform="matrix(1 0 0 1 139.0049 208.7999)"><tspan x="0" y="0" class="st18 st8 st17">A科</tspan><tspan x="0" y="10.8" class="st18 st8 st17">科展</tspan></text>
</svg>
