<?xml version="1.0" encoding="utf-8"?>
<!-- Generator: Adobe Illustrator 22.1.0, SVG Export Plug-In . SVG Version: 6.00 Build 0)  -->
<svg version="1.1" id="_F-7" xmlns="http://www.w3.org/2000/svg" xmlns:xlink="http://www.w3.org/1999/xlink" x="0px" y="0px"
	 viewBox="0 0 338.8 261" style="enable-background:new 0 0 338.8 261;" xml:space="preserve">
<style type="text/css">
	.st0{fill:#F7F6F5;stroke:#002355;stroke-width:0.5;stroke-miterlimit:10;}
	.st1{fill:none;stroke:#A0A0A0;stroke-width:0.5;stroke-miterlimit:10;}
	.st2{fill:#FFFFFF;stroke:#002355;stroke-width:0.5;stroke-miterlimit:10;}
	.st3{fill:none;stroke:#002355;stroke-width:0.5;stroke-miterlimit:10;}
	.st4{fill:#CCF5FF;stroke:#002355;stroke-width:0.5;stroke-miterlimit:10;}
	.st5{fill:#EAE1CF;stroke:#002355;stroke-width:0.5;stroke-miterlimit:10;}
	.st6{fill:#FAFDFF;stroke:#002355;stroke-width:0.5;stroke-miterlimit:10;}
	.st7{fill:#0A0A0A;}
	.st8{font-family:'HiraginoSans-W5-83pv-RKSJ-H';}
	.st9{font-size:6px;}
	.st10{font-size:5.9px;}
	.st11{font-size:5.6px;}
	.st12{fill:#323232;}
	.st13{font-size:5.5px;}
	.st14{fill:#333333;}
	.st15{font-family:'KozGoPr6N-Regular-83pv-RKSJ-H';}
	.st16{font-size:3px;}
</style>
<g id="_地-7">
	<g>
		<path class="st0" d="M230.5,186.8V5.7h-38.1v7.4h-19.8V5.7h-37.8l0,0H24.3v65h110.2v172.4h69.3v-15.8h26.6v19.9
			c0,0,17.6,6.4,53.2,6.4c38.4,0,50.2-6.4,50.2-6.4v-60.3L230.5,186.8L230.5,186.8z M192.1,167.9H173V92.2h19.1V167.9z"/>
		<g>
			<line class="st1" x1="191.8" y1="92.2" x2="172.8" y2="167.8"/>
			<line class="st1" x1="172.8" y1="92.2" x2="191.8" y2="167.8"/>
		</g>
	</g>
</g>
<g id="_棟-11">
	<path class="st2" d="M333.9,227.3H230.4l-0.1,19.9c0,0,17.6,6.4,53.2,6.4c38.4,0,50.2-6.4,50.2-6.4L333.9,227.3L333.9,227.3z"/>
	<rect x="230.5" y="186.7" class="st2" width="103.4" height="29.6"/>
	<line class="st3" x1="283.9" y1="227.3" x2="283.9" y2="253.2"/>
	<line class="st3" x1="283.9" y1="186.4" x2="283.9" y2="216.4"/>
</g>
<rect x="134.4" y="5.7" class="st4" width="38.3" height="26.8"/>
<rect x="134.5" y="56.8" class="st5" width="26.5" height="13.9"/>
<rect x="203.7" y="201.3" class="st5" width="26.8" height="15"/>
<rect x="134.5" y="136.8" class="st2" width="26.8" height="43.2"/>
<rect x="134.5" y="180.1" class="st4" width="26.8" height="62.9"/>
<rect x="203.6" y="5.7" class="st2" width="26.8" height="54.2"/>
<rect x="203.6" y="60" class="st2" width="26.8" height="10.7"/>
<rect x="134.5" y="106.3" class="st2" width="26.8" height="30.5"/>
<rect x="134.5" y="92.2" class="st2" width="26.8" height="14.1"/>
<rect x="172.4" y="43.9" class="st5" width="19.8" height="26.8"/>
<line class="st3" x1="160.9" y1="56.7" x2="160.9" y2="44"/>
<rect x="203.6" y="92.2" class="st2" width="26.9" height="65.1"/>
<line class="st3" x1="203.5" y1="124.7" x2="206.5" y2="124.7"/>
<line class="st3" x1="227.2" y1="124.7" x2="230.2" y2="124.7"/>
<line class="st3" x1="203.4" y1="183" x2="230.4" y2="183"/>
<rect x="172.4" y="180.2" class="st6" width="19.8" height="17.3"/>
<rect x="172.4" y="197.4" class="st5" width="19.8" height="19"/>
<line class="st3" x1="179.3" y1="216.4" x2="179.3" y2="197.4"/>
<rect x="75" y="5.7" class="st4" width="29.7" height="26.8"/>
<rect x="104.6" y="5.7" class="st4" width="29.7" height="26.8"/>
<rect x="45.4" y="5.7" class="st4" width="29.7" height="26.7"/>
<rect x="45.2" y="43.9" class="st2" width="89.2" height="26.8"/>
<line class="st3" x1="104.7" y1="43.9" x2="104.7" y2="70.8"/>
<line class="st3" x1="75" y1="43.9" x2="75" y2="70.9"/>
<rect x="24.3" y="54" class="st6" width="20.9" height="16.7"/>
<text transform="matrix(1 0 0 1 47.919 56.003)" class="st7 st8 st9">音響計測</text>
<text transform="matrix(1 0 0 1 51.075 63.203)" class="st7 st8 st9">実</text>
<text transform="matrix(1 0 0 1 56.907 63.203)" class="st7 st8 st9">習</text>
<text transform="matrix(1 0 0 1 62.764 63.203)" class="st7 st8 st9">室</text>
<text transform="matrix(1 0 0 1 77.922 55.989)" class="st7 st8 st9">日</text>
<text transform="matrix(1 0 0 1 83.67 55.989)" class="st7 st8 st9">照採光</text>
<text transform="matrix(1 0 0 1 81.075 63.189)" class="st7 st8 st9">実</text>
<text transform="matrix(1 0 0 1 86.907 63.189)" class="st7 st8 st9">習</text>
<text transform="matrix(1 0 0 1 92.764 63.189)" class="st7 st8 st9">室</text>
<text transform="matrix(1 0 0 1 107.655 55.989)" class="st7 st8 st9">環境計測</text>
<text transform="matrix(1 0 0 1 110.811 63.189)" class="st7 st8 st9">実</text>
<text transform="matrix(1 0 0 1 116.643 63.189)" class="st7 st8 st9">習</text>
<text transform="matrix(1 0 0 1 122.5 63.189)" class="st7 st8 st9">室</text>
<text transform="matrix(1 0 0 1 207.973 32.68)" class="st7 st8 st9">建設科</text>
<text transform="matrix(1 0 0 1 208.072 39.88)" class="st7 st8 st9">職員</text>
<text transform="matrix(1 0 0 1 219.873 39.88)" class="st7 st8 st9">室</text>
<text transform="matrix(1 0 0 1 208.013 67.612)" class="st7 st8 st10">印刷室</text>
<text transform="matrix(1 0 0 1 138.849 116.622)" class="st7 st8 st9">英語科</text>
<text transform="matrix(1 0 0 1 139.005 123.822)" class="st7 st8 st9">学</text>
<text transform="matrix(1 0 0 1 144.837 123.822)" class="st7 st8 st9">習</text>
<text transform="matrix(1 0 0 1 150.694 123.822)" class="st7 st8 st9">室</text>
<text transform="matrix(1 0 0 1 139.534 131.022)" class="st7 st8 st9">(定時)</text>
<text transform="matrix(1 0 0 1 135.599 157.874)" class="st7 st8 st11">デ</text>
<text transform="matrix(1 0 0 1 140.42 157.874)" class="st7 st8 st11">ザ</text>
<text transform="matrix(1 0 0 1 144.991 157.874)" class="st7 st8 st11">イ</text>
<text transform="matrix(1 0 0 1 149.353 157.874)" class="st7 st8 st11">ン</text>
<text transform="matrix(1 0 0 1 154.146 157.874)" class="st7 st8 st11">科</text>
<text transform="matrix(1 0 0 1 140.2 164.306)" class="st7 st8 st9">PC</text>
<text transform="matrix(1 0 0 1 149.308 165.026)" class="st7 st8 st9">室</text>
<text transform="matrix(1 0 0 1 141.769 98.341)" class="st7 st8 st9">P</text>
<text transform="matrix(1 0 0 1 145.915 98.341)" class="st7 st8 st9">T</text>
<text transform="matrix(1 0 0 1 149.347 98.341)" class="st7 st8 st9">A</text>
<text transform="matrix(1 0 0 1 138.91 104.341)" class="st7 st8 st9">会議室</text>
<text transform="matrix(1 0 0 1 245.324 196.561)" class="st7 st8 st9">設計製図</text>
<text transform="matrix(1 0 0 1 248.48 203.761)" class="st7 st8 st9">実</text>
<text transform="matrix(1 0 0 1 254.312 203.761)" class="st7 st8 st9">習</text>
<text transform="matrix(1 0 0 1 260.169 203.761)" class="st7 st8 st9">室</text>
<text transform="matrix(1 0 0 1 249.938 210.961)" class="st7 st8 st9">(3年)</text>
<text transform="matrix(1 0 0 1 210.017 123.246)" class="st7 st8 st9">CAD</text>
<text transform="matrix(1 0 0 1 208.214 130.446)" class="st7 st8 st9">実</text>
<text transform="matrix(1 0 0 1 214.046 130.446)" class="st7 st8 st9">習</text>
<text transform="matrix(1 0 0 1 219.903 130.446)" class="st7 st8 st9">室</text>
<text transform="matrix(1 0 0 1 245.324 234.978)" class="st7 st8 st9">設計製図</text>
<text transform="matrix(1 0 0 1 248.48 242.178)" class="st7 st8 st9">実</text>
<text transform="matrix(1 0 0 1 254.312 242.178)" class="st7 st8 st9">習</text>
<text transform="matrix(1 0 0 1 260.169 242.178)" class="st7 st8 st9">室</text>
<text transform="matrix(1 0 0 1 249.938 249.378)" class="st7 st8 st9">(2年)</text>
<text transform="matrix(1 0 0 1 296.37 200.173)" class="st7 st8 st9">建築工作</text>
<text transform="matrix(1 0 0 1 299.526 207.373)" class="st7 st8 st9">実</text>
<text transform="matrix(1 0 0 1 305.358 207.373)" class="st7 st8 st9">習</text>
<text transform="matrix(1 0 0 1 311.215 207.373)" class="st7 st8 st9">室</text>
<text transform="matrix(1 0 0 1 287.54 242.175)" class="st7 st8 st9">課題研究</text>
<text transform="matrix(1 0 0 1 311.54 242.175)" class="st7 st8 st9">実</text>
<text transform="matrix(1 0 0 1 317.372 242.175)" class="st7 st8 st9">習</text>
<text transform="matrix(1 0 0 1 323.228 242.175)" class="st7 st8 st9">室</text>
<text transform="matrix(1 0 0 1 199.187 172.914)" class="st7 st8 st9">展</text>
<text transform="matrix(1 0 0 1 205.187 172.914)" class="st7 st8 st9">示</text>
<text transform="matrix(1 0 0 1 211.067 172.914)" class="st7 st8 st9">ホ</text>
<text transform="matrix(1 0 0 1 216.941 172.914)" class="st7 st8 st9">ー</text>
<text transform="matrix(1 0 0 1 222.624 172.914)" class="st7 st8 st9">ル</text>
<g>
	<path d="M274.1,68.1v3l-8,16.5H261l8-15.5V72h-8.9v-3.9H274.1L274.1,68.1z"/>
	<path d="M278.6,74.2h8.3v2.6h-5.2v2.9h4.8v2.6h-4.8v5.3h-3.2L278.6,74.2L278.6,74.2z"/>
</g>
<text transform="matrix(1 0 0 1 205.704 110.824)" class="st12 st8 st13">A室</text>
<text transform="matrix(1 0 0 1 205.834 145.432)" class="st12 st8 st13">B室</text>
<g transform="translate(176.757 45.475) scale(.046)">
</g>
<g>
	<text transform="matrix(1 0 0 1 50.919 15.4315)" class="st8 st9">料理部</text>
</g>
<g>
	<text transform="matrix(1 0 0 1 138.5049 203.3734)" class="st8 st9">建設科</text>
</g>
<g>
	<text transform="matrix(1 0 0 1 142.0049 211.2998)" class="st8 st9">科展</text>
</g>
<g>
	<text transform="matrix(1 0 0 1 143.6458 12.7955)" class="st8 st9">建設科</text>
	<text transform="matrix(1 0 0 1 143.2458 20.3333)" class="st8 st9">3年1組</text>
</g>
<g>
	<text transform="matrix(1 0 0 1 108.9501 12.7958)" class="st8 st9">建設科</text>
	<text transform="matrix(1 0 0 1 108.5501 20.3336)" class="st8 st9">3年2組</text>
</g>
<g>
	<text transform="matrix(1 0 0 1 79.3501 12.7958)" class="st8 st9">建設科</text>
	<text transform="matrix(1 0 0 1 78.9501 20.3336)" class="st8 st9">1年1組</text>
</g>
<g>
	<g>
		<path class="st14" d="M186,186.5h-8.1c-0.3,0-0.5,0.2-0.5,0.5v8.2c0,0.3,0.2,0.5,0.5,0.5h8.1c0.3,0,0.5-0.2,0.5-0.5V187
			C186.5,186.7,186.3,186.5,186,186.5z M180.3,191l-0.1,3.3c0,0.3-0.3,0.5-0.6,0.5h-0.2c-0.3,0-0.6-0.2-0.6-0.5l-0.1-3.3
			c0-0.3,0.2-0.5,0.5-0.5h0.5C180.1,190.4,180.3,190.7,180.3,191z M179.5,190.1c-0.5,0-0.8-0.4-0.8-0.8s0.4-0.8,0.8-0.8
			c0.5,0,0.8,0.4,0.8,0.8S180,190.1,179.5,190.1z M182.8,191l-0.1,3.3c0,0.3-0.3,0.5-0.6,0.5h-0.2c-0.3,0-0.6-0.2-0.6-0.5l-0.1-3.3
			c0-0.3,0.2-0.5,0.5-0.5h0.5C182.6,190.4,182.8,190.7,182.8,191z M182,190.1c-0.5,0-0.8-0.4-0.8-0.8s0.4-0.8,0.8-0.8
			c0.5,0,0.8,0.4,0.8,0.8S182.4,190.1,182,190.1z M185.2,191l-0.1,3.3c0,0.3-0.3,0.5-0.6,0.5h-0.2c-0.3,0-0.6-0.2-0.6-0.5l-0.1-3.3
			c0-0.3,0.2-0.5,0.5-0.5h0.5C185,190.4,185.3,190.7,185.2,191z M184.4,190.1c-0.5,0-0.8-0.4-0.8-0.8s0.4-0.8,0.8-0.8
			c0.5,0,0.8,0.4,0.8,0.8S184.9,190.1,184.4,190.1z"/>
		<g>
			<polygon class="st14" points="179.5,185.7 179.5,183.5 178.9,184.1 178.2,183.5 180,181.7 180,181.8 181.7,183.5 181.1,184.1 
				180.4,183.5 180.4,185.7 			"/>
			<polygon class="st14" points="183.9,185.7 182.2,184 182.9,183.3 183.5,184 183.5,181.8 184.4,181.8 184.4,184 185.1,183.3 
				185.7,184 184,185.8 			"/>
		</g>
	</g>
	<g>
		<path class="st14" d="M38.8,59.5h-8.1c-0.3,0-0.5,0.2-0.5,0.5v8.2c0,0.3,0.2,0.5,0.5,0.5h8.1c0.3,0,0.5-0.2,0.5-0.5V60
			C39.3,59.7,39.1,59.5,38.8,59.5z M33.1,64L33,67.3c0,0.3-0.3,0.5-0.6,0.5h-0.2c-0.3,0-0.6-0.2-0.6-0.5L31.5,64
			c0-0.3,0.2-0.5,0.5-0.5h0.5C32.9,63.4,33.1,63.7,33.1,64z M32.3,63.1c-0.5,0-0.8-0.4-0.8-0.8c0-0.5,0.4-0.8,0.8-0.8
			c0.5,0,0.8,0.4,0.8,0.8C33.1,62.7,32.8,63.1,32.3,63.1z M35.6,64l-0.1,3.3c0,0.3-0.3,0.5-0.6,0.5h-0.2c-0.3,0-0.6-0.2-0.6-0.5
			L34,64c0-0.3,0.2-0.5,0.5-0.5H35C35.4,63.4,35.6,63.7,35.6,64z M34.8,63.1c-0.5,0-0.8-0.4-0.8-0.8c0-0.5,0.4-0.8,0.8-0.8
			c0.5,0,0.8,0.4,0.8,0.8C35.6,62.7,35.2,63.1,34.8,63.1z M38.1,64L38,67.3c0,0.3-0.3,0.5-0.6,0.5h-0.2c-0.3,0-0.6-0.2-0.6-0.5
			L36.5,64c0-0.3,0.2-0.5,0.5-0.5h0.5C37.8,63.4,38.1,63.7,38.1,64z M37.3,63.1c-0.5,0-0.8-0.4-0.8-0.8c0-0.5,0.4-0.8,0.8-0.8
			c0.5,0,0.8,0.4,0.8,0.8C38.1,62.7,37.7,63.1,37.3,63.1z"/>
		<g>
			<polygon class="st14" points="32.3,58.7 32.3,56.5 31.7,57.1 31,56.5 32.8,54.7 32.9,54.8 34.5,56.5 33.9,57.1 33.3,56.5 
				33.3,58.7 			"/>
			<polygon class="st14" points="36.7,58.7 35,57 35.7,56.3 36.3,57 36.3,54.8 37.3,54.8 37.3,57 37.9,56.3 38.5,57 36.8,58.8 			
				"/>
		</g>
	</g>
	<g>
		<path class="st14" d="M190.3,201.7h-9c-0.5,0-1,0.4-1,1v9c0,0.5,0.4,1,1,1h9c0.5,0,1-0.4,1-1v-9
			C191.3,202.2,190.9,201.7,190.3,201.7z M187.5,203.3c0.4,0,0.7,0.3,0.7,0.7s-0.3,0.7-0.7,0.7s-0.7-0.3-0.7-0.7
			S187.1,203.3,187.5,203.3z M183.8,203.3c0.4,0,0.7,0.3,0.7,0.7s-0.3,0.7-0.7,0.7s-0.7-0.3-0.7-0.7S183.4,203.3,183.8,203.3z
			 M184.8,208c0,0.1-0.1,0.2-0.2,0.2l-0.3,0.1l-0.1,2.6c0,0.1-0.2,0.3-0.3,0.3h-0.2c-0.2,0-0.3-0.1-0.3-0.3l-0.1-2.6l-0.3-0.1
			c-0.1,0-0.2-0.1-0.2-0.2l-0.1-2.7c0-0.2,0.1-0.3,0.3-0.3h1.6c0.2,0,0.3,0.1,0.3,0.3L184.8,208z M188.6,208.4H188l-0.2,2.6
			c0,0.1-0.1,0.3-0.3,0.3h-0.1c-0.1,0-0.3-0.1-0.3-0.3l-0.2-2.6h-0.6c-0.2,0-0.4-0.2-0.3-0.4l0.7-1.5v-0.1l-0.3-1.1
			c0-0.1,0.1-0.3,0.2-0.3h1.5c0.1,0,0.3,0.1,0.2,0.3l-0.3,1.1c0,0,0,0,0,0.1l0.7,1.5C188.9,208.2,188.8,208.4,188.6,208.4z"/>
	</g>
	<g>
		<path class="st14" d="M187,45.4h-9c-0.5,0-1,0.4-1,1v9c0,0.5,0.4,1,1,1h9c0.5,0,1-0.4,1-1v-9C188,45.9,187.5,45.4,187,45.4z
			 M184.2,47c0.4,0,0.7,0.3,0.7,0.7s-0.3,0.7-0.7,0.7s-0.7-0.3-0.7-0.7S183.8,47,184.2,47z M180.5,47c0.4,0,0.7,0.3,0.7,0.7
			s-0.3,0.7-0.7,0.7s-0.7-0.3-0.7-0.7S180.1,47,180.5,47z M181.5,51.7c0,0.1-0.1,0.2-0.2,0.2L181,52l-0.1,2.6c0,0.1-0.2,0.3-0.3,0.3
			h-0.2c-0.2,0-0.3-0.1-0.3-0.3L180,52l-0.3-0.1c-0.1,0-0.2-0.1-0.2-0.2l-0.1-2.7c0-0.2,0.1-0.3,0.3-0.3h1.6c0.2,0,0.3,0.1,0.3,0.3
			L181.5,51.7z M185.3,52.1h-0.6l-0.2,2.6c0,0.1-0.1,0.3-0.3,0.3h-0.1c-0.1,0-0.3-0.1-0.3-0.3l-0.2-2.6H183c-0.2,0-0.4-0.2-0.3-0.4
			l0.7-1.5v-0.1l-0.3-1.1c0-0.1,0.1-0.3,0.2-0.3h1.5c0.1,0,0.3,0.1,0.2,0.3l-0.3,1.1c0,0,0,0,0,0.1l0.7,1.5
			C185.6,51.9,185.5,52.1,185.3,52.1z"/>
	</g>
	<g>
		<path class="st14" d="M224.7,74.1h-3.1c-0.1,0-0.2,0-0.2,0.1l-2,1.3l0,0l0,0l0,0l0,0l0,0l0,0l0,0l0,0l0,0l0,0l0,0l0,0l0,0l0,0l0,0
			l0,0l0,0l0,0l0,0l0,0l0,0l0,0V77l0,0l-2,1.3l0,0l0,0l0,0l0,0l0,0l0,0l0,0l0,0l0,0l0,0l0,0l0,0l0,0l0,0l0,0l0,0l0,0l0,0l0,0l0,0
			l0,0l0,0v1.6l-1.9,1.3l0,0l0,0l0,0l0,0l0,0l0,0l0,0l0,0l0,0l0,0l0,0l0,0l0,0l0,0l0,0l0,0l0,0l0,0l0,0l0,0l0,0l0,0V84l-1.9,1.3l0,0
			l0,0l0,0l0,0l0,0l0,0l0,0l0,0l0,0l0,0l0,0l0,0l0,0l0,0l0,0l0,0l0,0l0,0l0,0l0,0l0,0l0,0v1.9c0,0.2,0.2,0.4,0.4,0.4h11.4
			c0.2,0,0.4-0.2,0.4-0.4v-13C225.1,74.3,224.9,74.1,224.7,74.1z M220.1,76.3h4.2v1.1h-4.2V76.3z M224.3,79.6v1.1h-6.4v-1.1H224.3z
			 M224.3,82.8v1.1h-8.5v-1.1H224.3z M224.3,87.1h-10.6V86h10.6V87.1z"/>
		<path class="st14" d="M219,74.3c-0.2-0.2-0.4-0.2-0.6,0l-9.2,8.4c-0.2,0.2-0.2,0.4,0,0.6c0.1,0.1,0.2,0.1,0.3,0.1s0.2,0,0.3-0.1
			l1.9-1.7v0.8h-0.5c-0.1,0-0.2,0.1-0.2,0.2s0.1,0.2,0.2,0.2h0.8c0.1,0,0.2-0.1,0.2-0.2v-1.5l4.2-3.9v0.9h-0.5
			c-0.1,0-0.3,0.1-0.3,0.3s0.1,0.3,0.3,0.3h0.8c0.1,0,0.3-0.1,0.3-0.3v-1.6l2.1-1.9C219.1,74.7,219.1,74.4,219,74.3z"/>
	</g>
	<g>
		<path class="st14" d="M152.4,74.1h-3.1c-0.1,0-0.2,0-0.2,0.1l-2,1.3l0,0l0,0l0,0l0,0l0,0l0,0l0,0l0,0l0,0l0,0l0,0l0,0l0,0l0,0l0,0
			l0,0l0,0l0,0l0,0l0,0l0,0l0,0V77l0,0l-2,1.3l0,0l0,0l0,0l0,0l0,0l0,0l0,0l0,0l0,0l0,0l0,0l0,0l0,0l0,0l0,0l0,0l0,0l0,0l0,0l0,0
			l0,0l0,0v1.6l-1.9,1.3l0,0l0,0l0,0l0,0l0,0l0,0l0,0l0,0l0,0l0,0l0,0l0,0l0,0l0,0l0,0l0,0l0,0l0,0l0,0l0,0l0,0l0,0V84l-1.9,1.3l0,0
			l0,0l0,0l0,0l0,0l0,0l0,0l0,0l0,0l0,0l0,0l0,0l0,0l0,0l0,0l0,0l0,0l0,0l0,0l0,0l0,0l0,0v1.9c0,0.2,0.2,0.4,0.4,0.4h11.4
			c0.2,0,0.4-0.2,0.4-0.4v-13C152.8,74.3,152.6,74.1,152.4,74.1z M147.7,76.3h4.2v1.1h-4.2V76.3z M152,79.6v1.1h-6.4v-1.1H152z
			 M152,82.8v1.1h-8.5v-1.1H152z M152,87.1h-10.6V86H152V87.1z"/>
		<path class="st14" d="M146.7,74.3c-0.2-0.2-0.4-0.2-0.6,0l-9.2,8.4c-0.2,0.2-0.2,0.4,0,0.6c0.1,0.1,0.2,0.1,0.3,0.1s0.2,0,0.3-0.1
			l1.9-1.7v0.8h-0.5c-0.1,0-0.2,0.1-0.2,0.2s0.1,0.2,0.2,0.2h0.8c0.1,0,0.2-0.1,0.2-0.2v-1.5l4.2-3.9v0.9h-0.5
			c-0.1,0-0.3,0.1-0.3,0.3s0.1,0.3,0.3,0.3h0.8c0.1,0,0.3-0.1,0.3-0.3v-1.6l2.1-1.9C146.8,74.7,146.8,74.4,146.7,74.3z"/>
	</g>
	<g>
		<path class="st14" d="M42.7,9.6h-3.1c-0.1,0-0.2,0-0.2,0.1l-2,1.3l0,0l0,0l0,0l0,0l0,0l0,0l0,0l0,0l0,0l0,0l0,0l0,0l0,0l0,0l0,0
			l0,0l0,0l0,0l0,0l0,0l0,0l0,0v1.5l0,0l-2,1.3l0,0l0,0l0,0l0,0l0,0l0,0l0,0l0,0l0,0l0,0l0,0l0,0l0,0l0,0l0,0l0,0l0,0l0,0l0,0l0,0
			l0,0l0,0v1.6l-1.9,1.3l0,0l0,0l0,0l0,0l0,0l0,0l0,0l0,0l0,0l0,0l0,0l0,0l0,0l0,0l0,0l0,0l0,0l0,0l0,0l0,0l0,0l0,0v1.6l-1.9,1.3
			l0,0l0,0l0,0l0,0l0,0l0,0l0,0l0,0l0,0l0,0l0,0l0,0l0,0l0,0l0,0l0,0l0,0l0,0l0,0l0,0l0,0l0,0V23c0,0.2,0.2,0.4,0.4,0.4h11.4
			c0.2,0,0.4-0.2,0.4-0.4V10C43.1,9.8,43,9.6,42.7,9.6z M38.1,11.8h4.2v1.1h-4.2V11.8z M42.3,15.1v1.1h-6.4v-1.1H42.3z M42.3,18.3
			v1.1h-8.5v-1.1H42.3z M42.3,22.6H31.7v-1.1h10.6C42.3,21.5,42.3,22.6,42.3,22.6z"/>
		<path class="st14" d="M37,9.8c-0.2-0.2-0.4-0.2-0.6,0l-9.2,8.4c-0.2,0.2-0.2,0.4,0,0.6c0.1,0.1,0.2,0.1,0.3,0.1
			c0.1,0,0.2,0,0.3-0.1l1.9-1.7v0.8h-0.5c-0.1,0-0.2,0.1-0.2,0.2s0.1,0.2,0.2,0.2H30c0.1,0,0.2-0.1,0.2-0.2v-1.5l4.2-3.9v0.9h-0.5
			c-0.1,0-0.3,0.1-0.3,0.3s0.1,0.3,0.3,0.3h0.8c0.1,0,0.3-0.1,0.3-0.3v-1.6l2.1-1.9C37.2,10.2,37.2,9.9,37,9.8z"/>
	</g>
	<g>
		<path class="st14" d="M223.4,185.4h-3.1c-0.1,0-0.2,0-0.2,0.1l-2,1.3l0,0l0,0l0,0l0,0l0,0l0,0l0,0l0,0l0,0l0,0l0,0l0,0l0,0l0,0
			l0,0l0,0l0,0l0,0l0,0l0,0l0,0l0,0v1.5l0,0l-2,1.3l0,0l0,0l0,0l0,0l0,0l0,0l0,0l0,0l0,0l0,0l0,0l0,0l0,0l0,0l0,0l0,0l0,0l0,0l0,0
			l0,0l0,0l0,0v1.6l-1.9,1.3l0,0l0,0l0,0l0,0l0,0l0,0l0,0l0,0l0,0l0,0l0,0l0,0l0,0l0,0l0,0l0,0l0,0l0,0l0,0l0,0l0,0l0,0v1.6
			l-1.9,1.3l0,0l0,0l0,0l0,0l0,0l0,0l0,0l0,0l0,0l0,0l0,0l0,0l0,0l0,0l0,0l0,0l0,0l0,0l0,0l0,0l0,0l0,0v1.9c0,0.2,0.2,0.4,0.4,0.4
			h11.4c0.2,0,0.4-0.2,0.4-0.4v-13C223.8,185.6,223.6,185.4,223.4,185.4z M218.7,187.6h4.2v1.1h-4.2V187.6z M223,190.8v1.1h-6.4
			v-1.1H223z M223,194.1v1.1h-8.5v-1.1H223z M223,198.4h-10.6v-1.1H223V198.4z"/>
		<path class="st14" d="M217.7,185.5c-0.2-0.2-0.4-0.2-0.6,0l-9.2,8.4c-0.2,0.2-0.2,0.4,0,0.6c0.1,0.1,0.2,0.1,0.3,0.1
			s0.2,0,0.3-0.1l1.9-1.7v0.8h-0.5c-0.1,0-0.2,0.1-0.2,0.2s0.1,0.2,0.2,0.2h0.8c0.1,0,0.2-0.1,0.2-0.2v-1.5l4.2-3.9v0.9h-0.5
			c-0.1,0-0.3,0.1-0.3,0.3c0,0.1,0.1,0.3,0.3,0.3h0.8c0.1,0,0.3-0.1,0.3-0.3V188l2.1-1.9C217.8,185.9,217.8,185.7,217.7,185.5z"/>
	</g>
	<g>
		<g>
			<path class="st14" d="M146,48.1c0,0.2,0.1,0.3,0.3,0.3h1.7c0.2,0,0.3-0.1,0.3-0.3v-0.4c0-0.2-0.1-0.3-0.3-0.3h-1.7
				c-0.2,0-0.3,0.1-0.3,0.3V48.1z"/>
		</g>
		<g>
			<path class="st14" d="M153.3,44.1H153c-0.2,0-0.3,0.1-0.3,0.3l0,0H152c-0.2-0.3-0.6-0.6-1.1-0.7v-0.3c0,0,0,0,0.1-0.1l1.5,0.1
				c0.2,0,0.3-0.1,0.3-0.3V43c0-0.2-0.1-0.3-0.3-0.3l-1.4,0.1c-0.1-0.2-0.3-0.3-0.5-0.3s-0.4,0.1-0.5,0.3l-1.6-0.1
				c-0.2,0-0.3,0.1-0.3,0.3v0.1c0,0.2,0.1,0.3,0.3,0.3l1.6-0.1l0,0c0,0,0,0.1,0.1,0.1v0.3c-0.4,0.1-0.8,0.3-1.1,0.7h-0.9
				c-1,0-1.8,0.8-1.8,1.8V47h1.6v-0.8c0-0.1,0.1-0.2,0.2-0.2h0.8c0.3,0.5,0.9,0.9,1.5,0.9s1.3-0.4,1.5-0.9h0.6l0,0
				c0,0.2,0.1,0.3,0.3,0.3h0.4c0.2,0,0.3-0.1,0.3-0.3v-1.7C153.6,44.2,153.5,44.1,153.3,44.1z M148.1,45c-0.6,0-1.1,0.5-1.1,1.1
				c0,0.1-0.1,0.1-0.1,0.1c-0.1,0-0.1-0.1-0.1-0.1c0-0.4,0.1-0.7,0.4-1c0.3-0.3,0.6-0.4,1-0.4c0.1,0,0.1,0.1,0.1,0.1
				C148.2,45,148.2,45,148.1,45z"/>
		</g>
		<g>
			<path class="st14" d="M146.9,55c-0.4,0-0.8-0.3-0.9-0.6c-0.6,0-1.1-0.1-1.2-0.5c0-0.1,0-0.3,0.1-0.4c-0.5-0.2-0.8-0.6-0.8-1
				c0-0.3,0.2-0.5,0.6-0.6c0.2-0.1,0.4-0.1,0.6-0.1c0-0.1,0-0.2,0-0.3c0.1-0.2,0.4-0.4,0.7-0.3V49c0-0.1,0.1-0.2,0.2-0.2
				c0.1,0,0.2,0.1,0.2,0.2v2.4c0,0.1,0,0.1-0.1,0.2c-0.1,0-0.1,0-0.2,0c-0.3-0.1-0.5,0-0.5,0s0,0.1,0.1,0.2c0.1,0.1,0.1,0.2,0,0.2
				c0,0.1-0.1,0.1-0.2,0.1c-0.6-0.1-1.1,0.1-1.1,0.3s0.3,0.5,0.8,0.7c0.1,0,0.1,0.1,0.1,0.2c0,0.1,0,0.1-0.1,0.2
				c-0.1,0.1-0.2,0.2-0.2,0.3s0.4,0.3,0.9,0.2c0.1,0,0.1,0,0.2,0l0.1,0.1c0,0.3,0.3,0.5,0.5,0.5s0.4-0.1,0.5-0.3
				c0-0.1,0.1-0.1,0.1-0.1c0.1,0,0.1,0,0.2,0c0.1,0,0.1,0.1,0.2,0.1c0.2,0.1,0.5,0.1,0.7,0.1c0.1,0,0.3-0.1,0.3-0.2
				c0-0.1,0-0.2,0-0.3s0-0.1,0-0.2c0-0.1,0.1-0.1,0.1-0.1c0.4-0.1,0.6-0.3,0.6-0.3c0-0.1-0.2-0.3-0.7-0.3c-0.1,0-0.1-0.1-0.2-0.2
				c0-0.1,0-0.2,0.1-0.2c0.3-0.2,0.5-0.5,0.4-0.6c-0.1-0.2-0.6-0.3-1.2-0.1c-0.1,0-0.1,0-0.2,0c-0.1,0-0.1-0.1-0.1-0.2V49
				c0-0.1,0.1-0.2,0.2-0.2c0.1,0,0.2,0.1,0.2,0.2v2.4c0.7-0.2,1.3,0,1.4,0.5c0.1,0.3,0,0.6-0.2,0.9c0.4,0.1,0.6,0.4,0.6,0.6
				c0,0.3-0.3,0.6-0.7,0.7c0,0.1,0,0.3,0,0.4c-0.1,0.2-0.3,0.4-0.6,0.5s-0.6,0-0.9-0.1h-0.1C147.5,54.8,147.2,55,146.9,55z"/>
		</g>
		<g>
			<path class="st14" d="M151.2,52.4c-0.5,0-0.8-0.4-0.8-0.8s0.4-0.8,0.8-0.8s0.8,0.4,0.8,0.8S151.7,52.4,151.2,52.4z M151.2,51.1
				c-0.3,0-0.5,0.2-0.5,0.5s0.2,0.5,0.5,0.5s0.5-0.2,0.5-0.5S151.5,51.1,151.2,51.1z"/>
		</g>
		<g>
			<path class="st14" d="M150.2,55.1c-0.3,0-0.5-0.2-0.5-0.5s0.2-0.5,0.5-0.5s0.5,0.2,0.5,0.5C150.7,54.9,150.5,55.1,150.2,55.1z
				 M150.2,54.4c-0.1,0-0.2,0.1-0.2,0.2c0,0.1,0.1,0.2,0.2,0.2s0.2-0.1,0.2-0.2S150.4,54.4,150.2,54.4z"/>
		</g>
		<g>
			<path class="st14" d="M142.9,53.3c-0.4,0-0.7-0.3-0.7-0.7s0.3-0.7,0.7-0.7s0.7,0.3,0.7,0.7S143.3,53.3,142.9,53.3z M142.9,52.2
				c-0.2,0-0.4,0.2-0.4,0.4s0.2,0.4,0.4,0.4s0.4-0.2,0.4-0.4C143.4,52.4,143.2,52.2,142.9,52.2z"/>
		</g>
		<g>
			<path class="st14" d="M143.9,50.9c-0.3,0-0.5-0.2-0.5-0.5s0.2-0.5,0.5-0.5s0.5,0.2,0.5,0.5S144.1,50.9,143.9,50.9z M143.9,50.2
				c-0.1,0-0.2,0.1-0.2,0.2s0.1,0.2,0.2,0.2s0.2-0.1,0.2-0.2S144,50.2,143.9,50.2z"/>
		</g>
		<g>
			<path class="st14" d="M145.1,55.5c-0.2,0-0.4-0.2-0.4-0.4s0.2-0.4,0.4-0.4s0.4,0.2,0.4,0.4S145.3,55.5,145.1,55.5z M145.1,55
				c-0.1,0-0.1,0.1-0.1,0.1c0,0.1,0.1,0.1,0.1,0.1l0.1-0.1C145.3,55.1,145.2,55,145.1,55z"/>
		</g>
	</g>
</g>
<text transform="matrix(1 0 0 1 51.2502 20.6)"><tspan x="0" y="0" class="st15 st16">低アレルゲン</tspan><tspan x="-1.5" y="3.5" class="st15 st16">クッキーの販売</tspan></text>
<text transform="matrix(1 0 0 1 77.8002 25.3333)" class="st15 st16">メリーゴーランド</text>
<text transform="matrix(1 0 0 1 111.95 25.3333)" class="st15 st16">建設科体験</text>
<text transform="matrix(1 0 0 1 142.5997 25.3333)" class="st15 st16">建設科すごろく</text>
<text transform="matrix(1 0 0 1 139.308 217)"><tspan x="0" y="0" class="st15 st16">授業成果物の</tspan><tspan x="6" y="3.5" class="st15 st16">展示</tspan></text>
</svg>
