<?xml version="1.0" encoding="utf-8"?>
<!-- Generator: Adobe Illustrator 22.1.0, SVG Export Plug-In . SVG Version: 6.00 Build 0)  -->
<svg version="1.1" id="_F-8" xmlns="http://www.w3.org/2000/svg" xmlns:xlink="http://www.w3.org/1999/xlink" x="0px" y="0px"
	 viewBox="0 0 338.8 260.8" style="enable-background:new 0 0 338.8 260.8;" xml:space="preserve">
<style type="text/css">
	.st0{fill:#F7F6F5;stroke:#002355;stroke-width:0.5;stroke-miterlimit:10;}
	.st1{fill:none;stroke:#A0A0A0;stroke-width:0.5;stroke-miterlimit:10;}
	.st2{fill:#FFFFFF;stroke:#002355;stroke-width:0.5;stroke-miterlimit:10;}
	.st3{fill:#15FBFF;stroke:#002355;stroke-width:0.5;stroke-miterlimit:10;}
	.st4{fill:none;stroke:#002355;stroke-width:0.5;stroke-miterlimit:10;}
	.st5{fill:#EAE1CF;stroke:#002355;stroke-width:0.5;stroke-miterlimit:10;}
	.st6{fill:#FAFDFF;stroke:#002355;stroke-width:0.5;stroke-miterlimit:10;}
	.st7{fill:#0A0A0A;}
	.st8{font-family:'HiraginoSans-W5-83pv-RKSJ-H';}
	.st9{font-size:6px;}
	.st10{font-size:4.8px;}
	.st11{font-size:5.4px;}
	.st12{font-size:5px;}
	.st13{font-size:5.8px;}
	.st14{font-size:5.3px;}
	.st15{fill:#686868;}
	.st16{font-size:4px;}
	.st17{font-size:9px;}
</style>
<g id="_地-8">
	<g>
		<path class="st0" d="M230.5,186.8V5.8h-38.1v7.4h-19.8V5.8h-37.8V5.7H24.3v65h110.2v172.4h69.3v-15.8h26.6v19.9
			c0,0,17.6,6.4,53.2,6.4c38.4,0,50.2-6.4,50.2-6.4v-60.3L230.5,186.8L230.5,186.8z M192.1,167.9H173V92.3h19.1V167.9z"/>
		<g>
			<line class="st1" x1="191.9" y1="92.3" x2="172.9" y2="167.9"/>
			<line class="st1" x1="172.9" y1="92.3" x2="191.9" y2="167.9"/>
		</g>
	</g>
</g>
<path class="st2" d="M333.9,227.3H230.5l-0.1,19.9c0,0,17.6,6.4,53.2,6.4c38.4,0,50.2-6.4,50.2-6.4L333.9,227.3L333.9,227.3z"/>
<rect x="230.5" y="186.7" class="st2" width="103.4" height="29.6"/>
<path class="st3" d="M324.2,250.2v-22.8l-47.1-0.1v25.9C297.5,255.5,324.2,250.2,324.2,250.2z"/>
<line class="st4" x1="249.3" y1="227.6" x2="249.3" y2="251.4"/>
<line class="st4" x1="277.1" y1="186.6" x2="277.1" y2="216.6"/>
<g id="_央棟-8">
	<rect x="134.4" y="5.7" class="st2" width="38.3" height="26.8"/>
	<rect x="134.5" y="56.9" class="st5" width="26.5" height="13.8"/>
	<rect x="203.7" y="201.4" class="st5" width="26.7" height="15"/>
	<rect x="134.5" y="216.3" class="st2" width="26.8" height="14.1"/>
	<rect x="134.5" y="230.4" class="st2" width="26.8" height="12.7"/>
	<rect x="134.5" y="92.3" class="st2" width="26.8" height="124"/>
	<rect x="203.6" y="5.8" class="st2" width="26.8" height="64.9"/>
	<rect x="172.5" y="43.9" class="st5" width="19.8" height="26.8"/>
	<line class="st4" x1="161" y1="56.7" x2="161" y2="44"/>
	<rect x="203.6" y="92.3" class="st2" width="26.9" height="65"/>
	<line class="st4" x1="203.4" y1="183" x2="230.4" y2="183"/>
	<rect x="172.4" y="180.2" class="st6" width="19.8" height="17.3"/>
	<line class="st4" x1="134.4" y1="157.3" x2="161.4" y2="157.3"/>
	<rect x="172.4" y="197.5" class="st5" width="19.8" height="19"/>
	<line class="st4" x1="179.3" y1="216.4" x2="179.3" y2="197.4"/>
</g>
<g id="_棟-14">
	<rect x="45.4" y="5.7" class="st2" width="59.3" height="26.8"/>
	<rect x="45.3" y="44" class="st2" width="89.2" height="26.8"/>
	<rect x="104.6" y="5.7" class="st2" width="29.7" height="26.8"/>
	<line class="st4" x1="104.7" y1="44" x2="104.7" y2="70.8"/>
	<line class="st4" x1="92.7" y1="44" x2="92.7" y2="71"/>
	<rect x="24.3" y="54" class="st6" width="20.9" height="16.7"/>
	<line class="st4" x1="92.7" y1="5.6" x2="92.7" y2="32.6"/>
	<line class="st4" x1="60.9" y1="5.6" x2="60.9" y2="32.6"/>
</g>
<rect x="134.7" y="5.7" class="st3" width="38" height="26.8"/>
<rect x="104.7" y="5.7" class="st3" width="30" height="26.8"/>
<g>
	<path class="st7" d="M115,16.1c0.5-0.1,1-0.1,1.6-0.1c1.1,0,1.8,0.3,2.3,0.7c0.5,0.5,0.8,1.1,0.8,2s-0.3,1.7-0.8,2.2
		s-1.4,0.8-2.5,0.8c-0.5,0-1,0-1.3-0.1L115,16.1L115,16.1z M115.8,21.2c0.2,0,0.5,0,0.7,0c1.6,0,2.4-0.9,2.4-2.4
		c0-1.4-0.8-2.2-2.3-2.2c-0.4,0-0.7,0-0.9,0.1L115.8,21.2L115.8,21.2z"/>
	<path class="st7" d="M120.4,21.8v-0.5l0.6-0.6c1.4-1.3,2.1-2.1,2.1-2.9c0-0.6-0.3-1.1-1.1-1.1c-0.5,0-0.9,0.3-1.2,0.5l-0.2-0.5
		c0.4-0.3,0.9-0.6,1.6-0.6c1.2,0,1.7,0.8,1.7,1.6c0,1-0.7,1.9-1.9,3l-0.4,0.4l0,0h2.5v0.6L120.4,21.8L120.4,21.8z"/>
</g>
<g>
	<path class="st7" d="M149.1,16.1c0.5-0.1,1-0.1,1.6-0.1c1.1,0,1.8,0.3,2.3,0.7c0.5,0.5,0.8,1.1,0.8,2s-0.3,1.7-0.8,2.2
		s-1.4,0.8-2.5,0.8c-0.5,0-1,0-1.3-0.1L149.1,16.1L149.1,16.1z M149.9,21.2c0.2,0,0.5,0,0.7,0c1.6,0,2.4-0.9,2.4-2.4
		c0-1.4-0.8-2.2-2.3-2.2c-0.4,0-0.7,0-0.9,0.1L149.9,21.2L149.9,21.2z"/>
	<path class="st7" d="M154.7,20.9c0.2,0.1,0.7,0.3,1.2,0.3c1,0,1.3-0.6,1.2-1.1c0-0.8-0.7-1.1-1.4-1.1h-0.4v-0.6h0.4
		c0.5,0,1.2-0.3,1.2-0.9c0-0.4-0.3-0.8-1-0.8c-0.4,0-0.9,0.2-1.1,0.4l-0.2-0.5c0.3-0.2,0.9-0.4,1.4-0.4c1.1,0,1.6,0.6,1.6,1.3
		c0,0.6-0.3,1.1-1,1.3l0,0c0.7,0.1,1.2,0.6,1.2,1.4c0,0.9-0.7,1.7-2,1.7c-0.6,0-1.2-0.2-1.4-0.4L154.7,20.9L154.7,20.9z"/>
</g>
<text transform="matrix(1 0 0 1 54.114 59.603)" class="st7 st8 st9">写真</text>
<text transform="matrix(1 0 0 1 66.114 59.603)" class="st7 st8 st9">実</text>
<text transform="matrix(1 0 0 1 71.946 59.603)" class="st7 st8 st9">習</text>
<text transform="matrix(1 0 0 1 77.802 59.603)" class="st7 st8 st9">室</text>
<text transform="matrix(1 0 0 1 62.982 17.792)" class="st7 st8 st9">デ</text>
<text transform="matrix(1 0 0 1 68.598 17.792)" class="st7 st8 st9">ザ</text>
<text transform="matrix(1 0 0 1 73.944 17.792)" class="st7 st8 st9">イ</text>
<text transform="matrix(1 0 0 1 79.068 17.792)" class="st7 st8 st9">ン</text>
<text transform="matrix(1 0 0 1 84.654 17.792)" class="st7 st8 st9">科</text>
<text transform="matrix(1 0 0 1 68.003 24.992)" class="st7 st8 st9">職員</text>
<text transform="matrix(1 0 0 1 79.805 24.992)" class="st7 st8 st9">室</text>
<g>
	<path class="st7" d="M114.4,55.6c0,0.2,0,0.2,0,0.4h-0.6c0-0.2,0-0.4,0-0.7v-3.2c0-0.3,0-0.4,0-0.5c0.9-0.1,1.6-0.4,2-0.6l0.4,0.5
		c-0.1,0-0.1,0-0.2,0.1c-0.4,0.2-1,0.3-1.6,0.5v1h1.1c0.2,0,0.4,0,0.5,0v0.6c-0.1,0-0.3,0-0.5,0h-1.1V55h1.1c0.2,0,0.4,0,0.5,0v0.6
		c-0.1,0-0.3,0-0.5,0L114.4,55.6L114.4,55.6L114.4,55.6z M116.4,51.8c0-0.2,0-0.3,0-0.5c0.1,0,0.3,0,0.6,0h1.4c0.2,0,0.4,0,0.5,0
		c0,0.2,0,0.3,0,0.5V55c0,0.5-0.2,0.6-0.7,0.6c-0.2,0-0.4,0-0.6,0c0-0.2,0-0.4-0.1-0.6c0.3,0,0.4,0.1,0.6,0.1s0.2,0,0.2-0.2v-3.1
		H117v3.9c0,0.3,0,0.6,0,0.7h-0.6c0-0.2,0-0.4,0-0.7V51.8L116.4,51.8z"/>
	<path class="st7" d="M120.5,52.8c-0.1,1-0.1,1.4-0.2,1.9c-0.1,0.6-0.2,1-0.5,1.5c-0.1-0.2-0.2-0.3-0.4-0.5c0.2-0.4,0.3-0.7,0.4-1.2
		c0.1-0.6,0.2-1.4,0.2-2.6c0-0.4,0-0.6,0-0.8c0.2,0,0.4,0,0.7,0h1.5c0.3,0,0.4,0,0.6,0c0,0.1,0,0.3,0,0.5v0.6c0,0.2,0,0.4,0,0.5
		c-0.2,0-0.3,0-0.6,0L120.5,52.8L120.5,52.8z M120.6,52.3h1.8v-0.6h-1.8V52.3z M121.1,53.9v1.4c0,0.3,0,0.4,0,0.6h-0.5
		c0-0.2,0-0.4,0-0.6V54c0-0.3,0-0.4,0-0.5c0.2,0,0.3,0,0.5,0h0.4l0,0c0-0.1,0-0.3,0-0.5h0.6c0,0.1,0,0.3,0,0.5l0,0h0.4
		c0.2,0,0.3,0,0.5,0c0,0.1,0,0.3,0,0.5v1.5c0,0.3-0.1,0.4-0.5,0.4c0,0-0.1,0-0.2,0c0-0.2,0-0.3-0.1-0.5c0.1,0,0.2,0,0.2,0
		c0.1,0,0.1,0,0.1-0.1v-1.4H122v1.8c0,0.3,0,0.5,0,0.7h-0.6c0-0.2,0-0.4,0-0.7v-1.8C121.5,53.9,121.1,53.9,121.1,53.9z M123.8,51.4
		c0,0.2,0,0.3,0,0.6v2.4c0,0.4,0,0.5,0,0.7h-0.6c0-0.2,0-0.3,0-0.7V52c0-0.3,0-0.5,0-0.6H123.8L123.8,51.4z M124.9,51
		c0,0.2,0,0.4,0,0.7v4c0,0.5-0.2,0.6-0.8,0.6c-0.1,0-0.3,0-0.6,0c0-0.2-0.1-0.4-0.1-0.5c0.2,0,0.5,0.1,0.7,0.1s0.2,0,0.2-0.2v-3.9
		c0-0.3,0-0.5,0-0.7L124.9,51L124.9,51z"/>
	<path class="st7" d="M113.7,60.2c0,0.2,0,0.2,0,0.4h1.1c0.3,0,0.4,0,0.5,0V61c-0.1,0-0.3,0-0.5,0h-1.2c0,0.2,0,0.3-0.1,0.4h1.9
		c0.3,0,0.4,0,0.6,0V62c-0.2,0-0.4,0-0.6,0h-1.6c0.3,0.3,0.5,0.5,0.8,0.7c0.4,0.2,0.9,0.4,1.5,0.5c-0.1,0.2-0.2,0.3-0.3,0.5
		c-1.3-0.3-2-0.7-2.6-1.6c-0.2,0.4-0.5,0.7-0.9,1s-0.8,0.4-1.4,0.5c-0.1-0.2-0.1-0.3-0.3-0.5c0.6-0.1,0.9-0.2,1.3-0.4
		s0.6-0.5,0.8-0.8h-1.4c-0.2,0-0.4,0-0.6,0v-0.5c0.2,0,0.3,0,0.6,0h1.6c0-0.2,0.1-0.3,0.1-0.4h-1c-0.3,0-0.4,0-0.5,0v-0.5
		c0.2,0,0.3,0,0.5,0h1.1c0-0.2,0-0.2,0-0.4H112c-0.3,0-0.4,0-0.6,0v-0.3H111c0-0.1,0-0.2,0-0.4V59c0-0.2,0-0.3,0-0.4
		c0.2,0,0.4,0,0.6,0h1.6v-0.2c0-0.1,0-0.2,0-0.4h0.6c0,0.1,0,0.2,0,0.4v0.2h1.7c0.3,0,0.4,0,0.6,0c0,0.1,0,0.3,0,0.4v0.4
		c0,0.2,0,0.3,0,0.4h-0.5v0.3c-0.2,0-0.3,0-0.6,0L113.7,60.2L113.7,60.2z M115,59.7c0.3,0,0.4,0,0.6,0v-0.5h-4v0.5
		c0.2,0,0.3,0,0.6,0h1.1c0-0.2,0-0.3,0-0.4h0.6c0,0.1,0,0.2,0,0.4H115L115,59.7z"/>
	<path class="st7" d="M118.5,60c-0.4,0.2-0.8,0.4-1.3,0.6c-0.1,0-0.2,0.1-0.3,0.1l-0.2-0.5c0.4-0.1,1-0.3,1.7-0.7
		C118.5,59.5,118.5,60,118.5,60z M118.9,61.1c0.1-0.1,0.2-0.4,0.2-0.5c-0.1,0.1-0.3,0.1-0.6,0.1c-0.1,0-0.3,0-0.4,0
		c0-0.2-0.1-0.3-0.1-0.5c0.2,0,0.4,0,0.5,0c0.2,0,0.2,0,0.2-0.2v-1.4h-1.4c-0.3,0-0.4,0-0.6,0v-0.5c0.2,0,0.4,0,0.6,0h1.3
		c0.3,0,0.4,0,0.6,0c0,0.1,0,0.3,0,0.6v1.4c0,0.2,0,0.3-0.1,0.3l0.5,0.1c-0.1,0.2-0.1,0.3-0.2,0.4h1.2c0.3,0,0.5,0,0.7,0
		c0,0.2,0,0.3,0,0.7V63c0,0.3,0,0.5,0,0.7h-0.6v-0.3H118v0.3h-0.6c0-0.2,0-0.3,0-0.7v-1.2c0-0.4,0-0.5,0-0.7c0.2,0,0.3,0,0.7,0
		H118.9L118.9,61.1z M117.8,59.7c-0.3-0.3-0.4-0.4-0.8-0.6l0.3-0.3c0.4,0.2,0.5,0.3,0.8,0.5C118.2,59.4,117.8,59.7,117.8,59.7z
		 M118,62h2.8v-0.4H118V62z M118,62.9h2.8v-0.5H118V62.9z M120,58.8c-0.3,0-0.4,0-0.6,0v-0.5c0.2,0,0.4,0,0.6,0h1.2
		c0.3,0,0.5,0,0.6,0c0,0.1,0,0.3,0,0.6v1.4c0,0.3,0,0.4-0.1,0.4c-0.1,0.1-0.2,0.1-0.5,0.1c-0.2,0-0.4,0-0.5,0c0-0.2,0-0.3-0.1-0.5
		c0.2,0,0.4,0.1,0.6,0.1c0.3,0,0.3,0,0.3-0.2v-1.4L120,58.8L120,58.8z M121.1,60c-0.4,0.2-0.8,0.4-1.2,0.5c-0.1,0-0.2,0.1-0.3,0.1
		l-0.2-0.5c0.4-0.1,1-0.3,1.6-0.6L121.1,60z M120.4,59.7c-0.3-0.3-0.5-0.4-0.8-0.6l0.3-0.3c0.4,0.2,0.5,0.3,0.9,0.5L120.4,59.7
		L120.4,59.7z"/>
	<path class="st7" d="M126.7,61.8c0.3,0,0.4,0,0.6,0v0.5c-0.2,0-0.3,0-0.6,0h-1.2V63h1.7c0.4,0,0.6,0,0.8,0v0.6c-0.2,0-0.4,0-0.8,0
		h-3.8c-0.4,0-0.6,0-0.8,0V63c0.2,0,0.4,0,0.7,0h1.6v-0.7h-1.1c-0.3,0-0.5,0-0.6,0v-0.5c0.2,0,0.3,0,0.6,0h1.1l0,0
		c0-0.2,0-0.3,0-0.4h0.6c0,0.1,0,0.3,0,0.4l0,0H126.7L126.7,61.8z M124.9,58.5c0-0.1,0-0.3,0-0.4h0.6c0,0.1,0,0.2,0,0.4v0.1h1.6
		c0.4,0,0.6,0,0.8,0c0,0.1,0,0.2,0,0.5v0.3c0,0.2,0,0.3,0,0.5h-0.6v-0.7h-4v0.7h-0.5c0,0,0-0.1,0-0.2c0-0.1,0-0.2,0-0.3V59
		c0-0.2,0-0.3,0-0.4c0.2,0,0.4,0,0.7,0L124.9,58.5L124.9,58.5L124.9,58.5z M124.1,60.1c-0.4,0-0.6,0-0.7,0v-0.5c0.2,0,0.3,0,0.7,0
		h2.3c0.4,0,0.5,0,0.7,0v0.5c-0.2,0-0.3,0-0.7,0h-1.5c-0.2,0.3-0.2,0.4-0.4,0.7c0.9,0,1.4-0.1,1.8-0.1c-0.2-0.2-0.2-0.2-0.4-0.3
		l0.4-0.2c0.5,0.4,0.6,0.5,1.2,1.1l-0.4,0.3c-0.2-0.2-0.3-0.3-0.4-0.4c-1.1,0.1-2.2,0.2-3.4,0.2c-0.1,0-0.1,0-0.2,0l-0.1-0.5
		c0.2,0,0.2,0,0.4,0c0.2,0,0.2,0,0.5,0c0.2-0.2,0.3-0.4,0.4-0.7L124.1,60.1L124.1,60.1z"/>
</g>
<text transform="matrix(1 0 0 1 140.726 222.308)" class="st7 st8 st10">国語科</text>
<text transform="matrix(1 0 0 1 140.805 228.068)" class="st7 st8 st10">職員</text>
<text transform="matrix(1 0 0 1 150.247 228.068)" class="st7 st8 st10">室</text>
<text transform="matrix(1 0 0 1 135.886 238.548)" class="st7 st8 st10">生徒相談室</text>
<text transform="matrix(1 0 0 1 136.233 119.67)" class="st7 st8 st11">プ</text>
<text transform="matrix(1 0 0 1 141.104 119.67)" class="st7 st8 st11">ロ</text>
<text transform="matrix(1 0 0 1 145.888 119.67)" class="st7 st8 st11">ダ</text>
<text transform="matrix(1 0 0 1 150.338 119.67)" class="st7 st8 st11">ク</text>
<text transform="matrix(1 0 0 1 154.55 119.67)" class="st7 st8 st11">ト</text>
<text transform="matrix(1 0 0 1 138.335 125.67)" class="st7 st8 st11">デ</text>
<text transform="matrix(1 0 0 1 143.254 125.67)" class="st7 st8 st11">ザ</text>
<text transform="matrix(1 0 0 1 147.93 125.67)" class="st7 st8 st11">イ</text>
<text transform="matrix(1 0 0 1 152.407 125.67)" class="st7 st8 st11">ン</text>
<text transform="matrix(1 0 0 1 139.186 131.598)" class="st7 st8 st9">実</text>
<text transform="matrix(1 0 0 1 145.018 131.598)" class="st7 st8 st9">習</text>
<text transform="matrix(1 0 0 1 150.875 131.598)" class="st7 st8 st9">室</text>
<text transform="matrix(1 0 0 1 140.644 138.078)" class="st7 st8 st9">(3年)</text>
<text transform="matrix(1 0 0 1 204.984 31.429)" class="st7 st8 st11">ビ</text>
<text transform="matrix(1 0 0 1 209.817 31.429)" class="st7 st8 st11">ジ</text>
<text transform="matrix(1 0 0 1 214.261 31.429)" class="st7 st8 st11">ュ</text>
<text transform="matrix(1 0 0 1 218.732 31.429)" class="st7 st8 st11">ア</text>
<text transform="matrix(1 0 0 1 223.268 31.429)" class="st7 st8 st11">ル</text>
<text transform="matrix(1 0 0 1 207.225 37.429)" class="st7 st8 st11">デ</text>
<text transform="matrix(1 0 0 1 212.144 37.429)" class="st7 st8 st11">ザ</text>
<text transform="matrix(1 0 0 1 216.821 37.429)" class="st7 st8 st11">イ</text>
<text transform="matrix(1 0 0 1 221.297 37.429)" class="st7 st8 st11">ン</text>
<text transform="matrix(1 0 0 1 208.077 43.357)" class="st7 st8 st9">実</text>
<text transform="matrix(1 0 0 1 213.909 43.357)" class="st7 st8 st9">習</text>
<text transform="matrix(1 0 0 1 219.765 43.357)" class="st7 st8 st9">室</text>
<text transform="matrix(1 0 0 1 209.535 49.837)" class="st7 st8 st9">(3年)</text>
<text transform="matrix(1 0 0 1 204.984 117.931)" class="st7 st8 st11">ビ</text>
<text transform="matrix(1 0 0 1 209.817 117.931)" class="st7 st8 st11">ジ</text>
<text transform="matrix(1 0 0 1 214.261 117.931)" class="st7 st8 st11">ュ</text>
<text transform="matrix(1 0 0 1 218.732 117.931)" class="st7 st8 st11">ア</text>
<text transform="matrix(1 0 0 1 223.268 117.931)" class="st7 st8 st11">ル</text>
<text transform="matrix(1 0 0 1 207.225 123.931)" class="st7 st8 st11">デ</text>
<text transform="matrix(1 0 0 1 212.144 123.931)" class="st7 st8 st11">ザ</text>
<text transform="matrix(1 0 0 1 216.821 123.931)" class="st7 st8 st11">イ</text>
<text transform="matrix(1 0 0 1 221.297 123.931)" class="st7 st8 st11">ン</text>
<text transform="matrix(1 0 0 1 208.077 129.8589)" class="st7 st8 st9">実</text>
<text transform="matrix(1 0 0 1 213.909 129.8589)" class="st7 st8 st9">習</text>
<text transform="matrix(1 0 0 1 219.765 129.8589)" class="st7 st8 st9">室</text>
<text transform="matrix(1 0 0 1 209.535 136.339)" class="st7 st8 st9">(2年)</text>
<text transform="matrix(1 0 0 1 136.233 179.6219)" class="st7 st8 st11">プ</text>
<text transform="matrix(1 0 0 1 141.104 179.6219)" class="st7 st8 st11">ロ</text>
<text transform="matrix(1 0 0 1 145.888 179.6219)" class="st7 st8 st11">ダ</text>
<text transform="matrix(1 0 0 1 150.338 179.6219)" class="st7 st8 st11">ク</text>
<text transform="matrix(1 0 0 1 154.55 179.6219)" class="st7 st8 st11">ト</text>
<text transform="matrix(1 0 0 1 138.335 185.6219)" class="st7 st8 st11">デ</text>
<text transform="matrix(1 0 0 1 143.254 185.6219)" class="st7 st8 st11">ザ</text>
<text transform="matrix(1 0 0 1 147.93 185.6219)" class="st7 st8 st11">イ</text>
<text transform="matrix(1 0 0 1 152.407 185.6219)" class="st7 st8 st11">ン</text>
<text transform="matrix(1 0 0 1 139.186 191.55)" class="st7 st8 st9">実</text>
<text transform="matrix(1 0 0 1 145.018 191.55)" class="st7 st8 st9">習</text>
<text transform="matrix(1 0 0 1 150.875 191.55)" class="st7 st8 st9">室</text>
<text transform="matrix(1 0 0 1 140.644 198.03)" class="st7 st8 st9">(2年)</text>
<text transform="matrix(1 0 0 1 236.768 200.226)" class="st7 st8 st9">デ</text>
<text transform="matrix(1 0 0 1 242.534 200.226)" class="st7 st8 st9">ザ</text>
<text transform="matrix(1 0 0 1 248.03 200.226)" class="st7 st8 st9">イ</text>
<text transform="matrix(1 0 0 1 253.304 200.226)" class="st7 st8 st9">ン</text>
<text transform="matrix(1 0 0 1 259.04 200.226)" class="st7 st8 st9">工作</text>
<text transform="matrix(1 0 0 1 245.147 207.426)" class="st7 st8 st9">実</text>
<text transform="matrix(1 0 0 1 250.979 207.426)" class="st7 st8 st9">習</text>
<text transform="matrix(1 0 0 1 256.835 207.426)" class="st7 st8 st9">室</text>
<text transform="matrix(1 0 0 1 279.734 200.226)" class="st7 st8 st9">基</text>
<text transform="matrix(1 0 0 1 285.734 200.226)" class="st7 st8 st9">礎</text>
<text transform="matrix(1 0 0 1 291.56 200.226)" class="st7 st8 st9">デ</text>
<text transform="matrix(1 0 0 1 297.326 200.226)" class="st7 st8 st9">ザ</text>
<text transform="matrix(1 0 0 1 302.822 200.226)" class="st7 st8 st9">イ</text>
<text transform="matrix(1 0 0 1 308.096 200.226)" class="st7 st8 st9">ン</text>
<text transform="matrix(1 0 0 1 313.833 200.226)" class="st7 st8 st9">実</text>
<text transform="matrix(1 0 0 1 319.665 200.226)" class="st7 st8 st9">習</text>
<text transform="matrix(1 0 0 1 325.52 200.226)" class="st7 st8 st9">室</text>
<g>
	<path d="M259.7,82.6c0-2.4,1.3-3.9,3.4-4.9v-0.1c-1.9-1-2.8-2.6-2.8-4.3c0-3.3,3-5.5,7-5.5c4.7,0,6.6,2.7,6.6,5
		c0,1.7-0.9,3.3-2.8,4.3v0.1c1.8,0.7,3.6,2.3,3.6,4.8c0,3.6-3,5.9-7.6,5.9C262,88,259.7,85.2,259.7,82.6L259.7,82.6z M269.8,82.4
		c0-1.6-1.2-2.6-2.9-3.1c-1.4,0.4-2.2,1.4-2.2,2.8s1,2.6,2.6,2.6C268.7,84.7,269.8,83.7,269.8,82.4L269.8,82.4z M264.9,73.2
		c0,1.2,1.1,2.1,2.6,2.6c1-0.3,1.9-1.2,1.9-2.4c0-1.2-0.7-2.3-2.3-2.3C265.6,71,264.9,72,264.9,73.2z"/>
	<path d="M278.6,74.2h8.3v2.6h-5.2v2.9h4.8v2.6h-4.8v5.3h-3.2L278.6,74.2L278.6,74.2z"/>
</g>
<text transform="matrix(1 0 0 1 252.246 238.58)" class="st7 st8 st12">モ</text>
<text transform="matrix(1 0 0 1 256.751 238.58)" class="st7 st8 st12">デ</text>
<text transform="matrix(1 0 0 1 261.036 238.58)" class="st7 st8 st12">リ</text>
<text transform="matrix(1 0 0 1 265.071 238.58)" class="st7 st8 st12">ン</text>
<text transform="matrix(1 0 0 1 269.422 238.58)" class="st7 st8 st12">グ</text>
<text transform="matrix(1 0 0 1 254.809 245.444)" class="st7 st8 st13">実</text>
<text transform="matrix(1 0 0 1 260.447 245.444)" class="st7 st8 st13">習</text>
<text transform="matrix(1 0 0 1 266.108 245.444)" class="st7 st8 st13">室</text>
<text transform="matrix(1 0 0 1 234.941 234.368)" class="st7 st8 st12">塗装</text>
<text transform="matrix(1 0 0 1 234.941 240.368)" class="st7 st8 st12">仕上</text>
<text transform="matrix(1 0 0 1 232.446 246.368)" class="st7 st8 st12">実</text>
<text transform="matrix(1 0 0 1 237.306 246.368)" class="st7 st8 st12">習</text>
<text transform="matrix(1 0 0 1 242.186 246.368)" class="st7 st8 st12">室</text>
<rect x="277.1" y="186.7" class="st3" width="56.6" height="29.6"/>
<g>
	<text transform="matrix(1 0 0 1 95.52 56.441)" class="st8 st9">暗</text>
	<text transform="matrix(1 0 0 1 95.52 63.022)" class="st8 st9">室</text>
</g>
<g>
	<text transform="matrix(1 0 0 1 93.937 30.637)" class="st7 st8 st10">室</text>
	<text transform="matrix(1 0 0 1 98.287 15.846)" class="st7 st8 st10">ザ</text>
	<text transform="matrix(1 0 0 1 98.282 11.286)" class="st7 st8 st10">デ</text>
	<text transform="matrix(1 0 0 1 98.434 19.924)" class="st7 st8 st10">イ</text>
	<text transform="matrix(1 0 0 1 98.321 24.012)" class="st7 st8 st10">ン</text>
	<text transform="matrix(1 0 0 1 93.938 21.022)" class="st7 st8 st10">資</text>
	<text transform="matrix(1 0 0 1 93.937 25.796)" class="st7 st8 st10">料</text>
</g>
<g>
	<text transform="matrix(1 0 0 1 326.258 246.296)" class="st7 st8 st14">室</text>
	<text transform="matrix(1 0 0 1 326.257 234.977)" class="st7 st8 st14">教</text>
	<text transform="matrix(1 0 0 1 326.257 240.682)" class="st7 st8 st14">材</text>
</g>
<g>
	<text transform="matrix(1 0 0 1 50.665 30.637)" class="st7 st8 st10">室</text>
	<text transform="matrix(1 0 0 1 50.665 16.194)" class="st7 st8 st10">品</text>
	<text transform="matrix(1 0 0 1 50.665 11.435)" class="st7 st8 st10">作</text>
	<text transform="matrix(1 0 0 1 50.665 21.021)" class="st7 st8 st10">保</text>
	<text transform="matrix(1 0 0 1 50.665 25.796)" class="st7 st8 st10">管</text>
</g>
<g id="_クトグラム-8">
	<g>
		<g>
			<path class="st15" d="M33.6,62c0,0.3-0.3,0.6-0.6,0.6s-0.6-0.2-0.6-0.6s0.3-0.6,0.6-0.6S33.6,61.7,33.6,62z"/>
			<path class="st15" d="M33.1,62.7c-0.4,0-1.3,0-1.3,0.8v1.8c0,0.1,0.1,0.2,0.2,0.2c0.1,0,0.2-0.1,0.2-0.2l0.1-1.1l0.1,4.1
				c0,0.2,0.1,0.3,0.3,0.3s0.3-0.1,0.3-0.3l0.1-2.5l0.1,2.5c0,0.2,0.1,0.3,0.3,0.3s0.3-0.1,0.3-0.3l0.1-4.1l0.1,1.1
				c0,0.1,0.1,0.2,0.2,0.2c0.1,0,0.2-0.1,0.2-0.2v-1.8C34.4,62.7,33.5,62.7,33.1,62.7L33.1,62.7z"/>
		</g>
		<g>
			<path class="st15" d="M37.1,62c0,0.3-0.3,0.6-0.6,0.6S36,62.3,36,62s0.3-0.6,0.6-0.6S37.1,61.7,37.1,62z"/>
			<path class="st15" d="M36.5,62.7c-0.4,0-1.3,0-1.3,0.8v1.8c0,0.1,0.1,0.2,0.2,0.2c0.1,0,0.2-0.1,0.2-0.2l0.1-1.1l0.1,4.1
				c0,0.2,0.1,0.3,0.3,0.3s0.3-0.1,0.3-0.3l0.1-2.5l0.1,2.5c0,0.2,0.1,0.3,0.3,0.3s0.3-0.1,0.3-0.3l0.1-4.1l0.1,1.1
				c0,0.1,0.1,0.2,0.2,0.2c0.1,0,0.2-0.1,0.2-0.2v-1.8C37.9,62.7,36.9,62.7,36.5,62.7L36.5,62.7z"/>
		</g>
		<path class="st15" d="M38.5,69h-7.4c-0.6,0-1-0.5-1-1v-7.7c0-0.6,0.5-1,1-1h7.4c0.6,0,1,0.5,1,1V68C39.5,68.5,39.1,69,38.5,69z
			 M31.1,59.9c-0.2,0-0.4,0.2-0.4,0.4V68c0,0.2,0.2,0.4,0.4,0.4h7.4c0.2,0,0.4-0.2,0.4-0.4v-7.7c0-0.2-0.2-0.4-0.4-0.4
			C38.5,59.9,31.1,59.9,31.1,59.9z"/>
		<path class="st15" d="M38.1,57.2L36.9,56l0,0l-0.2-0.2L36.5,56l0,0l-1.3,1.2c-0.1,0.1-0.1,0.3,0,0.4s0.3,0.1,0.4,0l0.8-0.8v1.7
			c0,0.2,0.1,0.3,0.3,0.3s0.3-0.1,0.3-0.3v-1.7l0.8,0.8c0.1,0.1,0.1,0.1,0.2,0.1s0.1,0,0.2-0.1C38.3,57.5,38.3,57.3,38.1,57.2
			L38.1,57.2z"/>
		<path class="st15" d="M34.5,57.1c-0.1-0.1-0.3-0.1-0.4,0l-0.8,0.8v-1.7c0-0.2-0.1-0.3-0.3-0.3s-0.3,0.1-0.3,0.3v1.7L32,57.1
			c-0.1-0.1-0.3-0.1-0.4,0s-0.1,0.3,0,0.4l1.3,1.2l0,0l0.2,0.2l0.2-0.2l0,0l1.3-1.2C34.6,57.4,34.6,57.2,34.5,57.1L34.5,57.1z"/>
	</g>
	<g>
		<g>
			<path class="st15" d="M181.2,188.5c0,0.3-0.3,0.6-0.6,0.6s-0.6-0.2-0.6-0.6s0.3-0.6,0.6-0.6S181.2,188.2,181.2,188.5z"/>
			<path class="st15" d="M180.6,189.2c-0.4,0-1.3,0-1.3,0.8v1.8c0,0.1,0.1,0.2,0.2,0.2c0.1,0,0.2-0.1,0.2-0.2l0.1-1.1l0.1,4.1
				c0,0.2,0.1,0.3,0.3,0.3s0.3-0.1,0.3-0.3l0.1-2.5l0.1,2.5c0,0.2,0.1,0.3,0.3,0.3s0.3-0.1,0.3-0.3l0.1-4.1l0.1,1.1
				c0,0.1,0.1,0.2,0.2,0.2c0.1,0,0.2-0.1,0.2-0.2V190C182,189.2,181,189.2,180.6,189.2z"/>
		</g>
		<g>
			<path class="st15" d="M184.7,188.5c0,0.3-0.3,0.6-0.6,0.6s-0.6-0.2-0.6-0.6s0.3-0.6,0.6-0.6S184.7,188.2,184.7,188.5z"/>
			<path class="st15" d="M184.1,189.2c-0.4,0-1.3,0-1.3,0.8v1.8c0,0.1,0.1,0.2,0.2,0.2c0.1,0,0.2-0.1,0.2-0.2l0.1-1.1l0.1,4.1
				c0,0.2,0.1,0.3,0.3,0.3s0.3-0.1,0.3-0.3l0.1-2.5l0.1,2.5c0,0.2,0.1,0.3,0.3,0.3s0.3-0.1,0.3-0.3l0.1-4.1l0.1,1.1
				c0,0.1,0.1,0.2,0.2,0.2c0.1,0,0.2-0.1,0.2-0.2V190C185.4,189.2,184.5,189.2,184.1,189.2z"/>
		</g>
		<path class="st15" d="M186.1,195.5h-7.4c-0.6,0-1-0.5-1-1v-7.7c0-0.6,0.5-1,1-1h7.4c0.6,0,1,0.5,1,1v7.7
			C187.1,195,186.6,195.5,186.1,195.5z M178.6,186.4c-0.2,0-0.4,0.2-0.4,0.4v7.7c0,0.2,0.2,0.4,0.4,0.4h7.4c0.2,0,0.4-0.2,0.4-0.4
			v-7.7c0-0.2-0.2-0.4-0.4-0.4H178.6z"/>
		<path class="st15" d="M185.7,183.7l-1.3-1.2l0,0l-0.2-0.2l-0.2,0.2l0,0l-1.3,1.2c-0.1,0.1-0.1,0.3,0,0.4s0.3,0.1,0.4,0l0.8-0.8
			v1.7c0,0.2,0.1,0.3,0.3,0.3s0.3-0.1,0.3-0.3v-1.7l0.8,0.8c0.1,0.1,0.1,0.1,0.2,0.1s0.1,0,0.2-0.1
			C185.8,184,185.8,183.8,185.7,183.7L185.7,183.7z"/>
		<path class="st15" d="M182.1,183.6c-0.1-0.1-0.3-0.1-0.4,0l-0.8,0.8v-1.7c0-0.2-0.1-0.3-0.3-0.3s-0.3,0.1-0.3,0.3v1.7l-0.8-0.8
			c-0.1-0.1-0.3-0.1-0.4,0s-0.1,0.3,0,0.4l1.3,1.2l0,0l0.2,0.2l0.2-0.2l0,0l1.3-1.2C182.2,183.9,182.2,183.7,182.1,183.6
			L182.1,183.6z"/>
	</g>
	<g transform="translate(176.887 45.584) scale(.046)">
	</g>
	<g transform="translate(180.586 201.698) scale(.046)">
	</g>
	<g transform="translate(140.744 74.515) scale(.061)">
	</g>
	<g transform="translate(209.994 74.515) scale(.061)">
	</g>
	<g transform="translate(209.994 185.139) scale(.061)">
	</g>
	<g transform="translate(27.794 12.238) scale(.061)">
	</g>
</g>
<rect x="205.4" y="157.3" class="st3" width="25.1" height="25.1"/>
<rect x="172.4" y="167.9" class="st3" width="19.9" height="12.3"/>
<rect x="134.7" y="230.4" class="st3" width="45.9" height="12.7"/>
<text transform="matrix(1 0 0 1 172.9 172.3834)"><tspan x="0" y="0" class="st8 st16">イラスト</tspan><tspan x="0" y="4.8" class="st8 st16">漫画同好会</tspan></text>
<text transform="matrix(1 0 0 1 208.0768 167.8996)" class="st8 st12">D科科展</text>
<text transform="matrix(1 0 0 1 143.254 240.25)" class="st8 st17">茶道部</text>
<text transform="matrix(1 0 0 1 292.0008 204.0668)" class="st8 st12">D科科展</text>
<text transform="matrix(1 0 0 1 292.0008 242.3168)" class="st8 st12">D科科展</text>
<text transform="matrix(1 0 0 1 209.8167 174.0501)" class="st8 st12">美術部</text>
<image style="overflow:visible;enable-background:new    ;" width="230" height="230" xlink:href="F3B9CA4354204566.png"  transform="matrix(4.600000e-02 0 0 4.600000e-02 176.6666 58.434)">
</image>
<g transform="translate(176.757 45.475) scale(.046)">
	
		<image style="overflow:visible;enable-background:new    ;" width="230" height="230" id="image_3_" xlink:href="F3B9CA435420456A.png"  transform="matrix(4.600000e-02 0 0 4.600000e-02 176.6666 45.475)">
	</image>
</g>
<image style="overflow:visible;enable-background:new    ;" width="230" height="230" xlink:href="F3B9CA435420456D.png"  transform="matrix(4.600000e-02 0 0 4.600000e-02 142.2736 45.121)">
</image>
<g transform="translate(180.456 201.59) scale(.046)">
	
		<image style="overflow:visible;enable-background:new    ;" width="230" height="230" id="image_1_" xlink:href="F3B9CA435420456E.png"  transform="matrix(4.600000e-02 0 0 4.600000e-02 180.3656 201.59)">
	</image>
</g>
<g transform="translate(140.614 74.407) scale(.061)">
	
		<image style="overflow:visible;enable-background:new    ;" width="230" height="230" id="image-2_7_" xlink:href="F3B9CA435420456C.png"  transform="matrix(6.100000e-02 0 0 6.100000e-02 140.5236 74.407)">
	</image>
</g>
<g transform="translate(209.864 74.407) scale(.061)">
	
		<image style="overflow:visible;enable-background:new    ;" width="230" height="230" id="image-2_6_" xlink:href="F3B9CA435420456B.png"  transform="matrix(6.100000e-02 0 0 6.100000e-02 209.7736 74.407)">
	</image>
</g>
<g transform="translate(209.864 185.031) scale(.061)">
	
		<image style="overflow:visible;enable-background:new    ;" width="230" height="230" id="image-2_5_" xlink:href="F3B9CA4354204565.png"  transform="matrix(6.100000e-02 0 0 6.100000e-02 209.7736 185.031)">
	</image>
</g>
<g transform="translate(27.663 12.129) scale(.061)">
	
		<image style="overflow:visible;enable-background:new    ;" width="230" height="230" id="image-2_1_" xlink:href="F3B9CA4354204567.png"  transform="matrix(6.100000e-02 0 0 6.100000e-02 27.5726 12.129)">
	</image>
</g>
</svg>
