<?xml version="1.0" encoding="utf-8"?>
<!-- Generator: Adobe Illustrator 22.1.0, SVG Export Plug-In . SVG Version: 6.00 Build 0)  -->
<svg version="1.1" id="_F-9" xmlns="http://www.w3.org/2000/svg" xmlns:xlink="http://www.w3.org/1999/xlink" x="0px" y="0px"
	 viewBox="0 0 338.8 260.8" style="enable-background:new 0 0 338.8 260.8;" xml:space="preserve">
<style type="text/css">
	.st0{fill:#F7F6F5;stroke:#002355;stroke-width:0.5;stroke-miterlimit:10;}
	.st1{fill:none;stroke:#A0A0A0;stroke-width:0.5;stroke-miterlimit:10;}
	.st2{fill:#FFFFFF;stroke:#002355;stroke-width:0.5;stroke-miterlimit:10;}
	.st3{fill:none;stroke:#002355;stroke-width:0.5;stroke-miterlimit:10;}
	.st4{fill:none;stroke:#002355;stroke-width:0.25;stroke-miterlimit:10;}
	.st5{fill:#EAE1CF;stroke:#002355;stroke-width:0.5;stroke-miterlimit:10;}
	.st6{fill:#FFFFFF;stroke:#000000;stroke-width:0.5;stroke-miterlimit:10;}
	.st7{fill:#CCF5FF;stroke:#002355;stroke-width:0.5;stroke-miterlimit:10;}
	.st8{fill:#FAFDFF;stroke:#002355;stroke-width:0.5;stroke-miterlimit:10;}
	.st9{fill:#686868;}
	.st10{fill:#0A0A0A;}
	.st11{font-family:'HiraginoSans-W5-83pv-RKSJ-H';}
	.st12{font-size:6px;}
	.st13{font-size:5.9px;}
	.st14{fill:#FFFFFF;}
	.st15{font-size:4px;}
	.st16{font-size:4.5px;}
	.st17{font-size:5px;}
	.st18{font-size:5.8px;}
	.st19{font-size:5.5px;}
	.st20{font-size:5.3px;}
	.st21{font-size:9px;}
	.st22{font-size:7px;}
	.st23{font-size:8px;}
</style>
<g id="_地-9">
	<g>
		<path class="st0" d="M230.4,186.7V5.7h-38.1V13h-19.8V5.6h-37.8l0,0H24.2v65h110.2V243h69.3v-15.8h26.6v19.9
			c0,0,17.6,6.4,53.2,6.4c38.4,0,50.2-6.4,50.2-6.4v-60.3L230.4,186.7L230.4,186.7z M192,167.8h-19.1V92.1H192V167.8L192,167.8z"/>
		<g>
			<line class="st1" x1="191.8" y1="92.2" x2="172.8" y2="167.7"/>
			<line class="st1" x1="172.8" y1="92.2" x2="191.8" y2="167.7"/>
		</g>
	</g>
</g>
<g id="_棟-15">
	<path class="st2" d="M333.8,227.2H230.3l-0.1,19.9c0,0,17.6,6.4,53.2,6.4c38.4,0,50.2-6.4,50.2-6.4L333.8,227.2L333.8,227.2z"/>
	<rect x="230.4" y="186.6" class="st2" width="103.4" height="29.6"/>
	<line class="st3" x1="266.2" y1="227.2" x2="266.2" y2="253.1"/>
	<line class="st3" x1="291.9" y1="186.3" x2="291.9" y2="216.3"/>
	<line class="st4" x1="316.1" y1="227.3" x2="316.1" y2="251.2"/>
	<line class="st3" x1="277" y1="186.5" x2="277" y2="216.5"/>
	<line class="st3" x1="266.2" y1="186.5" x2="266.2" y2="216.5"/>
</g>
<rect x="172.3" y="43.8" class="st5" width="19.8" height="26.8"/>
<rect x="203.5" y="5.7" class="st6" width="26.8" height="35.3"/>
<rect x="203.5" y="41" class="st6" width="26.8" height="29.7"/>
<rect x="134.4" y="56.7" class="st5" width="26.5" height="13.9"/>
<rect x="134.3" y="5.6" class="st7" width="38.3" height="26.8"/>
<rect x="203.6" y="201.3" class="st5" width="26.8" height="15"/>
<rect x="134.4" y="106.3" class="st2" width="26.8" height="136.6"/>
<line class="st3" x1="134.3" y1="192.1" x2="161.3" y2="192.1"/>
<rect x="134.4" y="92.2" class="st2" width="26.8" height="14.1"/>
<rect x="203.5" y="92.1" class="st7" width="26.9" height="65.1"/>
<line class="st3" x1="203.4" y1="124.8" x2="230.4" y2="124.8"/>
<line class="st3" x1="203.3" y1="182.9" x2="230.3" y2="182.9"/>
<rect x="172.3" y="180.1" class="st8" width="19.8" height="17.3"/>
<line class="st3" x1="134.3" y1="157.2" x2="161.3" y2="157.2"/>
<line class="st3" x1="134.3" y1="205.2" x2="161.3" y2="205.2"/>
<rect x="172.3" y="197.4" class="st5" width="19.8" height="19"/>
<line class="st3" x1="160.9" y1="56.6" x2="160.9" y2="43.9"/>
<line class="st3" x1="179.2" y1="216.3" x2="179.2" y2="197.3"/>
<g id="_棟-16">
	<rect x="24.2" y="53.9" class="st8" width="20.9" height="16.7"/>
	<rect x="74.9" y="5.6" class="st7" width="29.8" height="26.8"/>
	<rect x="104.5" y="5.6" class="st7" width="29.7" height="26.8"/>
	<rect x="45.3" y="5.6" class="st7" width="29.8" height="26.8"/>
	<rect x="45.1" y="43.9" class="st2" width="89.2" height="26.8"/>
	<path class="st3" d="M118.9,44"/>
	<path class="st3" d="M118.9,70.6"/>
	<path class="st3" d="M118.9,61.4"/>
	<path class="st4" d="M75.5,44.1V64c3.4,0,14,0,14,0"/>
	<line class="st3" x1="89.8" y1="43.9" x2="89.8" y2="70.9"/>
</g>
<g>
	<g>
		<path class="st9" d="M33.5,61.9c0,0.3-0.3,0.6-0.6,0.6s-0.6-0.2-0.6-0.6s0.3-0.6,0.6-0.6S33.5,61.6,33.5,61.9z"/>
		<path class="st9" d="M32.9,62.6c-0.4,0-1.3,0-1.3,0.8v1.8c0,0.1,0.1,0.2,0.2,0.2s0.2-0.1,0.2-0.2l0.1-1.1l0.1,4.1
			c0,0.2,0.1,0.3,0.3,0.3s0.3-0.1,0.3-0.3l0.1-2.5l0.1,2.5c0,0.2,0.1,0.3,0.3,0.3s0.3-0.1,0.3-0.3l0.1-4.1l0.1,1.1
			c0,0.1,0.1,0.2,0.2,0.2c0.1,0,0.2-0.1,0.2-0.2v-1.8C34.3,62.6,33.3,62.6,32.9,62.6L32.9,62.6z"/>
	</g>
	<g>
		<path class="st9" d="M37,61.9c0,0.3-0.3,0.6-0.6,0.6s-0.6-0.2-0.6-0.6s0.3-0.6,0.6-0.6S37,61.6,37,61.9z"/>
		<path class="st9" d="M36.4,62.6c-0.4,0-1.3,0-1.3,0.8v1.8c0,0.1,0.1,0.2,0.2,0.2c0.1,0,0.2-0.1,0.2-0.2l0.1-1.1l0.1,4.1
			c0,0.2,0.1,0.3,0.3,0.3s0.3-0.1,0.3-0.3l0.1-2.5l0.1,2.5c0,0.2,0.1,0.3,0.3,0.3s0.3-0.1,0.3-0.3l0.1-4.1l0.1,1.1
			c0,0.1,0.1,0.2,0.2,0.2c0.1,0,0.2-0.1,0.2-0.2v-1.8C37.7,62.6,36.8,62.6,36.4,62.6L36.4,62.6z"/>
	</g>
	<path class="st9" d="M38.4,68.9H31c-0.6,0-1-0.5-1-1v-7.7c0-0.6,0.5-1,1-1h7.4c0.6,0,1,0.5,1,1v7.7C39.4,68.4,38.9,68.9,38.4,68.9z
		 M30.9,59.8c-0.2,0-0.4,0.2-0.4,0.4v7.7c0,0.2,0.2,0.4,0.4,0.4h7.4c0.2,0,0.4-0.2,0.4-0.4v-7.7c0-0.2-0.2-0.4-0.4-0.4
		C38.4,59.8,30.9,59.8,30.9,59.8z"/>
	<path class="st9" d="M38,57.1l-1.3-1.2l0,0l-0.2-0.2l-0.2,0.2l0,0L35,57.1c-0.1,0.1-0.1,0.3,0,0.4s0.3,0.1,0.4,0l0.8-0.8v1.7
		c0,0.2,0.1,0.3,0.3,0.3s0.3-0.1,0.3-0.3v-1.7l0.8,0.8c0.1,0.1,0.1,0.1,0.2,0.1s0.1,0,0.2-0.1C38.1,57.4,38.1,57.2,38,57.1L38,57.1z
		"/>
	<path class="st9" d="M34.4,57c-0.1-0.1-0.3-0.1-0.4,0l-0.8,0.8V56c0-0.2-0.1-0.3-0.3-0.3s-0.3,0.1-0.3,0.3v1.7L31.9,57
		c-0.1-0.1-0.3-0.1-0.4,0s-0.1,0.3,0,0.4l1.3,1.2l0,0l0.2,0.2l0.2-0.2l0,0l1.3-1.2C34.5,57.3,34.5,57.1,34.4,57L34.4,57z"/>
</g>
<g>
	<g>
		<path class="st9" d="M181.1,188.4c0,0.3-0.3,0.6-0.6,0.6s-0.6-0.2-0.6-0.6s0.3-0.6,0.6-0.6S181.1,188.1,181.1,188.4z"/>
		<path class="st9" d="M180.5,189.1c-0.4,0-1.3,0-1.3,0.8v1.8c0,0.1,0.1,0.2,0.2,0.2c0.1,0,0.2-0.1,0.2-0.2l0.1-1.1l0.1,4.1
			c0,0.2,0.1,0.3,0.3,0.3s0.3-0.1,0.3-0.3l0.1-2.5l0.1,2.5c0,0.2,0.1,0.3,0.3,0.3s0.3-0.1,0.3-0.3l0.1-4.1l0.1,1.1
			c0,0.1,0.1,0.2,0.2,0.2c0.1,0,0.2-0.1,0.2-0.2v-1.8C181.8,189.1,180.9,189.1,180.5,189.1z"/>
	</g>
	<g>
		<path class="st9" d="M184.5,188.4c0,0.3-0.3,0.6-0.6,0.6s-0.6-0.2-0.6-0.6s0.3-0.6,0.6-0.6S184.5,188.1,184.5,188.4z"/>
		<path class="st9" d="M184,189.1c-0.4,0-1.3,0-1.3,0.8v1.8c0,0.1,0.1,0.2,0.2,0.2c0.1,0,0.2-0.1,0.2-0.2l0.1-1.1l0.1,4.1
			c0,0.2,0.1,0.3,0.3,0.3s0.3-0.1,0.3-0.3l0.1-2.5l0.1,2.5c0,0.2,0.1,0.3,0.3,0.3s0.3-0.1,0.3-0.3l0.1-4.1l0.1,1.1
			c0,0.1,0.1,0.2,0.2,0.2c0.1,0,0.2-0.1,0.2-0.2v-1.8C185.3,189.1,184.4,189.1,184,189.1z"/>
	</g>
	<path class="st9" d="M185.9,195.4h-7.4c-0.6,0-1-0.5-1-1v-7.7c0-0.6,0.5-1,1-1h7.4c0.6,0,1,0.5,1,1v7.7
		C187,194.9,186.5,195.4,185.9,195.4z M178.5,186.3c-0.2,0-0.4,0.2-0.4,0.4v7.7c0,0.2,0.2,0.4,0.4,0.4h7.4c0.2,0,0.4-0.2,0.4-0.4
		v-7.7c0-0.2-0.2-0.4-0.4-0.4H178.5z"/>
	<path class="st9" d="M185.6,183.6l-1.3-1.2l0,0l-0.2-0.2l-0.2,0.2l0,0l-1.3,1.2c-0.1,0.1-0.1,0.3,0,0.4s0.3,0.1,0.4,0l0.8-0.8v1.7
		c0,0.2,0.1,0.3,0.3,0.3s0.3-0.1,0.3-0.3v-1.7l0.8,0.8c0.1,0.1,0.1,0.1,0.2,0.1s0.1,0,0.2-0.1S185.7,183.7,185.6,183.6L185.6,183.6z
		"/>
	<path class="st9" d="M182,183.5c-0.1-0.1-0.3-0.1-0.4,0l-0.8,0.8v-1.7c0-0.2-0.1-0.3-0.3-0.3s-0.3,0.1-0.3,0.3v1.7l-0.8-0.8
		c-0.1-0.1-0.3-0.1-0.4,0s-0.1,0.3,0,0.4l1.3,1.2l0,0l0.2,0.2l0.2-0.2l0,0l1.3-1.2C182.1,183.8,182.1,183.6,182,183.5L182,183.5z"/>
</g>
<image style="overflow:visible;enable-background:new    ;" width="261" height="261" xlink:href="8BC6DDA7D3AA595F.png"  transform="matrix(4.053640e-02 0 0 4.053640e-02 176.757 58.434)">
</image>
<g transform="translate(176.757 45.475) scale(.046)">
	
		<image style="overflow:visible;enable-background:new    ;" width="261" height="261" id="image" xlink:href="8BC6DDA7D3AA595A.png"  transform="matrix(4.053640e-02 0 0 4.053640e-02 176.757 45.475)">
	</image>
</g>
<image style="overflow:visible;enable-background:new    ;" width="239" height="239" xlink:href="8BC6DDA7D3AA5959.png"  transform="matrix(4.426778e-02 0 0 4.426778e-02 142.364 45.121)">
</image>
<g transform="translate(180.456 201.59) scale(.046)">
	
		<image style="overflow:visible;enable-background:new    ;" width="261" height="261" id="image_2_" xlink:href="8BC6DDA7D3AA5966.png"  transform="matrix(4.053640e-02 0 0 4.053640e-02 180.456 201.59)">
	</image>
</g>
<g transform="translate(140.614 74.407) scale(.061)">
	
		<image style="overflow:visible;enable-background:new    ;" width="246" height="246" id="image-2" xlink:href="8BC6DDA7D3AA5969.png"  transform="matrix(5.703252e-02 0 0 5.703252e-02 140.614 74.407)">
	</image>
</g>
<g transform="translate(209.864 74.407) scale(.061)">
	
		<image style="overflow:visible;enable-background:new    ;" width="246" height="246" id="image-2_2_" xlink:href="8BC6DDA7D3AA596A.png"  transform="matrix(5.703252e-02 0 0 5.703252e-02 209.864 74.407)">
	</image>
</g>
<g transform="translate(209.864 185.031) scale(.061)">
	
		<image style="overflow:visible;enable-background:new    ;" width="246" height="246" id="image-2_3_" xlink:href="8BC6DDA7D3AA5968.png"  transform="matrix(5.703252e-02 0 0 5.703252e-02 209.864 185.031)">
	</image>
</g>
<g transform="translate(27.663 12.129) scale(.061)">
	
		<image style="overflow:visible;enable-background:new    ;" width="246" height="246" id="image-2_4_" xlink:href="8BC6DDA7D3AA596D.png"  transform="matrix(5.703252e-02 0 0 5.703252e-02 27.663 12.129)">
	</image>
</g>
<g>
	<path class="st10" d="M86.8,18.8h-2.2v2.1h2.5v0.6h-3.2v-5.7H87v0.6h-2.4v1.8h2.2L86.8,18.8L86.8,18.8z"/>
	<path class="st10" d="M87.8,21.5V21l0.6-0.6c1.4-1.3,2.1-2.1,2.1-2.9c0-0.6-0.3-1.1-1.1-1.1c-0.5,0-0.9,0.3-1.2,0.5L88,16.4
		c0.4-0.3,0.9-0.6,1.6-0.6c1.2,0,1.7,0.8,1.7,1.6c0,1-0.7,1.9-1.9,3L89,20.8l0,0h2.5v0.6L87.8,21.5L87.8,21.5z"/>
	<path class="st10" d="M92.1,21.5V21l0.6-0.6c1.4-1.3,2.1-2.1,2.1-2.9c0-0.6-0.3-1.1-1.1-1.1c-0.5,0-0.9,0.3-1.2,0.5l-0.2-0.5
		c0.4-0.3,0.9-0.6,1.6-0.6c1.2,0,1.7,0.8,1.7,1.6c0,1-0.7,1.9-1.9,3l-0.4,0.4l0,0h2.5v0.6L92.1,21.5L92.1,21.5z"/>
</g>
<g>
	<path class="st10" d="M149.5,15.8c0.5-0.1,1-0.1,1.6-0.1c1.1,0,1.8,0.3,2.3,0.7c0.5,0.5,0.8,1.1,0.8,2s-0.3,1.7-0.8,2.2
		s-1.4,0.8-2.5,0.8c-0.5,0-1,0-1.3-0.1L149.5,15.8L149.5,15.8z M150.3,20.9c0.2,0,0.5,0,0.7,0c1.6,0,2.4-0.9,2.4-2.4
		c0-1.4-0.8-2.2-2.3-2.2c-0.4,0-0.7,0-0.9,0.1L150.3,20.9L150.3,20.9z"/>
	<path class="st10" d="M156.6,16.6L156.6,16.6l-1,0.5l-0.1-0.6l1.2-0.6h0.6v5.5h-0.7V16.6L156.6,16.6z"/>
</g>
<text transform="matrix(1 0 0 1 54.107 56.325)" class="st10 st11 st12">音響</text>
<text transform="matrix(1 0 0 1 51.263 63.525)" class="st10 st11 st12">実</text>
<text transform="matrix(1 0 0 1 57.095 63.525)" class="st10 st11 st12">習</text>
<text transform="matrix(1 0 0 1 62.952 63.525)" class="st10 st11 st12">室</text>
<text transform="matrix(1 0 0 1 207.893 21.973)" class="st10 st11 st12">数学科</text>
<text transform="matrix(1 0 0 1 207.992 29.173)" class="st10 st11 st12">職員</text>
<text transform="matrix(1 0 0 1 219.793 29.173)" class="st10 st11 st12">室</text>
<text transform="matrix(1 0 0 1 205.027 50.968)" class="st10 st11 st13">工業基礎</text>
<text transform="matrix(1 0 0 1 208.131 58.048)" class="st10 st11 st13">実</text>
<text transform="matrix(1 0 0 1 213.865 58.048)" class="st10 st11 st13">習</text>
<text transform="matrix(1 0 0 1 219.624 58.048)" class="st10 st11 st13">室</text>
<text transform="matrix(1 0 0 1 208.649 65.128)" class="st14 st11 st13">(定時)</text>
<text transform="matrix(1 0 0 1 135.709 98.097)" class="st10 st11 st15">電気科</text>
<text transform="matrix(1 0 0 1 147.829 98.097)" class="st10 st11 st15">職員</text>
<text transform="matrix(1 0 0 1 155.777 98.097)" class="st10 st11 st15">室</text>
<text transform="matrix(1 0 0 1 142.14 103.397)" class="st10 st11 st15">(定時)</text>
<text transform="matrix(1 0 0 1 138.776 197.75)" class="st10 st11 st16">電気工事</text>
<text transform="matrix(1 0 0 1 138.776 203.15)" class="st10 st11 st16">材料倉庫</text>
<text transform="matrix(1 0 0 1 239.35 203.694)" class="st10 st11 st12">講義室</text>
<text transform="matrix(1 0 0 1 297.73 203.679)" class="st10 st11 st12">製図</text>
<text transform="matrix(1 0 0 1 309.73 203.679)" class="st10 st11 st12">実</text>
<text transform="matrix(1 0 0 1 315.562 203.679)" class="st10 st11 st12">習</text>
<text transform="matrix(1 0 0 1 321.418 203.679)" class="st10 st11 st12">室</text>
<g>
	<path d="M261.3,84.1c0.6,0.1,1.1,0,2,0c1.4-0.1,2.8-0.4,3.8-1.1c1.3-0.8,2.1-2.1,2.4-3.4h-0.1c-0.9,0.9-2.1,1.3-3.8,1.3
		c-3.3,0-6.1-2.3-6.1-6.1s3.1-7,7.4-7c5.1,0,7.5,3.9,7.5,8.4c0,4-1.3,7-3.4,9c-1.9,1.7-4.5,2.6-7.7,2.7c-0.7,0.1-1.5,0-2,0
		L261.3,84.1L261.3,84.1z M264.3,74.5c0,1.6,0.9,3,2.6,3c1.2,0,2-0.5,2.4-1.2c0.1-0.3,0.2-0.6,0.2-1.2c0-1.9-0.7-3.9-2.7-3.9
		C265.3,71.2,264.2,72.5,264.3,74.5L264.3,74.5z"/>
	<path d="M278.5,74.1h8.3v2.6h-5.2v2.9h4.8v2.6h-4.8v5.3h-3.2L278.5,74.1L278.5,74.1z"/>
</g>
<text transform="matrix(1 0 0 1 232.644 238.616)" class="st10 st11 st17">コ</text>
<text transform="matrix(1 0 0 1 236.929 238.616)" class="st10 st11 st17">ンピ</text>
<text transform="matrix(1 0 0 1 245.485 238.616)" class="st10 st11 st17">ュ</text>
<text transform="matrix(1 0 0 1 249.87 238.616)" class="st10 st11 st17">ー</text>
<text transform="matrix(1 0 0 1 254.405 238.616)" class="st10 st11 st17">タ</text>
<text transform="matrix(1 0 0 1 258.82 238.616)" class="st10 st11 st17">ー</text>
<text transform="matrix(1 0 0 1 234.022 245.48)" class="st10 st11 st18">通信</text>
<text transform="matrix(1 0 0 1 245.622 245.48)" class="st10 st11 st18">実</text>
<text transform="matrix(1 0 0 1 251.259 245.48)" class="st10 st11 st18">習</text>
<text transform="matrix(1 0 0 1 256.92 245.48)" class="st10 st11 st18">室</text>
<text transform="matrix(1 0 0 1 274.578 238.616)" class="st10 st11 st17">コ</text>
<text transform="matrix(1 0 0 1 278.863 238.616)" class="st10 st11 st17">ンピ</text>
<text transform="matrix(1 0 0 1 287.419 238.616)" class="st10 st11 st17">ュ</text>
<text transform="matrix(1 0 0 1 291.804 238.616)" class="st10 st11 st17">ー</text>
<text transform="matrix(1 0 0 1 296.339 238.616)" class="st10 st11 st17">タ</text>
<text transform="matrix(1 0 0 1 300.754 238.616)" class="st10 st11 st17">ー</text>
<text transform="matrix(1 0 0 1 277.725 245.48)" class="st10 st11 st18">実</text>
<text transform="matrix(1 0 0 1 283.363 245.48)" class="st10 st11 st18">習</text>
<text transform="matrix(1 0 0 1 289.024 245.48)" class="st10 st11 st18">室-極</text>
<text transform="matrix(1 0 0 1 321.564 241.502)" class="st10 st11 st18">匠</text>
<g>
	<text transform="matrix(1 0 0 1 79.872 49.996)" class="st10 st11 st19">無</text>
	<text transform="matrix(1 0 0 1 79.872 56.027)" class="st10 st11 st19">響</text>
	<text transform="matrix(1 0 0 1 79.872 62.06)" class="st10 st11 st19">室</text>
</g>
<g>
	<text transform="matrix(1 0 0 1 281.773 214.293)" class="st10 st11 st20">室</text>
	<text transform="matrix(1 0 0 1 281.773 198.463)" class="st10 st11 st20">図</text>
	<text transform="matrix(1 0 0 1 281.773 193.187)" class="st10 st11 st20">製</text>
	<text transform="matrix(1 0 0 1 281.773 203.74)" class="st10 st11 st20">準</text>
	<text transform="matrix(1 0 0 1 281.773 209.016)" class="st10 st11 st20">備</text>
</g>
<g>
	<text transform="matrix(1 0 0 1 268.946 203.74)" class="st10 st11 st20">室</text>
	<text transform="matrix(1 0 0 1 268.946 193.187)" class="st10 st11 st20">資</text>
	<text transform="matrix(1 0 0 1 268.946 198.463)" class="st10 st11 st20">料</text>
	<text transform="matrix(1 0 0 1 269.596 213.047)" class="st10 st11 st15">庫</text>
	<text transform="matrix(1 0 0 1 269.596 209.002)" class="st10 st11 st15">倉</text>
</g>
<rect x="89.8" y="43.9" class="st7" width="44.6" height="26.7"/>
<text transform="matrix(1 0 0 1 99.5 59.765)" class="st11 st21">写真部</text>
<text transform="matrix(1 0 0 1 207.8934 106.3448)" class="st11 st21">E科</text>
<text transform="matrix(1 0 0 1 207.8934 117.767)" class="st11 st21">科展</text>
<text transform="matrix(1 0 0 1 208.6488 138.8448)" class="st11 st21">E科</text>
<text transform="matrix(1 0 0 1 208.6488 150.267)" class="st11 st21">科展</text>
<rect x="134.4" y="106.3" class="st7" width="26.9" height="50.9"/>
<text transform="matrix(1 0 0 1 138.7758 125.2777)" class="st11 st21">鉄道</text>
<text transform="matrix(1 0 0 1 138.7758 136.0777)" class="st11 st21">研究</text>
<text transform="matrix(1 0 0 1 138.7758 146.8777)" class="st11 st21">部</text>
<rect x="134.3" y="157.2" class="st7" width="27" height="34.9"/>
<text transform="matrix(1 0 0 1 134.3968 172.671)" class="st11 st22">クリエイ</text>
<text transform="matrix(1 0 0 1 134.3968 181.071)" class="st11 st22">ション部</text>
<rect x="134.4" y="205.2" class="st7" width="26.9" height="37.8"/>
<text transform="matrix(1 0 0 1 137.7091 217.1398)" class="st11 st21">電気</text>
<text transform="matrix(1 0 0 1 137.7091 227.9398)" class="st11 st21">研究</text>
<text transform="matrix(1 0 0 1 137.7091 236.5798)" class="st11 st22">同好会</text>
<text transform="matrix(1 0 0 1 108.1409 17.0351)" class="st11 st23">映画</text>
<text transform="matrix(1 0 0 1 108.1409 26.6351)" class="st11 st23">研究部</text>
<text transform="matrix(1 0 0 1 49.1409 18.0351)" class="st11 st23">神奈川</text>
<text transform="matrix(1 0 0 1 49.1409 27.6351)" class="st11 st23">総合</text>
<rect x="205" y="157.6" class="st7" width="25.3" height="25.3"/>
<text transform="matrix(1 0 0 1 209.8643 172.809)" class="st11 st22">E２１</text>
<rect x="166.6" y="224.1" class="st7" width="31.5" height="18.5"/>
<text transform="matrix(1 0 0 1 172.342 235.309)" class="st11 st22">放送部</text>
</svg>
