<?xml version="1.0" encoding="utf-8"?>
<!-- Generator: Adobe Illustrator 22.1.0, SVG Export Plug-In . SVG Version: 6.00 Build 0)  -->
<svg version="1.1" id="_F-9" xmlns="http://www.w3.org/2000/svg" xmlns:xlink="http://www.w3.org/1999/xlink" x="0px" y="0px"
	 viewBox="0 0 338.8 260.8" style="enable-background:new 0 0 338.8 260.8;" xml:space="preserve">
<style type="text/css">
	.st0{fill:#F7F6F5;stroke:#002355;stroke-width:0.5;stroke-miterlimit:10;}
	.st1{fill:none;stroke:#A0A0A0;stroke-width:0.5;stroke-miterlimit:10;}
	.st2{fill:#FFFFFF;stroke:#002355;stroke-width:0.5;stroke-miterlimit:10;}
	.st3{fill:none;stroke:#002355;stroke-width:0.5;stroke-miterlimit:10;}
	.st4{fill:none;stroke:#002355;stroke-width:0.25;stroke-miterlimit:10;}
	.st5{fill:#EAE1CF;stroke:#002355;stroke-width:0.5;stroke-miterlimit:10;}
	.st6{fill:#FFFFFF;stroke:#000000;stroke-width:0.5;stroke-miterlimit:10;}
	.st7{fill:#CCF5FF;stroke:#002355;stroke-width:0.5;stroke-miterlimit:10;}
	.st8{fill:#FAFDFF;stroke:#002355;stroke-width:0.5;stroke-miterlimit:10;}
	.st9{fill:#0A0A0A;}
	.st10{font-family:'HiraginoSans-W5-83pv-RKSJ-H';}
	.st11{font-size:6px;}
	.st12{font-size:5.9px;}
	.st13{fill:#FFFFFF;}
	.st14{font-size:4px;}
	.st15{font-size:4.5px;}
	.st16{font-size:5px;}
	.st17{font-size:5.8px;}
	.st18{font-size:5.5px;}
	.st19{font-size:5.3px;}
	.st20{fill:#CCF5FF;}
	.st21{fill:#333333;}
	.st22{font-family:'KozGoPr6N-Regular-83pv-RKSJ-H';}
	.st23{font-size:3px;}
</style>
<g id="_地-9">
	<g>
		<path class="st0" d="M230.4,186.7V5.7h-38.1V13h-19.8V5.6h-37.8l0,0H24.2v65h110.2V243h69.3v-15.8h26.6v19.9
			c0,0,17.6,6.4,53.2,6.4c38.4,0,50.2-6.4,50.2-6.4v-60.3L230.4,186.7L230.4,186.7z M192,167.8h-19.1V92.1H192V167.8L192,167.8z"/>
		<g>
			<line class="st1" x1="191.8" y1="92.2" x2="172.8" y2="167.7"/>
			<line class="st1" x1="172.8" y1="92.2" x2="191.8" y2="167.7"/>
		</g>
	</g>
</g>
<g id="_棟-15">
	<path class="st2" d="M333.8,227.2H230.3l-0.1,19.9c0,0,17.6,6.4,53.2,6.4c38.4,0,50.2-6.4,50.2-6.4L333.8,227.2L333.8,227.2z"/>
	<rect x="230.4" y="186.6" class="st2" width="103.4" height="29.6"/>
	<line class="st3" x1="266.2" y1="227.2" x2="266.2" y2="253.1"/>
	<line class="st3" x1="291.9" y1="186.3" x2="291.9" y2="216.3"/>
	<line class="st4" x1="316.1" y1="227.3" x2="316.1" y2="251.2"/>
	<line class="st3" x1="277" y1="186.5" x2="277" y2="216.5"/>
	<line class="st3" x1="266.2" y1="186.5" x2="266.2" y2="216.5"/>
</g>
<rect x="172.3" y="43.8" class="st5" width="19.8" height="26.8"/>
<rect x="203.5" y="5.7" class="st6" width="26.8" height="35.3"/>
<rect x="203.5" y="41" class="st6" width="26.8" height="29.7"/>
<rect x="134.4" y="56.7" class="st5" width="26.5" height="13.9"/>
<rect x="134.3" y="5.6" class="st7" width="38.3" height="26.8"/>
<rect x="203.6" y="201.3" class="st5" width="26.8" height="15"/>
<rect x="134.4" y="106.3" class="st2" width="26.8" height="136.6"/>
<line class="st3" x1="134.3" y1="192.1" x2="161.3" y2="192.1"/>
<rect x="134.4" y="92.2" class="st2" width="26.8" height="14.1"/>
<rect x="203.5" y="92.1" class="st7" width="26.9" height="65.1"/>
<line class="st3" x1="203.4" y1="124.8" x2="230.4" y2="124.8"/>
<line class="st3" x1="203.3" y1="182.9" x2="230.3" y2="182.9"/>
<rect x="172.3" y="180.1" class="st8" width="19.8" height="17.3"/>
<line class="st3" x1="134.3" y1="157.2" x2="161.3" y2="157.2"/>
<line class="st3" x1="134.3" y1="205.2" x2="161.3" y2="205.2"/>
<rect x="172.3" y="197.4" class="st5" width="19.8" height="19"/>
<line class="st3" x1="160.9" y1="56.6" x2="160.9" y2="43.9"/>
<line class="st3" x1="179.2" y1="216.3" x2="179.2" y2="197.3"/>
<g id="_棟-16">
	<rect x="24.2" y="53.9" class="st8" width="20.9" height="16.7"/>
	<rect x="74.9" y="5.6" class="st7" width="29.8" height="26.8"/>
	<rect x="104.5" y="5.6" class="st7" width="29.7" height="26.8"/>
	<rect x="45.3" y="5.6" class="st7" width="29.8" height="26.8"/>
	<rect x="45.1" y="43.9" class="st2" width="89.2" height="26.8"/>
	<path class="st3" d="M118.9,44"/>
	<path class="st3" d="M118.9,70.6"/>
	<path class="st3" d="M118.9,61.4"/>
	<path class="st4" d="M75.5,44.1V64c3.4,0,14,0,14,0"/>
	<line class="st3" x1="89.8" y1="43.9" x2="89.8" y2="70.9"/>
</g>
<g transform="translate(140.614 74.407) scale(.061)">
</g>
<g transform="translate(209.864 74.407) scale(.061)">
</g>
<text transform="matrix(1 0 0 1 54.107 56.325)" class="st9 st10 st11">音響</text>
<text transform="matrix(1 0 0 1 51.263 63.525)" class="st9 st10 st11">実</text>
<text transform="matrix(1 0 0 1 57.095 63.525)" class="st9 st10 st11">習</text>
<text transform="matrix(1 0 0 1 62.952 63.525)" class="st9 st10 st11">室</text>
<text transform="matrix(1 0 0 1 207.893 21.973)" class="st9 st10 st11">数学科</text>
<text transform="matrix(1 0 0 1 207.992 29.173)" class="st9 st10 st11">職員</text>
<text transform="matrix(1 0 0 1 219.793 29.173)" class="st9 st10 st11">室</text>
<text transform="matrix(1 0 0 1 205.027 50.968)" class="st9 st10 st12">工業基礎</text>
<text transform="matrix(1 0 0 1 208.131 58.048)" class="st9 st10 st12">実</text>
<text transform="matrix(1 0 0 1 213.865 58.048)" class="st9 st10 st12">習</text>
<text transform="matrix(1 0 0 1 219.624 58.048)" class="st9 st10 st12">室</text>
<text transform="matrix(1 0 0 1 208.649 65.128)" class="st13 st10 st12">(定時)</text>
<text transform="matrix(1 0 0 1 135.709 98.097)" class="st9 st10 st14">電気科</text>
<text transform="matrix(1 0 0 1 147.829 98.097)" class="st9 st10 st14">職員</text>
<text transform="matrix(1 0 0 1 155.777 98.097)" class="st9 st10 st14">室</text>
<text transform="matrix(1 0 0 1 142.14 103.397)" class="st9 st10 st14">(定時)</text>
<text transform="matrix(1 0 0 1 138.776 197.75)" class="st9 st10 st15">電気工事</text>
<text transform="matrix(1 0 0 1 138.776 203.15)" class="st9 st10 st15">材料倉庫</text>
<text transform="matrix(1 0 0 1 239.35 203.694)" class="st9 st10 st11">講義室</text>
<text transform="matrix(1 0 0 1 297.73 203.679)" class="st9 st10 st11">製図</text>
<text transform="matrix(1 0 0 1 309.73 203.679)" class="st9 st10 st11">実</text>
<text transform="matrix(1 0 0 1 315.562 203.679)" class="st9 st10 st11">習</text>
<text transform="matrix(1 0 0 1 321.418 203.679)" class="st9 st10 st11">室</text>
<g>
	<path d="M261.3,84.1c0.6,0.1,1.1,0,2,0c1.4-0.1,2.8-0.4,3.8-1.1c1.3-0.8,2.1-2.1,2.4-3.4h-0.1c-0.9,0.9-2.1,1.3-3.8,1.3
		c-3.3,0-6.1-2.3-6.1-6.1s3.1-7,7.4-7c5.1,0,7.5,3.9,7.5,8.4c0,4-1.3,7-3.4,9c-1.9,1.7-4.5,2.6-7.7,2.7c-0.7,0.1-1.5,0-2,0
		L261.3,84.1L261.3,84.1z M264.3,74.5c0,1.6,0.9,3,2.6,3c1.2,0,2-0.5,2.4-1.2c0.1-0.3,0.2-0.6,0.2-1.2c0-1.9-0.7-3.9-2.7-3.9
		C265.3,71.2,264.2,72.5,264.3,74.5L264.3,74.5z"/>
	<path d="M278.5,74.1h8.3v2.6h-5.2v2.9h4.8v2.6h-4.8v5.3h-3.2L278.5,74.1L278.5,74.1z"/>
</g>
<text transform="matrix(1 0 0 1 232.644 238.616)" class="st9 st10 st16">コ</text>
<text transform="matrix(1 0 0 1 236.929 238.616)" class="st9 st10 st16">ンピ</text>
<text transform="matrix(1 0 0 1 245.485 238.616)" class="st9 st10 st16">ュ</text>
<text transform="matrix(1 0 0 1 249.87 238.616)" class="st9 st10 st16">ー</text>
<text transform="matrix(1 0 0 1 254.405 238.616)" class="st9 st10 st16">タ</text>
<text transform="matrix(1 0 0 1 258.82 238.616)" class="st9 st10 st16">ー</text>
<text transform="matrix(1 0 0 1 234.022 245.48)" class="st9 st10 st17">通信</text>
<text transform="matrix(1 0 0 1 245.622 245.48)" class="st9 st10 st17">実</text>
<text transform="matrix(1 0 0 1 251.259 245.48)" class="st9 st10 st17">習</text>
<text transform="matrix(1 0 0 1 256.92 245.48)" class="st9 st10 st17">室</text>
<text transform="matrix(1 0 0 1 274.578 238.616)" class="st9 st10 st16">コ</text>
<text transform="matrix(1 0 0 1 278.863 238.616)" class="st9 st10 st16">ンピ</text>
<text transform="matrix(1 0 0 1 287.419 238.616)" class="st9 st10 st16">ュ</text>
<text transform="matrix(1 0 0 1 291.804 238.616)" class="st9 st10 st16">ー</text>
<text transform="matrix(1 0 0 1 296.339 238.616)" class="st9 st10 st16">タ</text>
<text transform="matrix(1 0 0 1 300.754 238.616)" class="st9 st10 st16">ー</text>
<text transform="matrix(1 0 0 1 277.725 245.48)" class="st9 st10 st17">実</text>
<text transform="matrix(1 0 0 1 283.363 245.48)" class="st9 st10 st17">習</text>
<text transform="matrix(1 0 0 1 289.024 245.48)" class="st9 st10 st17">室-極</text>
<text transform="matrix(1 0 0 1 321.564 241.502)" class="st9 st10 st17">匠</text>
<g>
	<text transform="matrix(1 0 0 1 79.872 49.996)" class="st9 st10 st18">無</text>
	<text transform="matrix(1 0 0 1 79.872 56.027)" class="st9 st10 st18">響</text>
	<text transform="matrix(1 0 0 1 79.872 62.06)" class="st9 st10 st18">室</text>
</g>
<g>
	<text transform="matrix(1 0 0 1 281.773 214.293)" class="st9 st10 st19">室</text>
	<text transform="matrix(1 0 0 1 281.773 198.463)" class="st9 st10 st19">図</text>
	<text transform="matrix(1 0 0 1 281.773 193.187)" class="st9 st10 st19">製</text>
	<text transform="matrix(1 0 0 1 281.773 203.74)" class="st9 st10 st19">準</text>
	<text transform="matrix(1 0 0 1 281.773 209.016)" class="st9 st10 st19">備</text>
</g>
<g>
	<text transform="matrix(1 0 0 1 268.946 203.74)" class="st9 st10 st19">室</text>
	<text transform="matrix(1 0 0 1 268.946 193.187)" class="st9 st10 st19">資</text>
	<text transform="matrix(1 0 0 1 268.946 198.463)" class="st9 st10 st19">料</text>
	<text transform="matrix(1 0 0 1 269.596 213.047)" class="st9 st10 st14">庫</text>
	<text transform="matrix(1 0 0 1 269.596 209.002)" class="st9 st10 st14">倉</text>
</g>
<rect x="89.8" y="43.9" class="st7" width="44.6" height="26.7"/>
<g>
	<text transform="matrix(1 0 0 1 102.3333 54.6999)" class="st10 st11">写真部</text>
</g>
<g>
	<text transform="matrix(1 0 0 1 208.7708 102.3448)" class="st10 st11">電気科</text>
</g>
<g>
	<text transform="matrix(1 0 0 1 211.7708 108.6003)" class="st10 st11">科展</text>
</g>
<g>
	<text transform="matrix(1 0 0 1 208.7714 134.8448)" class="st10 st11">電気科</text>
</g>
<g>
	<text transform="matrix(1 0 0 1 211.7714 140.9336)" class="st10 st11">科展</text>
</g>
<rect x="134.4" y="106.3" class="st7" width="26.9" height="50.9"/>
<g>
	<text transform="matrix(1 0 0 1 140.6168 119.451)" class="st10 st11">鉄道</text>
</g>
<g>
	<text transform="matrix(1 0 0 1 138.0043 126.9109)" class="st10 st11">研究部</text>
</g>
<rect x="134.3" y="157.2" class="st7" width="27" height="34.9"/>
<g>
	<text transform="matrix(1 0 0 1 136.3968 164.5999)" class="st10 st11">クリエイ</text>
</g>
<g>
	<text transform="matrix(1 0 0 1 136.3968 170.9998)" class="st10 st11">ション部</text>
</g>
<rect x="134.4" y="205.2" class="st7" width="26.9" height="37.8"/>
<g>
	<text transform="matrix(1 0 0 1 141.7002 216.1398)" class="st10 st11">電気</text>
</g>
<g>
	<text transform="matrix(1 0 0 1 141.7003 222.0786)" class="st10 st11">研究</text>
</g>
<g>
	<text transform="matrix(1 0 0 1 138.727 228.0164)" class="st10 st11">同好会</text>
</g>
<g>
	<text transform="matrix(1 0 0 1 112.1409 13.8677)" class="st10 st11">映画</text>
</g>
<g>
	<text transform="matrix(1 0 0 1 110.1409 20.0324)" class="st10 st11">研究部</text>
</g>
<g>
	<g>
		<text transform="matrix(1 0 0 1 51.1407 13.5002)" class="st10 st11">神奈川</text>
		<text transform="matrix(1 0 0 1 47.9742 19.8839)" class="st10 st11">総合高校</text>
	</g>
</g>
<polygon class="st20" points="205,159 229.4,159 229.3,181.5 204.9,181.5 "/>
<rect x="166.6" y="224.1" class="st20" width="31.5" height="17.4"/>
<g>
	<text transform="matrix(1 0 0 1 172.3422 232.4757)" class="st10 st11">放送部</text>
</g>
<g>
	<g>
		<path class="st21" d="M185.9,187.1h-8.1c-0.3,0-0.5,0.2-0.5,0.5v8.2c0,0.3,0.2,0.5,0.5,0.5h8.1c0.3,0,0.5-0.2,0.5-0.5v-8.2
			C186.4,187.3,186.2,187.1,185.9,187.1z M180.2,191.6l-0.1,3.3c0,0.3-0.3,0.5-0.6,0.5h-0.2c-0.3,0-0.6-0.2-0.6-0.5l-0.1-3.3
			c0-0.3,0.2-0.5,0.5-0.5h0.5C180,191,180.2,191.3,180.2,191.6z M179.4,190.6c-0.5,0-0.8-0.4-0.8-0.8s0.4-0.8,0.8-0.8
			c0.5,0,0.8,0.4,0.8,0.8S179.9,190.6,179.4,190.6z M182.7,191.6l-0.1,3.3c0,0.3-0.3,0.5-0.6,0.5h-0.2c-0.3,0-0.6-0.2-0.6-0.5
			l-0.1-3.3c0-0.3,0.2-0.5,0.5-0.5h0.5C182.5,191,182.7,191.3,182.7,191.6z M181.9,190.6c-0.5,0-0.8-0.4-0.8-0.8s0.4-0.8,0.8-0.8
			c0.5,0,0.8,0.4,0.8,0.8S182.4,190.6,181.9,190.6z M185.2,191.6l-0.1,3.3c0,0.3-0.3,0.5-0.6,0.5h-0.2c-0.3,0-0.6-0.2-0.6-0.5
			l-0.1-3.3c0-0.3,0.2-0.5,0.5-0.5h0.5C185,191,185.2,191.3,185.2,191.6z M184.4,190.6c-0.5,0-0.8-0.4-0.8-0.8s0.4-0.8,0.8-0.8
			c0.5,0,0.8,0.4,0.8,0.8S184.8,190.6,184.4,190.6z"/>
		<g>
			<polygon class="st21" points="179.4,186.3 179.4,184.1 178.8,184.7 178.1,184 179.9,182.3 180,182.4 181.7,184 181,184.7 
				180.4,184.1 180.4,186.3 			"/>
			<polygon class="st21" points="183.8,186.2 182.1,184.6 182.8,183.9 183.4,184.5 183.4,182.3 184.4,182.3 184.4,184.5 185,183.9 
				185.7,184.6 183.9,186.3 			"/>
		</g>
	</g>
	<g>
		<path class="st21" d="M38.8,60.1h-8.1c-0.3,0-0.5,0.2-0.5,0.5v8.2c0,0.3,0.2,0.5,0.5,0.5h8.1c0.3,0,0.5-0.2,0.5-0.5v-8.2
			C39.2,60.3,39,60.1,38.8,60.1z M33,64.6l-0.1,3.3c0,0.3-0.3,0.5-0.6,0.5h-0.2c-0.3,0-0.6-0.2-0.6-0.5l-0.1-3.3
			c0-0.3,0.2-0.5,0.5-0.5h0.5C32.8,64,33.1,64.3,33,64.6z M32.2,63.7c-0.5,0-0.8-0.4-0.8-0.8c0-0.5,0.4-0.8,0.8-0.8
			c0.5,0,0.8,0.4,0.8,0.8C33.1,63.3,32.7,63.7,32.2,63.7z M35.5,64.6l-0.1,3.3c0,0.3-0.3,0.5-0.6,0.5h-0.2c-0.3,0-0.6-0.2-0.6-0.5
			l-0.1-3.3c0-0.3,0.2-0.5,0.5-0.5H35C35.3,64,35.5,64.3,35.5,64.6z M34.7,63.7c-0.5,0-0.8-0.4-0.8-0.8c0-0.5,0.4-0.8,0.8-0.8
			c0.5,0,0.8,0.4,0.8,0.8S35.2,63.7,34.7,63.7z M38,64.6l-0.1,3.3c0,0.3-0.3,0.5-0.6,0.5h-0.2c-0.3,0-0.6-0.2-0.6-0.5l-0.1-3.3
			c0-0.3,0.2-0.5,0.5-0.5h0.5C37.8,64,38,64.3,38,64.6z M37.2,63.7c-0.5,0-0.8-0.4-0.8-0.8c0-0.5,0.4-0.8,0.8-0.8
			c0.5,0,0.8,0.4,0.8,0.8S37.6,63.7,37.2,63.7z"/>
		<g>
			<polygon class="st21" points="32.2,59.3 32.2,57.1 31.6,57.7 31,57 32.7,55.3 32.8,55.4 34.5,57 33.8,57.7 33.2,57.1 33.2,59.3 
							"/>
			<polygon class="st21" points="36.6,59.3 35,57.6 35.6,56.9 36.2,57.5 36.2,55.3 37.2,55.3 37.2,57.5 37.8,56.9 38.5,57.6 
				36.7,59.3 			"/>
		</g>
	</g>
	<g>
		<path class="st21" d="M190.2,202.3h-9c-0.5,0-1,0.4-1,1v9c0,0.5,0.4,1,1,1h9c0.5,0,1-0.4,1-1v-9
			C191.2,202.7,190.8,202.3,190.2,202.3z M187.4,203.9c0.4,0,0.7,0.3,0.7,0.7s-0.3,0.7-0.7,0.7s-0.7-0.3-0.7-0.7
			C186.8,204.1,187.1,203.9,187.4,203.9z M183.7,203.9c0.4,0,0.7,0.3,0.7,0.7s-0.3,0.7-0.7,0.7s-0.7-0.3-0.7-0.7
			C183,204.1,183.3,203.9,183.7,203.9z M184.7,208.6c0,0.1-0.1,0.2-0.2,0.2l-0.3,0.1l-0.1,2.6c0,0.1-0.2,0.3-0.3,0.3h-0.2
			c-0.2,0-0.3-0.1-0.3-0.3l-0.1-2.6l-0.3-0.1c-0.1,0-0.2-0.1-0.2-0.2l-0.1-2.7c0-0.2,0.1-0.3,0.3-0.3h1.6c0.2,0,0.3,0.1,0.3,0.3
			L184.7,208.6z M188.5,208.9h-0.6l-0.2,2.6c0,0.1-0.1,0.3-0.3,0.3h-0.1c-0.1,0-0.3-0.1-0.3-0.3l-0.2-2.6h-0.6
			c-0.2,0-0.4-0.2-0.3-0.4l0.7-1.5v-0.1l-0.3-1.1c0-0.1,0.1-0.3,0.2-0.3h1.5c0.1,0,0.3,0.1,0.2,0.3l-0.3,1.1c0,0,0,0,0,0.1l0.7,1.5
			C188.9,208.8,188.7,208.9,188.5,208.9z"/>
	</g>
	<g>
		<path class="st21" d="M186.9,46h-9c-0.5,0-1,0.4-1,1v9c0,0.5,0.4,1,1,1h9c0.5,0,1-0.4,1-1v-9C187.9,46.4,187.5,46,186.9,46z
			 M184.1,47.6c0.4,0,0.7,0.3,0.7,0.7s-0.3,0.7-0.7,0.7s-0.7-0.3-0.7-0.7C183.5,47.9,183.8,47.6,184.1,47.6z M180.4,47.6
			c0.4,0,0.7,0.3,0.7,0.7s-0.3,0.7-0.7,0.7s-0.7-0.3-0.7-0.7C179.7,47.9,180,47.6,180.4,47.6z M181.4,52.3c0,0.1-0.1,0.2-0.2,0.2
			l-0.3,0.1l-0.1,2.6c0,0.1-0.2,0.3-0.3,0.3h-0.2c-0.2,0-0.3-0.1-0.3-0.3l-0.1-2.6l-0.3-0.1c-0.1,0-0.2-0.1-0.2-0.2l-0.1-2.7
			c0-0.2,0.1-0.3,0.3-0.3h1.6c0.2,0,0.3,0.1,0.3,0.3L181.4,52.3z M185.2,52.6h-0.6l-0.2,2.6c0,0.1-0.1,0.3-0.3,0.3H184
			c-0.1,0-0.3-0.1-0.3-0.3l-0.2-2.6h-0.6c-0.2,0-0.4-0.2-0.3-0.4l0.7-1.5v-0.1l-0.3-1.1c0-0.1,0.1-0.3,0.2-0.3h1.5
			c0.1,0,0.3,0.1,0.2,0.3l-0.3,1.1c0,0,0,0,0,0.1l0.7,1.5C185.6,52.5,185.4,52.6,185.2,52.6z"/>
	</g>
	<g>
		<path class="st21" d="M224.6,74.7h-3.1c-0.1,0-0.2,0-0.2,0.1l-2,1.3l0,0l0,0l0,0l0,0l0,0l0,0l0,0l0,0l0,0l0,0l0,0l0,0l0,0l0,0l0,0
			l0,0l0,0l0,0l0,0l0,0l0,0l0,0V78l0,0l-2,1.3l0,0l0,0l0,0l0,0l0,0l0,0l0,0l0,0l0,0l0,0l0,0l0,0l0,0l0,0l0,0l0,0l0,0l0,0l0,0l0,0
			l0,0l0,0v1.6l-1.9,1.3l0,0l0,0l0,0l0,0l0,0l0,0l0,0l0,0l0,0l0,0l0,0l0,0l0,0l0,0l0,0l0,0l0,0l0,0l0,0l0,0l0,0l0,0v1.6l-1.9,1.3
			l0,0l0,0l0,0l0,0l0,0l0,0l0,0l0,0l0,0l0,0l0,0l0,0l0,0l0,0l0,0l0,0l0,0l0,0l0,0l0,0l0,0l0,0V87c0,0.2,0.2,0.4,0.4,0.4h11.4
			c0.2,0,0.4-0.2,0.4-0.4V74C225,74.9,224.9,74.7,224.6,74.7z M220,76.9h4.2V78H220V76.9z M224.2,80.1v1.1h-6.4v-1.1H224.2z
			 M224.2,83.4v1.1h-8.5v-1.1H224.2z M224.2,87.7h-10.6v-1.1h10.6V87.7z"/>
		<path class="st21" d="M218.9,74.8c-0.2-0.2-0.4-0.2-0.6,0l-9.2,8.4c-0.2,0.2-0.2,0.4,0,0.6c0.1,0.1,0.2,0.1,0.3,0.1s0.2,0,0.3-0.1
			l1.9-1.7v0.8h-0.5c-0.1,0-0.2,0.1-0.2,0.2s0.1,0.2,0.2,0.2h0.8c0.1,0,0.2-0.1,0.2-0.2v-1.5l4.2-3.9v0.9h-0.5
			c-0.1,0-0.3,0.1-0.3,0.3s0.1,0.3,0.3,0.3h0.8c0.1,0,0.3-0.1,0.3-0.3v-1.6l2.1-1.9C219.1,75.2,219.1,75,218.9,74.8z"/>
	</g>
	<g>
		<path class="st21" d="M152.3,74.7h-3.1c-0.1,0-0.2,0-0.2,0.1l-2,1.3l0,0l0,0l0,0l0,0l0,0l0,0l0,0l0,0l0,0l0,0l0,0l0,0l0,0l0,0l0,0
			l0,0l0,0l0,0l0,0l0,0l0,0l0,0V78l0,0l-2,1.3l0,0l0,0l0,0l0,0l0,0l0,0l0,0l0,0l0,0l0,0l0,0l0,0l0,0l0,0l0,0l0,0l0,0l0,0l0,0l0,0
			l0,0l0,0v1.6l-1.9,1.3l0,0l0,0l0,0l0,0l0,0l0,0l0,0l0,0l0,0l0,0l0,0l0,0l0,0l0,0l0,0l0,0l0,0l0,0l0,0l0,0l0,0l0,0v1.6l-1.9,1.3
			l0,0l0,0l0,0l0,0l0,0l0,0l0,0l0,0l0,0l0,0l0,0l0,0l0,0l0,0l0,0l0,0l0,0l0,0l0,0l0,0l0,0l0,0V87c0,0.2,0.2,0.4,0.4,0.4H153
			c0.2,0,0.4-0.2,0.4-0.4V74C152.7,74.9,152.5,74.7,152.3,74.7z M147.7,76.9h4.2V78h-4.2V76.9z M151.9,80.1v1.1h-6.4v-1.1H151.9z
			 M151.9,83.4v1.1h-8.5v-1.1H151.9z M151.9,87.7h-10.6v-1.1h10.6V87.7z"/>
		<path class="st21" d="M146.6,74.8c-0.2-0.2-0.4-0.2-0.6,0l-9.2,8.4c-0.2,0.2-0.2,0.4,0,0.6c0.1,0.1,0.2,0.1,0.3,0.1s0.2,0,0.3-0.1
			l1.9-1.7v0.8h-0.5c-0.1,0-0.2,0.1-0.2,0.2s0.1,0.2,0.2,0.2h0.8c0.1,0,0.2-0.1,0.2-0.2v-1.5l4.2-3.9v0.9h-0.5
			c-0.1,0-0.3,0.1-0.3,0.3s0.1,0.3,0.3,0.3h0.8c0.1,0,0.3-0.1,0.3-0.3v-1.6l2.1-1.9C146.7,75.2,146.8,75,146.6,74.8z"/>
	</g>
	<g>
		<path class="st21" d="M42.7,10.2h-3.1c-0.1,0-0.2,0-0.2,0.1l-2,1.3l0,0l0,0l0,0l0,0l0,0l0,0l0,0l0,0l0,0l0,0l0,0l0,0l0,0l0,0l0,0
			l0,0l0,0l0,0l0,0l0,0l0,0l0,0v1.5l0,0l-2,1.3l0,0l0,0l0,0l0,0l0,0l0,0l0,0l0,0l0,0l0,0l0,0l0,0l0,0l0,0l0,0l0,0l0,0l0,0l0,0l0,0
			l0,0l0,0V16l-1.9,1.3l0,0l0,0l0,0l0,0l0,0l0,0l0,0l0,0l0,0l0,0l0,0l0,0l0,0l0,0l0,0l0,0l0,0l0,0l0,0l0,0l0,0l0,0v1.6L31,21.4l0,0
			l0,0l0,0l0,0l0,0l0,0l0,0l0,0l0,0l0,0l0,0l0,0l0,0l0,0l0,0l0,0l0,0l0,0l0,0l0,0l0,0l0,0v1.9c0,0.2,0.2,0.4,0.4,0.4h11.4
			c0.2,0,0.4-0.2,0.4-0.4v-13C43.1,10.4,42.9,10.2,42.7,10.2z M38,12.4h4.2v1.1H38V12.4z M42.2,15.6v1.1h-6.4v-1.1H42.2z M42.2,18.9
			V20h-8.5v-1.1H42.2z M42.2,23.2H31.7v-1.1h10.6v1.1H42.2z"/>
		<path class="st21" d="M37,10.3c-0.2-0.2-0.4-0.2-0.6,0l-9.2,8.4c-0.2,0.2-0.2,0.4,0,0.6c0.1,0.1,0.2,0.1,0.3,0.1
			c0.1,0,0.2,0,0.3-0.1l1.9-1.7v0.8h-0.5c-0.1,0-0.2,0.1-0.2,0.2s0.1,0.2,0.2,0.2H30c0.1,0,0.2-0.1,0.2-0.2v-1.5l4.2-3.9v0.9h-0.5
			c-0.1,0-0.3,0.1-0.3,0.3c0,0.1,0.1,0.3,0.3,0.3h0.8c0.1,0,0.3-0.1,0.3-0.3v-1.6l2.1-1.9C37.1,10.7,37.1,10.5,37,10.3z"/>
	</g>
	<g>
		<path class="st21" d="M223.3,186h-3.1c-0.1,0-0.2,0-0.2,0.1l-2,1.3l0,0l0,0l0,0l0,0l0,0l0,0l0,0l0,0l0,0l0,0l0,0l0,0l0,0l0,0l0,0
			l0,0l0,0l0,0l0,0l0,0l0,0l0,0v1.5l0,0l-2,1.3l0,0l0,0l0,0l0,0l0,0l0,0l0,0l0,0l0,0l0,0l0,0l0,0l0,0l0,0l0,0l0,0l0,0l0,0l0,0l0,0
			l0,0l0,0v1.6l-1.9,1.3l0,0l0,0l0,0l0,0l0,0l0,0l0,0l0,0l0,0l0,0l0,0l0,0l0,0l0,0l0,0l0,0l0,0l0,0l0,0l0,0l0,0l0,0v1.6l-1.9,1.3
			l0,0l0,0l0,0l0,0l0,0l0,0l0,0l0,0l0,0l0,0l0,0l0,0l0,0l0,0l0,0l0,0l0,0l0,0l0,0l0,0l0,0l0,0v1.9c0,0.2,0.2,0.4,0.4,0.4H224
			c0.2,0,0.4-0.2,0.4-0.4v-13C223.7,186.1,223.5,186,223.3,186z M218.7,188.1h4.2v1.1h-4.2V188.1z M222.9,191.4v1.1h-6.4v-1.1H222.9
			z M222.9,194.6v1.1h-8.5v-1.1H222.9z M222.9,198.9h-10.6v-1.1h10.6V198.9z"/>
		<path class="st21" d="M217.6,186.1c-0.2-0.2-0.4-0.2-0.6,0l-9.2,8.4c-0.2,0.2-0.2,0.4,0,0.6c0.1,0.1,0.2,0.1,0.3,0.1
			s0.2,0,0.3-0.1l1.9-1.7v0.8h-0.5c-0.1,0-0.2,0.1-0.2,0.2c0,0.1,0.1,0.2,0.2,0.2h0.8c0.1,0,0.2-0.1,0.2-0.2v-1.5l4.2-3.9v0.9h-0.5
			c-0.1,0-0.3,0.1-0.3,0.3c0,0.1,0.1,0.3,0.3,0.3h0.8c0.1,0,0.3-0.1,0.3-0.3v-1.6l2.1-1.9C217.7,186.5,217.7,186.2,217.6,186.1z"/>
	</g>
	<g>
		<g>
			<path class="st21" d="M146,48.6c0,0.2,0.1,0.3,0.3,0.3h1.7c0.2,0,0.3-0.1,0.3-0.3v-0.4c0-0.2-0.1-0.3-0.3-0.3h-1.7
				c-0.2,0-0.3,0.1-0.3,0.3V48.6z"/>
		</g>
		<g>
			<path class="st21" d="M153.3,44.6h-0.4c-0.2,0-0.3,0.1-0.3,0.3l0,0h-0.7c-0.2-0.3-0.6-0.6-1.1-0.7V44c0,0,0,0,0.1-0.1l1.5,0.1
				c0.2,0,0.3-0.1,0.3-0.3v-0.1c0-0.2-0.1-0.3-0.3-0.3l-1.4,0.1c-0.1-0.2-0.3-0.3-0.5-0.3s-0.4,0.1-0.5,0.3l-1.6-0.1
				c-0.2,0-0.3,0.1-0.3,0.3v0.1c0,0.2,0.1,0.3,0.3,0.3l1.6-0.1l0,0c0,0,0,0.1,0.1,0.1v0.3c-0.4,0.1-0.8,0.3-1.1,0.7h-0.9
				c-1,0-1.8,0.8-1.8,1.8v0.8h1.6v-0.8c0-0.1,0.1-0.2,0.2-0.2h0.8c0.3,0.5,0.9,0.9,1.5,0.9c0.7,0,1.3-0.4,1.5-0.9h0.6l0,0
				c0,0.2,0.1,0.3,0.3,0.3h0.4c0.2,0,0.3-0.1,0.3-0.3v-1.7C153.6,44.8,153.4,44.6,153.3,44.6z M148,45.6c-0.6,0-1.1,0.5-1.1,1.1
				c0,0.1-0.1,0.1-0.1,0.1c-0.1,0-0.1-0.1-0.1-0.1c0-0.4,0.1-0.7,0.4-1c0.3-0.3,0.6-0.4,1-0.4c0.1,0,0.1,0.1,0.1,0.1
				C148.2,45.5,148.1,45.6,148,45.6z"/>
		</g>
		<g>
			<path class="st21" d="M146.8,55.6c-0.4,0-0.8-0.3-0.9-0.6c-0.6,0-1.1-0.1-1.2-0.5c0-0.1,0-0.3,0.1-0.4c-0.5-0.2-0.8-0.6-0.8-1
				c0-0.3,0.2-0.5,0.6-0.6c0.2-0.1,0.4-0.1,0.6-0.1c0-0.1,0-0.2,0-0.3c0.1-0.2,0.4-0.4,0.7-0.3v-2.2c0-0.1,0.1-0.2,0.2-0.2
				c0.1,0,0.2,0.1,0.2,0.2V52c0,0.1,0,0.1-0.1,0.2c-0.1,0-0.1,0-0.2,0c-0.3-0.1-0.5,0-0.5,0s0,0.1,0.1,0.2c0.1,0.1,0.1,0.2,0,0.2
				c0,0.1-0.1,0.1-0.2,0.1c-0.6-0.1-1.1,0.1-1.1,0.3s0.3,0.5,0.8,0.7c0.1,0,0.1,0.1,0.1,0.2c0,0.1,0,0.1-0.1,0.2
				c-0.1,0.1-0.2,0.2-0.2,0.3s0.4,0.3,0.9,0.2c0.1,0,0.1,0,0.2,0l0.1,0.1c0,0.3,0.3,0.5,0.5,0.5s0.4-0.1,0.5-0.3
				c0-0.1,0.1-0.1,0.1-0.1c0.1,0,0.1,0,0.2,0c0.1,0,0.1,0.1,0.2,0.1c0.2,0.1,0.5,0.1,0.7,0.1c0.1,0,0.3-0.1,0.3-0.2
				c0-0.1,0-0.2,0-0.3s0-0.1,0-0.2c0-0.1,0.1-0.1,0.1-0.1c0.4-0.1,0.6-0.3,0.6-0.3c0-0.1-0.2-0.3-0.7-0.3c-0.1,0-0.1-0.1-0.2-0.2
				c0-0.1,0-0.2,0.1-0.2c0.3-0.2,0.5-0.5,0.4-0.6c-0.1-0.2-0.6-0.3-1.2-0.1c-0.1,0-0.1,0-0.2,0c-0.1,0-0.1-0.1-0.1-0.2v-2.7
				c0-0.1,0.1-0.2,0.2-0.2c0.1,0,0.2,0.1,0.2,0.2V52c0.7-0.2,1.3,0,1.4,0.5c0.1,0.3,0,0.6-0.2,0.9c0.4,0.1,0.6,0.4,0.6,0.6
				c0,0.3-0.3,0.6-0.7,0.7c0,0.1,0,0.3,0,0.4c-0.1,0.2-0.3,0.4-0.6,0.5s-0.6,0-0.9-0.1h-0.1C147.4,55.4,147.1,55.6,146.8,55.6z"/>
		</g>
		<g>
			<path class="st21" d="M151.1,53c-0.5,0-0.8-0.4-0.8-0.8c0-0.5,0.4-0.8,0.8-0.8s0.8,0.4,0.8,0.8C152,52.6,151.6,53,151.1,53z
				 M151.1,51.6c-0.3,0-0.5,0.2-0.5,0.5s0.2,0.5,0.5,0.5s0.5-0.2,0.5-0.5C151.6,51.9,151.4,51.6,151.1,51.6z"/>
		</g>
		<g>
			<path class="st21" d="M150.2,55.7c-0.3,0-0.5-0.2-0.5-0.5s0.2-0.5,0.5-0.5s0.5,0.2,0.5,0.5C150.6,55.5,150.4,55.7,150.2,55.7z
				 M150.2,55c-0.1,0-0.2,0.1-0.2,0.2s0.1,0.2,0.2,0.2s0.2-0.1,0.2-0.2S150.3,55,150.2,55z"/>
		</g>
		<g>
			<path class="st21" d="M142.9,53.9c-0.4,0-0.7-0.3-0.7-0.7s0.3-0.7,0.7-0.7s0.7,0.3,0.7,0.7S143.3,53.9,142.9,53.9z M142.9,52.7
				c-0.2,0-0.4,0.2-0.4,0.4s0.2,0.4,0.4,0.4s0.4-0.2,0.4-0.4C143.3,52.9,143.1,52.7,142.9,52.7z"/>
		</g>
		<g>
			<path class="st21" d="M143.8,51.5c-0.3,0-0.5-0.2-0.5-0.5s0.2-0.5,0.5-0.5s0.5,0.2,0.5,0.5S144.1,51.5,143.8,51.5z M143.8,50.8
				c-0.1,0-0.2,0.1-0.2,0.2s0.1,0.2,0.2,0.2s0.2-0.1,0.2-0.2S143.9,50.8,143.8,50.8z"/>
		</g>
		<g>
			<path class="st21" d="M145.1,56.1c-0.2,0-0.4-0.2-0.4-0.4s0.2-0.4,0.4-0.4s0.4,0.2,0.4,0.4C145.4,55.9,145.3,56.1,145.1,56.1z
				 M145.1,55.6c-0.1,0-0.1,0.1-0.1,0.1c0,0.1,0.1,0.1,0.1,0.1l0.1-0.1C145.2,55.6,145.1,55.6,145.1,55.6z"/>
		</g>
	</g>
</g>
<g>
	<text transform="matrix(1 0 0 1 139.4865 12.9499)" class="st10 st11">デザイン科</text>
	<text transform="matrix(1 0 0 1 146.3002 19.8839)" class="st10 st11">1年</text>
</g>
<g>
	<text transform="matrix(1 0 0 1 79.872 13.8411)" class="st10 st11">電気科</text>
	<text transform="matrix(1 0 0 1 79.872 20.0589)" class="st10 st11">2年2組</text>
</g>
<g>
	<text transform="matrix(1 0 0 1 207.649 165.7823)" class="st10 st11">電気科</text>
	<text transform="matrix(1 0 0 1 207.649 172.0001)" class="st10 st11">2年1組</text>
</g>
<text transform="matrix(1 0 0 1 135.7998 175.611)"><tspan x="0" y="0" class="st22 st23">栞とキーホルダー</tspan><tspan x="7.5" y="3.5" class="st22 st23">の販売</tspan><tspan x="10.5" y="7" class="st22 st23">・</tspan><tspan x="0" y="10.5" class="st22 st23">ゲームや映像作品</tspan><tspan x="7.5" y="14" class="st22 st23">の展示</tspan></text>
<text transform="matrix(1 0 0 1 140.2998 232.2777)"><tspan x="0" y="0" class="st22 st23">電気工事の</tspan><tspan x="0" y="3.5" class="st22 st23">体験と展示</tspan></text>
<text transform="matrix(1 0 0 1 168.35 237.2777)" class="st22 st23">ステージ制作と展示</text>
<text transform="matrix(1 0 0 1 210.2004 175.9443)"><tspan x="0" y="0" class="st22 st23">総合ゲーム</tspan><tspan x="1.5" y="3.5" class="st22 st23">センター</tspan></text>
<text transform="matrix(1 0 0 1 211.7004 113.7777)" class="st22 st23">作品展示</text>
<text transform="matrix(1 0 0 1 211.7004 145.4444)" class="st22 st23">作品展示</text>
<text transform="matrix(1 0 0 1 141.6167 130.9497)"><tspan x="0" y="0" class="st22 st23">ジオラマ</tspan><tspan x="0" y="3.5" class="st22 st23">鉄道部品</tspan><tspan x="1.5" y="7" class="st22 st23">グッズ</tspan><tspan x="1.5" y="10.5" class="st22 st23">の展示</tspan><tspan x="4.5" y="14" class="st22 st23">・</tspan><tspan x="-7.5" y="17.5" class="st22 st23">鉄道シュミレーター</tspan><tspan x="3" y="21" class="st22 st23">体験</tspan></text>
<text transform="matrix(1 0 0 1 48 25.1667)" class="st22 st23">学校の紹介と展示</text>
<text transform="matrix(1 0 0 1 84.3333 24.1668)"><tspan x="0" y="0" class="st22 st23">ジオラマ</tspan><tspan x="-4.5" y="3.5" class="st22 st23">プラネタリウム</tspan></text>
<text transform="matrix(1 0 0 1 108.3998 24.1668)" class="st22 st23">映画作品の上映</text>
<text transform="matrix(1 0 0 1 106.1408 59.2998)" class="st22 st23">写真展示</text>
<text transform="matrix(1 0 0 1 148.0272 24.1668)" class="st22 st23">カフェ</text>
</svg>
